<svg id="Layer_1" data-name="Layer 1" xmlns="http://www.w3.org/2000/svg" viewBox="0 0 1080 825.59"><defs><style>.cls-1{fill:#d1d6e0;}.cls-2,.cls-4{fill:none;}.cls-2,.cls-4,.cls-7,.cls-8,.cls-9{stroke:#314b78;}.cls-2,.cls-7,.cls-8,.cls-9{stroke-linecap:round;stroke-linejoin:round;}.cls-3{fill:#314b78;}.cls-4{stroke-miterlimit:10;stroke-width:2px;}.cls-5,.cls-8{fill:#d4e499;}.cls-6,.cls-9{fill:#fff;}.cls-7{fill:#5d7094;}.cls-7,.cls-8,.cls-9{stroke-width:1.1px;}</style></defs><path class="cls-1" d="M1080,1080.11H0S98.06,956.93,503.49,937.28c0,0,339.16-1.62,576.51,39.91" transform="translate(0 -254.51)"/><path class="cls-2" d="M762.32,843a27.47,27.47,0,0,1-8.59,9.24c-5.52,3.47-48.45,49.7-56.42,70.5S691.79,954,693.63,958s9.23,12.33,18.4,13.3c8,.84,34.14.84,34.14.84" transform="translate(0 -254.51)"/><path class="cls-2" d="M779.38,880s-31.08,52.91-34.24,61.83c-6.13,17.34-.24,30.16,4.91,36.31,6.13,7.32,21.85,8.77,29.33,8.77s97-23.7,110.5-24.27,28.21,0,30.67-1.74,7.36-17.33,0-27.45c0,0-17.18-3.75-31.28-6.64s-33.73-2.89-41.09,0-15.06,11.56-13.67,6.64,24.09-38.42,26.55-47.67,6.13-22.54,3.06-29.47" transform="translate(0 -254.51)"/><path class="cls-2" d="M922.31,958.06s13.72-2.57,25.22,0" transform="translate(0 -254.51)"/><path class="cls-2" d="M922.31,936.54s3.6-.61,5.44-2.78" transform="translate(0 -254.51)"/><path class="cls-3" d="M930.67,921.63s-5.68,8.09-4.3,10.11,12,8.09,15,8.38,9.5-2,13.18,0-5.82,9-7.05,12.14.31,11.55,3.37,11.84,18.71-1.44,32.82,3.76,25.74,5.78,25.75,0c0-2.6-7.36-6.88-13.49-9.8s-20.56-14.47-22.7-15-8.27,3.76-9.19,1.44,1.23-4.26-1.53-7.91-5.52-8-15-13.18S930.67,921.63,930.67,921.63Z" transform="translate(0 -254.51)"/><path class="cls-2" d="M930.67,921.63s-2.15-6.94,1.22-9.25,12-3.75,23.31,0,14.1,9.83,14.41,13.58-1.25,6.94,3.67,6.36,7.68-1,12.58,2.83,24.23,20.34,26.37,22.91,2.76,7.78-2.76,9.8" transform="translate(0 -254.51)"/><path class="cls-2" d="M914.1,932.07l-9.19-8.13s-20.24-10.69-36.8-12.43-21.87,1.64-21.87,1.64" transform="translate(0 -254.51)"/><path class="cls-3" d="M909.2,916.72l-2.7,8.63,9.14,6.72,4.91,1.4a13.87,13.87,0,0,1,2.21,4s5.26-2.74,6-3.75c0,0-3.9-1.81-2.57-4.33s3.83-7.88,3.83-7.88S919.32,915.85,909.2,916.72Z" transform="translate(0 -254.51)"/><path class="cls-2" d="M935.8,910.77s-3.91-5.61-17.56-7.06S904.6,908.5,905.37,911a33.77,33.77,0,0,0,3.54,6.61" transform="translate(0 -254.51)"/><path class="cls-4" d="M816.67,939c-1.73,4.67-2.14,9.81-.66,11.26,5.52,5.44,27.11-15.37,58.39-12.72S925,942.43,925,942.43" transform="translate(0 -254.51)"/><path class="cls-2" d="M755.26,729.63s4.14,4.77,0,4.77-6.44.43-3.22,3.9-2.76,32.5-5.06,41.6-8.73,39.88-7.82,45.08,5.52,13.58,29.9,18.06,60.72,3.61,75-2.89" transform="translate(0 -254.51)"/><path class="cls-2" d="M827.48,733.1a28.5,28.5,0,0,0,6.13,3.46s-3.68,2.17-3.06,4.77,7.51,17.34,8.89,21.67,3.68,8.24,12.42,5.2,33.12-14.3,35.88-22.54-6-10-12-16-17.94-24.27-33.58-31.21-27.06-5.63-27.06-5.63-4.77,14.73-23.58,14.3-17.44-8.67-17.44-8.67-15.64,2.6-25.3,10.4c0,0-17.8,18.64-21.77,20.81s-7.2,5.63-10,6.07-4.6,4.33,0,8.23,19.78,14.3,32.65,16.9" transform="translate(0 -254.51)"/><path class="cls-2" d="M849.1,769.28s15.18,25.79,15.64,28.39-24.84,50.13-28.52,58.66-11.5,29.32-16.56,31.93-13.8,3.9-13.34,6.5.46,3,3.22,3,9.66-.43,9.2,0-12.44,27.74-12.44,27.74-1.85,3.47,0,4.12,3.7.21,5.54-3.69,9.66-17.77,11-17.12-8.51,23.41-9,24.92-.75,3.61,1.23,3.75,4.06-2.14,5.67-5.44,9.43-17.16,9.43-17.16" transform="translate(0 -254.51)"/><path class="cls-2" d="M817.82,937.52s-.46,2.53,1.84,2.74,6-5.85,7.59-9.1,8.51-14.77,9.2-14.53-4.68,16.68-1.94,16.84,5.22-7,7.26-13,5.72-23.36,5.72-27-1.84-12.14,2.76-19.94,31.74-41.61,39.1-57.86,6.2-19.72,4.82-24S882,758.48,878.56,754.89" transform="translate(0 -254.51)"/><path class="cls-3" d="M795.65,676.06s9.31,9.74,12.45,13.78c0,0,18.31-8.32,23.21-12.08s5.83-3.17,5.83-7.8,1.84-5.2,4-2,2.75,4,6.74,1.73,10.12-4.91,4.29-17.33-15.09-26.87-17-34.39c0,0-5.39,8.38-9.81,9.25,0,0-6.94-1.73-7.52-5.2,0,0,8.93-13.29,12-14.45,0,0-6.13-18.49-15.64-25.42S792.37,569.7,778,571.43s-31.15,8.67-38.88,15-15.09,18.2-9.88,30.63l.87,11.54,6.49,4.06.61-8.09s3.37,4.91,4.6,4.62,8.59-2,9.81-4,2.15-6.65,3.07-5.2.31,4.62,3.07,4.62,13,.29,21.66-.29,15.44-2.31,16-4.33,2.76-9.25,3.38-6.65a48.23,48.23,0,0,0,2.46,6.65,44.41,44.41,0,0,0,4.21-1.74c1-.58,5,11.85,5.59,17.63S811.6,663.06,795.65,676.06Z" transform="translate(0 -254.51)"/><path class="cls-3" d="M735.64,640.78h-4.91s-.13,21.09-3.28,30.63-2.45,16.76,4.09,19.64,10.23,5.49,12.38,4.05,1.22-4.62,3.68-4.05.92,6.07,5.21,6.65,17.17.58,21.47-1.44c0,0-.31-11.56-2.76-13.87,0,0-16.56-1.45-24.23-10.69S737.78,652.34,735.64,640.78Z" transform="translate(0 -254.51)"/><path class="cls-2" d="M736.56,632.69S724.91,624,719.39,626s1.22,13,16.25,14.74Z" transform="translate(0 -254.51)"/><path class="cls-2" d="M817.78,622s9.17-16.18,17.33-15.89S834,624,825.3,627.2C825.3,627.2,819.89,626,817.78,622Z" transform="translate(0 -254.51)"/><path class="cls-2" d="M767.91,683.94s19.78,2.2,33.36-10.51" transform="translate(0 -254.51)"/><path class="cls-5" d="M741.61,651.74c.45,2,3.69.18,8-.69s8-.5,7.59-2.46-4.9-5.5-9.2-4.63S741.17,649.78,741.61,651.74Z" transform="translate(0 -254.51)"/><path class="cls-5" d="M795.65,647.4c-.06,2-3.59.8-8,.67s-8,.87-7.93-1.13,3.77-6.23,8.17-6.11S795.72,645.4,795.65,647.4Z" transform="translate(0 -254.51)"/><path class="cls-2" d="M783.78,625.74s10.73,2.33,12.27,3.48,5.21-1.19,2.14-3.48a60.67,60.67,0,0,1-4.88-4Z" transform="translate(0 -254.51)"/><path class="cls-2" d="M741.77,629.22s-2.91,2.87-1.53,4,10.73-3.17,11.34-4,.34-4.06-.5-3.48S745,629.08,741.77,629.22Z" transform="translate(0 -254.51)"/><path class="cls-3" d="M744,638.46a5.51,5.51,0,0,1,2.63-2.17,6.92,6.92,0,0,1,3.49-.46,8.87,8.87,0,0,1,3.27,1.15c.49.3.94.65,1.39,1s.82.79,1.18,1.21c-.53-.21-1-.47-1.5-.71l-1.48-.65c-.52-.14-1-.4-1.5-.49-.26-.06-.5-.15-.75-.2l-.76-.11A8.64,8.64,0,0,0,744,638.46Z" transform="translate(0 -254.51)"/><path class="cls-3" d="M790.52,637a8.61,8.61,0,0,0-6-1.44l-.76.11c-.25.06-.5.15-.75.2a14.65,14.65,0,0,0-1.5.5l-1.48.64c-.49.25-1,.5-1.51.72.37-.43.78-.82,1.19-1.21a15.2,15.2,0,0,1,1.39-1,8.89,8.89,0,0,1,3.27-1.16,6.94,6.94,0,0,1,3.49.46A5.5,5.5,0,0,1,790.52,637Z" transform="translate(0 -254.51)"/><path class="cls-2" d="M762.16,639.18l-.92,13.44s0,2.9,2.07,2.9,5.75.21,5.75-1.74-1.61-14.6-1.61-14.6S764.23,635.85,762.16,639.18Z" transform="translate(0 -254.51)"/><path class="cls-3" d="M767.91,666.13c1.44-.3,2.84-.64,4.2-1a23.34,23.34,0,0,0,3.91-1.53,13.61,13.61,0,0,0,3.35-2.36,12.79,12.79,0,0,0,2.34-3.52,8,8,0,0,1-1.57,4.18,10.74,10.74,0,0,1-3.53,2.86,14.32,14.32,0,0,1-4.28,1.35A14,14,0,0,1,767.91,666.13Z" transform="translate(0 -254.51)"/><path class="cls-2" d="M812.18,698s27.41,1.12,39.68,20.76a313,313,0,0,1,20.67,39.81" transform="translate(0 -254.51)"/><path class="cls-2" d="M774.81,701.29s-20,6.52-34.94,23.28-19.7,21.75-19.7,21.75" transform="translate(0 -254.51)"/><path class="cls-2" d="M725.63,750s-31.4,49.13-33.86,49" transform="translate(0 -254.51)"/><line class="cls-2" x1="749.43" y1="514.37" x2="728.51" y2="544.48"/><path class="cls-2" d="M774.28,700s2.16-10.81-.88-15.31" transform="translate(0 -254.51)"/><path class="cls-2" d="M798.28,677.31s7.42,13.75,19.5,15.39" transform="translate(0 -254.51)"/><path class="cls-2" d="M574.66,473.16s-30-21.35-36.74-23.08S569.74,433.32,582,428.7s37.42-20.23,60.73-23.69c10.35-1.54,27.49-6.36,27.49-6.36s1.43,31.78,35.42,28.89,30.92-28.89,30.92-28.89,32.65,4.62,45.15,10.4,29.59,28.9,36.07,41,17.14,42.76,17.33,45.65-27.42,24.5-60.83,23.81" transform="translate(0 -254.51)"/><path class="cls-2" d="M765.15,468s-2.69,9.82,0,11.55,7,.58,3.91,5.78,1.22,16.76,2.46,24.27S778,571.43,778,571.43" transform="translate(0 -254.51)"/><path class="cls-2" d="M774.81,532.86s8.65,24.27,9.73,27.74-2.83,10.83-2.83,10.83" transform="translate(0 -254.51)"/><path class="cls-2" d="M819.46,507.83s14,39.77,12.17,51.47-10.86,30-10.86,30" transform="translate(0 -254.51)"/><path class="cls-2" d="M614.33,629.53a140.31,140.31,0,0,1,0,14.3c-.43,5.62,7.4,2.84,11.77,2.78s18.83,6.29,52.07,6,52.32-4.07,52.32-4.07" transform="translate(0 -254.51)"/><path class="cls-2" d="M622,648.22s-.13,65.95,0,70.57,2,27.69,0,36.1,4.23,14.68,5.41,19.63S621.56,790.79,622,799s-.89,22.49-.89,22.49" transform="translate(0 -254.51)"/><path class="cls-2" d="M641.63,967.86s10,1.15,15.82,0" transform="translate(0 -254.51)"/><path class="cls-2" d="M643.45,956.92s10.26,5,14.58,0" transform="translate(0 -254.51)"/><path class="cls-2" d="M689.15,692.69s10.92,2.37,8.16,8.6.9,9.7.45,14.9a223.37,223.37,0,0,0,0,24.27c.43,6.94.09,40.73.09,40.73" transform="translate(0 -254.51)"/><path class="cls-2" d="M614.5,594.29s4.73-23.9,4.93-30.51" transform="translate(0 -254.51)"/><path class="cls-2" d="M681.79,383.05s-2.39,18.49-9.38,22" transform="translate(0 -254.51)"/><path class="cls-2" d="M720.62,375.54s2.31,26,15.57,29.47" transform="translate(0 -254.51)"/><path class="cls-3" d="M650.86,329.39s.46,13.21-2.3,16.24-2.15,3.9,1.22,6.5,4.76,6.94,3.84,9.54,1.38,6.93,6.44,8.66,17,13.44,29,15.61,22.54.72,24.84-2.89a44.69,44.69,0,0,1,11.5-12.28c5.06-3.47,9.21-5.2,10.82-14.3s-1.15-13.87,0-18.64.69-9.54,0-10.84-.24-10.83,3.9-13.43c0,0,5.06-20.37,5.06-24.27s-2.29-16.47-9-21.67-15-8.24-21.4-8.24-9.1,4.77-16.51,1.3-14-9.1-25.87-4.33-7.29,8.67-10,11.27-17.94,6.06-13.8,14.73,6.74,7.37,8.89,7.37,14.56-3.47,21.92-5.63,12.06-3.47,18.91-2.17,22.49,4.77,28,5.63,6.9,5.2,6.9,10.41-1.38,20.85-1.84,22.77S719,336.1,698.28,333.49c0,0-1.43,4.77-8.1,5s-9.43-4.12-8.39-5c0,0-8.4-.21-13.46-3s-6.9-1.95-9.66-3-3.45-7.13-4.6-6.7S650.59,327.27,650.86,329.39Z" transform="translate(0 -254.51)"/><path class="cls-2" d="M691.1,305c-2,0-4.25,0-5,3.36-.87,4.05-4.33,25.13-4.33,25.13s.8,4.1,7.24,5,9.25-5,9.25-5L696,307.71S695.47,304.94,691.1,305Z" transform="translate(0 -254.51)"/><path class="cls-2" d="M658.67,301.18c-.92,1.77-5.64,21.87-4.72,22.6" transform="translate(0 -254.51)"/><path class="cls-2" d="M740.09,313.56s5.67-9.39,12.73-5.35S748,326.3,736.75,329.39C736.75,329.39,734.42,316.59,740.09,313.56Z" transform="translate(0 -254.51)"/><path class="cls-2" d="M665.81,298.82s-6.37,2.39-8.36,2.6-5.54-4.11-3.54-7.15,12.13-4.33,15.81-4.12,6,2,5.74,4.55S665.81,298.82,665.81,298.82Z" transform="translate(0 -254.51)"/><path class="cls-2" d="M722.38,294.49s-9.66-3.52-14.26-4.36-7,4.57-4.47,6.73c1.55,1.31,16.2,3.26,18.73,5.43S729.09,296.77,722.38,294.49Z" transform="translate(0 -254.51)"/><path class="cls-3" d="M661.31,310.69a7.31,7.31,0,0,1,3-2.52,10.21,10.21,0,0,1,3.84-1,11.9,11.9,0,0,1,3.9.52,19.06,19.06,0,0,1,1.82.71c.57.31,1.13.63,1.66,1-.64-.11-1.25-.29-1.86-.44s-1.22-.26-1.83-.35-1.21-.2-1.82-.2a13.7,13.7,0,0,0-1.81,0A13.11,13.11,0,0,0,661.31,310.69Z" transform="translate(0 -254.51)"/><path class="cls-3" d="M719.21,312.61a12.81,12.81,0,0,0-6.52-3.08,13.54,13.54,0,0,0-1.8-.17c-.61-.07-1.21,0-1.83,0s-1.23.11-1.86.14-1.24.18-1.89.23a18.6,18.6,0,0,1,1.76-.8c.62-.17,1.24-.39,1.88-.5a11.77,11.77,0,0,1,3.93-.07,9.81,9.81,0,0,1,3.7,1.41A7.13,7.13,0,0,1,719.21,312.61Z" transform="translate(0 -254.51)"/><path class="cls-5" d="M660.61,321.81c.45,1.95,3.69.18,8-.69s8-.5,7.59-2.46-4.9-5.5-9.2-4.63S660.17,319.85,660.61,321.81Z" transform="translate(0 -254.51)"/><path class="cls-5" d="M720.36,322.89c-.43,1.95-3.68.19-8-.66s-8-.46-7.6-2.42,4.87-5.52,9.18-4.67S720.8,320.93,720.36,322.89Z" transform="translate(0 -254.51)"/><path class="cls-6" d="M690,353.21a46.06,46.06,0,0,0,6.24-.44,33.86,33.86,0,0,0,6-1.4,22.84,22.84,0,0,0,5.48-2.68l1.25-.89c.4-.32.77-.68,1.16-1l.6-.5.52-.58c.34-.39.7-.77,1.07-1.15a15.6,15.6,0,0,1-4,4.9,18.93,18.93,0,0,1-5.66,3.06,25.07,25.07,0,0,1-6.28,1.19A22.37,22.37,0,0,1,690,353.21Z" transform="translate(0 -254.51)"/><path class="cls-2" d="M736.28,407.61s40.6,6.06,51.41,22.1,26,44.44,37.94,74.44" transform="translate(0 -254.51)"/><path class="cls-2" d="M672.15,407.61s-31.82,3.9-59.9,17.77-63.34,30.5-63.34,30.5" transform="translate(0 -254.51)"/><path class="cls-2" d="M544,453s-31.89,32.36-37.41,43.92-2.45,13.87,0,16.76,10.15,10.4,19.79,13.29,68.52,1.15,85.7,0,28.82-2.31,28.82-2.31,2.45-6.94,4.91-6.94" transform="translate(0 -254.51)"/><path class="cls-2" d="M544,475.51s28.21-6.94,51.52,2.89,51.51,24.85,60.71,27.16,22.08,6.35,25.15,10.4,2.45,6,9.2,12.56,8.58,10,7.36,12.29-4.91,2.31-8,0l-3.06-2.31s1.84,12.71,1.22,17.33S681.68,566,681.68,566" transform="translate(0 -254.51)"/><path class="cls-2" d="M680.14,543.12A28.67,28.67,0,0,1,681.68,555c-.62,6.35-2.46,20.51-2.76,22.39S678.3,585,674,585.3s-4.91-3.46-4.6-7.94,2.15-19.79,2.15-22.68.47-9.83-2.22-11.56" transform="translate(0 -254.51)"/><path class="cls-2" d="M640.89,524.63s-2.76,10.69,0,19.93,6.44,20.23,4.91,23.12-3.68,10.11-1.54,11.27,6.75,2.31,8-1.59,5.21-10.55,5.21-16.33V543.12" transform="translate(0 -254.51)"/><path class="cls-2" d="M657.08,564.22s-2.7,17.94-2.08,21.1,7.36,4.9,8.58,3.45,5.34-18.53,7.24-25.49" transform="translate(0 -254.51)"/><path class="cls-3" d="M290.24,533.29a1.84,1.84,0,0,1-1.71-1.09c-3-7.11-4.27-44.59-4.27-47a2.61,2.61,0,0,0-1.37-2.6,7,7,0,0,1-2.37-2.82c-.77-1.79-.13-3.66.42-5.3a6.08,6.08,0,0,0,.51-2.29c-2.52-2.15-1.39-5.4-.33-7a1.91,1.91,0,0,1,2.54-.54,1.68,1.68,0,0,1,.58,2.39h0s-1.14,1.86-.33,2.56c2,1.67,1.15,4.13.54,5.92-.37,1.09-.79,2.32-.52,3a3.63,3.63,0,0,0,1.32,1.45,5.92,5.92,0,0,1,2.69,5.27c0,5.48,1.5,39.81,4,45.73a1.69,1.69,0,0,1-1,2.25A1.78,1.78,0,0,1,290.24,533.29Z" transform="translate(0 -254.51)"/><path class="cls-3" d="M414,523.33a1.88,1.88,0,0,1-1.36-.58c-10.13-10.55-16.59-31.07-20.07-42.09a71.09,71.09,0,0,0-2.32-6.8c-.84-1.72-4.94-10.55-2.78-15.43.38-.86-2.2-2.83-4.6-3.89a1.69,1.69,0,0,1-.89-2.3,1.89,1.89,0,0,1,2.44-.84c.87.38,8.45,3.85,6.44,8.37-.95,2.15.2,7.46,2.74,12.63a73.9,73.9,0,0,1,2.5,7.27c3.39,10.76,9.7,30.78,19.27,40.76a1.67,1.67,0,0,1-.13,2.45A1.93,1.93,0,0,1,414,523.33Z" transform="translate(0 -254.51)"/><path class="cls-3" d="M298.06,416s-8.77,0-12.05,5.2-16.47,9.24-19.69,17.91-3.22,39.75-24.07,34-17.64-29.41-11-50.79a242.15,242.15,0,0,0,11-60.1c1.23-20.22,9.81-41.32,17.17-51.28s25.76-21.67,38.64-11.27c0,0,5.06-11.32,19.32-9.56s34.5,22.15,39.56,39.26c0,0-7.13,3.45-9.43,7.79,0,0-4.83-9.54-12-11.49s-26-5.2-33.35-14.73c0,0,1.77,11.92-10.62,18.2s-16.29,14.74-17.9,18.2-3.22,6.5-5.75,3.69-8.05-6.5-11.73-6.72-12.19,0-7.13,6.07,13.57,6.28,13.57,6.28-3.45,29.69,3,29.69,2.76-28.6,2.76-28.6,1.84,19.93,12,29.68a43.6,43.6,0,0,0,23,11.2S302.89,409.63,298.06,416Z" transform="translate(0 -254.51)"/><path class="cls-3" d="M269.66,364.71a1.79,1.79,0,0,1-1.83-1.6,5.22,5.22,0,0,0-1.76-3.91,4.81,4.81,0,0,0-3.15-.8c-.58-.06-9.77-.31-15.29-6.93-1.94-2.32-2.45-4.35-1.51-6,1.54-2.75,6.4-3.06,10.2-2.84,4.43.26,10.41,4.42,13,7.33a1.84,1.84,0,0,0,.59.5c.46-.3,1.67-2.9,2.07-3.76,1.74-3.75,5.79-12.48,18.71-19,11.06-5.61,9.73-16,9.67-16.44a1.71,1.71,0,0,1,1.14-1.84,1.9,1.9,0,0,1,2.17.59c5.9,7.64,20.07,11.08,28.54,13.13,1.48.36,2.78.67,3.83,1,7.83,2.14,12.9,12,13.11,12.4a1.69,1.69,0,0,1-.87,2.31,1.89,1.89,0,0,1-2.45-.81c-.05-.09-4.57-8.86-10.82-10.57-1-.28-2.28-.59-3.72-.94-7.71-1.86-19.92-4.82-27.41-11.15-.64,4.45-3.07,11.17-11.44,15.42-11.81,6-15.51,13.95-17.09,17.35-1.44,3.11-2.72,5.5-5.06,5.82a4.23,4.23,0,0,1-3.78-1.69c-2.41-2.69-7.5-5.94-10.44-6.11-4.07-.24-6.41.45-6.71,1-.09.15,0,.85,1.14,2.27,4.44,5.32,12.1,5.62,12.18,5.62a8.32,8.32,0,0,1,5.66,1.53,8.41,8.41,0,0,1,3.13,6.36,1.77,1.77,0,0,1-1.69,1.87Z" transform="translate(0 -254.51)"/><path class="cls-3" d="M359.24,337s-2.53,6.72-8.51,7.8c0,0,13.1,21.24,8.51,26s-12.65-21.67-12.65-21.67,3.68,16.68-3.45,28.82-13.57,15.6-13.57,15.6l6.21,16.25s7.59-5,12.65,0,11.49,24.44,27.13,22,6.44-26.52,14.72-28.47,13.11,2.17,13.11,2.17-1.84-19.37-16.79-23.55-19.32-7.66-20.12-14.59S367.74,344.55,359.24,337Z" transform="translate(0 -254.51)"/><path class="cls-3" d="M311.08,401.48a28,28,0,0,1-8.14-1.13A45.37,45.37,0,0,1,279,388.67c-10.5-10.12-11.19-25-11.22-25.63a1.78,1.78,0,0,1,1.77-1.79,1.82,1.82,0,0,1,1.91,1.66c0,.14.68,14.19,10.17,23.33a41.86,41.86,0,0,0,21.9,10.69,1.55,1.55,0,0,1,.36.08c11.44,3.56,26.11-3.11,29-5.63a1.93,1.93,0,0,1,2.6.09,1.66,1.66,0,0,1-.1,2.45C332.75,396.26,322,401.48,311.08,401.48Z" transform="translate(0 -254.51)"/><path class="cls-3" d="M350.8,368a1.83,1.83,0,0,1-1.78-1.29c-.9-3.23-5.42-19.48-5.42-22a2.63,2.63,0,0,1,1.3-2.32c1.63-1,4.24-.22,6,.49C356,341.39,362.82,334,363,330.56c0-.63-.14-.86-.76-1.05-4.47-1.36-11.19,6-13.19,8.67a1.9,1.9,0,0,1-2.57.41,1.68,1.68,0,0,1-.44-2.41c.95-1.27,9.51-12.3,17.32-10a4.28,4.28,0,0,1,3.32,4.49c-.23,5.37-9.06,14.35-15.5,15.75a2.05,2.05,0,0,1-1.2-.12,13,13,0,0,0-2.57-.84c.48,2.85,2.88,12.05,5.21,20.36a1.73,1.73,0,0,1-1.31,2.12A2.42,2.42,0,0,1,350.8,368Z" transform="translate(0 -254.51)"/><path class="cls-3" d="M280.89,350a2.86,2.86,0,0,1-1.72-.55c-2.92-2.06-.39-6.35.38-7.52a11.48,11.48,0,0,1,7.12-6.22c2.76-.93,5.92-1.05,7.38-.27s3.51,3.18,3.08,5.61c-.18,1-1,2.81-4.26,3.38-2.12.36-4.47,1.85-6.55,3.16S282.49,350,280.89,350Zm.6-3.18h0Zm9.9-8.44c-2,0-6.74.81-8.49,5a1.46,1.46,0,0,1-.16.3,8.83,8.83,0,0,0-1.23,2.66,30.63,30.63,0,0,0,2.76-1.61c2.26-1.43,5.07-3.2,7.94-3.69.89-.16,1.26-.41,1.29-.53.1-.54-.76-1.75-1.25-2A3.17,3.17,0,0,0,291.39,338.4Zm-10.2,4.34h0Z" transform="translate(0 -254.51)"/><path class="cls-3" d="M337.2,341.27a4.09,4.09,0,0,1-1.86-.48c-2.22-1.17-7.77-2.44-12-3.13-2.23-.37-3.83-1.51-4.37-3.13-.37-1.09-.56-3.32,2.31-6,3.23-3,7.33-1.57,9.22-.27a52.55,52.55,0,0,1,8.06,4.24,5.43,5.43,0,0,1,1.49,7.26A3.44,3.44,0,0,1,337.2,341.27Zm-11.37-11.08a2.76,2.76,0,0,0-1.94.77c-1.18,1.12-1.56,2.07-1.4,2.52s.68.63,1.49.76c1.56.26,9.5,1.62,13.12,3.5a4.41,4.41,0,0,0,.07-.94,2.09,2.09,0,0,0-.81-1.55,51.86,51.86,0,0,0-7.54-3.93,2,2,0,0,1-.38-.21A5,5,0,0,0,325.83,330.19Z" transform="translate(0 -254.51)"/><path class="cls-3" d="M284,358.2a4.71,4.71,0,0,1,1.74-3.55,8.56,8.56,0,0,1,3.58-1.87,8.79,8.79,0,0,1,7.58,1.47,17.55,17.55,0,0,1-3.48,1.37c-1.07.38-2.1.55-3.07.85s-1.94.47-3,.7S285.28,357.7,284,358.2Z" transform="translate(0 -254.51)"/><path class="cls-3" d="M323.36,350.83a5,5,0,0,1,2-3.21,8,8,0,0,1,3.52-1.6,7.5,7.5,0,0,1,7.08,2.26,22.87,22.87,0,0,1-3.43.92c-1,.21-2,.38-2.88.56Z" transform="translate(0 -254.51)"/><path class="cls-3" d="M303.43,381a60,60,0,0,0,10.26-.39,24,24,0,0,0,4.59-1.08c1.6-.47,3.13-1.21,5.08-1.86a9.26,9.26,0,0,1-3.34,4.66,11.9,11.9,0,0,1-5.63,2.39,13.56,13.56,0,0,1-6.09-.51A10.12,10.12,0,0,1,303.43,381Z" transform="translate(0 -254.51)"/><path class="cls-3" d="M313.76,376c-3.24,0-5-1.58-5.54-2.61a1.61,1.61,0,0,1-.18-.52c-.1-.65-2.46-16-2.76-18.6-.37-3.13,2.25-4.65,3.91-5.09a6.08,6.08,0,0,1,6.14.86,1.72,1.72,0,0,1,.61.91c1.19,4.36,5.1,18.69,5.26,19.86a3.61,3.61,0,0,1-.86,2.81c-1,1.24-2.83,2-5.35,2.31A10.74,10.74,0,0,1,313.76,376Zm-2.14-4a3.73,3.73,0,0,0,2.93.53c2.12-.24,2.75-.82,2.89-1-.05-1.19-3-12-4.88-19a1.94,1.94,0,0,0-1.76-.16,2,2,0,0,1-.52.19c-.35.08-1.46.42-1.35,1.4C309.2,356.27,311.23,369.44,311.62,372Zm-1.76-21.15h0Z" transform="translate(0 -254.51)"/><path class="cls-5" d="M280.2,371.85c.55,2.41,4.55.22,9.86-.86s9.92-.61,9.37-3-6.05-6.79-11.36-5.71S279.65,369.43,280.2,371.85Z" transform="translate(0 -254.51)"/><path class="cls-5" d="M324.56,363.88c.55,2.41,4.55.22,9.86-.86s9.92-.61,9.37-3-6-6.79-11.36-5.71S324,361.46,324.56,363.88Z" transform="translate(0 -254.51)"/><path class="cls-3" d="M318.45,433.54c-7.15,0-12.84-1.91-16.92-5.7-6.85-6.35-6.54-15.58-6.52-16a1.81,1.81,0,0,1,1.91-1.66,1.78,1.78,0,0,1,1.77,1.8c0,.08-.25,8.13,5.44,13.38,3.74,3.45,9.24,5,16.38,4.62,5.75-.3,9.92-2.18,12.41-5.58,5.69-7.78,1.3-21.08,1.26-21.21a1.71,1.71,0,0,1,1.19-2.18,1.85,1.85,0,0,1,2.31,1.13c.21.61,5,15.07-1.73,24.23-3.16,4.32-8.29,6.7-15.23,7.07C319.94,433.52,319.19,433.54,318.45,433.54Z" transform="translate(0 -254.51)"/><path class="cls-3" d="M278.63,515.28c-11.62,0-27.23-4.29-38.87-9.56C229.69,501.15,227.41,495,227,491.78c-.5-3.56.64-7.06,2.92-8.91,2.07-1.69,4-10.93,4.72-16.95a1.85,1.85,0,0,1,2-1.53,1.77,1.77,0,0,1,1.62,1.92c-.31,2.65-2.08,16-6,19.18a6.56,6.56,0,0,0-1.68,5.84c.36,2.55,2.24,7.41,10.75,11.26,14.81,6.71,35.87,11.57,45.48,8.08a1.88,1.88,0,0,1,2.38,1,1.71,1.71,0,0,1-1.06,2.24A28.38,28.38,0,0,1,278.63,515.28Z" transform="translate(0 -254.51)"/><path class="cls-3" d="M240.55,505.89a1.82,1.82,0,0,1-1.8-1.41c-1.76-8.67,9.49-29.76,10.78-32.14a1.9,1.9,0,0,1,2.48-.75,1.69,1.69,0,0,1,.8,2.33c-3.34,6.16-11.74,23.55-10.45,29.91a1.74,1.74,0,0,1-1.46,2A2.07,2.07,0,0,1,240.55,505.89Z" transform="translate(0 -254.51)"/><path class="cls-3" d="M419.38,479.57c-15.49,0-25.18-1.76-28.8-5.22a1.67,1.67,0,0,1,0-2.45,1.92,1.92,0,0,1,2.61,0c1.71,1.64,7.73,4.36,28.12,4.17.67-2.46.77-10.94.85-17.27.09-8,.18-16.25,1-21.15A34,34,0,0,1,427,427.35a52.82,52.82,0,0,1,2.88-4.68,59.51,59.51,0,0,1,4.24-5.43c-2.26-1.7-9.55-5.87-20.48-7.93-14.23-2.69-19.64-8.15-19.86-8.38a1.66,1.66,0,0,1,.13-2.45,1.91,1.91,0,0,1,2.59.11c0,.05,5,4.88,17.86,7.32,13.22,2.49,23,8.37,23.91,10.75a1.63,1.63,0,0,1-.38,1.76,54.18,54.18,0,0,0-4.92,6.13,49,49,0,0,0-2.7,4.38,30.49,30.49,0,0,0-3.41,9.29c-.79,4.65-.88,12.78-1,20.64-.19,17.3-.5,20.69-3.6,20.69h-2.87Zm2.87-3.48h0Z" transform="translate(0 -254.51)"/><path class="cls-3" d="M436.51,417.25a52.67,52.67,0,0,0-5.11,6.36,50.67,50.67,0,0,0-2.8,4.53l7.91,3.82S440.26,420.17,436.51,417.25Z" transform="translate(0 -254.51)"/><path class="cls-3" d="M474.16,489.28a11.71,11.71,0,0,1-2.67-.31c-9.67-2.25-46.84-15.93-48.42-16.51a1.7,1.7,0,0,1-1-2.25,1.86,1.86,0,0,1,2.38-1c.38.14,38.53,14.18,48,16.37a7,7,0,0,0,5.45-.84c4.19-2.51,7.76-9.43,9.78-19,1.27-5.95,2.11-29.67,2.86-50.6.67-18.75,1.12-30.53,1.71-33.48.08-2.47,1.83-7.05,8-7.88,5.26-.71,15.58-12.39,17.8-20.16.55-1.92,1.19-3.85,1.8-5.69a50.7,50.7,0,0,0,2.26-8.27c-.71,1.38-1.55,3.36-2.13,4.74-1.75,4.14-2.46,5.65-3.56,6.29a3.75,3.75,0,0,1-4-.05c-1.48-1-2.05-2.93-1.53-5.2,2.66-11.68,4.53-20.61,4.56-21.71a3.61,3.61,0,0,0-.22-1.26c-1,1.23-2.86,5.25-5.16,12a81.63,81.63,0,0,1-4.9,10.39,1.91,1.91,0,0,1-2.49.73,1.7,1.7,0,0,1-.77-2.35,79.78,79.78,0,0,0,4.66-9.83c4.31-12.67,6.26-13.79,7-14.22a3.38,3.38,0,0,1,3.31-.15c1.66.88,2.25,3.07,2.25,4.68,0,1.76-2.91,14.81-4.64,22.43-.25,1.09,0,1.58.07,1.65l2-4.7c2.3-5.47,3.83-9.07,6.65-8.1,4.28,1.49,2.46,7,.15,13.94-.59,1.8-1.22,3.68-1.76,5.56-2.47,8.65-13.43,21.69-20.83,22.69-4.65.63-4.86,4.24-4.86,4.65a2.08,2.08,0,0,1-.05.36c-.56,2.44-1.1,17.3-1.66,33-.75,21.06-1.61,44.94-2.93,51.16s-4.53,17.09-11.41,21.22A10.8,10.8,0,0,1,474.16,489.28Z" transform="translate(0 -254.51)"/><path class="cls-3" d="M456.52,441.85h-.18a1.77,1.77,0,0,1-1.65-1.9c.68-6.43,12.61-45.58,17.56-53,4.1-6.12,4.07-15.43,4.05-19.9v-.77c0-3.57-6.47-14.78-8.8-17.54-.32-.38-.66-.76-1-1.13-1.71-1.93-3.33-3.75-3.12-5.84a3.89,3.89,0,0,1,1.62-2.69c3.56-2.75,6.62-.09,9.32,2.26l.72.61a27.81,27.81,0,0,1,3.87,4.46,13.86,13.86,0,0,0,2.36,2.73,41.1,41.1,0,0,0,2.39-4l.67-1.2c1.22-2.14,3.84-10,5.57-15.2l1.19-3.58c2.53-7.43,7.93-6.45,9.7-6.13a2.33,2.33,0,0,1,1.62,1.13c1.1,1.9-.39,6.09-4.37,15.38-.84,2-1.63,3.81-1.8,4.42-.05.2-.09.38-.13.55a65.14,65.14,0,0,0,3.42-7.3c2.51-5.95,4.18-9.65,6.08-10.87,3.72-2.38,6.52-1.36,6.82-1.24a1.7,1.7,0,0,1,1,2.28,1.88,1.88,0,0,1-2.36.93c-.13,0-1.39-.36-3.36.9-1.11.71-3.38,6.08-4.73,9.28-2.22,5.24-3.55,8.25-5.06,9.36-2,1.44-3.34,1.14-4.16.64-1.38-.85-1.76-2.76-1.05-5.38a48.54,48.54,0,0,1,1.95-4.87c1.27-3,4.07-9.5,4.44-12-1.51-.12-3.23.3-4.47,3.94l-1.19,3.56c-2,6-4.45,13.37-5.84,15.8l-.65,1.17c-1.67,3-3.37,6.14-6.26,5.8-1.83-.21-3.12-1.94-4.76-4.13a24.84,24.84,0,0,0-3.34-3.89l-.73-.63c-3.09-2.69-3.61-2.81-4.5-2.13-.08.06-.27.22-.28.34-.07.64,1.34,2.23,2.27,3.28.35.4.71.8,1.05,1.2,2.32,2.75,9.6,14.84,9.6,19.7v.76c0,4.8.06,14.78-4.62,21.76-4.4,6.58-16.3,44.78-17,51.48A1.81,1.81,0,0,1,456.52,441.85Zm38.55-100.41Z" transform="translate(0 -254.51)"/><path class="cls-3" d="M460.66,444a2,2,0,0,1-.68-.12c-8-3-31.2-13.74-32.19-14.2a1.7,1.7,0,0,1-.84-2.32,1.91,1.91,0,0,1,2.47-.79c.23.11,24,11.11,31.92,14.09a1.7,1.7,0,0,1,1,2.25A1.84,1.84,0,0,1,460.66,444Z" transform="translate(0 -254.51)"/><path class="cls-3" d="M489.18,364.71a1.89,1.89,0,0,1-1.29-.49,1.67,1.67,0,0,1,0-2.45c.32-.32,8.09-7.73,17.48-7.35a1.79,1.79,0,0,1,1.78,1.8,1.74,1.74,0,0,1-1.91,1.67c-8-.24-14.65,6.23-14.71,6.3A1.88,1.88,0,0,1,489.18,364.71Z" transform="translate(0 -254.51)"/><path class="cls-3" d="M333.35,596h-.15c-.1,0-9.7-.75-26.22-1.61-6-.31-10.3-2.12-12.73-5.37-3.44-4.6-1.71-10.25-1.63-10.49a1.86,1.86,0,0,1,2.28-1.17,1.72,1.72,0,0,1,1.24,2.15s-1.28,4.33,1.13,7.54c1.76,2.33,5.09,3.63,9.91,3.88,16.57.86,26.23,1.61,26.32,1.62a1.77,1.77,0,0,1,1.68,1.87A1.8,1.8,0,0,1,333.35,596Z" transform="translate(0 -254.51)"/><path class="cls-2" d="M412.55,586.66" transform="translate(0 -254.51)"/><path class="cls-3" d="M294,676.61a1.83,1.83,0,0,1-1.77-1.27c-13.81-46.67,7.91-83.93,8.13-84.31a1.91,1.91,0,0,1,2.5-.66,1.68,1.68,0,0,1,.71,2.36c-.21.36-21.18,36.44-7.8,81.68a1.71,1.71,0,0,1-1.27,2.13A1.77,1.77,0,0,1,294,676.61Z" transform="translate(0 -254.51)"/><path class="cls-3" d="M301.91,676.61a1.81,1.81,0,0,1-1.81-1.45c-8.1-45.63,8.77-82.62,8.94-83a1.91,1.91,0,0,1,2.42-.89,1.69,1.69,0,0,1,1,2.28c-.17.36-16.6,36.46-8.68,81a1.75,1.75,0,0,1-1.51,2Z" transform="translate(0 -254.51)"/><path class="cls-3" d="M263,557.74a1.81,1.81,0,0,1-1.8-1.4,37.46,37.46,0,0,1,0-13.54c.88-4.47-6.19-22.95-10.86-33.55a1.7,1.7,0,0,1,1-2.26,1.88,1.88,0,0,1,2.4.93c1.28,2.91,12.45,28.57,11.08,35.52a35.22,35.22,0,0,0,0,12.23,1.74,1.74,0,0,1-1.44,2Z" transform="translate(0 -254.51)"/><path class="cls-3" d="M282.68,675.16a1.85,1.85,0,0,1-.56-.08,1.71,1.71,0,0,1-1.19-2.18,9.43,9.43,0,0,0-.81-6.66c-2.2-4.24-8.92-23.28-9.2-24.09a1.71,1.71,0,0,1,1.17-2.19,1.86,1.86,0,0,1,2.32,1.1c.07.2,6.92,19.62,9,23.66a12.59,12.59,0,0,1,1,9.24A1.83,1.83,0,0,1,282.68,675.16Z" transform="translate(0 -254.51)"/><path class="cls-3" d="M412.55,588.39a1.88,1.88,0,0,1-1.46-.67,1.67,1.67,0,0,1,.33-2.43,78.89,78.89,0,0,0,7.72-6.13,1.86,1.86,0,0,1,2.46-.69,1.73,1.73,0,0,1,.75,2.39c-.54.95-3.45,3.37-8.68,7.17A1.91,1.91,0,0,1,412.55,588.39Z" transform="translate(0 -254.51)"/><path class="cls-3" d="M434.86,894.76a1.79,1.79,0,0,1-1.84-1.68c-.08-2.54-1.87-62.35-.89-73.34.37-4.18-.85-14-2.26-25.43-2.2-17.65-4.92-39.61-3.09-52,2.84-19.24,6.84-80.94,4.77-107.07-2-25.19-16.34-47.4-16.48-47.62a1.67,1.67,0,0,1,.6-2.39,1.91,1.91,0,0,1,2.53.57c.61.93,15,23.13,17,49.19,2.08,26.32-1.94,88.44-4.79,107.79-1.77,12,.92,33.73,3.09,51.18C435,805.5,436.2,815.5,435.8,820c-1,10.79.88,72.33.9,73a1.77,1.77,0,0,1-1.79,1.78Z" transform="translate(0 -254.51)"/><path class="cls-3" d="M383.61,800.73a1.79,1.79,0,0,1-1.83-1.59,119.86,119.86,0,0,1,0-19.56c.88-8.08-4.54-47.16-4.6-47.56a1.75,1.75,0,0,1,1.58-1.94,1.82,1.82,0,0,1,2.07,1.49c.23,1.63,5.53,39.88,4.6,48.37a118.8,118.8,0,0,0,0,18.92,1.77,1.77,0,0,1-1.69,1.87Z" transform="translate(0 -254.51)"/><path class="cls-3" d="M332.77,971.4a1.81,1.81,0,0,1-1.78-1.29A1.73,1.73,0,0,1,332.3,968c.36-.09,8.94-2.13,24.67-1.87,13.7.22,14-8.86,14.07-9.25a1.84,1.84,0,0,1,3.68.1c0,.12-.54,12.63-17.19,12.63h-.63c-15.16-.28-23.59,1.74-23.67,1.76A1.8,1.8,0,0,1,332.77,971.4Z" transform="translate(0 -254.51)"/><path class="cls-3" d="M431.4,425.34h0c-.34,0-8.28-.19-18.21-6.67-9.28-6-30-13-30.16-13a1.71,1.71,0,0,1-1.12-2.21,1.88,1.88,0,0,1,2.35-1.06c.87.29,21.34,7.15,31,13.45,8.94,5.83,16.11,6.05,16.18,6.06a1.73,1.73,0,1,1,0,3.46Z" transform="translate(0 -254.51)"/><path class="cls-3" d="M333.48,800.73a1.83,1.83,0,0,1-1.79-1.32c-1.37-5.3-6.4-28.79-6.61-29.79a1.74,1.74,0,0,1,1.44-2,1.84,1.84,0,0,1,2.17,1.35c.05.25,5.22,24.43,6.57,29.66a1.72,1.72,0,0,1-1.35,2.09A1.58,1.58,0,0,1,333.48,800.73Z" transform="translate(0 -254.51)"/><path class="cls-3" d="M373.27,800.73a1.8,1.8,0,0,1-1.84-1.62c-1.42-21.59-9.29-43.45-9.37-43.66a1.71,1.71,0,0,1,1.15-2.2,1.85,1.85,0,0,1,2.33,1.07c.09.23,8.11,22.51,9.57,44.57a1.78,1.78,0,0,1-1.73,1.84Z" transform="translate(0 -254.51)"/><path class="cls-5" d="M204.79,643.15c1.27,2.11,4.33-1.06,9-3.53s9.08-3.33,7.81-5.44-7.77-4.67-12.4-2.19S203.53,641,204.79,643.15Z" transform="translate(0 -254.51)"/><path class="cls-5" d="M248.2,626.26c.9,2.27,4.45-.4,9.44-2.15s9.53-1.92,8.64-4.19-6.89-5.77-11.88-4S247.31,624,248.2,626.26Z" transform="translate(0 -254.51)"/><path class="cls-3" d="M202.38,960.86a1.89,1.89,0,0,1-.87-.21c-.14-.07-13.76-7-36.21-18.87-21.74-11.48-85-63.55-90.35-76.14-5.56-13.11,2.1-30.39,7.51-38.54,6.35-9.59,26.46-18.22,27.32-18.58a1.88,1.88,0,0,1,2.43.86,1.7,1.7,0,0,1-.92,2.3c-.2.08-20,8.56-25.71,17.25-6.53,9.85-11.58,25.14-7.21,35.42,4.65,10.95,66,62.41,88.73,74.41,20.12,10.63,33.15,17.3,35.7,18.6,2.73-.19,16.87-1.77,26.27-13.34-3.94-7.64-31.68-59.93-58.85-74a1.67,1.67,0,0,1-.72-2.35A1.88,1.88,0,0,1,172,867c30.23,15.69,59.65,74,60.88,76.52a1.66,1.66,0,0,1-.16,1.75c-11.45,15-29.52,15.62-30.28,15.64Z" transform="translate(0 -254.51)"/><path class="cls-3" d="M260,987.51a1.93,1.93,0,0,1-.95-.25L253,983.79c-4.41-2.49-8.41-21.39-13.77-65.22-.26-2.11-.47-3.77-.61-4.82-.76-5.73-4-16.28-16.8-22.57-10.58-5.18-32.53-6.81-32.75-6.82a1.78,1.78,0,0,1-1.7-1.86,1.81,1.81,0,0,1,2-1.6c.93.07,22.92,1.69,34.16,7.2,10.48,5.13,17.32,14.32,18.76,25.22.15,1.06.35,2.73.61,4.86,6,49.22,9.86,61.24,12,62.64l6.12,3.47a1.67,1.67,0,0,1,.63,2.38A1.86,1.86,0,0,1,260,987.51Z" transform="translate(0 -254.51)"/><path class="cls-3" d="M154.81,866.8c-3.68,0-6.11-4.3-8.46-8.48-.83-1.46-1.67-3-2.55-4.23-.7-1-1.67-2.48-2.78-4.15-2.43-3.65-6.27-9.44-9.18-13.31l.25.63.57,1.41c1.87,4.71,7.56,15,9.08,16.43,1,.92,1.48,2.66-.3,4.53-2,2.07-6.48,3.79-9.51,1.52-3.71-2.8-17.08-26.95-21.38-35.94-2.5-5.23-2.6-20.32.62-26.94C120.09,780,136.79,778.1,137.49,778a1.82,1.82,0,0,1,2,1.53,1.76,1.76,0,0,1-1.63,1.91c-.62.07-15.35,1.79-23.36,18.24-3,6.1-2.54,20-.61,24.07,5.36,11.22,17.79,32.74,20.32,34.65a2.72,2.72,0,0,0,2.22.15,5,5,0,0,0,2.36-1.39c-2.4-2.73-7.84-12.91-9.6-17.31l-.56-1.4c-2.12-5.27-3.09-7.67-1.3-8.9,1-.67,2.15-.49,3.51.54,2.47,1.86,7.48,9.24,13.28,18,1.1,1.65,2.05,3.09,2.75,4.11.94,1.36,1.83,2.93,2.7,4.49,1.66,2.93,3.93,6.95,5.46,6.61,2.44-.54,3-1.24,3.2-1.51a1.53,1.53,0,0,0-.17-1.3c-.3-.63-1.44-2.76-3-5.64-11.74-22-13.62-26.36-13.42-27.93a1.82,1.82,0,0,1,2.06-1.5,1.77,1.77,0,0,1,1.61,1.77c.4,2.46,9.25,19,13,26.1,1.58,3,2.75,5.14,3.05,5.79a4.57,4.57,0,0,1,.1,4.26c-.85,1.6-2.7,2.69-5.66,3.33A4.5,4.5,0,0,1,154.81,866.8ZM128.2,832.6Z" transform="translate(0 -254.51)"/><path class="cls-3" d="M163.27,863.28c-3.12,0-4.75-1.7-5.22-2.86a1.7,1.7,0,0,1,1-2.24,1.87,1.87,0,0,1,2.38,1c0,.08.75,1.22,3.79.32a1.82,1.82,0,0,0,1.29-1c.64-1.33-.17-3.65-.51-4.36L155,825.09a1.7,1.7,0,0,1,.94-2.15,1.9,1.9,0,0,1,2.36.65c.53.81,13,19.92,15.2,25.81,1.16,3.14,2,4.11,2.31,4.36a4,4,0,0,0,3-.59,1.47,1.47,0,0,0,.59-.89c-.19-1.77-7.57-29.48-9.36-33.41a72.4,72.4,0,0,1-3.49-11.61,1.66,1.66,0,0,1,.52-1.58,1.91,1.91,0,0,1,1.69-.45c2.22.46,8.13,2.54,12.87,4.21l3.61,1.26h0c.43,0,.76-.49.81-1.5a4.23,4.23,0,0,0-1.27-3.46,83.42,83.42,0,0,0-14.33-6.62c-3.25-1.19-8.1-5.46-13.24-10-3.61-3.19-7.35-6.48-9.77-7.91a8.17,8.17,0,0,0-8.64-.08,1.93,1.93,0,0,1-2.58-.35,1.67,1.67,0,0,1,.37-2.43,12,12,0,0,1,12.82-.08c2.71,1.62,6.4,4.87,10.31,8.31,4.44,3.91,9.48,8.34,12.06,9.29,5,1.82,11.79,4.82,15.11,7,2.93,1.93,3.55,6.63,2.11,9.23a4,4,0,0,1-5,1.83l-3.63-1.27c-2.87-1-6.74-2.37-9.52-3.26a54.17,54.17,0,0,0,2.59,8.07c1.89,4.15,9.66,32.9,9.66,34.78a4.7,4.7,0,0,1-1.87,3.52,7.6,7.6,0,0,1-5.86,1.4h0c-1.89,0-3.67-2.23-5.32-6.66a74.37,74.37,0,0,0-4.93-9.26l4.42,11.57c.14.3,1.87,4.09.45,7.08a5.49,5.49,0,0,1-3.55,2.86A10.81,10.81,0,0,1,163.27,863.28Zm11.78-9.52h0Z" transform="translate(0 -254.51)"/><path class="cls-3" d="M149.46,781.19l-2.09-2.86s4.89-3.17,7.95-5.22c1.71-1.16,3.39-5.74,4-8.63a1.82,1.82,0,0,1,2.18-1.34,1.74,1.74,0,0,1,1.42,2.05c-.19.85-2,8.35-5.5,10.74C154.38,778,149.46,781.19,149.46,781.19Z" transform="translate(0 -254.51)"/><path class="cls-3" d="M310.05,844.77a2,2,0,0,1-1.06-.31c-.15-.11-15.39-10.14-26.44-10.87-2.14-.14-4.88-.27-8-.41-14.49-.64-36.38-1.62-50.54-6.43-16.94-5.74-36.82-15-37-15.1a1.68,1.68,0,0,1-.83-2.32,1.89,1.89,0,0,1,2.46-.79c.2.1,19.9,9.27,36.64,15,13.63,4.63,35.2,5.59,49.47,6.23,3.18.14,5.94.27,8.11.41,12.07.8,27.64,11.06,28.3,11.49a1.68,1.68,0,0,1,.45,2.42A1.9,1.9,0,0,1,310.05,844.77Z" transform="translate(0 -254.51)"/><path class="cls-3" d="M183,804.44a1.87,1.87,0,0,1-.86-.2,1.69,1.69,0,0,1-.77-2.34c.16-.28,15.52-27.69,16.69-38.21.39-3.47,1.12-7.75,1.9-12.28,1.43-8.36,3.39-19.81,2-22.28-.57-1-.94-1.14-.94-1.14a2.9,2.9,0,0,1-2.08-.73c-.72-.9-.44-1.59.47-3.87,1.85-4.67,3.15-7.58,3.15-7.58a1.9,1.9,0,0,1,2.41-.93,1.71,1.71,0,0,1,1,2.28s-1.29,2.87-3.11,7.45l-.12.31a5.91,5.91,0,0,1,2.47,2.58c1.85,3.26.63,11.41-1.6,24.46-.77,4.49-1.49,8.72-1.87,12.09-1.25,11.18-16.45,38.32-17.09,39.47A1.85,1.85,0,0,1,183,804.44Z" transform="translate(0 -254.51)"/><path class="cls-3" d="M196.8,776.25h-.12c-1.4-.09-34.22-2.26-49.41-19.93a5.24,5.24,0,0,1-2.42-2.38c-1.41-2.76-.77-6.93,1.89-12.4,4.95-10.15,30.95-52.25,46.2-58.43,14.26-5.79,34.61-9.49,35.47-9.65a1.87,1.87,0,0,1,2.12,1.23c.26.86,6.7,21.11,29.55,21.61h.78c21.93,0,26-20.56,26.19-21.45a1.81,1.81,0,0,1,1.58-1.42c1.32-.15,32.64-3.66,46.27,16.69a1.67,1.67,0,0,1-.57,2.39,1.91,1.91,0,0,1-2.54-.54c-10.91-16.3-35.58-15.62-41.44-15.21-1.41,5.14-7.88,23.5-30.36,23-21.73-.48-30.3-17.38-32.44-22.61-5.07,1-21.49,4.4-33.16,9.13C181,691.74,155.94,731,150.09,743c-2.79,5.72-2.44,8.3-2,9.34a1.55,1.55,0,0,0,.83.9,1.64,1.64,0,0,1,.92.59c14,16.8,46.72,19,47,19a1.76,1.76,0,0,1,1.72,1.84A1.79,1.79,0,0,1,196.8,776.25Z" transform="translate(0 -254.51)"/><path class="cls-3" d="M324.6,772a4.52,4.52,0,0,1-1-.11c-2.51-.55-4.42-3-5.83-7.53a182.15,182.15,0,0,0-7.33-18.65c-.9-2.05-1.64-3.74-2.11-4.94a5.55,5.55,0,0,1-.47-2.95l-.39-.25a2.48,2.48,0,0,0-2.21-.48,2.26,2.26,0,0,1-2.22-.48c-.84-.86-.55-1.69,0-3.34a1.88,1.88,0,0,1,2.33-1.1,1.76,1.76,0,0,1,1.24,1.42,7.26,7.26,0,0,1,2.88,1.1c1.93,1.21,2.44,1.54,2.51,2.54a2.05,2.05,0,0,1-.53,1.36,4.27,4.27,0,0,0,.29,1c.45,1.16,1.18,2.81,2.05,4.8a184.57,184.57,0,0,1,7.46,19c1.41,4.52,2.84,5.07,3.12,5.13.54.13,1.13-.42,1.14-.43a2,2,0,0,1,1.54-.53c20.08,2.15,37.16-15.13,42.78-20.8.68-.68,1.2-1.21,1.56-1.53-.12-1.51-3.43-6.45-7.32-10.87a1.66,1.66,0,0,1,.24-2.44,1.91,1.91,0,0,1,2.59.22c11,12.47,8.07,14.77,7.12,15.52-.27.22-.78.74-1.51,1.47-5.85,5.91-23.49,23.74-45.08,22A5.11,5.11,0,0,1,324.6,772Z" transform="translate(0 -254.51)"/><path class="cls-3" d="M152,760.25a1.77,1.77,0,0,1-.56-.09,1.72,1.72,0,0,1-1.2-2.18c7-20.75,33.49-58.93,40-65.9,6.89-7.39,37.12-12.83,40.55-13.42a1.82,1.82,0,0,1,2.14,1.39,1.74,1.74,0,0,1-1.47,2c-9,1.56-33.33,6.8-38.45,12.3-6.67,7.15-32.64,45.16-39.25,64.67A1.83,1.83,0,0,1,152,760.25Z" transform="translate(0 -254.51)"/><path class="cls-3" d="M333.48,700.59a1.88,1.88,0,0,1-1.48-.7c-15.31-19.37-43.63-17.82-43.9-17.8a1.81,1.81,0,0,1-2-1.61,1.78,1.78,0,0,1,1.71-1.85c1.25-.06,30.61-1.69,47.12,19.19a1.68,1.68,0,0,1-.38,2.43A1.93,1.93,0,0,1,333.48,700.59Z" transform="translate(0 -254.51)"/><path class="cls-3" d="M367.3,753.49a1.88,1.88,0,0,1-1.52-.76l-13.46-18.51a1.67,1.67,0,0,1,.48-2.41,1.9,1.9,0,0,1,2.55.45l13.47,18.52a1.66,1.66,0,0,1-.48,2.4A1.89,1.89,0,0,1,367.3,753.49Z" transform="translate(0 -254.51)"/><path class="cls-3" d="M204.29,965s-2.06,11.56-9,14.45-16.33,12.13,0,14.44,39,6.36,42.09-6.93-.62-10.4,3.06-13.29,6.75-8.67,6.75-8.67l-2.74-20.76s-11-2.63-13.21,0-.89,8.13-.14,12.71,3.82,16,.14,11.45-1.44-7.49-10.44-9.25S203.13,957.46,204.29,965Z" transform="translate(0 -254.51)"/><path class="cls-3" d="M215.36,1006.09c-11.77,0-23.82-2.67-28.19-4.42-2.68-1.07-4.19-2.61-4.48-4.58-.53-3.58,3.47-6.73,3.93-7.08a1.92,1.92,0,0,1,2.58.26,1.67,1.67,0,0,1-.27,2.44c-.93.71-2.79,2.61-2.59,3.91.12.84,1.3,1.48,2.27,1.86,7.28,2.9,34.18,7.48,45.39.17,6-3.89,7.48-8.95,8.94-13.84,1.29-4.32,2.51-8.39,6.8-10.52a1.91,1.91,0,0,1,2.49.73,1.69,1.69,0,0,1-.77,2.34c-2.9,1.44-3.82,4.51-5,8.39-1.48,5-3.33,11.15-10.39,15.75C230.86,1004.91,223.17,1006.09,215.36,1006.09Z" transform="translate(0 -254.51)"/><path class="cls-3" d="M231.26,679.36a2.64,2.64,0,0,1-.53,0,1.73,1.73,0,0,1-1.46-2,1.8,1.8,0,0,1,2-1.4c.79-.06,3-2.07,3.3-10.47a1.85,1.85,0,0,1,1.9-1.68,1.79,1.79,0,0,1,1.78,1.79c-.23,6.6-1.63,10.9-4.15,12.81A4.72,4.72,0,0,1,231.26,679.36Z" transform="translate(0 -254.51)"/><path class="cls-3" d="M288,680.07a1.7,1.7,0,0,1-.44-.05c-12.68-2.92-22.5-25.78-22.91-26.75a1.69,1.69,0,0,1,1-2.25,1.88,1.88,0,0,1,2.39,1c2.62,6.16,11.37,22.59,20.38,24.67a1.73,1.73,0,0,1,1.35,2.09A1.83,1.83,0,0,1,288,680.07Z" transform="translate(0 -254.51)"/><path class="cls-3" d="M204.29,641c-9.83,0-17.82-7.54-17.82-16.79s8-16.79,17.82-16.79,17.82,7.53,17.82,16.79S214.11,641,204.29,641Zm0-30.12c-7.8,0-14.14,6-14.14,13.33s6.34,13.32,14.14,13.32,14.14-6,14.14-13.32S212.09,610.91,204.29,610.91Z" transform="translate(0 -254.51)"/><path class="cls-3" d="M247.05,628.61c-9.82,0-17.82-7.53-17.82-16.79s8-16.79,17.82-16.79,17.82,7.53,17.82,16.79S256.88,628.61,247.05,628.61Zm0-30.11c-7.79,0-14.14,6-14.14,13.32s6.35,13.33,14.14,13.33,14.14-6,14.14-13.33S254.85,598.5,247.05,598.5Z" transform="translate(0 -254.51)"/><path class="cls-3" d="M232.1,643.35a5.85,5.85,0,0,1-5.35-3.4l-6.48-18.12a1.49,1.49,0,0,1-.1-.63c.14-3.15,1.59-4.65,2.77-5.35,2.92-1.72,6.74-.24,7.16-.06a1.73,1.73,0,0,1,.84.69c.37.57,8.94,13.94,10.34,16.41,1.73,3.06,1,5,.8,5.29a1.9,1.9,0,0,1-.33.47A19.53,19.53,0,0,1,234.3,643,7.52,7.52,0,0,1,232.1,643.35ZM223.87,621l6.32,17.7c.2.4,1,1.57,3,1a15.69,15.69,0,0,0,5.53-3.12,4.6,4.6,0,0,0-.7-2.06c-1.2-2.12-8.27-13.18-9.9-15.72a4.63,4.63,0,0,0-3.24,0A2.71,2.71,0,0,0,223.87,621Z" transform="translate(0 -254.51)"/><path class="cls-3" d="M242.25,647.72c2.26-2,4-3.15,5.4-4.49a16.38,16.38,0,0,0,2.07-2.09c.73-.8,1.34-1.77,2.34-3a5.32,5.32,0,0,1,.86,4.16,6.79,6.79,0,0,1-2.22,3.9,8.5,8.5,0,0,1-4,2A7,7,0,0,1,242.25,647.72Z" transform="translate(0 -254.51)"/><path class="cls-3" d="M199.78,627.49a4.36,4.36,0,0,1,.78-3.3,6.88,6.88,0,0,1,2.59-2.25,6.63,6.63,0,0,1,6.75.35,17.47,17.47,0,0,1-2.62,1.8c-.79.47-1.52.85-2.25,1.22s-1.46.72-2.31,1S201,627.05,199.78,627.49Z" transform="translate(0 -254.51)"/><path class="cls-3" d="M242.25,613.76a4,4,0,0,1,1.12-3,6.68,6.68,0,0,1,2.59-1.76,6.15,6.15,0,0,1,6.1,1,13,13,0,0,1-2.48,1.64,19,19,0,0,1-2.17,1A25.78,25.78,0,0,1,242.25,613.76Z" transform="translate(0 -254.51)"/><path class="cls-3" d="M236,664.93a58.46,58.46,0,0,1-19.32-3.67c-16.27-5.63-22.91-23.29-23.18-24a1.7,1.7,0,0,1,1.13-2.2,1.85,1.85,0,0,1,2.34,1.07c.07.16,6.37,16.85,21,21.92,15.88,5.5,24.9,3.47,33.5.7,9.4-3,21-12.62,22.68-29.68,1.74-17.53-3.68-24.14-3.73-24.21a1.66,1.66,0,0,1-.15-2c3.42-5.34,8.39-15.34,7.13-19.42a1.92,1.92,0,0,0-1.08-1.32A2.58,2.58,0,0,0,274,582c-2.79,1.26-5.09,7.19-5.88,10.63a1.83,1.83,0,0,1-2.19,1.32,1.72,1.72,0,0,1-1.4-2.06c.24-1.08,2.56-10.61,7.88-13A6.46,6.46,0,0,1,278,579a5.46,5.46,0,0,1,3,3.46c1.87,6.1-4.73,17.63-6.93,21.22,1.66,2.62,5.32,10.34,3.8,25.68C276,648.06,263.1,658.63,252.66,662A53,53,0,0,1,236,664.93Z" transform="translate(0 -254.51)"/><path class="cls-3" d="M188.31,626a2,2,0,0,1-.53-.07c-6.35-1.8-21.22-6.65-22.06-12.79-.19-1.43.26-3.54,3.51-5.41,10.2-5.86,22.1,7.39,22.6,7.95a1.68,1.68,0,0,1-.23,2.45,1.93,1.93,0,0,1-2.59-.22c-.1-.12-10.37-11.54-17.86-7.22-.87.5-1.88,1.25-1.78,2,.3,2.21,7.23,6.44,19.47,9.91a1.72,1.72,0,0,1,1.23,2.16A1.83,1.83,0,0,1,188.31,626Z" transform="translate(0 -254.51)"/><path class="cls-3" d="M208.13,554.1s-9.42-1.08-15.63,2.6S174.79,573,174.33,584.22s5.91,24.8,7.59,25.78,4.35,4.33,8.5,0,11.05-18.84,11.05-18.84-6.06,17.92-.69,18,22.76-13.79,23.91-26.09c0,0-6,19.33,0,19.55s18.86-18.49,18.63-25.28c0,0-5.74,20.25,0,19.41s13.1-12.12,13.1-12.12-.46,11.06,3.91,11.06,6-5.64,6-5.64,5.28-10.56,8.05-10.05c0,0-2.07-17.69-15.64-27.87S222.62,541.53,208.13,554.1Z" transform="translate(0 -254.51)"/><path class="cls-7" d="M392.85,988.56l-9-32.89H336.71l-5.51,19.56-16.13,13.33H260.72l59.74-176.23L336.58,799h66l60.49,176.23L447,988.56Zm-3.16-85.12-7.9-28.81q-2.75-9.6-6.7-24.85t-5.19-21.85q-1.12,6.12-4.45,20.17t-14.71,55.34Z" transform="translate(0 -254.51)"/><path class="cls-8" d="M392.85,988.56l-9-32.89H324.34l-9.27,32.89H260.72l59.74-176.23h66L447,988.56Zm-19.29-71.79L365.67,888q-2.76-9.6-6.7-24.85t-5.2-21.85q-1.12,6.12-4.44,20.17t-14.72,55.34Z" transform="translate(0 -254.51)"/><path class="cls-7" d="M566.44,988.56,543.62,834.82h-1.25q2.91,35.16,2.91,54.63v83l-18.64,16.13H478.09V797.5l18.65-16.13h73L612,917h1.11L635.93,797.5l18.64-16.13h73.09V972.43L709,988.56H658.67l18.65-99.9q0-6.52.21-14.5t1.87-39.08h-1.25L637.24,972.43l-18.65,16.13Z" transform="translate(0 -254.51)"/><path class="cls-8" d="M566.44,988.56,525,851h-1.25q2.92,35.16,2.92,54.63v83H478.09V797.5h73l42.3,135.65h1.11L635.93,797.5H709V988.56H658.67V904.79q0-6.52.21-14.5t1.87-39.08h-1.24L618.59,988.56Z" transform="translate(0 -254.51)"/><path class="cls-7" d="M412.55,717.24,389.41,732H333.35V579.71H282.68V536.52l23.14-14.79H463.07v43.19l-23.13,14.79H412.55Z" transform="translate(0 -254.51)"/><path class="cls-8" d="M389.41,732H333.35V579.71H282.68V536.52H439.94v43.19H389.41Z" transform="translate(0 -254.51)"/><path class="cls-7" d="M619.43,715.66,599,732H476.82V538.1l20.41-16.37h18.36s9.52,6.79,40,6.79c19,0,63.79-2.1,63.79-2.1v37.36L599,580.15H552.84v14.14H614.5v42l-20.41,16.38H552.84V673h66.59Z" transform="translate(0 -254.51)"/><path class="cls-8" d="M599,732H476.82V538.1H599v42H532.43v30.51h61.66v42.05H532.43v36.61H599Z" transform="translate(0 -254.51)"/><path class="cls-9" d="M629.89,813.08s-9.63,7.58-12.69,14.21-.72,11.69,1.63,13.58,16.08,8.53,19.43,9.48,4.7-.63,3.69-2.21c-.42-.67-3.25-2.75-6.37-4.93-4.25-3-9.05-6.13-9.05-6.13l9.05,6.13s9,4.93,11.06,4.61,3-3.68,1.68-3.89-15.75-12.07-15.75-12.07l15.07,9.73s5.52,0,3.68-2.89-12.58-13.29-12.58-13.29,11.49,9.53,13,9,1.47-5.2-1.29-7.23-12.88-9.82-12.88-9.82.72-12.15-3.32-14.17S632,811.35,629.89,813.08Z" transform="translate(0 -254.51)"/></svg>