<svg id="Layer_1" data-name="Layer 1" xmlns="http://www.w3.org/2000/svg" viewBox="0 0 1047.3 1047.3"><defs><style>.cls-1{fill:#f1f0f0;}.cls-2{fill:#e0e0e0;}.cls-3{fill:#58c2b1;}.cls-4{opacity:0.6;}.cls-5{opacity:0.3;}.cls-14,.cls-16,.cls-6{opacity:0.5;}.cls-7{fill:#263238;}.cls-18,.cls-8{opacity:0.7;}.cls-12,.cls-18,.cls-24,.cls-9{fill:#fff;}.cls-9{opacity:0.4;}.cls-10{opacity:0.1;}.cls-11{fill:#fafbfb;}.cls-13{fill:#e6e6e6;}.cls-14,.cls-17{fill:#455b64;}.cls-15{fill:none;stroke:#e0e0e0;stroke-miterlimit:10;stroke-width:0.75px;}.cls-19{fill:#f5f5f5;}.cls-20{fill:#ebebeb;}.cls-21,.cls-24{opacity:0.2;}.cls-22{fill:#f7a7a8;}.cls-23{fill:#f3908f;}.cls-25{fill:#b16669;}.cls-26{fill:#37474f;}.cls-27{fill:#9a4b4e;}.cls-28{opacity:0.15;}</style></defs><ellipse id="Floor" class="cls-1" cx="523.65" cy="735.53" rx="523.65" ry="311.77"/><path id="Shadow" class="cls-2" d="M142.35,863.19,52,809.41c-5.09-3-5.09-7.94,0-11l525.39-312.8c5.09-3,13.35-3,18.44,0l90.33,53.78c5.09,3,5.09,7.94,0,11L160.79,863.19C155.7,866.22,147.44,866.22,142.35,863.19Z" transform="translate(-16.38 -16.65)"/><polygon id="Shadow-2" data-name="Shadow" class="cls-2" points="514.23 868.79 297.3 739.64 568.4 578.53 785.07 707.54 514.23 868.79"/><ellipse id="Shadow-3" data-name="Shadow" class="cls-2" cx="813.73" cy="865.33" rx="102.56" ry="61.06"/><path id="Shadow-4" data-name="Shadow" class="cls-2" d="M967.71,808.45c11.12,6.62,11.12,17.35,0,24s-29.14,6.62-40.25,0-11.12-17.35,0-24S956.6,801.83,967.71,808.45Z" transform="translate(-16.38 -16.65)"/><g id="Device"><path class="cls-3" d="M467,767.35l77.65-46.3c8-4.77,12-11,12-17.26s0-11.14,0-11.14l-80.56-46.84c-4.27-2.55-7.73-8.73-7.73-13.81V533.27L332.79,614.09v98.73c0,5.08,3.46,11.26,7.72,13.8l68.54,40.73C425.06,776.88,451,776.88,467,767.35Z" transform="translate(-16.38 -16.65)"/><g class="cls-4"><path d="M467,767.35l77.65-46.3c8-4.77,12-11,12-17.26s0-11.14,0-11.14l-80.56-46.84c-4.27-2.55-7.73-8.73-7.73-13.81V533.27L332.79,614.09v98.73c0,5.08,3.46,11.26,7.72,13.8l68.54,40.73C425.06,776.88,451,776.88,467,767.35Z" transform="translate(-16.38 -16.65)"/></g><path class="cls-5" d="M365.35,730.3v11.09l-24.86-14.77c-4.24-2.53-7.72-8.7-7.72-13.81V614.1l25.84-15.37c.54,6.76,1.12,13.76,1.65,20.57l-18.12,10.81v77.13c0,5.11,3.44,11.28,7.73,13.81Z" transform="translate(-16.38 -16.65)"/><path class="cls-3" d="M342.14,707.26c0,5.08,3.46,11.26,7.73,13.81L409,756.21c16,9.53,42,9.54,58,0l77.69-46.3c16-9.52,16-25,0-34.5L485.5,640.24c-4.27-2.54-7.73-8.72-7.73-13.8V549.3L342.14,630.12Z" transform="translate(-16.38 -16.65)"/><path class="cls-5" d="M342.14,707.26c0,5.08,3.46,11.26,7.73,13.81L409,756.21c16,9.53,42,9.54,58,0l77.69-46.3c16-9.52,16-25,0-34.5L485.5,640.24c-4.27-2.54-7.73-8.72-7.73-13.8V549.3L342.14,630.12Z" transform="translate(-16.38 -16.65)"/><path class="cls-6" d="M501.24,649.63h0l-15.74-9.38c-4.27-2.54-7.73-8.72-7.73-13.8V549.3L342.14,630.12v77.14c0,5.08,3.46,11.26,7.73,13.81l15.47,9.21Z" transform="translate(-16.38 -16.65)"/><path class="cls-3" d="M556.7,692.66V703.8c0,6.26-4,12.47-12,17.26L467,767.33c-7.68,4.6-17.63,6.9-27.67,7.09v-11.1c10-.13,20-2.53,27.67-7.08l77.66-46.32C552.68,705.18,556.7,698.92,556.7,692.66Z" transform="translate(-16.38 -16.65)"/><path class="cls-6" d="M556.7,692.66V703.8c0,6.26-4,12.47-12,17.26L467,767.33c-7.68,4.6-17.63,6.9-27.67,7.09v-11.1c10-.13,20-2.53,27.67-7.08l77.66-46.32C552.68,705.18,556.7,698.92,556.7,692.66Z" transform="translate(-16.38 -16.65)"/><path class="cls-3" d="M124.37,803.14c5,3,13.39,2.82,18.73-.35L667.61,490.51c5.34-3.18,9.66-10.9,9.66-17.26V35.69c0-6.36-4.06-13.92-9.06-16.91s-13.39-2.82-18.73.36L125,331.42c-5.34,3.18-9.66,10.9-9.66,17.26V786.24C115.31,792.6,119.37,800.16,124.37,803.14Z" transform="translate(-16.38 -16.65)"/><path class="cls-3" d="M143.1,802.77,667.61,490.5c5.34-3.18,9.66-10.91,9.66-17.26V35.67c0-6.35-4.32-8.93-9.66-5.75L143.11,342.2c-5.34,3.18-9.66,10.9-9.66,17.26V797C133.44,803.38,137.77,806,143.1,802.77Z" transform="translate(-16.38 -16.65)"/><path class="cls-6" d="M143.1,802.77,667.61,490.5c5.34-3.18,9.66-10.91,9.66-17.26V35.67c0-6.35-4.32-8.93-9.66-5.75L143.11,342.2c-5.34,3.18-9.66,10.9-9.66,17.26V797C133.44,803.38,137.77,806,143.1,802.77Z" transform="translate(-16.38 -16.65)"/><path class="cls-3" d="M141.68,814.15c-5.35,2.44-12.76,2.35-17.31-.37-5-3-9.06-10.54-9.06-16.94V757l18.12,10.82v39.84C133.43,813.46,137,816.08,141.68,814.15Z" transform="translate(-16.38 -16.65)"/><path class="cls-6" d="M141.68,814.15c-5.35,2.44-12.76,2.35-17.31-.37-5-3-9.06-10.54-9.06-16.94V757l18.12,10.82v39.84C133.43,813.46,137,816.08,141.68,814.15Z" transform="translate(-16.38 -16.65)"/><path class="cls-3" d="M133.43,767.82v39.82c0,6.36,4.33,8.93,9.66,5.76L667.61,501.12c5.34-3.18,9.66-10.9,9.66-17.26V444Z" transform="translate(-16.38 -16.65)"/><path class="cls-5" d="M133.44,767.73v39.91c0,6.36,4.33,8.93,9.66,5.76L667.61,501.12c5.34-3.18,9.66-10.9,9.66-17.26V444Z" transform="translate(-16.38 -16.65)"/><path class="cls-3" d="M151.56,717.83V365.66a13.28,13.28,0,0,1,5.79-10.35L653.34,60c3.2-1.9,5.8-.36,5.8,3.45V415.64a13.28,13.28,0,0,1-5.8,10.36l-496,295.28C154.16,723.19,151.56,721.65,151.56,717.83Z" transform="translate(-16.38 -16.65)"/><path class="cls-7" d="M151.56,717.83V365.66a13.28,13.28,0,0,1,5.79-10.35L653.34,60c3.2-1.9,5.8-.36,5.8,3.45V415.64a13.28,13.28,0,0,1-5.8,10.36l-496,295.28C154.16,723.19,151.56,721.65,151.56,717.83Z" transform="translate(-16.38 -16.65)"/><path class="cls-8" d="M136.28,349.6a21.57,21.57,0,0,0-2.85,9.85V767.82L115.31,757V348.68a21.08,21.08,0,0,1,2.84-9.85Z" transform="translate(-16.38 -16.65)"/><path class="cls-5" d="M677.17,34c-.68-5.14-4.7-7-9.57-4.13L143.11,342.21a20.2,20.2,0,0,0-6.83,7.4l-18.12-10.79a20.26,20.26,0,0,1,6.83-7.4L649.48,19.14c5.35-3.18,13.71-3.34,18.74-.35C672.79,21.5,676.56,28.07,677.17,34Z" transform="translate(-16.38 -16.65)"/></g><g id="Window"><path class="cls-3" d="M192.06,433.08a10.75,10.75,0,0,1-4.51-8.42V385.92a11,11,0,0,1,4.82-8.59l493.69-294a10,10,0,0,1,9.33-.17,10.68,10.68,0,0,1,4.5,8.41v38.74a11,11,0,0,1-4.8,8.59l-493.69,294A10.07,10.07,0,0,1,192.06,433.08Z" transform="translate(-16.38 -16.65)"/><path class="cls-9" d="M699.84,90.79c-.34-2.56-2.36-3.5-4.76-2.06l-493.69,294a10.33,10.33,0,0,0-3.4,3.72L189,381a10.15,10.15,0,0,1,3.4-3.69l493.7-294a10,10,0,0,1,9.31-.19A10.71,10.71,0,0,1,699.84,90.79Z" transform="translate(-16.38 -16.65)"/><path class="cls-1" d="M201.39,748.21a8.15,8.15,0,0,1-3.78,1.18,9.31,9.31,0,0,1-5.54-1c-2.51-1.49-4.51-5.25-4.51-8.41l0-295.29,9,5.39V745.34c0,2.25,1.1,3.55,2.68,3.55A4.6,4.6,0,0,0,201.39,748.21Z" transform="translate(-16.38 -16.65)"/><path class="cls-10" d="M198,386.41a10.27,10.27,0,0,0-1.41,4.88v58.79l-9-5.39V385.92c0-.2,0-.39,0-.6a11.36,11.36,0,0,1,.18-1.23A11.82,11.82,0,0,1,189,381Z" transform="translate(-16.38 -16.65)"/><path class="cls-3" d="M699.88,91.6v26.51L345.83,329c-2.65,1.58-4.8.3-4.8-2.87V316c0-3.16-2.16-4.44-4.83-2.86L219.46,382.69a11.05,11.05,0,0,0-4.83,8.6v10a11,11,0,0,1-4.8,8.59l-13.25,7.89V391.29a11.09,11.09,0,0,1,4.81-8.6l493.69-294C697.72,87.15,699.88,88.43,699.88,91.6Z" transform="translate(-16.38 -16.65)"/><path class="cls-11" d="M199.25,748.39c-1.34,0-2.17-1.17-2.17-3V418.09l13-7.74c1.39-.83,2.82-5.79,5-13.86,1.54-5.65,3.45-12.68,4.61-13.37l114.8-68.35a.17.17,0,0,1,.1,0c1.06,0,3.35,4.14,5,7.17,2.61,4.73,4.29,7.64,5.85,7.64a1.23,1.23,0,0,0,.62-.17L699.38,119V445.65a10.49,10.49,0,0,1-4.55,8.17l-493.7,294A3.74,3.74,0,0,1,199.25,748.39Z" transform="translate(-16.38 -16.65)"/><path class="cls-2" d="M698.88,119.87V445.65a10.08,10.08,0,0,1-4.31,7.74l-493.7,294a3.27,3.27,0,0,1-1.62.54c-1.55,0-1.67-1.95-1.67-2.55v-327l12.76-7.6c1.51-.9,2.76-5,5.25-14.16,1.33-4.9,3.34-12.3,4.38-13.07l114.68-68.28c1,.44,3.2,4.45,4.53,6.88,2.78,5,4.45,7.9,6.29,7.9a1.68,1.68,0,0,0,.87-.24L698.88,119.87M334.76,315.2h0M699.88,118.11,345.83,329a.65.65,0,0,1-.36.1c-2.69,0-8.15-14.81-10.86-14.81a.81.81,0,0,0-.36.1L219.46,382.69c-2.67,1.59-7,25.65-9.63,27.23l-13.25,7.89V745.34c0,2.25,1.09,3.55,2.67,3.55a4.26,4.26,0,0,0,2.14-.68l493.69-294a11,11,0,0,0,4.8-8.6V118.11Z" transform="translate(-16.38 -16.65)"/><path class="cls-1" d="M281,561l65.8-39.17c1.77-1.06,3.21-.2,3.21,1.91V638a7.36,7.36,0,0,1-3.21,5.73L281,682.9c-1.77,1.05-3.2.2-3.2-1.91V566.74A7.36,7.36,0,0,1,281,561Z" transform="translate(-16.38 -16.65)"/><path class="cls-2" d="M293.07,568.18l41.73-24.85c1.77-1.05,3.2-.3,3.2,1.68a7.11,7.11,0,0,1-3.2,5.49l-41.73,24.84c-1.77,1.06-3.21.31-3.21-1.67A7.12,7.12,0,0,1,293.07,568.18Z" transform="translate(-16.38 -16.65)"/><path class="cls-3" d="M289.86,586.71v2.58c0,1.27.86,1.78,1.92,1.15l2.17-1.29a4.41,4.41,0,0,0,1.93-3.44v-2.58c0-1.27-.86-1.78-1.93-1.15l-2.17,1.29A4.43,4.43,0,0,0,289.86,586.71Z" transform="translate(-16.38 -16.65)"/><path class="cls-2" d="M301.9,580.84c0,2,1.43,2.72,3.2,1.67l29.69-17.68a7.1,7.1,0,0,0,3.21-5.49c0-2-1.43-2.73-3.21-1.67L305.1,575.34A7.15,7.15,0,0,0,301.9,580.84Z" transform="translate(-16.38 -16.65)"/><path class="cls-3" d="M289.86,601.06v2.58c0,1.26.86,1.78,1.92,1.14l2.17-1.29a4.39,4.39,0,0,0,1.93-3.43v-2.59c0-1.26-.86-1.78-1.93-1.14l-2.17,1.29A4.41,4.41,0,0,0,289.86,601.06Z" transform="translate(-16.38 -16.65)"/><path class="cls-2" d="M301.9,595.18c0,2,1.43,2.73,3.2,1.67l29.69-17.67a7.13,7.13,0,0,0,3.21-5.5c0-2-1.43-2.72-3.21-1.67L305.1,589.69A7.11,7.11,0,0,0,301.9,595.18Z" transform="translate(-16.38 -16.65)"/><path class="cls-3" d="M289.86,615.38V618c0,1.27.86,1.78,1.92,1.15l2.17-1.3a4.39,4.39,0,0,0,1.93-3.43v-2.59c0-1.26-.86-1.77-1.93-1.14l-2.17,1.29A4.41,4.41,0,0,0,289.86,615.38Z" transform="translate(-16.38 -16.65)"/><path class="cls-2" d="M301.9,609.5c0,2,1.43,2.73,3.2,1.68l29.69-17.68A7.13,7.13,0,0,0,338,588c0-2-1.43-2.73-3.21-1.68L305.1,604A7.11,7.11,0,0,0,301.9,609.5Z" transform="translate(-16.38 -16.65)"/><path class="cls-3" d="M289.86,629.69v2.58c0,1.27.86,1.78,1.92,1.15l2.17-1.29a4.39,4.39,0,0,0,1.93-3.44v-2.58c0-1.27-.86-1.78-1.93-1.15l-2.17,1.29A4.44,4.44,0,0,0,289.86,629.69Z" transform="translate(-16.38 -16.65)"/><path class="cls-2" d="M301.9,623.82c0,2,1.43,2.73,3.2,1.67l29.69-17.68a7.1,7.1,0,0,0,3.21-5.49c0-2-1.43-2.73-3.21-1.67L305.1,618.32A7.15,7.15,0,0,0,301.9,623.82Z" transform="translate(-16.38 -16.65)"/><path class="cls-2" d="M292.81,647.14l41.73-24.84c1.77-1.06,3.21-.31,3.21,1.67a7.16,7.16,0,0,1-3.21,5.5l-41.73,24.84c-1.77,1.05-3.2.3-3.2-1.68A7.14,7.14,0,0,1,292.81,647.14Z" transform="translate(-16.38 -16.65)"/><path class="cls-3" d="M289.61,665.68v2.58c0,1.26.86,1.78,1.92,1.14l2.17-1.29a4.41,4.41,0,0,0,1.92-3.43v-2.59c0-1.26-.86-1.78-1.92-1.14l-2.17,1.29A4.41,4.41,0,0,0,289.61,665.68Z" transform="translate(-16.38 -16.65)"/><path class="cls-2" d="M301.64,659.8c0,2,1.44,2.73,3.21,1.67l29.69-17.67a7.16,7.16,0,0,0,3.21-5.5c0-2-1.44-2.72-3.21-1.67l-29.69,17.68A7.12,7.12,0,0,0,301.64,659.8Z" transform="translate(-16.38 -16.65)"/><path class="cls-12" d="M677.32,108.23c3.34-2,6-.38,6,3.6a13.91,13.91,0,0,1-6,10.82c-3.34,2-6.06.37-6.06-3.61A13.9,13.9,0,0,1,677.32,108.23Z" transform="translate(-16.38 -16.65)"/><path class="cls-12" d="M655.52,121.19c3.34-2,6.06-.38,6.06,3.6a13.92,13.92,0,0,1-6.06,10.82c-3.34,2-6.06.37-6.06-3.61A13.9,13.9,0,0,1,655.52,121.19Z" transform="translate(-16.38 -16.65)"/><ellipse class="cls-12" cx="633.72" cy="141.36" rx="8.77" ry="4.98" transform="translate(190.6 614.08) rotate(-61.49)"/><path class="cls-13" d="M699.88,118.11v32.27l-503.3,299.7V417.81l9.9-5.91c2.64-1.58,3.53-4,4.8-8.6l3.35-12c1.06-4.17,2.16-7,4.83-8.6l114.79-68.35c2.67-1.58,4.75-1.75,6.78,1.7l4.11,7.71c1.51,2.69,2.27,4.27,4.91,2.69Z" transform="translate(-16.38 -16.65)"/><polygon class="cls-2" points="180.21 401.16 180.21 433.43 171.16 428.04 171.16 395.8 180.21 401.16"/><path class="cls-14" d="M218.66,420.13l-7.56,4.5,2.88-5.71a1.46,1.46,0,0,0,.06-1.4c-.22-.27-.6-.08-.86.42l-4.09,8.13,0,0-.11.3,0,.1a2,2,0,0,0-.05.42,1.25,1.25,0,0,0,.05.36l0,.06a.83.83,0,0,0,.11.17h0l4.09,3.25a.32.32,0,0,0,.4,0,1.24,1.24,0,0,0,.46-.6c.22-.53.2-1.13-.06-1.33l-2.88-2.28,7.56-4.5a1.68,1.68,0,0,0,.61-1.32C219.27,420.2,219,419.93,218.66,420.13Z" transform="translate(-16.38 -16.65)"/><path class="cls-14" d="M225,416.38l7.55-4.5-2.88-2.28c-.25-.2-.28-.8-.06-1.33s.61-.8.86-.6l4.1,3.25h0a.5.5,0,0,1,.11.17s0,0,0,.06a1,1,0,0,1,.06.36,1.52,1.52,0,0,1-.06.42.54.54,0,0,1,0,.1,1.82,1.82,0,0,1-.11.3s0,0,0,0l-4.1,8.13a1.16,1.16,0,0,1-.4.48.34.34,0,0,1-.46-.06,1.49,1.49,0,0,1,.06-1.4l2.88-5.71-7.55,4.5c-.34.2-.61-.07-.61-.61A1.65,1.65,0,0,1,225,416.38Z" transform="translate(-16.38 -16.65)"/><path class="cls-14" d="M249.75,393.94c-.05-.47-.44-.4-.65.1l-1,2.61c-1.77-.19-3.9,1.58-5.35,4.73-1.87,4.09-1.87,8.92,0,10.78a2.62,2.62,0,0,0,3.4.21,9.64,9.64,0,0,0,3.39-4.25,1.37,1.37,0,0,0,0-1.37c-.24-.23-.62,0-.86.52-1.4,3-3.67,4.4-5.07,3s-1.39-5,0-8c1-2.17,2.43-3.46,3.67-3.54l-.78,2c-.2.51,0,1,.3.77l3.09-2.07a1.07,1.07,0,0,0,.34-.87Z" transform="translate(-16.38 -16.65)"/><path class="cls-14" d="M330.94,329.07l2.75-6a1.85,1.85,0,0,0,0-1.87c-.32-.32-.85,0-1.18.7l-2.75,6L327,325.17c-.33-.32-.86,0-1.18.7a1.85,1.85,0,0,0,0,1.87l2.75,2.74-2.75,6a1.85,1.85,0,0,0,0,1.87.46.46,0,0,0,.59,0,1.78,1.78,0,0,0,.59-.74l2.75-6,2.75,2.73a.47.47,0,0,0,.59,0,1.64,1.64,0,0,0,.59-.74,1.85,1.85,0,0,0,0-1.87Z" transform="translate(-16.38 -16.65)"/><path class="cls-11" d="M259.77,401.34v-10a11.05,11.05,0,0,1,4.81-8.59L668,142.6c2.66-1.58,4.82-.3,4.82,2.87v10A11.06,11.06,0,0,1,668,164.1L264.58,404.2C261.93,405.78,259.77,404.5,259.77,401.34Z" transform="translate(-16.38 -16.65)"/><path class="cls-15" d="M665.19,147.91l1.26,2.77a.3.3,0,0,0,.41.16l2.83-1.11c.45-.18.63.47.3,1.1l-2,4a1.34,1.34,0,0,0-.16.76l.48,3.58c.08.57-.39,1.32-.79,1.26l-2.53-.32a.63.63,0,0,0-.51.31l-2.53,3.33c-.4.53-.87.34-.79-.32l.48-4.16a.61.61,0,0,0-.15-.57l-2.05-1.53c-.32-.24-.14-1.1.3-1.46l2.83-2.25a1.3,1.3,0,0,0,.41-.65l1.27-4.28C664.41,147.81,665,147.47,665.19,147.91Z" transform="translate(-16.38 -16.65)"/><g class="cls-16"><path class="cls-17" d="M678.48,141.38a1.66,1.66,0,0,1-1.45-.86,1.76,1.76,0,0,1,.61-2.35l13.55-8.06a1.62,1.62,0,0,1,2.27.63,1.74,1.74,0,0,1-.61,2.34l-13.54,8.07A1.68,1.68,0,0,1,678.48,141.38Z" transform="translate(-16.38 -16.65)"/><path class="cls-17" d="M678.48,149.44a1.66,1.66,0,0,1-1.45-.86,1.75,1.75,0,0,1,.61-2.34l13.55-8.07a1.63,1.63,0,0,1,2.27.63,1.75,1.75,0,0,1-.61,2.35l-13.54,8.06A1.58,1.58,0,0,1,678.48,149.44Z" transform="translate(-16.38 -16.65)"/><path class="cls-17" d="M678.48,157.51a1.66,1.66,0,0,1-1.45-.86,1.76,1.76,0,0,1,.61-2.35l13.55-8.06a1.62,1.62,0,0,1,2.27.63,1.74,1.74,0,0,1-.61,2.34l-13.54,8.07A1.68,1.68,0,0,1,678.48,157.51Z" transform="translate(-16.38 -16.65)"/></g><polygon class="cls-17" points="180.21 433.43 180.19 465.66 683.45 166.02 683.51 133.74 180.21 433.43"/><path class="cls-11" d="M253,429.53v6.23c0,1.27.88,1.79,1.95,1.16l75.61-45.05V381l-75.61,45.05A4.49,4.49,0,0,0,253,429.53Z" transform="translate(-16.38 -16.65)"/><path class="cls-3" d="M340.74,374.92c1.08-.64,1.95-.12,1.95,1.16v6.23a4.44,4.44,0,0,1-1.95,3.47l-10.22,6.09V381Z" transform="translate(-16.38 -16.65)"/><path class="cls-11" d="M340,383.46l-1.14-.36a7.17,7.17,0,0,0,.18-1.52,2.8,2.8,0,0,0-1-2.51,1.59,1.59,0,0,0-1.66.08c-1.28.76-2.28,2.91-2.28,4.89a2.8,2.8,0,0,0,1,2.51,1.33,1.33,0,0,0,.72.2,1.79,1.79,0,0,0,.94-.28,4.93,4.93,0,0,0,1.84-2.54l1.14.37h.13a.41.41,0,0,0,.4-.3A.44.44,0,0,0,340,383.46Zm-3.66,2.25a.79.79,0,0,1-.82.09,2.09,2.09,0,0,1-.61-1.76,5.32,5.32,0,0,1,1.85-4.13,1.06,1.06,0,0,1,.51-.17.59.59,0,0,1,.31.09,2,2,0,0,1,.61,1.75C338.18,383.22,337.33,385.12,336.33,385.71Z" transform="translate(-16.38 -16.65)"/><path class="cls-11" d="M239.77,435.1l-5.17,3.08a4.41,4.41,0,0,0-1.92,3.43v6.17c0,1.27.86,1.78,1.92,1.15l5.17-3.08a4.41,4.41,0,0,0,1.92-3.44v-6.17C241.7,435,240.83,434.47,239.77,435.1Z" transform="translate(-16.38 -16.65)"/><path class="cls-3" d="M419,325.78c-3.81,2.27-6.9,7.78-6.9,12.32s3.09,6.37,6.9,4.11,6.9-7.79,6.89-12.33S422.77,323.51,419,325.78Z" transform="translate(-16.38 -16.65)"/><path class="cls-12" d="M418.16,333a1.18,1.18,0,0,1-.61-.16,1.57,1.57,0,0,1-.66-1.43,4.1,4.1,0,0,1,1.81-3.24h0a1.48,1.48,0,0,1,1.53-.12,1.57,1.57,0,0,1,.66,1.43,4.1,4.1,0,0,1-1.81,3.24A1.81,1.81,0,0,1,418.16,333Z" transform="translate(-16.38 -16.65)"/><path class="cls-12" d="M421.69,333.48a2.33,2.33,0,0,0-2.43.2l-1,.59a7,7,0,0,0-3.1,5.55v.73a3.74,3.74,0,0,0,3.81-.42,11.33,11.33,0,0,0,3.81-4.11v-.18A2.63,2.63,0,0,0,421.69,333.48Z" transform="translate(-16.38 -16.65)"/><path class="cls-2" d="M434.75,320.26,482,292.13c1.91-1.14,3.46-.27,3.46,1.93a7.82,7.82,0,0,1-3.46,6.06l-47.24,28.13c-1.91,1.13-3.47.27-3.47-1.93A7.81,7.81,0,0,1,434.75,320.26Z" transform="translate(-16.38 -16.65)"/><path class="cls-2" d="M506.85,277.39l29.3-17.61c1.92-1.14,3.47-.28,3.47,1.93a7.81,7.81,0,0,1-3.46,6.05l-29.31,17.62c-1.91,1.14-3.46.27-3.46-1.93A7.82,7.82,0,0,1,506.85,277.39Z" transform="translate(-16.38 -16.65)"/><path class="cls-2" d="M561.08,245.26l20.21-12.11c1.92-1.14,3.47-.27,3.47,1.93a7.82,7.82,0,0,1-3.46,6.06l-20.22,12.11c-1.91,1.14-3.46.27-3.46-1.93A7.82,7.82,0,0,1,561.08,245.26Z" transform="translate(-16.38 -16.65)"/><path class="cls-7" d="M494.48,295.06a.85.85,0,0,1-.83-.86V283.45a.83.83,0,1,1,1.66,0V294.2A.85.85,0,0,1,494.48,295.06Z" transform="translate(-16.38 -16.65)"/><path class="cls-7" d="M548.65,262.81a.86.86,0,0,1-.84-.86V251.2a.84.84,0,1,1,1.67,0V262A.85.85,0,0,1,548.65,262.81Z" transform="translate(-16.38 -16.65)"/><path class="cls-7" d="M593.79,235.93a.85.85,0,0,1-.84-.86V224.32a.84.84,0,1,1,1.67,0v10.75A.84.84,0,0,1,593.79,235.93Z" transform="translate(-16.38 -16.65)"/><path class="cls-3" d="M611.15,219.35v-2c0-2.26-1.33-3.3-3-2.32h0a7.41,7.41,0,0,0-3,5.85v1.77a7.12,7.12,0,0,1-1,3.45h0a1.92,1.92,0,0,0-.24.9h0c0,.57.33.83.75.58l6.93-4.13a1.83,1.83,0,0,0,.75-1.47h0a.73.73,0,0,0-.22-.6h0A2.12,2.12,0,0,1,611.15,219.35Z" transform="translate(-16.38 -16.65)"/><path class="cls-3" d="M609.61,225.32a3.56,3.56,0,0,1-1.43,2.81c-.78.47-1.42,0-1.42-1.11Z" transform="translate(-16.38 -16.65)"/><path class="cls-3" d="M623.84,210.69a1.28,1.28,0,0,1-.69-.19,1.76,1.76,0,0,1-.75-1.6,4.63,4.63,0,0,1,2.05-3.66h0a1.66,1.66,0,0,1,1.73-.13,1.78,1.78,0,0,1,.75,1.61,4.65,4.65,0,0,1-2,3.66A2.08,2.08,0,0,1,623.84,210.69Z" transform="translate(-16.38 -16.65)"/><path class="cls-3" d="M627.83,211.22a2.63,2.63,0,0,0-2.74.22l-1.13.67a7.92,7.92,0,0,0-3.51,6.26v.82c1.11.64,2.63.53,4.3-.46a12.84,12.84,0,0,0,4.3-4.65v-.2A3,3,0,0,0,627.83,211.22Z" transform="translate(-16.38 -16.65)"/><path class="cls-3" d="M629.35,205.38a1.37,1.37,0,0,1-.69-.18,1.76,1.76,0,0,1-.75-1.61,4.63,4.63,0,0,1,2.05-3.66h0a1.62,1.62,0,0,1,1.72-.13,1.75,1.75,0,0,1,.75,1.6,4.63,4.63,0,0,1-2,3.66A2,2,0,0,1,629.35,205.38Z" transform="translate(-16.38 -16.65)"/><path class="cls-3" d="M633.34,205.92a2.64,2.64,0,0,0-2.76.21l-1.11.68a7.34,7.34,0,0,0-2.87,3.49,2.48,2.48,0,0,1,2.43-.05,3,3,0,0,1,1.22,2.66v.5a12.47,12.47,0,0,0,4.31-4.63v-.2A2.93,2.93,0,0,0,633.34,205.92Z" transform="translate(-16.38 -16.65)"/><path class="cls-3" d="M647.06,191.25a13,13,0,0,0-5.65,10.13,4.43,4.43,0,0,0,1.27,3.46L642,208.3c-.09.44.19.62.46.29l2.55-3.06a5.55,5.55,0,0,0,2.08-.75,13,13,0,0,0,5.65-10.13C652.71,190.91,650.18,189.39,647.06,191.25Z" transform="translate(-16.38 -16.65)"/><path class="cls-3" d="M674.24,174.93a3.48,3.48,0,0,1,1.4-.51,1.9,1.9,0,0,1,1.15.23,2,2,0,0,1,.76.91,4,4,0,0,1,.28,1.58,6.43,6.43,0,0,1-.16,1.42,9.93,9.93,0,0,1-.41,1.27,9.52,9.52,0,0,1-.54,1.16l-.56,1.06c-.18.35-.35.69-.49,1a4.13,4.13,0,0,0-.3,1,2.42,2.42,0,0,1-.13.48.54.54,0,0,1-.23.31l-1.62,1a.18.18,0,0,1-.25,0,.46.46,0,0,1-.11-.34,5.11,5.11,0,0,1,.18-1.35,9.45,9.45,0,0,1,.45-1.26,11.74,11.74,0,0,1,.58-1.18c.2-.38.4-.73.57-1.07a9.11,9.11,0,0,0,.45-1,2.48,2.48,0,0,0,.18-.89c0-.4-.1-.67-.3-.78s-.49-.06-.9.19a2.26,2.26,0,0,0-.85.79,3.48,3.48,0,0,0-.38.85c-.08.27-.15.52-.21.74a.75.75,0,0,1-.34.49l-1.62,1a.15.15,0,0,1-.2,0,.37.37,0,0,1-.09-.29,7.33,7.33,0,0,1,.27-1.7,9.84,9.84,0,0,1,.72-1.93,10.07,10.07,0,0,1,1.15-1.81A5.73,5.73,0,0,1,674.24,174.93Zm1.16,13.71a1.11,1.11,0,0,1-.11.46.72.72,0,0,1-.25.32l-1.67,1a.2.2,0,0,1-.26,0,.46.46,0,0,1-.1-.34v-2.13a1.09,1.09,0,0,1,.1-.46.72.72,0,0,1,.26-.32l1.67-1a.18.18,0,0,1,.25,0,.48.48,0,0,1,.11.34Z" transform="translate(-16.38 -16.65)"/><path class="cls-3" d="M277.82,450.44v96c0,3.17,2.15,4.45,4.81,2.87L613.84,352.08a11.05,11.05,0,0,0,4.81-8.59v-96c0-3.17-2.16-4.45-4.81-2.87L282.63,441.84A11,11,0,0,0,277.82,450.44Z" transform="translate(-16.38 -16.65)"/><path class="cls-18" d="M277.82,450.44v96c0,3.17,2.15,4.45,4.81,2.87L613.84,352.08a11.05,11.05,0,0,0,4.81-8.59v-96c0-3.17-2.16-4.45-4.81-2.87L282.63,441.84A11,11,0,0,0,277.82,450.44Z" transform="translate(-16.38 -16.65)"/><path class="cls-3" d="M304.9,464.42c-10,5.94-18.06,20.38-18,32.25s8.08,16.69,18,10.75S323,487.05,323,475.17,314.86,458.48,304.9,464.42Z" transform="translate(-16.38 -16.65)"/><path class="cls-12" d="M302.79,483.36a3.1,3.1,0,0,1-1.6-.43,4.1,4.1,0,0,1-1.74-3.73,10.76,10.76,0,0,1,4.76-8.49h0a3.8,3.8,0,0,1,4-.31,4.09,4.09,0,0,1,1.74,3.73,10.75,10.75,0,0,1-4.75,8.49A4.76,4.76,0,0,1,302.79,483.36Z" transform="translate(-16.38 -16.65)"/><path class="cls-12" d="M312,484.6c-1.77-1.06-4-.88-6.35.5l-2.62,1.56c-4.56,2.71-8.13,9.09-8.13,14.51v1.92c2.57,1.47,6.09,1.22,10-1.09a29.42,29.42,0,0,0,10-10.77v-.46C314.87,487.92,313.84,485.67,312,484.6Z" transform="translate(-16.38 -16.65)"/><path class="cls-17" d="M335.45,460.5l38.25-22.77c1.91-1.14,3.46-.42,3.46,1.6a7.52,7.52,0,0,1-3.46,5.73l-38.25,22.78c-1.91,1.13-3.46.42-3.46-1.61A7.53,7.53,0,0,1,335.45,460.5Z" transform="translate(-16.38 -16.65)"/><path class="cls-17" d="M334,475.75l22.49-13.39c1.12-.67,2-.25,2,.94a4.44,4.44,0,0,1-2,3.37L334,480.06c-1.12.67-2,.25-2-.94A4.43,4.43,0,0,1,334,475.75Z" transform="translate(-16.38 -16.65)"/><path class="cls-19" d="M282.63,549.45,613.84,352.21a11.05,11.05,0,0,0,4.81-8.59V327.89L277.82,530.81v15.78C277.82,549.75,280,551,282.63,549.45Z" transform="translate(-16.38 -16.65)"/><path class="cls-20" d="M368.1,493.92a.86.86,0,0,1-.84-.86V482.31a.84.84,0,1,1,1.67,0v10.75A.85.85,0,0,1,368.1,493.92Z" transform="translate(-16.38 -16.65)"/><path class="cls-2" d="M327.71,508.07,357,490.46c1.91-1.14,3.46-.28,3.46,1.93a7.82,7.82,0,0,1-3.46,6.05l-29.3,17.62c-1.91,1.14-3.47.27-3.47-1.93A7.81,7.81,0,0,1,327.71,508.07Z" transform="translate(-16.38 -16.65)"/><path class="cls-20" d="M421,462.21a.85.85,0,0,1-.83-.86V450.6a.84.84,0,1,1,1.67,0v10.75A.86.86,0,0,1,421,462.21Z" transform="translate(-16.38 -16.65)"/><path class="cls-2" d="M380.62,476.36l29.3-17.61c1.92-1.14,3.47-.28,3.47,1.93a7.82,7.82,0,0,1-3.46,6.05l-29.3,17.62c-1.92,1.14-3.47.27-3.47-1.93A7.82,7.82,0,0,1,380.62,476.36Z" transform="translate(-16.38 -16.65)"/><path class="cls-20" d="M473.93,430.5a.85.85,0,0,1-.83-.86V418.89a.83.83,0,1,1,1.66,0v10.75A.85.85,0,0,1,473.93,430.5Z" transform="translate(-16.38 -16.65)"/><path class="cls-2" d="M433.54,444.65,462.84,427c1.91-1.14,3.47-.28,3.47,1.93a7.81,7.81,0,0,1-3.47,6l-29.3,17.62c-1.91,1.14-3.46.27-3.46-1.93A7.82,7.82,0,0,1,433.54,444.65Z" transform="translate(-16.38 -16.65)"/><path class="cls-20" d="M526.85,398.79a.86.86,0,0,1-.84-.86V387.18a.84.84,0,1,1,1.67,0v10.75A.85.85,0,0,1,526.85,398.79Z" transform="translate(-16.38 -16.65)"/><path class="cls-2" d="M486.46,412.94l29.3-17.61c1.91-1.14,3.46-.28,3.46,1.93a7.82,7.82,0,0,1-3.46,6.05l-29.3,17.62c-1.92,1.14-3.47.27-3.47-1.93A7.81,7.81,0,0,1,486.46,412.94Z" transform="translate(-16.38 -16.65)"/><path class="cls-2" d="M539.37,381.23l29.3-17.61c1.92-1.14,3.47-.28,3.47,1.93a7.82,7.82,0,0,1-3.46,6.05l-29.31,17.62c-1.91,1.14-3.46.27-3.46-1.93A7.82,7.82,0,0,1,539.37,381.23Z" transform="translate(-16.38 -16.65)"/></g><g id="Plants"><path class="cls-3" d="M266.18,871.17l29.55-17.56S314.06,798,309.42,746.72c-5.77-63.69-34.93-86.07-52.07-79s-13.59,32.48,4.57,66.5C276.31,761.24,276.35,823.41,266.18,871.17Z" transform="translate(-16.38 -16.65)"/><path class="cls-10" d="M266.18,871.17l29.55-17.56S314.06,798,309.42,746.72c-5.77-63.69-34.93-86.07-52.07-79s-13.59,32.48,4.57,66.5C276.31,761.24,276.35,823.41,266.18,871.17Z" transform="translate(-16.38 -16.65)"/><path class="cls-12" d="M280.38,864.18a1.35,1.35,0,0,0,1.28-.95c19-60.07,19.82-144.44-16.18-182.47a1.31,1.31,0,0,0-1.9,0,1.4,1.4,0,0,0,0,2c34,35.9,34.6,119.55,15.55,179.68a1.4,1.4,0,0,0,.86,1.75A1.51,1.51,0,0,0,280.38,864.18Z" transform="translate(-16.38 -16.65)"/><path class="cls-3" d="M213.11,902.76c-3.06,1.81-9.36-2.15-11.78-3.82a29.93,29.93,0,0,1-9.71-11.49,29,29,0,0,1-2.43-17,68,68,0,0,1,2.08-9c.81-2.91,1.62-5.83,2.44-8.74s1.61-5.86,1.24-8.82c-.74-6-5.89-10.18-10.57-13.79-5.18-4-10.57-9.27-10.54-16.48,0-5.55,2.82-10.71,6.15-15.07s7.31-8.22,10.32-12.82c2.18-3.31,3.87-7.21,3.52-11.19a18.83,18.83,0,0,0-2.37-7c-2.46-4.69-5.71-9-7.41-14s-1.46-11.3,2.35-14.91c3.13-3,7.78-3.37,12-3.08,3.91.27,7.74,2.09,11.17,4,11.09,6.36,17.41,19.9,29.18,24.79,4.54,1.89,9.51,2.3,14.24,3.59s9.55,3.78,11.74,8.3c4.32,8.89-3.69,19.85-.66,29.29,2.69,8.36,10.56,11.56,15,19.09a18.3,18.3,0,0,1,2.07,10.94,53.87,53.87,0,0,1-4.47,18.48c-2.5,6-9.84,16.65-9.84,16.65C266.65,871,213.58,902.48,213.11,902.76Z" transform="translate(-16.38 -16.65)"/><path class="cls-12" d="M244.8,885.11A1.22,1.22,0,0,0,246,884c5.71-46.67-15.9-109.62-48.16-140.33a1.17,1.17,0,0,0-1.69.07,1.25,1.25,0,0,0,.07,1.74c31.76,30.23,53,92.24,47.4,138.21a1.23,1.23,0,0,0,1,1.38Z" transform="translate(-16.38 -16.65)"/><path class="cls-12" d="M239.28,825.39a1.16,1.16,0,0,0,1-.5,1.25,1.25,0,0,0-.24-1.72c-17.8-13.77-45-11.37-46.16-11.27a1.24,1.24,0,0,0,.22,2.46c.27,0,27.44-2.42,44.51,10.78A1.12,1.12,0,0,0,239.28,825.39Z" transform="translate(-16.38 -16.65)"/><path class="cls-12" d="M236.6,813.94a1.2,1.2,0,0,0,1.19-1.18c.81-21.38,16.47-34.3,16.63-34.43a1.27,1.27,0,0,0,.21-1.73,1.18,1.18,0,0,0-1.68-.21c-.68.55-16.69,13.72-17.54,36.27a1.21,1.21,0,0,0,1.14,1.28Z" transform="translate(-16.38 -16.65)"/></g><g id="Post"><path class="cls-20" d="M530.61,863.94c-39.94-23.78-67.2-65-74.07-112L440.79,644c-6.07-41.55-28.12-78.83-61.16-103.42l-20.56-15.3V537.4l11.15,8.3c33,24.53,55,61.7,61.13,103.15l16.06,108.62c6.94,46.91,34.17,88,74,111.76l9.18,5.46V863.94Z" transform="translate(-16.38 -16.65)"/><path class="cls-11" d="M530.61,863.36c-39.89-23.86-66.7-64.49-73.57-111.53L441.28,644c-6-41.42-28.41-79.24-61.35-103.75l-20-14.86,251.85-150,20.3,15.11c32.73,24.35,55,61.93,61,103.09l15.75,107.87c6.89,47.16,33.69,87.92,73.59,112Z" transform="translate(-16.38 -16.65)"/><path class="cls-2" d="M611.79,376l20,14.91a152.78,152.78,0,0,1,40.43,45,157.59,157.59,0,0,1,20.33,57.71l15.76,107.88c6.87,47,33.48,87.7,73.11,111.88L530.61,862.78A153.28,153.28,0,0,1,482,816.09a159,159,0,0,1-24.48-64.33L441.78,643.89c-6.07-41.56-28.51-79.49-61.55-104.08L360.87,525.4,611.79,376m.07-1.2L359.07,525.31l20.56,15.3c33,24.59,55.09,61.87,61.16,103.42l15.75,107.88c6.87,47,34.13,88.25,74.07,112h0l252.78-150.5c-39.93-23.78-67.19-65-74.06-112L693.57,493.53C687.5,452,665.46,414.7,632.42,390.11L611.86,374.8Z" transform="translate(-16.38 -16.65)"/><polygon class="cls-19" points="514.23 847.29 767.01 696.79 767.01 707.54 514.23 858.04 514.23 847.29"/><path class="cls-3" d="M406.31,517.21c-8.81,3.87-9.75,11.82-2.1,17.76s21,7.62,29.83,3.76,9.77-11.82,2.1-17.76S415.12,513.35,406.31,517.21Z" transform="translate(-16.38 -16.65)"/><path class="cls-12" d="M415.85,526.88a12.09,12.09,0,0,1-2.31-.07,9.57,9.57,0,0,1-4.6-1.71c-2.05-1.59-1.81-3.64.55-4.68h0a10.77,10.77,0,0,1,9.48,1.2c2,1.58,1.8,3.64-.55,4.67A8,8,0,0,1,415.85,526.88Z" transform="translate(-16.38 -16.65)"/><path class="cls-12" d="M428.37,526.66a15.08,15.08,0,0,0-7.74.83l-2.32,1c-4,1.77-4.44,5.28-.94,8l1.23,1c4.21.51,9.09.37,12.58-1,3.8-1.53,6.15-3.27,6.49-5.77l-1.73-1.16A15.9,15.9,0,0,0,428.37,526.66Z" transform="translate(-16.38 -16.65)"/><path class="cls-17" d="M447.34,500.3l74.24-44.2a8.85,8.85,0,0,1,9.31.5l.68.55c2.4,2,2.13,4.93-.53,6.52L456.88,508a8.42,8.42,0,0,1-9.07-.81l-.78-.63C444.61,504.58,444.68,501.88,447.34,500.3Z" transform="translate(-16.38 -16.65)"/><path class="cls-17" d="M463.66,518.13,500.82,496a2.06,2.06,0,0,0,.39-3.41l-.67-.67a3.81,3.81,0,0,0-4.41-.53l-36.95,22.29a2.08,2.08,0,0,0-.39,3.43l.46.46A3.84,3.84,0,0,0,463.66,518.13Z" transform="translate(-16.38 -16.65)"/><path class="cls-21" d="M439.38,560.14l200.35-119.3a6.08,6.08,0,0,1,8,1.81l.4.62a5.43,5.43,0,0,1-1.78,7.67L446,570.32a5.8,5.8,0,0,1-7.81-2c-.14-.23-.29-.45-.43-.67A5.27,5.27,0,0,1,439.38,560.14Z" transform="translate(-16.38 -16.65)"/><path class="cls-21" d="M451.53,580.51l200.52-119.4a5.07,5.07,0,0,1,7.3,2.26l.31.67a6.52,6.52,0,0,1-2.53,8.09L456.58,591.63a4.84,4.84,0,0,1-7.06-2.37l-.34-.75A6.34,6.34,0,0,1,451.53,580.51Z" transform="translate(-16.38 -16.65)"/><path class="cls-21" d="M460.56,602.61,661.24,483.14a4.24,4.24,0,0,1,6.51,2.6c.09.33.19.67.29,1a7.86,7.86,0,0,1-3.34,8.39L464,614.71c-2.66,1.58-5.4.37-6.24-2.67-.1-.37-.21-.74-.31-1.1A7.66,7.66,0,0,1,460.56,602.61Z" transform="translate(-16.38 -16.65)"/><path class="cls-21" d="M466.36,626.73,583,557.27c2.66-1.58,5.19-.33,5.66,2.8l.24,1.6a9.13,9.13,0,0,1-4,8.53L468.27,639.74c-2.66,1.58-5.18.33-5.64-2.8-.08-.56-.16-1.12-.25-1.68A9.15,9.15,0,0,1,466.36,626.73Z" transform="translate(-16.38 -16.65)"/><path class="cls-3" d="M707.55,692.1,516.66,805.78c-5.32,3.16-12.76,1.73-16.12-3.57q-18.1-28.61-24.18-71.26l-7.63-52.25c-.92-6.26,2.65-13.9,8-17.06L667.92,547.77c5.32-3.16,10.37-.65,11.28,5.61l7.64,52.27q4.57,40.46,23.94,71.35C714.12,682.31,712.87,688.93,707.55,692.1Z" transform="translate(-16.38 -16.65)"/><path class="cls-18" d="M707.55,692.1,516.66,805.78c-5.32,3.16-12.76,1.73-16.12-3.57q-18.1-28.61-24.18-71.26l-7.63-52.25c-.92-6.26,2.65-13.9,8-17.06L667.92,547.77c5.32-3.16,10.37-.65,11.28,5.61l7.64,52.27q4.57,40.46,23.94,71.35C714.12,682.31,712.87,688.93,707.55,692.1Z" transform="translate(-16.38 -16.65)"/><path class="cls-3" d="M516.66,805.78,707.55,692.1c5.32-3.17,6.57-9.79,3.23-15.1a155.25,155.25,0,0,1-15.16-31.89L636.4,627.87,610.11,688l28.55,23.69L539,657.63,488,777.11a145.8,145.8,0,0,0,12.5,25.1C503.9,807.51,511.34,808.94,516.66,805.78Z" transform="translate(-16.38 -16.65)"/><path class="cls-3" d="M596.71,615.11c7-4.18,13.71-.71,14.95,7.74s-3.46,18.7-10.48,22.88-13.72.72-14.95-7.74S589.68,619.29,596.71,615.11Z" transform="translate(-16.38 -16.65)"/><path class="cls-3" d="M654.68,759.46a10.54,10.54,0,0,1-1.93-.06A7.88,7.88,0,0,1,648.9,758c-1.71-1.32-1.51-3,.46-3.9h0a7.77,7.77,0,0,1,4.07-.43,8,8,0,0,1,3.85,1.42c1.71,1.33,1.51,3.05-.46,3.91A6.53,6.53,0,0,1,654.68,759.46Z" transform="translate(-16.38 -16.65)"/><path class="cls-3" d="M665.14,759.28a12.62,12.62,0,0,0-6.47.69l-1.94.85c-3.36,1.48-3.7,4.41-.78,6.68l1,.8c3.52.42,7.59.3,10.5-.86,3.18-1.27,5.14-2.73,5.43-4.82l-1.44-1A13.43,13.43,0,0,0,665.14,759.28Z" transform="translate(-16.38 -16.65)"/><path class="cls-3" d="M668.79,750.65l-7.14.36-1.95,1.74a.72.72,0,0,0,0,1.09l1.94,1.57,7.27-.3Zm-7.62,3.12a.54.54,0,1,1,.52-.54A.54.54,0,0,1,661.17,753.77Z" transform="translate(-16.38 -16.65)"/><path class="cls-3" d="M705.85,737.6c-.08,1.11-1.39,2.06-2.16,2.52a13.82,13.82,0,0,1-5,1.67C696.92,739.75,700.16,736.08,705.85,737.6Z" transform="translate(-16.38 -16.65)"/><path class="cls-3" d="M706.13,730.36c-5.25-4.46-13.47-6.11-19.26-2.7s-6.91,10.63-1.6,15.12,14.81,4.55,20.54,1.11S711.38,734.83,706.13,730.36Zm-8.79-1a2.58,2.58,0,0,1,3,.48,1.39,1.39,0,0,1-.26,2.32,2.66,2.66,0,0,1-3.09-.35A1.52,1.52,0,0,1,697.34,729.41Zm-10.54,8.33a1.51,1.51,0,0,1,.38-2.44,2.56,2.56,0,0,1,3,.48,1.39,1.39,0,0,1-.26,2.32A2.66,2.66,0,0,1,686.8,737.74Zm17.44,3.36a16.08,16.08,0,0,1-8,2,15.63,15.63,0,0,1-7-1.53l14.92-8.7c1.9,1.61,2.92,3.37,2.81,4.83S705.41,740.4,704.24,741.1Z" transform="translate(-16.38 -16.65)"/><path class="cls-3" d="M737.47,710.23a8.89,8.89,0,0,0-2-2.28c-3.67-3.12-9.41-4.28-13.46-1.89s-4.83,7.43-1.12,10.56a11.44,11.44,0,0,0,1.49,1l.06,0c6.63,3.91,18.79,4.41,18.79,4.41A22.45,22.45,0,0,0,737.47,710.23Zm-5.78,4.32a6.44,6.44,0,0,1-6.87-.37,3,3,0,0,1,.54-5c1.93-1.14,4.68-.59,6.44.9S733.61,713.4,731.69,714.55Z" transform="translate(-16.38 -16.65)"/></g><g id="Character"><path class="cls-22" d="M978.94,734.42l-28.59,86a2.66,2.66,0,0,1-5.08,0l-28.21-86.7Z" transform="translate(-16.38 -16.65)"/><path class="cls-7" d="M945.27,820.42a2.66,2.66,0,0,0,5.08,0l5.58-16.8h0a14.47,14.47,0,0,1-15.45-.88l-1.24-.89Z" transform="translate(-16.38 -16.65)"/><path class="cls-3" d="M918.14,350.17l0,8.41-.06,10.16-1,365c6.54,7.72,16.23,11.63,26.06,12.65,15,1.61,30.31-3.45,35.79-11.94l1-364.75.05-19.42C979.24,362.82,917.59,362.78,918.14,350.17Z" transform="translate(-16.38 -16.65)"/><path class="cls-20" d="M918,382.21l0,18.79c-.18,5.45,11.07,9,24.07,10.2,17.25,1.68,37.56-3.14,37.81-10.35l0-13.86-.07-4.95c-.25,7.22-20.57,12-37.82,10.37-12.45-1.2-23.34-4.53-24-9.62v-.05A1.17,1.17,0,0,1,918,382.21Z" transform="translate(-16.38 -16.65)"/><path class="cls-3" d="M918,386.9c-.45,12.65,61.39,12.49,61.83-.16l.08-18.81c-.44,12.65-62.27,12.81-61.83.15Z" transform="translate(-16.38 -16.65)"/><path class="cls-20" d="M918.14,350.17l-.08,18.57c-.53,12.42,59.14,12.78,61.84.93A3,3,0,0,0,980,369L980,350.25C979.24,362.82,917.59,362.78,918.14,350.17Z" transform="translate(-16.38 -16.65)"/><path class="cls-23" d="M980.24,270.59v-.78c0-9.07-13.84-16.41-30.92-16.41s-30.91,7.34-30.91,16.41v8.54l-.27,71.82c-.24,5.39,10.88,8.94,23.76,10.24,17.26,1.74,37.66-3,38.05-10.16,0,0,0,0,0-.08l.27-79.06Z" transform="translate(-16.38 -16.65)"/><ellipse class="cls-24" cx="932.94" cy="253.16" rx="30.91" ry="16.41"/><path class="cls-10" d="M979.9,369.67l.34-99.08c-.42,7.77-13.24,15.1-27.23,15.62l-1,460.45-1.66,73.78,28.59-86h0Z" transform="translate(-16.38 -16.65)"/><path class="cls-25" d="M879.9,446.39c11.75-1.76,26.26,7.36,36.35,22s45.25,50.21,49.1,61.54c2.81,8.26,1.16,23.76-15.4,16.49-16-7-67.11-58.74-67.11-58.74Z" transform="translate(-16.38 -16.65)"/><path class="cls-26" d="M874.28,446.39s7.45-1.6,11.51-1.32,13.2,2.77,22.6,12.21,33.8,40,33.8,40,1.09,8.55-7.09,18.11-15.81,9.56-15.81,9.56L883,494Z" transform="translate(-16.38 -16.65)"/><path class="cls-25" d="M953.92,513.13l25.69-38.6.08-28.35s5.69,2,7.95,11.1,5.09,19.77,4,27.57-19,54.89-28.59,61.56S953.92,513.13,953.92,513.13Z" transform="translate(-16.38 -16.65)"/><polygon class="cls-25" points="821.53 416.94 826.54 449.56 857.9 447.84 853.4 409.93 821.53 416.94"/><path class="cls-27" d="M816.81,393.56s-7.47,11.7-6.62,12.85,6.35,2.19,6.35,2.19Z" transform="translate(-16.38 -16.65)"/><path class="cls-25" d="M837.57,361.2c-15.13,3.3-19.5,10.15-20.92,34.94-1.49,25.89,1.07,34,4.37,37.52,2.23,2.35,14.6,2.77,20.85,1,7.81-2.22,25.47-8.67,33.74-21.7,9.72-15.32,12.28-36.09,1.87-44.61C862.82,356.36,843.73,359.87,837.57,361.2Z" transform="translate(-16.38 -16.65)"/><path class="cls-27" d="M838.18,435.38a62,62,0,0,0,8-2.07s-2.19,3.06-7.59,4.51Z" transform="translate(-16.38 -16.65)"/><path class="cls-7" d="M815.69,369.06a27.88,27.88,0,0,0,6.58,2.78c3.69,1.1,3.14,2.53,3.65,6a14.25,14.25,0,0,0,4.16,8.23c1.44,1.34,2.51,1.46,3,3.53s.06,4.38.09,6.48c0,4.3,2.7,7.57,4,1.81,0,0,2.39-9.57,10.22-8.37s8.51,10.3,4.78,17.43c-2.27,4.34-8.35,3.21-8.35,3.21a28.69,28.69,0,0,0,8.17,21.7s7.79,5.95,19.91-.23a164.53,164.53,0,0,0,13.9-21.79c5.43-9.73,10.1-21.69,8.26-33.14a21.6,21.6,0,0,0-5.26-11.36c-2.11-2.24-1.95-2.67-2.53-5.73a11.34,11.34,0,0,0-3.77-6.57,10.69,10.69,0,0,0-11-1.54c0-4-3.29-7.44-7-8.47s-7.76-.08-11.28,1.6a12.23,12.23,0,0,0-20.89-1.35,6.59,6.59,0,0,0-5.24-3.12,15.38,15.38,0,0,0-6.16,1,23.3,23.3,0,0,0-4.8,2.1,16,16,0,0,0-6.83,17.09A13.68,13.68,0,0,0,815.69,369.06Z" transform="translate(-16.38 -16.65)"/><path class="cls-7" d="M886.52,366.48l9.05-5.5a5.16,5.16,0,0,0-7.19-1.92A5.52,5.52,0,0,0,886.52,366.48Z" transform="translate(-16.38 -16.65)"/><path class="cls-7" d="M895,851l.2,2.1a39.83,39.83,0,0,1,.2,8.31c-.22,1.92-.76,4.51-2.48,5.56a22.15,22.15,0,0,1-5.91,2.39,20.05,20.05,0,0,1-13.69-1.39c-3.56-1.78-6.34-4.57-10.2-5.68a73.83,73.83,0,0,0-12.08-2,26.88,26.88,0,0,1-5.35-1,24.42,24.42,0,0,1-3.85-1.79c-4.19-2.28-8.33-4.88-11.42-8.59a18.87,18.87,0,0,1-4.08-8.4c-.35-1.84-1.07-7.14,1.9-7,14.55.67,29,3.89,43.52,3.71a16.67,16.67,0,0,1,2.83.12,11.72,11.72,0,0,1,4.89,2.36c1.72,1.27,2.34,1.31,4.46,1.13,2.55-.22,5-.56,7.56.11a3.58,3.58,0,0,1,2.6,1.82,3.9,3.9,0,0,1,.21,1.13Z" transform="translate(-16.38 -16.65)"/><path class="cls-25" d="M893.48,833l-.76,11.32c-.7,4.3-14.94,6.94-17.87-.68l-1.39-12.83Z" transform="translate(-16.38 -16.65)"/><path class="cls-7" d="M839.32,877.73s1.74,5.89,2.64,11c.71,4.08,1.71,10.9.26,13.92s-6.87,4.87-15.21,4.61c-5.4-.17-13.9,3.42-19.74,6.6-6,3.29-18.43,4.37-24.71,3.46-7.41-1.07-15-5.69-16.13-8.89s.54-6.45,18.19-13.73c.17-.06,24.49-7.6,33.17-17Z" transform="translate(-16.38 -16.65)"/><path class="cls-25" d="M839.48,870.47s-.14,5-.17,7.83-3.4,7-11.84,6.52c-5.92-.36-10-2.1-9.68-7.13l.16-7.27Z" transform="translate(-16.38 -16.65)"/><path class="cls-3" d="M899.22,746.12c-2.51-22-4.38-34.63-4.38-34.63s.43-30.66,2.17-59.26c1.88-30.89,1.46-69.77,2.2-77.47,0,0-96.22-21.2-97,14.58-.91,41.58,1.78,127.6,2.35,138.8.8,15.72.83,32.07,3.42,57.59,2.56,25.19,10,84.69,10,84.69,10.91,6.42,21.53.05,21.53.05s8.37-71.3,8-89.43a256,256,0,0,0-3.65-39.2l7.58-80.7s3,25,3.77,40.67,2.9,25.33,6.66,54.59c3.27,25.39,11.57,79,11.57,79,10.92,6.41,20.46-.85,20.46-.85S901.72,768.14,899.22,746.12Z" transform="translate(-16.38 -16.65)"/><path class="cls-5" d="M899.22,746.12c-2.51-22-4.38-34.63-4.38-34.63s.43-30.66,2.17-59.26c1.88-30.89,1.46-69.77,2.2-77.47,0,0-96.22-21.2-97,14.58-.91,41.58,1.78,127.6,2.35,138.8.8,15.72.83,32.07,3.42,57.59,2.56,25.19,10,84.69,10,84.69,10.91,6.42,21.53.05,21.53.05s8.37-71.3,8-89.43a256,256,0,0,0-3.65-39.2l7.58-80.7s3,25,3.77,40.67,2.9,25.33,6.66,54.59c3.27,25.39,11.57,79,11.57,79,10.92,6.41,20.46-.85,20.46-.85S901.72,768.14,899.22,746.12Z" transform="translate(-16.38 -16.65)"/><path class="cls-28" d="M888.05,623.6s-6.67,11.35-26.89,19.66l-5.63,19.49L854.92,697c-.78-11-2-23.08-3.46-35.84l2.28-20.08S876.07,634.09,888.05,623.6Z" transform="translate(-16.38 -16.65)"/><path class="cls-17" d="M902.92,467.5c-3.87-14.18-12.95-20.45-23-21.11-2.56-.16-7.76.06-7.76.06.71,6-17.24,10.25-31.2,6.86-4.21,1.14-11.18,2.77-14.69,4-10,3.43-22.07,16.37-23.63,50.13,0,0-1.59,72.55-1.1,93.62,24.78,10.79,48.7,12.13,63.14,9.23,30.07-6,35-19.33,35-19.33s-.29-18.44-1.41-47.84C903.36,501.28,904.59,473.65,902.92,467.5Z" transform="translate(-16.38 -16.65)"/><path class="cls-25" d="M785.69,587.74c5.79,4.23,8.32,8.79,8.79,16.14.41,6.59.4,13.75,3.4,19.72.5,1,3.11,3.21,4.15,2.9l0-8.43c1.66-2.18,6.21-6.25,7.39-8.74,2-4.16-.33-9.25.86-13.72.51-2,1.48-3.47,1.5-5.55.06-4.91-1.28-9.57-5-12.71-4.36-3.68-8.36-8.26-12.33-12.39-5.16-5.35-12.31-13.21-17.47-18.55l34.61-34.24a51.66,51.66,0,0,0,9.87-13.54c5.65-11.22,13.41-30.91,4.77-41.35-12.33,0-19.35,2-31.94,17.1-10.87,13.07-45.57,55.93-50,63.2s-7,12.23,1.53,20.3c6,5.63,14.41,11.7,21.83,17.2C773.46,579.4,779.84,583.46,785.69,587.74Z" transform="translate(-16.38 -16.65)"/><path class="cls-27" d="M777,546.41a39,39,0,0,1-10.61,7.49s8.05-1.06,13-5Z" transform="translate(-16.38 -16.65)"/><path class="cls-26" d="M830.11,456.12a58.65,58.65,0,0,0-14.93,1.16c-7.49,1.68-12.53,5.6-25.52,20.74s-22.09,27.55-22.09,27.55-3.74,8.54,6.69,18.19,19.79,8,19.79,8l29.15-29.23S844,480,830.11,456.12Z" transform="translate(-16.38 -16.65)"/></g></svg>