<svg id="Layer_1" data-name="Layer 1" xmlns="http://www.w3.org/2000/svg" xmlns:xlink="http://www.w3.org/1999/xlink" viewBox="0 0 1080 1080"><defs><style>.cls-1,.cls-16,.cls-17,.cls-7{fill:#263238;}.cls-1,.cls-14,.cls-15,.cls-16,.cls-17,.cls-27,.cls-3,.cls-6{stroke:#263238;}.cls-1,.cls-13,.cls-14,.cls-15,.cls-16,.cls-17,.cls-24,.cls-27,.cls-3,.cls-6{stroke-linecap:round;stroke-linejoin:round;}.cls-13,.cls-15,.cls-2,.cls-24,.cls-6{fill:none;}.cls-12,.cls-3,.cls-5,.cls-8,.cls-9{fill:#fff;}.cls-14,.cls-4{fill:#c5d92d;}.cls-5{opacity:0.7;}.cls-8{fill-rule:evenodd;}.cls-10{fill:#676464;}.cls-11{clip-path:url(#clip-path);}.cls-12,.cls-20{opacity:0.2;}.cls-13{stroke:#fff;}.cls-15{stroke-width:0.82px;}.cls-16{stroke-width:0.73px;}.cls-17{stroke-width:0.88px;}.cls-18{clip-path:url(#clip-path-2);}.cls-19{clip-path:url(#clip-path-3);}.cls-21{clip-path:url(#clip-path-4);}.cls-22{clip-path:url(#clip-path-5);}.cls-23{clip-path:url(#clip-path-6);}.cls-24{stroke:#676464;}.cls-25{clip-path:url(#clip-path-7);}.cls-26{clip-path:url(#clip-path-8);}.cls-27{fill:#c1bfbf;}</style><clipPath id="clip-path" transform="translate(0 0)"><rect class="cls-1" x="305.32" y="139.13" width="468.49" height="888.57" rx="14.52"/></clipPath><clipPath id="clip-path-2" transform="translate(0 0)"><path class="cls-2" d="M1007.82,302.11H508.91V446C416,457.39,344.17,534.42,344.17,627.81c0,101.27,84.47,183.37,188.67,183.37,62,0,117-29,151.37-73.89h323.61Z"/></clipPath><clipPath id="clip-path-3" transform="translate(0 0)"><path class="cls-3" d="M327.21,807.11s52.23-176.74,62.1-214.53,24.68-62.37,55.54-68.37,87.59-11.56,87.59-11.56,49.36-4.8,85.15-2.4,68.5,21,85.78,33.59,67.26,56.37,67.26,56.37l-6.17-100.75,45,3.6s32.7,140.34,37,166.12,4.32,37.19,0,40.19,3.09,4.8-36.41-7.8-85.77-30-111.07-37.18-28.39-8.4-28.39-8.4S608.76,746.57,589,773.55s-36,60.12-36,60.12"/></clipPath><clipPath id="clip-path-4" transform="translate(0 0)"><path class="cls-3" d="M571.93,459.27s-10.49,31.19-19.13,42S540.46,513.85,537.37,539s10.49,82.17,14.81,81,46.9-67.18,61.09-78,29-22.19,29-22.19-34.56-10.2-46.28-24.59S571.93,459.27,571.93,459.27Z"/></clipPath><clipPath id="clip-path-5" transform="translate(0 0)"><path class="cls-3" d="M703.37,379.51s-1.85,40.18-.62,53.38,6.17,36-4.94,57.57-20.36,35.39-30.85,39-44.43-3.59-71.58-23.39S563.29,445.48,559,432.29s.62-58.18,28.39-72.57,58-11.4,72.81-6.6S703.37,379.51,703.37,379.51Z"/></clipPath><clipPath id="clip-path-6" transform="translate(0 0)"><path class="cls-1" d="M563.29,448.48s5.56-23.39,19.13-31.79,26.54-6.59,18.51-18-12.34-22.79,4.94-28.19,51.22,3.6,71,10.8,58,9.59,67.88-17.4c6.1-16.67-11.74-29.93-24.83-36.75-14.43-7.52-30.64-11.25-46.93-8.46-9.82,1.68-19.35,5.45-29.28,6.42-16.76,1.65-31.55-5.92-48.29-2-13.79,3.24-26.85,10.81-35.79,21.58C544.16,363.32,539.84,396.9,563.29,448.48Z"/></clipPath><clipPath id="clip-path-7" transform="translate(0 0)"><path class="cls-3" d="M475,554.51,520.31,692s104.09-58.9,128.45-89.62,38.46-65.39,47-68.64,39,4.85,43.51,9.52,3.4,10.1-2,15.06-8.46,5.64-8.46,5.64-.29,10.81-2.7,12.68-1.87-.54-2.41,1.87a18.06,18.06,0,0,1-2.86,7.29c-1.77,2.45-2.35,3.67-4.18,4.32s-.6.62-11,3.33-16,2.87-20.26,3.59S653.12,651.37,627,683.35s-109.09,105.21-122,105.59S415.5,666.66,399.13,636.54"/></clipPath><clipPath id="clip-path-8" transform="translate(0 0)"><path class="cls-3" d="M705.65,593.43c10.41-2.71,9.17-2.67,11-3.33s2.41-1.87,4.18-4.32a18.06,18.06,0,0,0,2.86-7.29c.54-2.41,2.15-3.23,4.56-5.1s.55-9.45.55-9.45,3.06-.69,8.46-5.65,6.47-10.39,2-15-35-12.78-43.51-9.52c-8.18,3.11-21.47,35-44,64.74l20.85,16.6c6.54-10.58,11.2-17.77,12.76-18C689.69,596.3,695.24,596.13,705.65,593.43Z"/></clipPath></defs><path class="cls-4" d="M8.94,451.71S-11.61,644.42,134.79,804.09s372.83,213.23,555.48,261.31,338.51-25.79,381.42-175.06S980.05,668.55,928.17,479s-37-245.64-183.63-384.61S335.67-28,177.17,130.19,8.94,451.71,8.94,451.71Z" transform="translate(0 0)"/><path class="cls-5" d="M8.94,451.71S-11.61,644.42,134.79,804.09s372.83,213.23,555.48,261.31,338.51-25.79,381.42-175.06S980.05,668.55,928.17,479s-37-245.64-183.63-384.61S335.67-28,177.17,130.19,8.94,451.71,8.94,451.71Z" transform="translate(0 0)"/><polyline class="cls-6" points="234.93 113.46 546.6 608.34 925.32 259.63"/><polyline class="cls-6" points="71.05 630.86 546.6 608.34 200.5 465.69"/><polyline class="cls-6" points="622.93 54.83 552.18 620.01 986.2 703.69"/><polyline class="cls-6" points="207.75 960.58 546.6 608.34 898.14 867.24"/><path class="cls-7" d="M60.46,568.27C27.12,568.27,0,594.63,0,627S27.12,685.8,60.46,685.8s60.47-26.36,60.47-58.77S93.81,568.27,60.46,568.27Z" transform="translate(0 0)"/><path class="cls-8" d="M97.49,625.52C97,607.48,81.73,593,62.91,593c-18.6,0-33.76,14.15-34.57,31.91,0,.49,0,1,0,1.46a32.41,32.41,0,0,0,4.95,17.24L27,661.51l19.16-5.91a35.51,35.51,0,0,0,16.72,4.15c19.11,0,34.6-14.94,34.6-33.38C97.51,626.09,97.51,625.81,97.49,625.52ZM62.91,654.43a29.61,29.61,0,0,1-16-4.64l-11.18,3.46,3.63-10.42a27.3,27.3,0,0,1-5.54-16.46,24.66,24.66,0,0,1,.15-2.72c1.42-14.2,13.86-25.33,28.95-25.33,15.27,0,27.83,11.41,29,25.87.07.72.1,1.44.1,2.18C92,641.85,78.94,654.43,62.91,654.43Z" transform="translate(0 0)"/><path class="cls-8" d="M78.77,633.11c-.86-.41-5-2.39-5.8-2.66s-1.35-.41-1.92.41-2.2,2.66-2.68,3.2-1,.61-1.85.2a23.16,23.16,0,0,1-6.82-4.06A24.82,24.82,0,0,1,55,624.55c-.48-.82,0-1.26.38-1.67s.84-1,1.28-1.43l.3-.4a9.37,9.37,0,0,0,.54-1,1.43,1.43,0,0,0-.07-1.44c-.21-.41-1.91-4.44-2.62-6.07s-1.41-1.36-1.91-1.36-1.05-.08-1.62-.08a3.19,3.19,0,0,0-2.27,1A9,9,0,0,0,46,619a10.54,10.54,0,0,0,.43,2.79,18.7,18.7,0,0,0,3,5.67c.42.53,5.87,9.06,14.49,12.35s8.63,2.18,10.18,2,5-2,5.72-3.88a6.45,6.45,0,0,0,.5-3.89C80.17,633.73,79.61,633.52,78.77,633.11Z" transform="translate(0 0)"/><path class="cls-7" d="M220.73,45.36c-33.34,0-60.47,26.36-60.47,58.76s27.13,58.77,60.47,58.77h0c33.34,0,60.46-26.36,60.46-58.77S254.07,45.36,220.73,45.36Z" transform="translate(0 0)"/><path class="cls-9" d="M259.11,85.26A10,10,0,0,0,252,78.33c-6.25-1.63-31.3-1.63-31.3-1.63s-25,0-31.3,1.63a9.94,9.94,0,0,0-7.08,6.93c-1.67,6.11-1.67,18.86-1.67,18.86s0,12.75,1.67,18.87a9.91,9.91,0,0,0,7.08,6.92c6.25,1.64,31.3,1.64,31.3,1.64s25.05,0,31.3-1.64a9.92,9.92,0,0,0,7.08-6.92c1.67-6.12,1.67-18.87,1.67-18.87S260.78,91.37,259.11,85.26Z" transform="translate(0 0)"/><polygon class="cls-7" points="212.54 115.7 212.54 92.55 233.47 104.13 212.54 115.7"/><path class="cls-7" d="M212.14,886.54c-43.72,0-79.29,34.57-79.29,77.06s35.57,77.06,79.29,77.06,79.28-34.57,79.28-77.06S255.85,886.54,212.14,886.54Z" transform="translate(0 0)"/><path class="cls-9" d="M198.79,1013.1H219.3V963.18h14.31l1.52-16.71H219.3V937c0-3.94.81-5.5,4.73-5.5h11.1V914.11h-14.2c-15.26,0-22.14,6.53-22.14,19v13.33H188.12v16.92h10.67Z" transform="translate(0 0)"/><path class="cls-7" d="M900.26,809.83c-33.34,0-60.47,26.36-60.47,58.76s27.13,58.77,60.47,58.77,60.46-26.36,60.46-58.77S933.6,809.83,900.26,809.83Z" transform="translate(0 0)"/><path class="cls-9" d="M900.26,840.53c9.41,0,10.52,0,14.23.19A20.53,20.53,0,0,1,921,841.9a11.16,11.16,0,0,1,4.05,2.57,10.51,10.51,0,0,1,2.63,3.93,18.42,18.42,0,0,1,1.21,6.36c.17,3.61.21,4.69.21,13.84s0,10.22-.21,13.83a18.42,18.42,0,0,1-1.21,6.36,10.63,10.63,0,0,1-2.63,3.94,11.13,11.13,0,0,1-4.05,2.56,20.25,20.25,0,0,1-6.55,1.18c-3.71.16-4.82.2-14.23.2s-10.52,0-14.24-.2a20.17,20.17,0,0,1-6.54-1.18,11.13,11.13,0,0,1-4.05-2.56,10.63,10.63,0,0,1-2.63-3.94,18.36,18.36,0,0,1-1.22-6.36c-.17-3.61-.2-4.69-.2-13.83s0-10.23.2-13.84a18.36,18.36,0,0,1,1.22-6.36,10.51,10.51,0,0,1,2.63-3.93,11.16,11.16,0,0,1,4.05-2.57,20.45,20.45,0,0,1,6.54-1.18c3.72-.16,4.83-.19,14.24-.19m0-6.17c-9.57,0-10.77,0-14.53.2a26.78,26.78,0,0,0-8.55,1.59,17.52,17.52,0,0,0-6.24,4,16.93,16.93,0,0,0-4.06,6.07,24.48,24.48,0,0,0-1.64,8.31c-.17,3.65-.21,4.82-.21,14.12s0,10.46.21,14.11a24.42,24.42,0,0,0,1.64,8.31,16.93,16.93,0,0,0,4.06,6.07,17.52,17.52,0,0,0,6.24,3.95,26.78,26.78,0,0,0,8.55,1.59c3.76.17,5,.2,14.53.2s10.77,0,14.52-.2a26.9,26.9,0,0,0,8.56-1.59,17.52,17.52,0,0,0,6.24-3.95,16.93,16.93,0,0,0,4.06-6.07,24.67,24.67,0,0,0,1.64-8.31c.17-3.65.21-4.82.21-14.11s0-10.47-.21-14.12a24.72,24.72,0,0,0-1.64-8.31,16.93,16.93,0,0,0-4.06-6.07,17.52,17.52,0,0,0-6.24-4,26.9,26.9,0,0,0-8.56-1.59c-3.75-.16-4.95-.2-14.52-.2" transform="translate(0 0)"/><path class="cls-9" d="M900.26,851a17.59,17.59,0,1,0,18.09,17.59A17.84,17.84,0,0,0,900.26,851m0,29A11.42,11.42,0,1,1,912,868.6,11.58,11.58,0,0,1,900.26,880" transform="translate(0 0)"/><path class="cls-9" d="M923.29,850.32a4.23,4.23,0,1,1-4.23-4.11,4.17,4.17,0,0,1,4.23,4.11" transform="translate(0 0)"/><path class="cls-1" d="M922.35,341.54h0c-50.59,0-91.6-39.86-91.6-89h0c0-49.18,41-89,91.6-89h0c50.6,0,91.61,39.86,91.61,89h0C1014,301.68,973,341.54,922.35,341.54Z" transform="translate(0 0)"/><path class="cls-9" d="M873.54,282.31a57.86,57.86,0,0,0,30.7,8.75c37.19,0,58.2-30.52,56.93-57.9a40,40,0,0,0,10-10.08,40.84,40.84,0,0,1-11.5,3.06,19.64,19.64,0,0,0,8.81-10.77,40.55,40.55,0,0,1-12.72,4.73A20.29,20.29,0,0,0,941.13,214c-12.93,0-22.43,11.73-19.51,23.9a57.41,57.41,0,0,1-41.28-20.34,19.16,19.16,0,0,0,6.2,26,20.31,20.31,0,0,1-9.07-2.43c-.22,9,6.43,17.45,16.06,19.33a20.44,20.44,0,0,1-9,.33,20,20,0,0,0,18.71,13.52A41.09,41.09,0,0,1,873.54,282.31Z" transform="translate(0 0)"/><path class="cls-10" d="M203.77,416.4c-26.33,0-47.75,20.81-47.75,46.4s21.42,46.41,47.75,46.41,47.75-20.82,47.75-46.41S230.1,416.4,203.77,416.4Z" transform="translate(0 0)"/><rect class="cls-9" x="179.35" y="450.65" width="10.5" height="32.97"/><path class="cls-9" d="M184.55,446.33a6.08,6.08,0,1,0-6.21-6.08A6.14,6.14,0,0,0,184.55,446.33Z" transform="translate(0 0)"/><path class="cls-9" d="M206.63,466.31c0-4.63,2.2-7.39,6.4-7.39,3.86,0,5.72,2.65,5.72,7.39v17.31H229.2V462.75c0-8.84-5.15-13.11-12.34-13.11a11.87,11.87,0,0,0-10.23,5.45v-4.44H196.56v33h10.07Z" transform="translate(0 0)"/><path class="cls-10" d="M983.71,745.35h0c-27.41,0-49.63-21.59-49.63-48.24h0c0-26.64,22.22-48.24,49.63-48.24h0c27.42,0,49.64,21.6,49.64,48.24h0C1033.35,723.76,1011.13,745.35,983.71,745.35Z" transform="translate(0 0)"/><path class="cls-9" d="M976.3,715.46a9.71,9.71,0,0,0,3.93-1.69,9.47,9.47,0,0,0,2.46-2.66,9.69,9.69,0,0,0,1.55-5.39,8.77,8.77,0,0,0-1.35-5,7.75,7.75,0,0,0-4-3,8.29,8.29,0,0,0,2.65-1.92,7.39,7.39,0,0,0,1.61-5,8.44,8.44,0,0,0-1.59-5.16q-2.65-3.51-9-3.6h-16.8v33.78h15.66A24.31,24.31,0,0,0,976.3,715.46ZM962.66,688h7.57a13.12,13.12,0,0,1,4.1.53,3,3,0,0,1,1.87,3.11,3.17,3.17,0,0,1-1.41,3,7.14,7.14,0,0,1-3.68.84h-8.45Zm0,22v-9h8.56a8.83,8.83,0,0,1,3.47.57,3.61,3.61,0,0,1,2.22,3.62c0,2.08-.77,3.48-2.29,4.22a8.37,8.37,0,0,1-3.52.59Z" transform="translate(0 0)"/><path class="cls-9" d="M990.13,713.7a14.24,14.24,0,0,0,9,3.07q6.21,0,9.67-3.64a8.1,8.1,0,0,0,2.49-4.52h-6.86a5.43,5.43,0,0,1-1.39,1.72,5.81,5.81,0,0,1-3.73,1.15,6.92,6.92,0,0,1-3.7-1q-2.53-1.5-2.69-5.27h18.72a31.45,31.45,0,0,0-.22-5,12.13,12.13,0,0,0-2.05-5.17,10.41,10.41,0,0,0-4.44-3.69,15,15,0,0,0-6.05-1.17,12.6,12.6,0,0,0-9.19,3.46q-3.54,3.46-3.54,10Q986.2,710.62,990.13,713.7Zm4.8-16.61a5.41,5.41,0,0,1,4-1.43,6,6,0,0,1,4,1.35,5.38,5.38,0,0,1,1.79,4H993.14A6.67,6.67,0,0,1,994.93,697.09Z" transform="translate(0 0)"/><rect class="cls-9" x="990.95" y="684.08" width="15.1" height="3.41"/><path class="cls-10" d="M622.93,103.07h0c-27.41,0-49.63-21.59-49.63-48.24h0c0-26.64,22.22-48.24,49.63-48.24h0c27.42,0,49.64,21.6,49.64,48.24h0C672.57,81.48,650.35,103.07,622.93,103.07Z" transform="translate(0 0)"/><path class="cls-8" d="M651.7,69v0a.15.15,0,0,1-.06,0h0a7.56,7.56,0,0,0-1.86-.65s0,0,0,0a16,16,0,0,1-7.65-5.42,17,17,0,0,1-2.61-4.44v0a2.08,2.08,0,0,1,.09-1.9,0,0,0,0,0,0,0,5.54,5.54,0,0,1,2.63-1.63h0a10.19,10.19,0,0,0,3.56-1.78h0a2.13,2.13,0,0,0,.51-.65,2,2,0,0,0,.08-.23,1.26,1.26,0,0,0-.07-.91h0a2.85,2.85,0,0,0-1.24-1.15h0a2.66,2.66,0,0,0-2.13-.19h0a14.58,14.58,0,0,1-1.89.54h0a4.48,4.48,0,0,1-2.14,0c0-.08,0-.25,0-.46h0c-.05-1.26.07-2.55.08-3.9v0a34.66,34.66,0,0,0-.16-6.26v0a14,14,0,0,0-6-8.7,15.45,15.45,0,0,0-7.39-2.56h0c-.91-.08-1.78-.1-2.66-.1a16.81,16.81,0,0,0-10.1,3.12,15.74,15.74,0,0,0-4.92,6.24h0a17,17,0,0,0-.8,7.61h0a35.38,35.38,0,0,1,.12,5,.29.29,0,0,1,0,.11,7.22,7.22,0,0,1-2.53-.07h0c-.59-.09-1.22-.33-1.94-.52,0,0,0,0,0,0a2.4,2.4,0,0,0-1.89.42s0,0,0,0,0,0,0,0a1.89,1.89,0,0,0-1,1.51.66.66,0,0,0,0,.14s0,0,0,0a1.72,1.72,0,0,0,.64,1c.27.22.52.37.66.48s0,0,0,0a19.39,19.39,0,0,0,4,1.68h0a2.8,2.8,0,0,1,1.78,1.65,4.6,4.6,0,0,1-.7,3v0a18.45,18.45,0,0,1-6,6.72,14.88,14.88,0,0,1-4.44,2l-.07,0a2.56,2.56,0,0,0-1.57.89,1,1,0,0,0-.08.18,1.25,1.25,0,0,0,.25,1.2,2,2,0,0,0,.68.51s0,0,0,0a15.74,15.74,0,0,0,4.1,1.38s0,0,0,0a14,14,0,0,1,2.56.61c0,.06.11.29.27.69.25.7.35,1.53.62,2.41a.76.76,0,0,0,.56.48,1.43,1.43,0,0,0,1-.08h.08a16.57,16.57,0,0,1,6.48-.22h0c2.13.55,4,2,6.08,3.2h0a10.06,10.06,0,0,0,4.85,1.73h0a35,35,0,0,0,4.11-.09h0a7.58,7.58,0,0,0,3.23-1.07s0,0,0,0c2.19-1.22,4.14-2.67,6.28-3.59h0a10.81,10.81,0,0,1,2.53-.29h0a35.05,35.05,0,0,1,5.32.26.25.25,0,0,0,.17,0,.94.94,0,0,0,.61-.33.84.84,0,0,0,.19-.36c.05-.17.09-.25,0-.11a.46.46,0,0,0,.07-.14,6.92,6.92,0,0,1,1-2.54A1.57,1.57,0,0,1,646,73h.09a19.34,19.34,0,0,0,4.22-1.16h.06a3.73,3.73,0,0,0,1.71-1.11v0h0A1.14,1.14,0,0,0,651.7,69Z" transform="translate(0 0)"/><rect class="cls-7" x="305.32" y="139.13" width="468.49" height="888.57" rx="14.52"/><g class="cls-11"><path class="cls-12" d="M345.7,139.13c-22.3,0-40.38,17.57-40.38,39.25V988.45a38.72,38.72,0,0,0,14.49,30.1L593.12,139.13Z" transform="translate(0 0)"/><path class="cls-13" d="M555.48,1002a15.93,15.93,0,1,0-15.92,15.47A15.7,15.7,0,0,0,555.48,1002Z" transform="translate(0 0)"/></g><rect class="cls-6" x="305.32" y="139.13" width="468.49" height="888.57" rx="14.52"/><rect class="cls-14" x="326.15" y="199.48" width="426.82" height="775.48"/><ellipse class="cls-7" cx="532.84" cy="627.81" rx="195.72" ry="190.22"/><rect class="cls-9" x="340.91" y="292.56" width="399.01" height="88.31"/><rect class="cls-9" x="340.91" y="872.34" width="399.01" height="88.31"/><rect class="cls-9" x="340.91" y="841.63" width="399.01" height="3.84"/><rect class="cls-9" x="340.91" y="858.91" width="399.01" height="3.84"/><rect class="cls-15" x="703.06" y="207.52" width="35.39" height="18.86"/><rect class="cls-16" x="703.06" y="207.52" width="27.6" height="18.86"/><rect class="cls-16" x="738.37" y="212.8" width="4.99" height="8.31"/><rect class="cls-17" x="335.76" y="213.37" width="6.49" height="10.81"/><rect class="cls-17" x="345.96" y="209.57" width="6.49" height="14.61"/><rect class="cls-17" x="356.16" y="205.09" width="6.49" height="19.09"/><rect class="cls-7" x="333.04" y="236.87" width="409.86" height="29.94"/><g class="cls-18"><path class="cls-9" d="M327.21,807.11s52.23-176.74,62.1-214.53,24.68-62.37,55.54-68.37,87.59-11.56,87.59-11.56,49.36-4.8,85.15-2.4,68.5,21,85.78,33.59,67.26,56.37,67.26,56.37l-6.17-100.75,45,3.6s32.7,140.34,37,166.12,4.32,37.19,0,40.19,3.09,4.8-36.41-7.8-85.77-30-111.07-37.18-28.39-8.4-28.39-8.4S608.76,746.57,589,773.55s-36,60.12-36,60.12" transform="translate(0 0)"/><g class="cls-19"><path class="cls-20" d="M846.53,709.37c4.32-3,4.32-14.4,0-40.19-2.58-15.38-15.26-71.53-25.07-114.34,3.91,50.5,5.4,100-2.6,109.22-17.27,19.93-42.68-6.27-42.68-6.27l-4.83-38.86S685,557,652.58,546.52s-67-12.59-100.42-2.1-61.54,21-82.06,40.93S378.32,764.8,378.32,764.8l-8.05,47.37,182.78,21.5s16.21-33.13,36-60.12S670.66,656,670.66,656s3.09,1.2,28.39,8.4S770.63,689,810.12,701.57,842.21,712.37,846.53,709.37Z" transform="translate(0 0)"/></g><path class="cls-6" d="M327.21,807.11s52.23-176.74,62.1-214.53,24.68-62.37,55.54-68.37,87.59-11.56,87.59-11.56,49.36-4.8,85.15-2.4,68.5,21,85.78,33.59,67.26,56.37,67.26,56.37l-6.17-100.75,45,3.6s32.7,140.34,37,166.12,4.32,37.19,0,40.19,3.09,4.8-36.41-7.8-85.77-30-111.07-37.18-28.39-8.4-28.39-8.4S608.76,746.57,589,773.55s-36,60.12-36,60.12" transform="translate(0 0)"/><polyline class="cls-6" points="688.26 628.15 670.66 655.99 722.79 628.15"/><path class="cls-3" d="M770.63,600.21s2.47,49.78,5.55,57.58,16.66,11.39,16.66,11.39" transform="translate(0 0)"/><path class="cls-7" d="M498.71,598.69s-6.73,15.54-3.37,15.54,25.25-8.18,35.35-8.18,21,17.18,21,17.18,29.46-21.27,38.72-18.81c4.41,1.16,8.82,4.19,12.23,7a4.13,4.13,0,0,0,6.8-2.88c.17-4.4.32-10.42.32-18.07,0-18-16-67.07-45.44-69.53s-34.51,18-47.13,42.54S498.71,598.69,498.71,598.69Z" transform="translate(0 0)"/><path class="cls-3" d="M562.06,492.86s-28.39,3.6-41.35,15.59-8.64,31.19-15.42,48.58S486.77,609.81,493,609.21s27.76-17.39,33.93-13.19,20.37,21.59,22.84,22.79,33.94-21,38.25-23.39,25.3,24,25.92,16.79,1.85-49.78-2.47-75.57S576.25,493.46,562.06,492.86Z" transform="translate(0 0)"/><path class="cls-9" d="M571.93,459.27s-10.49,31.19-19.13,42S540.46,513.85,537.37,539s10.49,82.17,14.81,81,46.9-67.18,61.09-78,29-22.19,29-22.19-34.56-10.2-46.28-24.59S571.93,459.27,571.93,459.27Z" transform="translate(0 0)"/><g class="cls-21"><path class="cls-20" d="M619.42,537.36c12-9.17,22.86-17.51,22.86-17.51s-34.56-10.2-46.28-24.59-24.07-36-24.07-36-5.94,17.66-12.56,31C564.58,504.6,579.16,527.82,619.42,537.36Z" transform="translate(0 0)"/><path class="cls-7" d="M596,495.26c-11.73-14.4-24.07-36-24.07-36s-3.52,10.48-8.17,21.38c3.86,10.81,11.57,26.9,25.36,36.39,11.6,8,25.74,12.77,36.57,15.52,9.27-7.08,16.59-12.71,16.59-12.71S607.72,509.65,596,495.26Z" transform="translate(0 0)"/></g><path class="cls-6" d="M571.93,459.27s-10.49,31.19-19.13,42S540.46,513.85,537.37,539s10.49,82.17,14.81,81,46.9-67.18,61.09-78,29-22.19,29-22.19-34.56-10.2-46.28-24.59S571.93,459.27,571.93,459.27Z" transform="translate(0 0)"/><path class="cls-9" d="M703.37,379.51s-1.85,40.18-.62,53.38,6.17,36-4.94,57.57-20.36,35.39-30.85,39-44.43-3.59-71.58-23.39S563.29,445.48,559,432.29s.62-58.18,28.39-72.57,58-11.4,72.81-6.6S703.37,379.51,703.37,379.51Z" transform="translate(0 0)"/><g class="cls-22"><path class="cls-20" d="M587.36,359.72a41.67,41.67,0,0,0-10.64,8L591,377.56s18.36-17.84,59.39,7.35c21.19,13,39.49,15.09,52.24,14.07.3-10.7.71-19.47.71-19.47s-28.39-21.59-43.2-26.39S615.13,345.32,587.36,359.72Z" transform="translate(0 0)"/></g><path class="cls-6" d="M703.37,379.51s-1.85,40.18-.62,53.38,6.17,36-4.94,57.57-20.36,35.39-30.85,39-44.43-3.59-71.58-23.39S563.29,445.48,559,432.29s.62-58.18,28.39-72.57,58-11.4,72.81-6.6S703.37,379.51,703.37,379.51Z" transform="translate(0 0)"/><path class="cls-7" d="M645.09,433.71c0,4.28-1.71,7.75-3.82,7.75s-3.81-3.47-3.81-7.75,1.7-7.76,3.81-7.76S645.09,429.42,645.09,433.71Z" transform="translate(0 0)"/><path class="cls-7" d="M690.16,437.75c0,4.28-1.71,7.75-3.81,7.75s-3.82-3.47-3.82-7.75,1.71-7.75,3.82-7.75S690.16,433.47,690.16,437.75Z" transform="translate(0 0)"/><path class="cls-6" d="M678.07,426.29s-11.73,11.39-8.64,16.19,10.24,7.5,8,14.4c-2.31,7.19-18.51,9.59-24.07,0" transform="translate(0 0)"/><path class="cls-1" d="M618.21,463.47s12.34,16.8,37.64,18c0,0-25.3,16.2-36.4,14.4S618.21,463.47,618.21,463.47Z" transform="translate(0 0)"/><path class="cls-6" d="M624.11,410.84s10.77-14.56,32.3-5.46" transform="translate(0 0)"/><path class="cls-6" d="M682.39,411.29s13.55-3,18.49,9.56" transform="translate(0 0)"/><path class="cls-7" d="M563.29,448.48s5.56-23.39,19.13-31.79,26.54-6.59,18.51-18-12.34-22.79,4.94-28.19,51.22,3.6,71,10.8,58,9.59,67.88-17.4c6.1-16.67-11.74-29.93-24.83-36.75-14.43-7.52-30.64-11.25-46.93-8.46-9.82,1.68-19.35,5.45-29.28,6.42-16.76,1.65-31.55-5.92-48.29-2-13.79,3.24-26.85,10.81-35.79,21.58C544.16,363.32,539.84,396.9,563.29,448.48Z" transform="translate(0 0)"/><g class="cls-23"><path class="cls-24" d="M706.19,317.58s32.06,16.82,9.62,44.87-43.6,8.72-96.83-1.25-84.64,15.58-84.64,15.58" transform="translate(0 0)"/><path class="cls-24" d="M538.83,407.32s10.26-19.32,43.6-24.93,35.27-.62,35.27-.62" transform="translate(0 0)"/></g><path class="cls-6" d="M563.29,448.48s5.56-23.39,19.13-31.79,26.54-6.59,18.51-18-12.34-22.79,4.94-28.19,51.22,3.6,71,10.8,58,9.59,67.88-17.4c6.1-16.67-11.74-29.93-24.83-36.75-14.43-7.52-30.64-11.25-46.93-8.46-9.82,1.68-19.35,5.45-29.28,6.42-16.76,1.65-31.55-5.92-48.29-2-13.79,3.24-26.85,10.81-35.79,21.58C544.16,363.32,539.84,396.9,563.29,448.48Z" transform="translate(0 0)"/><path class="cls-3" d="M577.25,440s-16-35.62-30.11-17.08,11.46,42,30.62,37.43" transform="translate(0 0)"/><path class="cls-3" d="M751.5,435.88s-10.49-1.2-12.34,7.2-3.7,21.59,0,21.59,10.49-1.8,13-7.2,4.93-22.19,4.93-22.19Z" transform="translate(0 0)"/><path class="cls-3" d="M768.16,432.89s-14.81-2.4-16.66,3-4.32,24-2.47,24.59,13-4.19,13-4.19Z" transform="translate(0 0)"/><path class="cls-3" d="M787.91,434.08s-17.28-10.79-21.6-5.39S762,456.28,762,456.28s5.55,1.19,8.64-2.4,6.79-8.4,6.79-8.4,12.34,3,14.19,2.4,6.17,0,4.94-6S787.91,434.08,787.91,434.08Z" transform="translate(0 0)"/><path class="cls-3" d="M811.36,444.88s-12.34-7.8-18.52-20.39-9.25-12-12.34-6.6.62,10.8,3.09,15.6,13,16.19,13,16.19Z" transform="translate(0 0)"/><path class="cls-14" d="M700.36,528.8S691.42,603,692.8,607s16.51,8.7,20,6,1.38-8,0-11.37,11.7-65.54,11.7-65.54Z" transform="translate(0 0)"/><path class="cls-9" d="M475,554.51,520.31,692s104.09-58.9,128.45-89.62,38.46-65.39,47-68.64,39,4.85,43.51,9.52,3.4,10.1-2,15.06-8.46,5.64-8.46,5.64-.29,10.81-2.7,12.68-1.87-.54-2.41,1.87a18.06,18.06,0,0,1-2.86,7.29c-1.77,2.45-2.35,3.67-4.18,4.32s-.6.62-11,3.33-16,2.87-20.26,3.59S653.12,651.37,627,683.35s-109.09,105.21-122,105.59S415.5,666.66,399.13,636.54" transform="translate(0 0)"/><g class="cls-25"><path class="cls-20" d="M720.84,585.78a18.06,18.06,0,0,0,2.86-7.29c.54-2.41,0,0,2.41-1.87s2.7-12.68,2.7-12.68,3.06-.69,8.46-5.64,6.47-10.4,2-15.06-35-12.78-43.51-9.52c-2.23.85-4.85,3.86-7.93,8.37,4.54,7.26,9.77,11.64,4.9,24.26-7.43,19.27-24.77,43.35-39.64,63.81S514.34,763.81,499.48,761.4c-12.14-2-47.39-43.25-59.93-58.34,26.84,41.87,57.59,86.11,65.37,85.88,12.95-.38,95.87-73.62,122-105.59s54.13-85.6,58.43-86.33,9.85-.89,20.26-3.59,9.17-2.67,11-3.33S719.07,588.23,720.84,585.78Z" transform="translate(0 0)"/></g><path class="cls-6" d="M475,554.51,520.31,692s104.09-58.9,128.45-89.62,38.46-65.39,47-68.64,39,4.85,43.51,9.52,3.4,10.1-2,15.06-8.46,5.64-8.46,5.64-.29,10.81-2.7,12.68-1.87-.54-2.41,1.87a18.06,18.06,0,0,1-2.86,7.29c-1.77,2.45-2.35,3.67-4.18,4.32s-.6.62-11,3.33-16,2.87-20.26,3.59S653.12,651.37,627,683.35s-109.09,105.21-122,105.59S415.5,666.66,399.13,636.54" transform="translate(0 0)"/><path class="cls-6" d="M520.31,692s-11.85.49-21.92,31.24" transform="translate(0 0)"/><path class="cls-9" d="M705.65,593.43c10.41-2.71,9.17-2.67,11-3.33s2.41-1.87,4.18-4.32a18.06,18.06,0,0,0,2.86-7.29c.54-2.41,2.15-3.23,4.56-5.1s.55-9.45.55-9.45,3.06-.69,8.46-5.65,6.47-10.39,2-15-35-12.78-43.51-9.52c-8.18,3.11-21.47,35-44,64.74l20.85,16.6c6.54-10.58,11.2-17.77,12.76-18C689.69,596.3,695.24,596.13,705.65,593.43Z" transform="translate(0 0)"/><g class="cls-26"><path class="cls-20" d="M720.84,585.78a18.06,18.06,0,0,0,2.86-7.29c.54-2.41,0,0,2.41-1.87s2.7-12.68,2.7-12.68,3.06-.69,8.46-5.64,6.47-10.4,2-15.06-35-12.78-43.51-9.52c-2.23.85-4.85,3.86-7.93,8.37,4.54,7.26,9.77,11.64,4.9,24.26-7.43,19.27-24.77,43.35-39.64,63.81S514.34,763.81,499.48,761.4c-12.14-2-47.39-43.25-59.93-58.34,26.84,41.87,57.59,86.11,65.37,85.88,12.95-.38,95.87-73.62,122-105.59s54.13-85.6,58.43-86.33,9.85-.89,20.26-3.59,9.17-2.67,11-3.33S719.07,588.23,720.84,585.78Z" transform="translate(0 0)"/></g><path class="cls-6" d="M705.65,593.43c10.41-2.71,9.17-2.67,11-3.33s2.41-1.87,4.18-4.32a18.06,18.06,0,0,0,2.86-7.29c.54-2.41,2.15-3.23,4.56-5.1s.55-9.45.55-9.45,3.06-.69,8.46-5.65,6.47-10.39,2-15-35-12.78-43.51-9.52c-8.18,3.11-21.47,35-44,64.74l20.85,16.6c6.54-10.58,11.2-17.77,12.76-18C689.69,596.3,695.24,596.13,705.65,593.43Z" transform="translate(0 0)"/><path class="cls-14" d="M678.69,480.27c-6.82,0-12.35,9.53-12.35,21.29s5.53,21.29,12.35,21.29l151.18,44.38V434.08Z" transform="translate(0 0)"/><line class="cls-6" x1="763.72" y1="462.55" x2="704.75" y2="479.04"/><line class="cls-6" x1="783.43" y1="457.04" x2="771.09" y2="460.49"/><path class="cls-1" d="M698,474.35l-19.35,5.92c-6.82,0-12.35,9.53-12.35,21.29s5.53,21.29,12.35,21.29L696.15,528C684.84,503.52,692.71,483.61,698,474.35Z" transform="translate(0 0)"/><ellipse class="cls-27" cx="842.83" cy="501.56" rx="51.83" ry="89.41"/><polyline class="cls-27" points="842.83 481.72 793.46 468.87 789.14 503.06 794.7 537.84 842.83 521.39 844.68 482.66"/><path class="cls-1" d="M842.83,404.1c-31.2,0-56.5,43.63-56.5,97.46S811.63,599,842.83,599s56.49-43.63,56.49-97.45S874,404.1,842.83,404.1Zm1.39,181.08c-26,0-47.07-37.44-47.07-83.62s21.08-83.62,47.07-83.62,47.08,37.43,47.08,83.62S870.22,585.18,844.22,585.18Z" transform="translate(0 0)"/><ellipse class="cls-14" cx="842.83" cy="501.56" rx="11.5" ry="19.84"/><line class="cls-6" x1="988.51" y1="400.45" x2="999.97" y2="397"/><line class="cls-6" x1="906.38" y1="425.16" x2="974.37" y2="404.71"/><line class="cls-6" x1="915.29" y1="496.64" x2="977.69" y2="498.8"/><line class="cls-6" x1="966.99" y1="585.72" x2="979.92" y2="589.77"/><line class="cls-6" x1="910.83" y1="568.11" x2="956.73" y2="582.5"/><line class="cls-6" x1="913.06" y1="457.65" x2="946.49" y2="453.32"/><line class="cls-6" x1="897.46" y1="591.94" x2="921.98" y2="611.43"/></g></svg>