<svg id="Layer_1" data-name="Layer 1" xmlns="http://www.w3.org/2000/svg" viewBox="0 0 1045.9 989.69"><defs><style>.cls-1,.cls-4,.cls-8{fill:#9bd2a5;}.cls-2,.cls-6{fill:#fff;}.cls-2{opacity:0.7;}.cls-3,.cls-5,.cls-7,.cls-9{fill:none;}.cls-10,.cls-11,.cls-13,.cls-14,.cls-15,.cls-16,.cls-3,.cls-4,.cls-5,.cls-6,.cls-7,.cls-8,.cls-9{stroke:#263238;}.cls-11,.cls-13,.cls-14,.cls-15,.cls-16,.cls-3,.cls-4,.cls-5,.cls-6{stroke-linecap:round;stroke-linejoin:round;}.cls-5,.cls-9{stroke-width:0.5px;}.cls-10,.cls-7,.cls-8,.cls-9{stroke-miterlimit:10;}.cls-7{stroke-width:2px;}.cls-10,.cls-12,.cls-15{fill:#263238;}.cls-11{fill:#656262;}.cls-13{fill:#494646;}.cls-14{fill:#8e8b8b;}.cls-16{fill:#817e7e;}</style></defs><path class="cls-1" d="M998.64,470.7S857,125.17,598,58.45s-367.56,137.3-407.25,278.8S4.87,666.1,18.15,794.79c12.62,122.29,119.8,180.14,219.91,205,127.24,31.55,271.83,33.94,399.55,7.65a829.66,829.66,0,0,0,89.78-24.31c60-19.56,118.91-34.72,179.69-50.94,115.62-30.84,161.44-155,148.39-273.88C1048.13,591.4,1023.62,531.56,998.64,470.7Z" transform="translate(-17.3 -45.41)"/><path class="cls-2" d="M998.64,470.7S857,125.17,598,58.45s-367.56,137.3-407.25,278.8S4.87,666.1,18.15,794.79c12.62,122.29,119.8,180.14,219.91,205,127.24,31.55,271.83,33.94,399.55,7.65a829.66,829.66,0,0,0,89.78-24.31c60-19.56,118.91-34.72,179.69-50.94,115.62-30.84,161.44-155,148.39-273.88C1048.13,591.4,1023.62,531.56,998.64,470.7Z" transform="translate(-17.3 -45.41)"/><rect class="cls-3" x="492.76" y="46.95" width="410.57" height="568.48"/><line class="cls-3" x1="698.05" y1="47.28" x2="698.05" y2="617.4"/><line class="cls-3" x1="903.68" y1="332.34" x2="492.42" y2="332.34"/><line class="cls-3" x1="903.68" y1="189.58" x2="492.42" y2="189.58"/><line class="cls-3" x1="903.68" y1="475.1" x2="492.42" y2="475.1"/><line class="cls-3" x1="828.84" y1="255.48" x2="788.83" y2="293.95"/><line class="cls-3" x1="888.36" y1="198.25" x2="840.55" y2="244.23"/><line class="cls-3" x1="785.92" y1="275.62" x2="773.22" y2="287.83"/><line class="cls-3" x1="840.51" y1="223.13" x2="794.68" y2="267.2"/><line class="cls-3" x1="606.8" y1="125.32" x2="566.79" y2="163.79"/><line class="cls-3" x1="666.32" y1="68.09" x2="618.51" y2="114.07"/><line class="cls-3" x1="563.88" y1="145.46" x2="551.18" y2="157.67"/><line class="cls-3" x1="618.47" y1="92.97" x2="572.64" y2="137.04"/><line class="cls-3" x1="819.27" y1="406.7" x2="779.26" y2="445.17"/><line class="cls-3" x1="878.79" y1="349.46" x2="830.98" y2="395.44"/><line class="cls-3" x1="776.35" y1="426.84" x2="763.65" y2="439.05"/><line class="cls-3" x1="830.94" y1="374.35" x2="785.11" y2="418.41"/><path class="cls-4" d="M854.62,607.25l-1.74-14.79s-7.85.45-10.88-6.38c-1.84-4.15-3.69-12.53-1-16.67,3.66-5.63,11.79-4.87,14.15,1.89,2.1,6,3.13,8.58,3.13,8.58-.51-8.7-7.06-43.73,12.66-38.41,8,2.17,10.21,9.92,10.57,16s-.48,21.92-.48,21.92,5.29.57,5.65-8.21,8.9-12.78,12.64-8.62,5.49,19,1.37,23.58-17.16,6.25-17.16,6.25l.87,14.84Z" transform="translate(-17.3 -45.41)"/><path class="cls-5" d="M866,543.91s-3.26,3-2.37,13.05.89,28.16.89,28.16" transform="translate(-17.3 -45.41)"/><path class="cls-5" d="M874.55,550.73s3.86-.59,2.67,8.6,0,23.12,0,23.12" transform="translate(-17.3 -45.41)"/><path class="cls-5" d="M846.69,570.3s-3.86.89-2.08,7.11,2.37,11,6.52,11.86a32.37,32.37,0,0,0,5.63.89l.6,6.52" transform="translate(-17.3 -45.41)"/><path class="cls-5" d="M884,589s12.15.3,14.53-4.74.88-13.64.88-13.64" transform="translate(-17.3 -45.41)"/><path class="cls-5" d="M851.73,571.93a1,1,0,1,1-1-1A1,1,0,0,1,851.73,571.93Z" transform="translate(-17.3 -45.41)"/><circle class="cls-5" cx="836.95" cy="538.53" r="1.04"/><circle class="cls-5" cx="831.76" cy="533.64" r="1.04"/><circle class="cls-5" cx="852.81" cy="521.33" r="1.04"/><circle class="cls-5" cx="843.02" cy="511.25" r="1.04"/><path class="cls-5" d="M874.55,592.83a1,1,0,1,1-1-1A1,1,0,0,1,874.55,592.83Z" transform="translate(-17.3 -45.41)"/><path class="cls-5" d="M863.29,591.34a1,1,0,1,1-1-1A1,1,0,0,1,863.29,591.34Z" transform="translate(-17.3 -45.41)"/><circle class="cls-5" cx="854.59" cy="501.77" r="1.04"/><path class="cls-5" d="M894,566.89a1,1,0,1,1-1-1A1,1,0,0,1,894,566.89Z" transform="translate(-17.3 -45.41)"/><circle class="cls-5" cx="872.97" cy="535.56" r="1.04"/><circle class="cls-5" cx="854.59" cy="535.27" r="1.04"/><polygon class="cls-6" points="878.21 552.27 824.86 552.27 830.2 596 872.88 596 878.21 552.27"/><line class="cls-7" x1="84.18" y1="471.63" x2="125.01" y2="862.79"/><line class="cls-7" x1="118.43" y1="787.93" x2="99.92" y2="768.39"/><path class="cls-8" d="M122.84,819.65a21,21,0,0,0-7.37-15.7c-4.75-4.24-29.75-14.76-32.12-6C80.77,807.57,106.36,826.38,122.84,819.65Z" transform="translate(-17.3 -45.41)"/><line class="cls-9" x1="105.54" y1="774.24" x2="81.74" y2="759.41"/><line class="cls-7" x1="123.07" y1="832.42" x2="104.56" y2="812.87"/><path class="cls-8" d="M127.48,864.14a21,21,0,0,0-7.36-15.7c-4.75-4.24-29.75-14.76-32.13-6C85.41,852.06,111,870.87,127.48,864.14Z" transform="translate(-17.3 -45.41)"/><line class="cls-9" x1="110.19" y1="818.73" x2="86.38" y2="803.9"/><line class="cls-7" x1="107.1" y1="679.38" x2="88.59" y2="659.83"/><path class="cls-8" d="M111.51,711.09a21,21,0,0,0-7.36-15.7c-4.76-4.24-29.76-14.76-32.13-5.95C69.44,699,95,717.82,111.51,711.09Z" transform="translate(-17.3 -45.41)"/><line class="cls-9" x1="94.21" y1="665.69" x2="70.41" y2="650.86"/><line class="cls-7" x1="111.74" y1="723.86" x2="93.23" y2="704.32"/><path class="cls-8" d="M116.15,755.58a21,21,0,0,0-7.36-15.7c-4.75-4.24-29.75-14.76-32.12-6C74.08,743.5,99.67,762.31,116.15,755.58Z" transform="translate(-17.3 -45.41)"/><line class="cls-9" x1="98.86" y1="710.17" x2="75.06" y2="695.34"/><line class="cls-7" x1="99.56" y1="607.11" x2="81.05" y2="587.57"/><path class="cls-8" d="M104,638.83a21,21,0,0,0-7.37-15.7c-4.75-4.24-29.75-14.76-32.12-6C61.9,626.75,87.49,645.56,104,638.83Z" transform="translate(-17.3 -45.41)"/><line class="cls-9" x1="86.67" y1="593.42" x2="62.87" y2="578.59"/><line class="cls-7" x1="91.98" y1="534.53" x2="73.47" y2="514.98"/><path class="cls-8" d="M96.39,566.25A21,21,0,0,0,89,550.55c-4.75-4.24-29.75-14.76-32.12-6C54.33,554.17,79.91,573,96.39,566.25Z" transform="translate(-17.3 -45.41)"/><line class="cls-9" x1="79.1" y1="520.84" x2="55.3" y2="506.01"/><line class="cls-7" x1="115.32" y1="761.61" x2="129.39" y2="738.67"/><path class="cls-8" d="M142.39,791a21,21,0,0,1,4-16.88c3.77-5.13,26.06-20.58,30.2-12.46C181.06,770.46,159.91,794.15,142.39,791Z" transform="translate(-17.3 -45.41)"/><line class="cls-9" x1="125.1" y1="745.56" x2="146.53" y2="725.07"/><line class="cls-7" x1="103.1" y1="644.54" x2="117.17" y2="621.6"/><path class="cls-8" d="M130.18,673.89a20.93,20.93,0,0,1,4-16.88c3.77-5.13,26.06-20.58,30.2-12.46C168.84,653.39,147.69,677.08,130.18,673.89Z" transform="translate(-17.3 -45.41)"/><line class="cls-9" x1="112.88" y1="628.49" x2="134.31" y2="608.01"/><line class="cls-7" x1="97.73" y1="593.1" x2="111.8" y2="570.15"/><path class="cls-8" d="M124.81,622.45a20.93,20.93,0,0,1,4-16.88c3.77-5.13,26.06-20.59,30.2-12.46C163.48,602,142.32,625.63,124.81,622.45Z" transform="translate(-17.3 -45.41)"/><line class="cls-9" x1="107.51" y1="577.04" x2="128.94" y2="556.56"/><line class="cls-7" x1="89.86" y1="517.68" x2="103.93" y2="494.73"/><path class="cls-8" d="M116.94,547a20.93,20.93,0,0,1,4-16.88c3.77-5.14,26.06-20.59,30.2-12.46C155.6,526.52,134.45,550.21,116.94,547Z" transform="translate(-17.3 -45.41)"/><line class="cls-9" x1="99.64" y1="501.62" x2="121.07" y2="481.14"/><path class="cls-8" d="M101.14,514.86a20.93,20.93,0,0,1,4-16.88c3.77-5.13,26.06-20.58,30.2-12.46C139.81,494.36,118.65,518,101.14,514.86Z" transform="translate(-17.3 -45.41)"/><line class="cls-9" x1="83.84" y1="469.45" x2="105.27" y2="448.97"/><path class="cls-8" d="M102.38,515.74A20.93,20.93,0,0,1,86,510c-4.71-4.29-17.74-28.08-9.23-31.34C86.05,475.14,107.38,498.66,102.38,515.74Z" transform="translate(-17.3 -45.41)"/><line class="cls-9" x1="85.08" y1="470.34" x2="66.96" y2="446.88"/><line class="cls-7" x1="191.85" y1="525.5" x2="151.26" y2="916.69"/><line class="cls-7" x1="160.24" y1="842.08" x2="146.15" y2="819.14"/><path class="cls-8" d="M167.75,871.43a21,21,0,0,0-4-16.88C160,849.43,137.7,834,133.56,842.11,129.06,851,150.23,874.63,167.75,871.43Z" transform="translate(-17.3 -45.41)"/><line class="cls-9" x1="150.45" y1="826.03" x2="130.21" y2="806.61"/><line class="cls-7" x1="171.5" y1="733.51" x2="157.42" y2="710.58"/><path class="cls-8" d="M179,762.87A21,21,0,0,0,175,746c-3.77-5.13-26.07-20.57-30.2-12.44C140.33,742.39,161.5,766.06,179,762.87Z" transform="translate(-17.3 -45.41)"/><line class="cls-9" x1="161.71" y1="717.46" x2="141.48" y2="698.05"/><line class="cls-7" x1="166.89" y1="778" x2="152.8" y2="755.07"/><path class="cls-8" d="M174.39,807.36a21,21,0,0,0-4-16.88c-3.78-5.13-26.08-20.57-30.21-12.44C135.71,786.88,156.88,810.55,174.39,807.36Z" transform="translate(-17.3 -45.41)"/><line class="cls-9" x1="157.1" y1="761.95" x2="136.86" y2="742.54"/><line class="cls-7" x1="179" y1="661.24" x2="164.92" y2="638.31"/><path class="cls-8" d="M186.51,690.6a21,21,0,0,0-4-16.88c-3.77-5.13-26.07-20.57-30.2-12.44C147.83,670.12,169,693.79,186.51,690.6Z" transform="translate(-17.3 -45.41)"/><line class="cls-9" x1="169.21" y1="645.19" x2="148.98" y2="625.78"/><line class="cls-7" x1="186.53" y1="588.66" x2="172.45" y2="565.72"/><path class="cls-8" d="M194,618a20.94,20.94,0,0,0-4-16.87c-3.78-5.13-26.08-20.57-30.21-12.45C155.36,597.53,176.53,621.21,194,618Z" transform="translate(-17.3 -45.41)"/><line class="cls-9" x1="176.74" y1="572.61" x2="156.51" y2="553.19"/><line class="cls-7" x1="162.61" y1="815.68" x2="181.11" y2="796.12"/><path class="cls-8" d="M192.79,847.39a21,21,0,0,1,7.35-15.71c4.75-4.24,29.74-14.77,32.12-6C234.85,835.29,209.27,854.11,192.79,847.39Z" transform="translate(-17.3 -45.41)"/><line class="cls-9" x1="175.49" y1="801.98" x2="200.68" y2="786.35"/><line class="cls-7" x1="174.76" y1="698.6" x2="193.26" y2="679.05"/><path class="cls-8" d="M204.93,730.31a21,21,0,0,1,7.36-15.7c4.75-4.25,29.74-14.78,32.12-6C247,718.21,221.42,737,204.93,730.31Z" transform="translate(-17.3 -45.41)"/><line class="cls-9" x1="187.64" y1="684.91" x2="212.83" y2="669.27"/><line class="cls-7" x1="180.1" y1="647.15" x2="198.59" y2="627.6"/><path class="cls-8" d="M210.27,678.86a21,21,0,0,1,7.36-15.7c4.75-4.25,29.74-14.78,32.12-6C252.33,666.76,226.76,685.58,210.27,678.86Z" transform="translate(-17.3 -45.41)"/><line class="cls-9" x1="192.98" y1="633.46" x2="218.16" y2="617.82"/><line class="cls-7" x1="187.93" y1="571.73" x2="206.42" y2="552.17"/><path class="cls-8" d="M218.1,603.44a20.94,20.94,0,0,1,7.36-15.71c4.74-4.24,29.74-14.77,32.12-6C260.16,591.33,234.58,610.16,218.1,603.44Z" transform="translate(-17.3 -45.41)"/><line class="cls-9" x1="200.8" y1="558.03" x2="225.99" y2="542.4"/><path class="cls-8" d="M209.26,568.71A21,21,0,0,1,216.62,553c4.75-4.24,29.74-14.77,32.12-6C251.32,556.6,225.75,575.43,209.26,568.71Z" transform="translate(-17.3 -45.41)"/><line class="cls-9" x1="191.97" y1="523.3" x2="217.15" y2="507.67"/><path class="cls-8" d="M210.3,569.83a21,21,0,0,1-14.85-9c-3.72-5.16-11.57-31.12-2.57-32.57C202.67,526.73,218.71,554.14,210.3,569.83Z" transform="translate(-17.3 -45.41)"/><line class="cls-9" x1="193" y1="524.42" x2="180.09" y2="497.73"/><line class="cls-7" x1="145.34" y1="366.2" x2="145.34" y2="860.89"/><line class="cls-7" x1="145.73" y1="786.51" x2="129.35" y2="765.15"/><path class="cls-8" d="M151.64,817a21,21,0,0,0-5.7-16.38c-4.29-4.71-28.06-17.77-31.33-9.25C111.05,800.58,134.55,821.94,151.64,817Z" transform="translate(-17.3 -45.41)"/><line class="cls-9" x1="134.34" y1="771.55" x2="112.2" y2="754.33"/><line class="cls-7" x1="145.73" y1="693.54" x2="129.35" y2="672.18"/><path class="cls-8" d="M151.64,724a21,21,0,0,0-5.7-16.38c-4.29-4.71-28.06-17.77-31.33-9.26C111.05,707.62,134.55,729,151.64,724Z" transform="translate(-17.3 -45.41)"/><line class="cls-9" x1="134.34" y1="678.59" x2="112.2" y2="661.37"/><line class="cls-7" x1="145.73" y1="584.4" x2="129.35" y2="563.04"/><path class="cls-8" d="M151.64,614.85a21,21,0,0,0-5.7-16.38c-4.29-4.71-28.06-17.77-31.33-9.25C111.05,598.47,134.55,619.83,151.64,614.85Z" transform="translate(-17.3 -45.41)"/><line class="cls-9" x1="134.34" y1="569.44" x2="112.2" y2="552.22"/><line class="cls-7" x1="145.73" y1="511.74" x2="129.35" y2="490.38"/><path class="cls-8" d="M151.64,542.19a21,21,0,0,0-5.7-16.38c-4.29-4.71-28.06-17.76-31.33-9.25C111.05,525.81,134.55,547.18,151.64,542.19Z" transform="translate(-17.3 -45.41)"/><line class="cls-9" x1="134.34" y1="496.79" x2="112.2" y2="479.56"/><line class="cls-7" x1="145.73" y1="438.76" x2="129.35" y2="417.4"/><path class="cls-8" d="M151.64,469.22a21,21,0,0,0-5.7-16.38c-4.29-4.71-28.06-17.77-31.33-9.26C111.05,452.84,134.55,474.2,151.64,469.22Z" transform="translate(-17.3 -45.41)"/><line class="cls-9" x1="134.34" y1="423.81" x2="112.2" y2="406.59"/><line class="cls-7" x1="145.37" y1="814.9" x2="161.75" y2="793.53"/><path class="cls-8" d="M174.06,845.35a21,21,0,0,1,5.7-16.38c4.28-4.71,28.05-17.77,31.33-9.26C214.65,829,191.15,850.33,174.06,845.35Z" transform="translate(-17.3 -45.41)"/><line class="cls-9" x1="156.76" y1="799.94" x2="180.2" y2="781.79"/><line class="cls-7" x1="145.37" y1="667.04" x2="161.75" y2="645.68"/><path class="cls-8" d="M174.06,697.49a21,21,0,0,1,5.7-16.37c4.28-4.72,28.05-17.77,31.33-9.26C214.65,681.12,191.15,702.48,174.06,697.49Z" transform="translate(-17.3 -45.41)"/><line class="cls-9" x1="156.76" y1="652.09" x2="180.2" y2="633.94"/><line class="cls-7" x1="145.37" y1="594.07" x2="161.75" y2="572.7"/><path class="cls-8" d="M174.06,624.52a21,21,0,0,1,5.7-16.38c4.28-4.71,28.05-17.77,31.33-9.26C214.65,608.14,191.15,629.5,174.06,624.52Z" transform="translate(-17.3 -45.41)"/><line class="cls-9" x1="156.76" y1="579.11" x2="180.2" y2="560.96"/><line class="cls-7" x1="145.37" y1="497.61" x2="161.75" y2="476.25"/><path class="cls-8" d="M174.06,528.06a21,21,0,0,1,5.7-16.37c4.28-4.72,28.05-17.77,31.33-9.26C214.65,511.69,191.15,533.05,174.06,528.06Z" transform="translate(-17.3 -45.41)"/><line class="cls-9" x1="156.76" y1="482.66" x2="180.2" y2="464.51"/><line class="cls-7" x1="145.37" y1="421.78" x2="161.75" y2="400.42"/><path class="cls-8" d="M174.06,452.23a21,21,0,0,1,5.7-16.38c4.28-4.71,28.05-17.76,31.33-9.25C214.65,435.85,191.15,457.22,174.06,452.23Z" transform="translate(-17.3 -45.41)"/><line class="cls-9" x1="156.76" y1="406.83" x2="180.2" y2="388.68"/><path class="cls-8" d="M161.69,418.6a21,21,0,0,1,5.69-16.38c4.29-4.71,28.06-17.77,31.33-9.25C202.27,402.22,178.78,423.58,161.69,418.6Z" transform="translate(-17.3 -45.41)"/><line class="cls-9" x1="144.39" y1="373.2" x2="167.83" y2="355.05"/><path class="cls-8" d="M162.83,419.61a21,21,0,0,1-15.69-7.38c-4.24-4.76-14.73-29.77-5.92-32.13C150.8,377.53,169.58,403.14,162.83,419.61Z" transform="translate(-17.3 -45.41)"/><line class="cls-9" x1="145.53" y1="374.2" x2="129.94" y2="348.99"/><polygon class="cls-10" points="165.69 989.19 113.3 989.19 106.75 856.88 172.24 856.88 165.69 989.19"/><polygon class="cls-11" points="639.04 451.51 800.59 451.51 762.96 590.12 601.42 590.12 639.04 451.51"/><polygon class="cls-6" points="643.66 456.68 793.17 456.68 758.34 584.95 608.84 584.95 643.66 456.68"/><path class="cls-12" d="M697.18,590.35l9-33.56h3.74L701.83,587h9.58l-.91,3.4Z" transform="translate(-17.3 -45.41)"/><path class="cls-12" d="M719.87,564.89c1.37-5.12,4.8-8.43,9.93-8.43s6.83,3.31,5.46,8.43l-4.65,17.36c-1.36,5.08-4.8,8.44-10,8.44s-6.78-3.36-5.42-8.44Zm-1,17.55c-.82,3.07,0,4.84,2.69,4.84s4.45-1.77,5.27-4.84l4.75-17.74c.81-3,0-4.84-2.68-4.84s-4.47,1.82-5.28,4.84Z" transform="translate(-17.3 -45.41)"/><path class="cls-12" d="M753.63,564.89l-.77,2.88h-3.55l.82-3.07c.81-3,.1-4.84-2.63-4.84s-4.42,1.82-5.23,4.84l-4.75,17.74c-.81,3,0,4.84,2.63,4.84s4.42-1.82,5.23-4.84l1.8-6.71h-3.45l.9-3.36h7L749,582.25c-1.36,5.08-4.65,8.44-9.83,8.44s-6.63-3.36-5.27-8.44l4.65-17.36c1.36-5.08,4.65-8.43,9.78-8.43S755,559.81,753.63,564.89Z" transform="translate(-17.3 -45.41)"/><path class="cls-12" d="M756.9,564.89c1.37-5.12,4.79-8.43,9.93-8.43s6.83,3.31,5.46,8.43l-4.65,17.36c-1.36,5.08-4.8,8.44-10,8.44s-6.77-3.36-5.41-8.44Zm-1,17.55c-.82,3.07,0,4.84,2.69,4.84s4.45-1.77,5.27-4.84l4.75-17.74c.81-3,0-4.84-2.68-4.84s-4.47,1.82-5.28,4.84Z" transform="translate(-17.3 -45.41)"/><path class="cls-3" d="M701.23,558.62c-.29-7.62-2.05-21.7-10.4-32.59-12.06-15.71-33.93,5.66-24.71,32.4a33.88,33.88,0,0,0,5.21,9.54" transform="translate(-17.3 -45.41)"/><path class="cls-3" d="M680,576.4s-31.9,4.84-25.19,16.55c11.64,20.31,30.95,1.67,39.12-7.84" transform="translate(-17.3 -45.41)"/><path class="cls-4" d="M694.49,548.44c3.59,9.63,2.83,18.8-1.69,20.48s-11.1-4.76-14.68-14.39-2.83-18.8,1.69-20.48S690.91,538.81,694.49,548.44Z" transform="translate(-17.3 -45.41)"/><path class="cls-4" d="M662.36,593.5c1.12,2.94,6.79,3.52,12.67,1.29s9.75-6.43,8.64-9.37-6.79-3.52-12.68-1.29S661.25,590.56,662.36,593.5Z" transform="translate(-17.3 -45.41)"/><path class="cls-3" d="M710.84,531.5s6.42,16.29-5.2,30.7c0,0,2-10.65-2.74-24.44" transform="translate(-17.3 -45.41)"/><rect class="cls-11" x="536.49" y="582.75" width="226.47" height="7.36"/><rect class="cls-13" x="658.89" y="582.75" width="104.07" height="7.36"/><rect class="cls-6" x="464.06" y="601.86" width="12.17" height="386.47"/><rect class="cls-14" x="470.96" y="647.27" width="10.4" height="386.47" transform="translate(935.02 1635.6) rotate(180)"/><rect class="cls-6" x="775.9" y="804.08" width="12.17" height="184.25"/><rect class="cls-14" x="782.8" y="849.48" width="10.4" height="184.25" transform="translate(1558.71 1837.82) rotate(180)"/><rect class="cls-6" x="906.25" y="804.08" width="12.17" height="184.25"/><rect class="cls-14" x="913.15" y="849.48" width="10.4" height="184.25" transform="translate(1819.4 1837.82) rotate(180)"/><rect class="cls-14" x="672.55" y="651.03" width="118.76" height="208.98" transform="translate(1446.56 1465.62) rotate(180)"/><rect class="cls-6" x="774.01" y="605.62" width="156.5" height="208.98"/><polygon class="cls-15" points="774.01 605.62 655.25 605.62 655.25 615.8 774.01 615.8 930.51 615.8 930.51 605.62 774.01 605.62"/><rect class="cls-6" x="665.38" y="617.59" width="101.27" height="48.79"/><rect class="cls-12" x="702.66" y="637.38" width="26.7" height="9.21"/><rect class="cls-6" x="665.38" y="684.79" width="101.27" height="48.79"/><rect class="cls-12" x="702.66" y="703.66" width="26.7" height="9.21"/><rect class="cls-6" x="665.38" y="752" width="101.27" height="48.79"/><rect class="cls-12" x="702.66" y="769.95" width="26.7" height="9.21"/><rect class="cls-14" x="436.87" y="596.44" width="509.78" height="12.15"/><rect class="cls-6" x="792.73" y="596.44" width="153.93" height="12.15"/><path class="cls-6" d="M497.4,765.53S512.58,776,535.1,841c7.5,21.62,49.56,138.09,51.77,146.21s6.64,17.7,13.28,17.7,31-31,28-34.67-17-18.45-17-18.45-8.37-94.29-9.85-120.85,4.56-58.55-9.46-80-76,.74-76,.74Z" transform="translate(-17.3 -45.41)"/><path class="cls-4" d="M617.86,951.8s-5.9,3-5.17,9.59,7.38,15.5,7.38,15.5-14,11.06-21.39,11.8-15.5,2.21-15.5,4.43,5.9,5.9,9.59,14,11.81,20.65,14,23.6,3.69,5.17,11.81,3,25.82-18.45,35.41-25.09,38.36-11.07,43.53-14.75,21.39-27.3,14-31.73-9.59.74-18.44,3-34.68-.73-48.69-3.69S626,957.71,626,957.71Z" transform="translate(-17.3 -45.41)"/><path class="cls-6" d="M605.6,1029.06c.48.71.89,1.29,1.19,1.68,2.21,3,3.69,5.17,11.81,3s25.82-18.45,35.41-25.09,38.36-11.07,43.53-14.75,21.39-27.3,14-31.73a12.39,12.39,0,0,0-3.34-1.46c.13.49.26.94.39,1.46,2.22,8.86-5.16,17.71-11.8,24.35s-28.77,5.16-53.12,17.7A238.9,238.9,0,0,0,605.6,1029.06Z" transform="translate(-17.3 -45.41)"/><path class="cls-15" d="M604.9,878c-1.59-19.4-3-37.54-3.53-47-1.47-26.56,4.56-58.55-9.46-80s-76,.74-76,.74L497.4,765.53S512.58,776,535.1,841c2.87,8.27,10.79,30.41,19.61,55.06Z" transform="translate(-17.3 -45.41)"/><path class="cls-6" d="M568.78,387.08s3.34,8.71,2.67,16.07-7.36,10.71-8,8.7-.67-7.36-.67-10v-2.68s-1.34,2.68-6,7.37-7.37,3.34-9.38,3.34-2.67-6.69.67-11.38S562.08,383.07,568.78,387.08Z" transform="translate(-17.3 -45.41)"/><path class="cls-6" d="M584.17,404.49c-6.69-4-16.73,10-32.13,6.69-2-.42-2.68-3.34.67-10s14.06-12.05,19.41-16.06,9.37-7.37,9.37-12.05-12,2.67-15.39,5.35c-1.53,1.23-7,4-12.63,6.75l-2.88.14c-6,.38-15.14,1.44-18.63,4.49-4.55,4-7.16,17.59-8.26,22.84-3,4.28-5.61,8.24-7.14,10.63-4.68,7.37-99.07,76.31-99.07,76.31l6.7,58.91,107.1-121.83s2.68-2.68,10-5.36,17.4-4.68,26.11-9.37,9.37-5.35,18.74-11.38C590.72,407.59,587.8,406.67,584.17,404.49Z" transform="translate(-17.3 -45.41)"/><path class="cls-4" d="M471.6,459.39c-26.21,19.78-54.11,40.15-54.11,40.15l6.7,58.91L490,483.62Z" transform="translate(-17.3 -45.41)"/><path class="cls-6" d="M438.67,682.1s47.22-2.21,115.83,8.85,94.29,22.85,92.22,36.15C638.36,781,512.57,958.32,512.57,958.32l2.22,25.09s-4.43,5.9-19.92,6.64-34.68-21.4-34.68-21.4,17.32-17.91,24-39.3,60-159.46,60-159.46-70.09,15.5-147.56,1.48S438.67,682.1,438.67,682.1Z" transform="translate(-17.3 -45.41)"/><path class="cls-15" d="M554.5,691c-68.61-11.06-115.83-8.85-115.83-8.85s-119.51,75.25-42.05,89.27,147.56-1.48,147.56-1.48-22.22,57.46-39.77,104l52,20c37.17-56.37,85.22-134.18,90.28-166.78C648.79,713.8,623.12,702,554.5,691Z" transform="translate(-17.3 -45.41)"/><path class="cls-4" d="M512.57,958.32a12.23,12.23,0,0,0-6.64,6.64,98.62,98.62,0,0,0-3.68,10.33s-14-2.95-23.61-7.38a131.22,131.22,0,0,1-16.23-8.85s-6.64.74-6.64,5.16a57.37,57.37,0,0,1-3.69,19.92c-1.9,4.75-5.94,15.31-8.58,22.23a6,6,0,0,0,4.32,8c11.68,2.58,36.31,8.28,57.38,14.76,28.77,8.85,60.49,4.42,64.18,3.69s18.45-9.59,11.81-15.5S535.45,996,527.33,985.62,512.57,958.32,512.57,958.32Z" transform="translate(-17.3 -45.41)"/><path class="cls-6" d="M578.23,1015.27c-.05,7.33-3.76,14.62-15.49,14.62s-32.46-1.48-62-13.28a388.71,388.71,0,0,0-54.72-16.92l-2.55,6.68a6,6,0,0,0,4.32,8c11.68,2.58,36.31,8.28,57.38,14.76,28.77,8.85,60.49,4.42,64.18,3.69s18.45-9.59,11.81-15.5A22.79,22.79,0,0,0,578.23,1015.27Z" transform="translate(-17.3 -45.41)"/><path class="cls-4" d="M289.64,510.25s-8,63.6-7.37,75.65,9.37,115.8,11.38,138.56S305,767.3,321.77,771.32s60.24,10,79,5.35,38.82-46.85,45.52-62.92,11.38-26.11,9.37-29.45-10.71-10.71-10.71-10.71-16.74-121.83-20.75-153.3-2-34.13-16.74-46.18S316.41,452,289.64,510.25Z" transform="translate(-17.3 -45.41)"/><path class="cls-3" d="M396.76,732.21c-2.43,1.85-4.93,3.6-7.52,5.22" transform="translate(-17.3 -45.41)"/><path class="cls-3" d="M440.89,678.41S426.68,706.3,403.15,727" transform="translate(-17.3 -45.41)"/><path class="cls-3" d="M430.56,679.89s-22.87,21.39-45.74,34.67" transform="translate(-17.3 -45.41)"/><path class="cls-6" d="M449,310.1s6.7,14.06,8.71,24.1,2.67,19.41,7.36,21.42,13.39,2.68,12.05,8-10,14-10,14,2,32.13,1.34,38.16-36.15,6-38.16,6-22.09,47.53-22.09,47.53l-56.23-28.11L362.6,406.5S345.2,373,343.86,358.3s32.8-41.5,52.21-47.53S449,310.1,449,310.1Z" transform="translate(-17.3 -45.41)"/><polygon class="cls-15" points="412.91 376.49 395.06 371.38 401.73 397.52 412.91 376.49"/><path class="cls-12" d="M455.57,348c.91,3.78.47,7.12-1,7.46s-3.34-2.44-4.24-6.21-.47-7.12,1-7.46S454.67,344.2,455.57,348Z" transform="translate(-17.3 -45.41)"/><path class="cls-3" d="M444.27,383.74s8,6,15.39,3.34" transform="translate(-17.3 -45.41)"/><path class="cls-15" d="M445.61,297.38s9.37,16.74,2.67,27.45-22.76,15.4-31.46,25.44-13.39,27.44-16.73,28.78-13.39-18.74-19.42-17.4-16.06,15.39-7.36,30.12a25.44,25.44,0,0,0,24.1,12.72s-24.1,12.72-28.78,12.72-18.75-8-25.44-15.4-30.79-29.45-32.13-47.53,22.76-40.83,22.76-40.83-28.79-2-21.42-12.72,33.47-17.4,33.47-17.4-4.69-16.74,2-20.08,47.53,10,47.53,10-11.38-14.73,4.69-15.4S443.6,277.3,445.61,297.38Z" transform="translate(-17.3 -45.41)"/><line class="cls-3" x1="375.04" y1="324.66" x2="460.44" y2="290.14"/><path class="cls-3" d="M455.47,330.7a15.07,15.07,0,0,1,13.24,27" transform="translate(-17.3 -45.41)"/><path class="cls-4" d="M424.19,488.16s-.67-19.41-6-24.76S373.31,436,355.24,431.26s-36.82,2-48.87,6-20.08,15.4-24.77,40.16-5.35,40.17,4.69,41.51,24.1-28.79,55.56-34.81,60.25-.67,66.94,2.67S424.19,488.16,424.19,488.16Z" transform="translate(-17.3 -45.41)"/><path class="cls-3" d="M322.51,467.62c-6,2.12-10.11,3.81-10.11,3.81" transform="translate(-17.3 -45.41)"/><path class="cls-3" d="M424.19,488.16S382,464.73,366.62,460.05c-8-2.45-22.48.77-34.43,4.39" transform="translate(-17.3 -45.41)"/><path class="cls-6" d="M623,597s-2.18,13.91-4.77,15.5-2.38-12.92-2.38-12.92-3.18,8.35-5.17,10.33-.8-8.54-.8-8.54L612,591.4Z" transform="translate(-17.3 -45.41)"/><path class="cls-6" d="M594.62,583.19l20.53.34s5.43.77,6.2,3.87a95.58,95.58,0,0,0,3.88,10.07l-31.77-9.3Z" transform="translate(-17.3 -45.41)"/><path class="cls-6" d="M602,589.72s28.67-3.87,29.44-1.55c.59,1.76,2.81,17.51,3.28,22.59a.81.81,0,0,1-1.45.57l-8-13.86L603.53,599S597.33,593.6,602,589.72Z" transform="translate(-17.3 -45.41)"/><path class="cls-4" d="M364.1,502.94s-17.82,13.17-11.62,45.72,49.59,121.65,53.46,129.4,20.92,8.52,28.67,6.2,145.67-57.34,145.67-57.34,14.73-3.88,17.05-7,17-19.37,17-19.37,23.24,3.1,28.67,1.55-5.43-3.1-10.85-4.65c-4.18-1.19-27.23-10.21-37.58-14.28a8.15,8.15,0,0,0-8.81,1.88c-7.26,7.45-22.73,23.22-25.67,25.58C556.26,613.74,447,632.34,447,632.34s-25.57-120.1-35.65-130.17-27.89-7.75-27.89-7.75" transform="translate(-17.3 -45.41)"/><path class="cls-6" d="M508.22,655.56c36.19-14.33,72.06-28.64,72.06-28.64s14.73-3.88,17.05-7,17-19.37,17-19.37,23.24,3.1,28.67,1.55-5.43-3.1-10.85-4.65c-4.18-1.19-27.23-10.21-37.58-14.28a8.15,8.15,0,0,0-8.81,1.88c-7.26,7.45-22.73,23.22-25.67,25.58-2,1.61-32.54,7.41-61.37,12.61Z" transform="translate(-17.3 -45.41)"/><path class="cls-16" d="M266,808.07l-33.75,224.3a1.83,1.83,0,0,0,3.55.89l50.85-221.5Z" transform="translate(-17.3 -45.41)"/><path class="cls-16" d="M316.41,809.54,331.1,1032a1.83,1.83,0,0,0,3.66-.07l2.55-224.18Z" transform="translate(-17.3 -45.41)"/><path class="cls-16" d="M365.91,812.9l40.29,218.53a1.84,1.84,0,0,0,3.62-.58L386.35,808.14Z" transform="translate(-17.3 -45.41)"/><path class="cls-16" d="M443.78,811.05l33,220a1.84,1.84,0,0,0,3.64-.43l-16-223.51Z" transform="translate(-17.3 -45.41)"/><path class="cls-6" d="M412.29,766.27s-38.75-12.92-56.83-59.41S307.68,580.31,287,570s-60.69,9-63.28,83.94,3.48,130.63,20.16,149c14.76,16.23,39.84,36.89,126.9,38.36,77.74,1.32,109.49-28.31,120.26-38.36,11.06-10.33,28.41-31.48,14.2-31.48S430.36,771.43,412.29,766.27Z" transform="translate(-17.3 -45.41)"/><path class="cls-6" d="M591.25,306.47s-15.13-17.64-36.13-21-22.42,27.32,4.46,40.76c11.47,5.74,24.1,3.76,24.1,3.76s-21.43,25.34-7.56,29.4c31.11,9.11,24.37-38.64,24.37-38.64Z" transform="translate(-17.3 -45.41)"/><path class="cls-6" d="M596.33,305.36s-8.83-21.49-2.26-41.72,33-6.5,32.69,23.56a45.7,45.7,0,0,1-6,22.14s33.78-7.19,29.62,6.65c-9.45,31.48-45.5,4.1-45.5,4.1Z" transform="translate(-17.3 -45.41)"/><path class="cls-12" d="M608.05,332.21a2.22,2.22,0,0,1-1.91-1.09l-21-35.28a2.21,2.21,0,0,1,3.81-2.26l21,35.28a2.21,2.21,0,0,1-.77,3A2.25,2.25,0,0,1,608.05,332.21Z" transform="translate(-17.3 -45.41)"/><path class="cls-3" d="M588.73,298.91s-7.57-16-21-17.64" transform="translate(-17.3 -45.41)"/><path class="cls-3" d="M589,293.58s-4.42-13.15-1.06-21.55" transform="translate(-17.3 -45.41)"/><path class="cls-4" d="M575.56,308.5c-.79,3.91-6.6,6-13,4.73s-10.9-5.5-10.1-9.41,6.59-6,13-4.73S576.35,304.59,575.56,308.5Z" transform="translate(-17.3 -45.41)"/><path class="cls-4" d="M591.28,335.94c2.25,1.48,2.12,5.66-.29,9.34s-6.2,5.45-8.46,4-2.12-5.66.29-9.33S589,334.46,591.28,335.94Z" transform="translate(-17.3 -45.41)"/><path class="cls-4" d="M637.4,317.43c0,2.7-3.5,4.93-7.9,5s-8-2.08-8-4.78,3.51-4.92,7.91-5S637.37,314.73,637.4,317.43Z" transform="translate(-17.3 -45.41)"/><path class="cls-4" d="M610.13,294.32c-4,.44-7.75-4.45-8.47-10.91s1.92-12.06,5.88-12.49,7.75,4.44,8.47,10.9S614.09,293.88,610.13,294.32Z" transform="translate(-17.3 -45.41)"/><line class="cls-6" x1="14.47" y1="989.19" x2="1045.4" y2="989.19"/></svg>