<svg xmlns="http://www.w3.org/2000/svg" xmlns:xlink="http://www.w3.org/1999/xlink" viewBox="0 0 1065.38 764.56"><defs><style>.cls-1{isolation:isolate;}.cls-2{fill:#dadef0;}.cls-3{fill:url(#linear-gradient);}.cls-4{fill:#fff;}.cls-5{fill:url(#linear-gradient-2);}.cls-6{fill:url(#linear-gradient-3);}.cls-7{fill:url(#linear-gradient-4);}.cls-8{fill:url(#linear-gradient-5);}.cls-9{fill:url(#linear-gradient-6);}.cls-10{fill:url(#linear-gradient-7);}.cls-11{fill:url(#linear-gradient-8);}.cls-12{fill:url(#linear-gradient-9);}.cls-13{fill:url(#linear-gradient-10);}.cls-14{fill:url(#linear-gradient-11);}.cls-15{fill:url(#linear-gradient-12);}.cls-16{fill:url(#linear-gradient-13);}.cls-17{fill:url(#linear-gradient-14);}.cls-18{fill:url(#linear-gradient-15);}.cls-19{fill:url(#linear-gradient-16);}.cls-20{fill:url(#linear-gradient-17);}.cls-21{fill:url(#linear-gradient-18);}.cls-22{fill:url(#linear-gradient-19);}.cls-23{fill:url(#linear-gradient-20);}.cls-24{fill:url(#linear-gradient-21);}.cls-25{fill:url(#linear-gradient-22);}.cls-26{fill:url(#linear-gradient-23);}.cls-27{fill:url(#linear-gradient-24);}.cls-28{fill:url(#linear-gradient-25);}.cls-29{fill:url(#linear-gradient-26);}.cls-30{fill:#fbc7b0;}.cls-31{fill:url(#linear-gradient-27);}.cls-32{fill:#bb874c;}.cls-33{fill:#f8ae8f;}.cls-34{fill:url(#linear-gradient-28);}.cls-35{fill:#ee8779;}.cls-36{fill:url(#linear-gradient-29);}.cls-37{fill:url(#linear-gradient-30);}.cls-38{fill:url(#linear-gradient-31);}.cls-39{fill:url(#linear-gradient-32);}.cls-40,.cls-42{fill:#d0d3d4;}.cls-40,.cls-41,.cls-52{mix-blend-mode:multiply;}.cls-43{fill:url(#linear-gradient-33);}.cls-44{fill:url(#linear-gradient-34);}.cls-45{fill:#112c46;}.cls-46{fill:url(#linear-gradient-35);}.cls-47{fill:#5f6ab1;}.cls-48{fill:#bbbebf;}.cls-49{fill:#929496;}.cls-50{fill:#f7fafc;}.cls-51{fill:#8589c3;}.cls-52{fill:#e6e6e7;}.cls-53{fill:url(#linear-gradient-36);}.cls-54{fill:url(#linear-gradient-37);}.cls-55{fill:#f1b39c;}.cls-56{fill:#434143;}.cls-57{fill:#debc95;}.cls-58{fill:url(#linear-gradient-38);}.cls-59{fill:url(#linear-gradient-39);}.cls-60{fill:url(#linear-gradient-40);}.cls-61{fill:url(#linear-gradient-41);}.cls-62{fill:url(#linear-gradient-42);}.cls-63{fill:url(#linear-gradient-43);}.cls-64{fill:url(#linear-gradient-44);}.cls-65{fill:url(#linear-gradient-45);}.cls-66{fill:url(#linear-gradient-46);}.cls-67{fill:url(#linear-gradient-47);}.cls-68{fill:none;}.cls-69{fill:#504a9f;}.cls-70{fill:url(#linear-gradient-48);}.cls-71{fill:url(#linear-gradient-49);}.cls-72{fill:url(#linear-gradient-50);}.cls-73{fill:url(#linear-gradient-51);}.cls-74{fill:#0f416a;}.cls-75{fill:url(#linear-gradient-52);}</style><linearGradient id="linear-gradient" x1="606.01" y1="417.54" x2="606.01" y2="179.24" gradientUnits="userSpaceOnUse"><stop offset="0" stop-color="#fff"/><stop offset="1" stop-color="#dadef0"/></linearGradient><linearGradient id="linear-gradient-2" x1="-122.19" y1="198.82" x2="-122.19" y2="51.79" gradientTransform="translate(262.11 373.89) rotate(16.39)" xlink:href="#linear-gradient"/><linearGradient id="linear-gradient-3" x1="909.44" y1="816.39" x2="909.44" y2="525.71" gradientTransform="translate(-218.77 19.17) rotate(-19.83)" xlink:href="#linear-gradient"/><linearGradient id="linear-gradient-4" x1="1596.05" y1="1048.16" x2="1596.05" y2="757.48" gradientTransform="matrix(-0.94, -0.34, -0.34, 0.94, 2047.61, 19.17)" xlink:href="#linear-gradient"/><linearGradient id="linear-gradient-5" x1="528.81" y1="392.84" x2="528.81" y2="860.46" gradientUnits="userSpaceOnUse"><stop offset="0" stop-color="#fbd15c"/><stop offset="0.37" stop-color="#f4847a"/><stop offset="1" stop-color="#4e55a5"/></linearGradient><linearGradient id="linear-gradient-6" x1="111.79" y1="786.56" x2="111.79" y2="856.08" gradientUnits="userSpaceOnUse"><stop offset="0" stop-color="#7bd3f7"/><stop offset="0.17" stop-color="#77c6ef"/><stop offset="0.47" stop-color="#6ea5d9"/><stop offset="0.88" stop-color="#5f70b6"/><stop offset="1" stop-color="#5a5eaa"/></linearGradient><linearGradient id="linear-gradient-7" x1="113.04" y1="802.69" x2="113.04" y2="856.08" gradientUnits="userSpaceOnUse"><stop offset="0" stop-color="#5a71b6"/><stop offset="1" stop-color="#3c2f90"/></linearGradient><linearGradient id="linear-gradient-8" x1="69.69" y1="712.99" x2="69.69" y2="856.08" xlink:href="#linear-gradient-6"/><linearGradient id="linear-gradient-9" x1="72.28" y1="736.69" x2="72.28" y2="856.08" xlink:href="#linear-gradient-7"/><linearGradient id="linear-gradient-10" x1="50.08" y1="757.84" x2="50.08" y2="856.08" xlink:href="#linear-gradient-6"/><linearGradient id="linear-gradient-11" x1="50.06" y1="779.07" x2="50.06" y2="856.08" xlink:href="#linear-gradient-7"/><linearGradient id="linear-gradient-12" x1="32.74" y1="790.57" x2="32.74" y2="856.08" xlink:href="#linear-gradient-6"/><linearGradient id="linear-gradient-13" x1="31.28" y1="805.05" x2="31.28" y2="856.08" xlink:href="#linear-gradient-7"/><linearGradient id="linear-gradient-14" x1="97.8" y1="749.48" x2="97.8" y2="856.08" xlink:href="#linear-gradient-6"/><linearGradient id="linear-gradient-15" x1="98.48" y1="769.65" x2="98.48" y2="856.08" xlink:href="#linear-gradient-7"/><linearGradient id="linear-gradient-16" x1="1046.26" y1="786.42" x2="1046.26" y2="855.93" xlink:href="#linear-gradient-6"/><linearGradient id="linear-gradient-17" x1="1047.51" y1="802.54" x2="1047.51" y2="855.93" xlink:href="#linear-gradient-7"/><linearGradient id="linear-gradient-18" x1="1004.16" y1="712.84" x2="1004.16" y2="855.93" xlink:href="#linear-gradient-6"/><linearGradient id="linear-gradient-19" x1="1006.75" y1="736.55" x2="1006.75" y2="855.93" xlink:href="#linear-gradient-7"/><linearGradient id="linear-gradient-20" x1="984.55" y1="757.69" x2="984.55" y2="855.93" xlink:href="#linear-gradient-6"/><linearGradient id="linear-gradient-21" x1="984.53" y1="778.93" x2="984.53" y2="855.93" xlink:href="#linear-gradient-7"/><linearGradient id="linear-gradient-22" x1="967.21" y1="790.43" x2="967.21" y2="855.93" xlink:href="#linear-gradient-6"/><linearGradient id="linear-gradient-23" x1="965.76" y1="804.91" x2="965.76" y2="855.93" xlink:href="#linear-gradient-7"/><linearGradient id="linear-gradient-24" x1="1032.28" y1="749.34" x2="1032.28" y2="855.93" xlink:href="#linear-gradient-6"/><linearGradient id="linear-gradient-25" x1="1032.96" y1="769.5" x2="1032.96" y2="855.93" xlink:href="#linear-gradient-7"/><linearGradient id="linear-gradient-26" x1="352.66" y1="189.49" x2="352.66" y2="244.92" gradientUnits="userSpaceOnUse"><stop offset="0" stop-color="#57558b"/><stop offset="1" stop-color="#112c46"/></linearGradient><linearGradient id="linear-gradient-27" x1="356.85" y1="189.49" x2="356.85" y2="244.92" xlink:href="#linear-gradient-26"/><linearGradient id="linear-gradient-28" x1="346.43" y1="189.49" x2="346.43" y2="244.92" xlink:href="#linear-gradient-26"/><linearGradient id="linear-gradient-29" x1="351.4" y1="250.47" x2="351.4" y2="332.42" gradientUnits="userSpaceOnUse"><stop offset="0" stop-color="#f16a7e"/><stop offset="1" stop-color="#dd2376"/></linearGradient><linearGradient id="linear-gradient-30" x1="330.39" y1="250.47" x2="330.39" y2="332.42" xlink:href="#linear-gradient-29"/><linearGradient id="linear-gradient-31" x1="199.12" y1="595.2" x2="199.12" y2="811.78" gradientTransform="translate(187.78 -211.11) rotate(16.27)" gradientUnits="userSpaceOnUse"><stop offset="0" stop-color="#63cbe7"/><stop offset="0.25" stop-color="#60abd5"/><stop offset="0.76" stop-color="#5b6fb3"/><stop offset="1" stop-color="#5958a6"/></linearGradient><linearGradient id="linear-gradient-32" x1="-273.79" y1="741.69" x2="-273.79" y2="933.11" gradientTransform="matrix(-0.99, 0.14, 0.14, 0.99, -203.66, -240.88)" xlink:href="#linear-gradient-31"/><linearGradient id="linear-gradient-33" x1="1334.02" y1="225.01" x2="1334.02" y2="396.63" gradientTransform="matrix(-0.88, 0.48, 0.48, 0.88, 1908.57, -397.91)" xlink:href="#linear-gradient-31"/><linearGradient id="linear-gradient-34" x1="-1472.11" y1="858.68" x2="-1472.11" y2="1009.92" gradientTransform="translate(2285.48 -509.99) rotate(-4.55)" xlink:href="#linear-gradient-31"/><linearGradient id="linear-gradient-35" x1="358.28" y1="273.34" x2="712.05" y2="886.08" gradientUnits="userSpaceOnUse"><stop offset="0" stop-color="#9e8bc1"/><stop offset="0.1" stop-color="#958ac2"/><stop offset="0.31" stop-color="#8989c3"/><stop offset="0.51" stop-color="#8589c3"/><stop offset="1" stop-color="#5d85c4"/></linearGradient><linearGradient id="linear-gradient-36" x1="894.74" y1="587.83" x2="894.74" y2="640.26" gradientUnits="userSpaceOnUse"><stop offset="0" stop-color="#6c6ab0"/><stop offset="0.32" stop-color="#4e4d8c"/><stop offset="0.66" stop-color="#414181"/><stop offset="0.98" stop-color="#313172"/></linearGradient><linearGradient id="linear-gradient-37" x1="968.74" y1="824.07" x2="968.74" y2="834.54" gradientUnits="userSpaceOnUse"><stop offset="0" stop-color="#5f6ab1"/><stop offset="0.27" stop-color="#565fa4"/><stop offset="0.77" stop-color="#3e4183"/><stop offset="1" stop-color="#313172"/></linearGradient><linearGradient id="linear-gradient-38" x1="876.11" y1="524.64" x2="876.11" y2="554.41" gradientUnits="userSpaceOnUse"><stop offset="0" stop-color="#eb817d"/><stop offset="0.3" stop-color="#ec747d"/><stop offset="0.84" stop-color="#ef537f"/><stop offset="0.94" stop-color="#ef4d7f"/></linearGradient><linearGradient id="linear-gradient-39" x1="890.85" y1="524.64" x2="890.85" y2="554.41" xlink:href="#linear-gradient-38"/><linearGradient id="linear-gradient-40" x1="939.07" y1="652.5" x2="939.07" y2="821.3" xlink:href="#linear-gradient-37"/><linearGradient id="linear-gradient-41" x1="927.47" y1="563.97" x2="927.47" y2="679.47" xlink:href="#linear-gradient-36"/><linearGradient id="linear-gradient-42" x1="926.57" y1="821.59" x2="926.57" y2="831.3" xlink:href="#linear-gradient-37"/><linearGradient id="linear-gradient-43" x1="887.92" y1="420.57" x2="892.05" y2="420.57" gradientUnits="userSpaceOnUse"><stop offset="0" stop-color="#6c6ab0"/><stop offset="0.32" stop-color="#57558b"/><stop offset="0.59" stop-color="#4a4983"/><stop offset="0.98" stop-color="#313172"/></linearGradient><linearGradient id="linear-gradient-44" x1="903.08" y1="565.07" x2="903.08" y2="577.01" xlink:href="#linear-gradient-36"/><linearGradient id="linear-gradient-45" x1="890.01" y1="419.8" x2="890.01" y2="425.84" xlink:href="#linear-gradient-36"/><linearGradient id="linear-gradient-46" x1="933.55" y1="563.62" x2="933.55" y2="616.05" xlink:href="#linear-gradient-36"/><linearGradient id="linear-gradient-47" x1="138.16" y1="696.7" x2="138.16" y2="782.53" gradientUnits="userSpaceOnUse"><stop offset="0" stop-color="#5f6ab1"/><stop offset="1" stop-color="#4a55a5"/></linearGradient><linearGradient id="linear-gradient-48" x1="167.51" y1="689.8" x2="167.51" y2="828.83" gradientUnits="userSpaceOnUse"><stop offset="0" stop-color="#5f6ab1"/><stop offset="1" stop-color="#595daa"/></linearGradient><linearGradient id="linear-gradient-49" x1="154.99" y1="532.56" x2="154.99" y2="537.83" xlink:href="#linear-gradient-48"/><linearGradient id="linear-gradient-50" x1="173.29" y1="685.02" x2="173.29" y2="697.51" xlink:href="#linear-gradient-47"/><linearGradient id="linear-gradient-51" x1="154.42" y1="532.99" x2="154.42" y2="540.1" xlink:href="#linear-gradient-47"/><linearGradient id="linear-gradient-52" x1="206.01" y1="690.38" x2="206.01" y2="779.92" xlink:href="#linear-gradient-47"/></defs><g class="cls-1"><g id="Layer_1" data-name="Layer 1"><path class="cls-2" d="M972.81,860.46h84a4,4,0,0,0,4.07-4h0a4,4,0,0,0-4.07-4h-84a4,4,0,0,0-4.07,4h0A4,4,0,0,0,972.81,860.46Z" transform="translate(0 -158.24)"/><path class="cls-2" d="M20.9,860.46h84a4.06,4.06,0,0,0,4.08-4h0a4.06,4.06,0,0,0-4.08-4h-84a4.06,4.06,0,0,0-4.08,4h0A4.06,4.06,0,0,0,20.9,860.46Z" transform="translate(0 -158.24)"/><path class="cls-2" d="M0,865.82H1049.12a16.17,16.17,0,0,1,16.26,16h0a16.17,16.17,0,0,1-16.26,16H0" transform="translate(0 -158.24)"/><path class="cls-2" d="M185.76,922.8h-105a19.17,19.17,0,0,1-19.28-18.94h0a19.18,19.18,0,0,1,19.28-18.94h105A19.17,19.17,0,0,1,205,903.86h0A19.16,19.16,0,0,1,185.76,922.8Z" transform="translate(0 -158.24)"/><rect class="cls-2" x="581.17" y="713.69" width="277.78" height="37.88" rx="7.88"/><path class="cls-3" d="M647.9,382.3c2.25-4.42.24-9.6,0-10.14a7.83,7.83,0,0,0,10.17-3.29c2.06-3.64,1.47-8.62-1.44-12.19a11.26,11.26,0,0,0,9.35-8c1.61-5.37-.58-11.73-5.58-15.53a24.26,24.26,0,0,0,12.92-23.41c-1-11.91-11.14-18.41-11.76-18.81A16.61,16.61,0,0,0,664,271.72a15.88,15.88,0,0,0-14.91-8.09c6-5.78,8-14.4,5.17-21.53-3.36-8.46-12.13-10.66-12.71-10.8,5.45-8.75,6.56-19.36,2.85-28.31a25.47,25.47,0,0,0-14.65-14.05c.35-1,3.19-9.26-.3-17-3-6.7-13.12-12.89-20.11-8.41-3.07-3.59-11.72-7.26-18.44-4-5.79,2.82-10.41,9.89-11.69,18.11-9-4.23-19.92,1.53-24.84,13.86-4.55,11.42-2.55,25.56,4.55,33.06-1,.24-9.23,2.32-13.13,13.45a34.24,34.24,0,0,0,2.77,27.74c-.9.59-8.86,5.93-9.86,19.14-.8,10.49,3.37,21.52,10.28,27.65-4.38,8-4.64,19.69-.42,29.79,4.61,11.06,13.64,18.05,22.09,17.78-2.26,8.1,1.6,18.51,7.8,22.88,5.09,3.58,10.9,2.64,14.17-2.17,1,7.1,5.91,13.43,11.24,15,4.38,1.3,8.4-.73,10.39-4.95,1.63,3.81,4.67,6.73,7.78,7.43,4.11.93,12-3.17,13.2-10.21C639.81,389.7,646,386.06,647.9,382.3Z" transform="translate(0 -158.24)"/><path class="cls-4" d="M640.34,333.32c-3.15,3.74-6.41,7.52-9.84,11-1.65,1.83-3.45,3.53-5.15,5.26-1.09,1.1-2.25,2.16-3.39,3.23a265.69,265.69,0,0,1-12.22-38.73c1.56-1.28,3.17-2.54,4.67-3.84,1.87-1.63,3.84-3.27,5.67-4.94,3.63-3.31,7.43-6.8,11-10.29s7-7.16,10.34-10.88a140.86,140.86,0,0,0,9.48-11.53A138.51,138.51,0,0,1,641,283.77c-3.44,3.56-7,7.06-10.67,10.37s-7.51,6.6-11.24,9.7c-1.87,1.55-3.88,3.09-5.79,4.6-1.35,1.07-2.8,2.1-4.2,3.14a265.43,265.43,0,0,1-6.48-36.52c3-2.53,6-5.1,8.84-7.73,3.08-2.82,6.15-5.79,9.13-8.75s5.89-6,8.72-9.13,5.62-6.25,8.22-9.55c-2.72,3.17-5.62,6.18-8.56,9.12s-6,5.84-9,8.63-6.24,5.55-9.4,8.16c-2.69,2.22-5.46,4.39-8.23,6.5a265.78,265.78,0,0,1-1.69-46,195.55,195.55,0,0,0,16.2-12.52c5.32-4.56,15.38-14.37,15.38-14.37s-10.26,9.5-15.65,13.87a192.12,192.12,0,0,1-15.87,11.57c.79-19.62,1.94-29.48,5.8-49a265.67,265.67,0,0,0-5.28,30.86,75,75,0,0,1-14-8.66c-4.59-3.55-13-12.11-13-12.11s8.23,8.94,12.75,12.69a75.71,75.71,0,0,0,14.14,9.4,267.66,267.66,0,0,0-2,47.56A88,88,0,0,1,590,252a107.46,107.46,0,0,1-10.06-5.28,120.32,120.32,0,0,1-19-13.95,122.87,122.87,0,0,0,18.58,15.18,109.86,109.86,0,0,0,10,5.9,92.86,92.86,0,0,0,9.69,4.34,268.91,268.91,0,0,0,4,39,93,93,0,0,1-25.06-5.12,127.69,127.69,0,0,1-26-12.39,128.22,128.22,0,0,0,25.81,13.7,92.74,92.74,0,0,0,25.67,6.3,268.92,268.92,0,0,0,9.24,39,96.83,96.83,0,0,1-11.4-.4,115.67,115.67,0,0,1-13.81-2.17A120.59,120.59,0,0,1,560,326.47a122.56,122.56,0,0,0,27.52,11,117.75,117.75,0,0,0,13.94,2.79,101.73,101.73,0,0,0,12,.88c9.77,30.4,23.77,57.7,40.76,84.71l5-3.39c-14.23-21.53-26.92-43.16-36.43-67.16,1.26-1.31,2.56-2.61,3.76-3.95,1.65-1.83,3.39-3.64,5-5.57,3.31-3.73,6.46-7.69,9.48-11.6s6-8,8.74-12.16a140,140,0,0,0,7.78-12.69,138.85,138.85,0,0,1-8.19,12.34C646.56,325.62,643.5,329.57,640.34,333.32Z" transform="translate(0 -158.24)"/><path class="cls-5" d="M165.39,520.31c.37-3.61-2.4-6.65-2.7-7a5.68,5.68,0,0,0,6.11-4.88,8.22,8.22,0,0,0-4.24-8,8.13,8.13,0,0,0,4.28-7.89,11,11,0,0,0-8-9.22,17.67,17.67,0,0,0,2.61-19.41c-3.87-7.91-12.56-9.77-13.09-9.88a12.26,12.26,0,0,0-3.48-13.83,11.8,11.8,0,0,0-12.4-1.71,14.61,14.61,0,0,0-2.2-16.11c-4.57-5-11.17-4.2-11.61-4.14a23,23,0,0,0-5.6-20.17,19.07,19.07,0,0,0-13.81-5.88c0-.78-.29-7.18-4.76-11.61-3.85-3.83-12.45-5.47-16-.59-3.07-1.67-10-2-13.73,2-3.22,3.43-4.51,9.47-3.19,15.45-7.29-.59-13.27,6.18-13.35,15.92-.08,9,5.06,18.21,11.94,21.53-.62.42-5.71,4-5.42,12.62A25.39,25.39,0,0,0,66,465.89c-.46.64-4.5,6.36-1.66,15.69,2.26,7.4,8.07,13.9,14.44,16.33-.88,6.59,2.08,14.72,7.67,20.57,6.12,6.4,14.19,8.87,19.92,6.51.61,6.14,6,12.29,11.46,13.69,4.45,1.15,8.19-1,9.15-5.14,2.59,4.62,7.65,7.69,11.72,7.4a6.13,6.13,0,0,0,5.81-6.08c2.15,2.2,5,3.42,7.33,3.1,3.08-.42,7.41-5.28,6.34-10.42C161.81,527.48,165.07,523.39,165.39,520.31Z" transform="translate(0 -158.24)"/><path class="cls-4" d="M147.12,488.63c-1.16,3.38-2.4,6.82-3.81,10.12-.65,1.68-1.43,3.31-2.14,4.94-.45,1-1,2.06-1.46,3.09A198.57,198.57,0,0,1,121,483.34c.73-1.29,1.5-2.56,2.18-3.85.85-1.6,1.76-3.23,2.57-4.85,1.62-3.2,3.29-6.58,4.78-9.89s2.91-6.73,4.2-10.14a102.13,102.13,0,0,0,3.43-10.36,99.5,99.5,0,0,1-3.79,10.18c-1.41,3.33-2.94,6.66-4.55,9.87s-3.4,6.47-5.13,9.56c-.87,1.55-1.84,3.13-2.75,4.66-.64,1.08-1.36,2.15-2,3.23a198.89,198.89,0,0,1-14.2-23.4c1.38-2.51,2.74-5,4-7.59,1.36-2.73,2.67-5.56,3.93-8.36s2.44-5.67,3.55-8.52,2.19-5.74,3.1-8.67c-1,2.87-2.22,5.68-3.45,8.46s-2.52,5.55-3.9,8.26-2.8,5.42-4.27,8c-1.25,2.22-2.57,4.43-3.92,6.59a196.24,196.24,0,0,1-13.44-31.18,144.37,144.37,0,0,0,7.78-12.77c2.43-4.5,6.71-13.83,6.71-13.83s-4.5,9.16-7,13.56a137.67,137.67,0,0,1-7.81,12,196.79,196.79,0,0,1-9.1-35.15,196.47,196.47,0,0,0,4.62,22.56,55.42,55.42,0,0,1-11.94-2.34c-4.1-1.25-12.18-4.95-12.18-4.95s8,4,12.14,5.43a56.07,56.07,0,0,0,12.22,2.8A197.72,197.72,0,0,0,98,445.87a63.88,63.88,0,0,1-7.18-.1,82.87,82.87,0,0,1-8.32-1,89.56,89.56,0,0,1-16.77-4.69,91,91,0,0,0,16.81,5.64A82.51,82.51,0,0,0,91,447.17a66.28,66.28,0,0,0,7.81.48,199.58,199.58,0,0,0,13.15,25.77,68,68,0,0,1-18.57,2.95,94.54,94.54,0,0,1-21.17-1.8,95.71,95.71,0,0,0,21.39,2.75A68.37,68.37,0,0,0,112.88,475a198.41,198.41,0,0,0,16.75,24.38,71.12,71.12,0,0,1-7.94,2.66,85.32,85.32,0,0,1-10.06,2.08,89.65,89.65,0,0,1-21.48.49,91,91,0,0,0,21.82.43,86.25,86.25,0,0,0,10.31-1.69,72.34,72.34,0,0,0,8.51-2.5c14.83,18.35,31.73,33.49,50.61,47.66,1-1.45,1.53-2.18,2.56-3.63-15.52-11.11-30-22.7-43-36.72.52-1.23,1.07-2.45,1.54-3.68.64-1.69,1.35-3.38,1.93-5.12,1.28-3.41,2.38-6.94,3.42-10.41s2-7.05,2.75-10.6a100,100,0,0,0,2-10.72,100.45,100.45,0,0,1-2.33,10.59C149.33,481.73,148.29,485.24,147.12,488.63Z" transform="translate(0 -158.24)"/><path class="cls-6" d="M908,333.26s62.56-89.52,37.06-105.74c-17.67-11.23-43.85,38.78-44,38.74,0,0,8.5-89.81-31.64-80.66-30.22,8.63-17,82.1-17.22,82.17,0,0-26.57-39.54-44.11-24.33-25.4,22,30.17,84.69,30.17,84.69S800.42,294.38,787,317c-17.62,29.63,33.8,84,33.8,84s-64.09-16.4-51,23.59c9.62,29.48,31.45,56.78,58.79,73,34.31,10.95,120.31-32.2,110.24-70-6.19-23.26-47.22-8.06-47.22-8.06,28.28-16,87.29-57.92,71.88-94.61C952.38,298.48,908,333.27,908,333.26Z" transform="translate(0 -158.24)"/><path class="cls-4" d="M880.87,457.22a132.17,132.17,0,0,1-20.14,6.44,97.77,97.77,0,0,1-15.6,2.31,569.19,569.19,0,0,0,20.66-75.47,128.66,128.66,0,0,0,20.63-6.79,138.08,138.08,0,0,0,21.76-12,142.77,142.77,0,0,0,20.07-16.4,137.7,137.7,0,0,0,17.61-20.75,133.62,133.62,0,0,1-18.07,19.91,139.11,139.11,0,0,1-20.29,15.42,134.21,134.21,0,0,1-21.71,10.93,122.69,122.69,0,0,1-19.22,5.66,515.82,515.82,0,0,0,8.34-60.25,122.86,122.86,0,0,0,18.64-15c3.12-2.85,5.92-6.17,8.83-9.34,2.73-3.4,5.52-6.79,8-10.4a174.34,174.34,0,0,0,13.83-23.25,161.3,161.3,0,0,0,10.2-26.23,157.78,157.78,0,0,1-10.9,25.65,169.83,169.83,0,0,1-14.34,22.44c-2.59,3.46-5.43,6.69-8.22,9.93-3,3-5.78,6.16-8.92,8.83a114.77,114.77,0,0,1-16.79,12.76A685.42,685.42,0,0,0,872,204.63a682.39,682.39,0,0,1,0,116.92A197.63,197.63,0,0,1,857.33,308c-5.38-5.56-10.66-11.29-15.66-17.22S831.73,278.8,827,272.69s-9.38-12.26-13.78-18.56c4.17,6.47,8.61,12.82,13.14,19.13s9.28,12.56,14.08,18.73,9.93,12.19,15.18,18.08A219.5,219.5,0,0,0,871.54,326a512.28,512.28,0,0,1-10,60,93.63,93.63,0,0,1-16.24-10.15,161.77,161.77,0,0,1-16.71-15.22c-5.24-5.43-10.27-11.19-15.06-17.05s-9.44-11.84-13.75-18c4.08,6.33,8.51,12.51,13.1,18.58s9.44,12.08,14.51,17.8a171.53,171.53,0,0,0,16.36,16.22,98.38,98.38,0,0,0,16.93,11.61,566,566,0,0,1-22.46,73.87c-4.44-3.83-8.78-7.82-12.89-12.08-5.14-5.32-10.2-10.83-15-16.5s-9.53-11.45-14.09-17.31-9-11.78-13.27-17.81c4,6.2,8.27,12.31,12.61,18.37s8.86,12.07,13.45,18,9.46,11.71,14.43,17.36c4.21,4.78,8.71,9.29,13.33,13.65a565.54,565.54,0,0,1-39.55,81.73l8.73,4.73a573,573,0,0,0,37.86-84.06,100.58,100.58,0,0,0,17.13-3.17,136.63,136.63,0,0,0,20.3-7.43,175.9,175.9,0,0,0,19.65-10.61A173.31,173.31,0,0,0,919.63,435a169.25,169.25,0,0,1-19,12.57A171.62,171.62,0,0,1,880.87,457.22Z" transform="translate(0 -158.24)"/><path class="cls-7" d="M196.31,318.32s-62.56-89.53-37.05-105.75c17.66-11.23,43.84,38.78,44,38.74,0,0-8.49-89.81,31.64-80.65,30.22,8.62,17,82.09,17.22,82.17,0,0,26.57-39.55,44.11-24.34,25.4,22-30.17,84.7-30.17,84.7s37.82-33.76,51.24-11.18c17.62,29.64-33.8,84-33.8,84s64.09-16.4,51,23.59c-9.62,29.49-31.45,56.79-58.79,73-34.31,11-120.31-32.2-110.24-70,6.19-23.26,47.22-8.07,47.22-8.07-28.28-16-87.29-57.91-71.88-94.61C151.93,283.54,196.3,318.33,196.31,318.32Z" transform="translate(0 -158.24)"/><path class="cls-4" d="M223.44,442.28a133.6,133.6,0,0,0,20.14,6.43,97,97,0,0,0,15.6,2.32,570,570,0,0,1-20.65-75.47,129.48,129.48,0,0,1-20.64-6.8,138,138,0,0,1-21.76-12,143.56,143.56,0,0,1-20.07-16.41,137,137,0,0,1-17.6-20.74,134.52,134.52,0,0,0,18.06,19.9A139.65,139.65,0,0,0,196.81,355a135.5,135.5,0,0,0,21.71,10.94,123.77,123.77,0,0,0,19.22,5.66,516.41,516.41,0,0,1-8.34-60.25,122.93,122.93,0,0,1-18.64-15c-3.12-2.84-5.92-6.17-8.83-9.34-2.73-3.4-5.52-6.79-8-10.39a174,174,0,0,1-13.82-23.26,159.73,159.73,0,0,1-10.2-26.22,157.62,157.62,0,0,0,10.89,25.65,170.49,170.49,0,0,0,14.34,22.44c2.59,3.45,5.44,6.69,8.22,9.92,3,3,5.79,6.16,8.92,8.83A114.6,114.6,0,0,0,229,306.74a685.27,685.27,0,0,1,3.29-117,682.27,682.27,0,0,0,0,116.91A197.63,197.63,0,0,0,247,293c5.38-5.56,10.67-11.29,15.66-17.21s9.94-11.95,14.68-18.05,9.38-12.27,13.78-18.57c-4.17,6.47-8.6,12.82-13.14,19.13s-9.27,12.57-14.08,18.74-9.93,12.18-15.17,18.07a221.81,221.81,0,0,1-15.94,15.93,512.47,512.47,0,0,0,10,60,93.58,93.58,0,0,0,16.24-10.14,164.07,164.07,0,0,0,16.71-15.22c5.24-5.44,10.28-11.2,15.07-17.06s9.44-11.84,13.74-18c-4.08,6.34-8.51,12.51-13.1,18.59S282,341.29,277,347a170.36,170.36,0,0,1-16.36,16.22,98.44,98.44,0,0,1-16.93,11.62,564.78,564.78,0,0,0,22.47,73.86c4.43-3.82,8.77-7.82,12.88-12.07,5.15-5.33,10.2-10.83,15-16.51s9.53-11.45,14.09-17.31,9-11.77,13.27-17.8c-4,6.19-8.27,12.3-12.6,18.36s-8.87,12.08-13.46,18-9.45,11.72-14.43,17.36c-4.21,4.78-8.71,9.29-13.33,13.66a566,566,0,0,0,39.55,81.73l-8.73,4.73a573.45,573.45,0,0,1-37.86-84.06,101.75,101.75,0,0,1-17.13-3.17,136.68,136.68,0,0,1-20.3-7.44,174.29,174.29,0,0,1-19.65-10.61,170.89,170.89,0,0,1-18.74-13.5,168.24,168.24,0,0,0,19,12.57A171.71,171.71,0,0,0,223.44,442.28Z" transform="translate(0 -158.24)"/><path class="cls-2" d="M1003.42,825.82l29.44-137.49c4.29-20-7.32-40-27.63-47.61l-18.94-7.08L984.34,529.4c-.21-11.27-6.6-21.64-16.94-27.48l-33.83-19.1,2.35-28.4c1.41-17-12.47-31.82-30.77-32.76L158.38,383c-20.79-1.07-37.63,15.56-35.28,34.85l8.25,67.6-11.12,1.95c-19.79,3.47-33.28,20.69-30.8,39.32L101,613.47l-14.14.59c-25.93,1.09-46,21.61-44.76,45.77l8.75,171Z" transform="translate(0 -158.24)"/><path class="cls-8" d="M72.77,860.46,42.45,718.29a43.79,43.79,0,0,1,26.68-49.63l18.55-7.53.86-108a33.89,33.89,0,0,1,16.37-28.64L138,504.31l-2.6-29.41c-1.55-17.65,11.94-33.1,29.92-34.27L899,392.92c20.42-1.33,37.15,15.74,35,35.75l-7.43,70.13,10.95,1.91c19.48,3.39,32.92,21.1,30.68,40.43l-10.47,90,13.91.47c25.5.86,45.42,21.92,44.45,47l-6.88,177.33Z" transform="translate(0 -158.24)"/><path class="cls-9" d="M129.65,786.61q5.37,1.83-12.24,69.47h-12.7q9.65-26.1,18.22-52.57c.32-1-.27-1.14-.62-.22q-10.19,26.18-19.26,52.79H92.67Q124,784.7,129.65,786.61Z" transform="translate(0 -158.24)"/><path class="cls-10" d="M122.31,803.29c.35-.92.94-.75.62.22q-8.62,26.44-18.22,52.57h-1.66Q112.1,829.49,122.31,803.29Z" transform="translate(0 -158.24)"/><path class="cls-11" d="M84.6,856.08H71.08l.12-5,.24-8.69,1.08-34.78,2.22-69.59c.06-1.85-.56-1.82-.67,0q-2.13,34.73-3.33,69.55-.58,17.4-.84,34.81l-.08,8.71v5h-15C64.49,750,71,712.82,75.37,713S83.27,750.45,84.6,856.08Z" transform="translate(0 -158.24)"/><path class="cls-12" d="M74.07,738c.11-1.79.73-1.82.67,0l-2.22,69.59-1.08,34.78-.24,8.69-.12,5H69.81v-5l.08-8.71q.25-17.4.84-34.81Q71.91,772.79,74.07,738Z" transform="translate(0 -158.24)"/><path class="cls-13" d="M59.66,856.08h-7.8c-.31-25.41-1.38-50.83-2.94-76.22-.06-1.08-.67-1-.66,0q.35,38.11,2.64,76.2H40.49c1-58.9,4.29-98.15,7.1-98.24Q52.06,757.71,59.66,856.08Z" transform="translate(0 -158.24)"/><path class="cls-14" d="M51.86,856.08h-1q-2.32-38-2.64-76.2c0-1,.6-1.1.66,0C50.48,805.25,51.55,830.67,51.86,856.08Z" transform="translate(0 -158.24)"/><path class="cls-15" d="M45.25,856.08H37.72c-3.55-17-7.68-33.78-12.2-50.51-.21-.79-.8-.63-.65.15q5,25.34,11.53,50.36H25.86q-8.62-64.58-4-65.49T45.25,856.08Z" transform="translate(0 -158.24)"/><path class="cls-16" d="M37.72,856.08H36.4q-6.55-25-11.53-50.36c-.15-.78.44-.94.65-.15C30,822.3,34.17,839.13,37.72,856.08Z" transform="translate(0 -158.24)"/><path class="cls-17" d="M120.16,749.5Q125,751,96.37,856.08H84.87q14.92-42.41,28.55-85.28c.46-1.42-.13-1.57-.63-.21q-15.36,42.49-29.41,85.49H74.74Q115.18,748,120.16,749.5Z" transform="translate(0 -158.24)"/><path class="cls-18" d="M112.79,770.59c.5-1.36,1.09-1.21.63.21q-13.69,42.83-28.55,85.28H83.38Q97.39,813.12,112.79,770.59Z" transform="translate(0 -158.24)"/><path class="cls-19" d="M1064.12,786.47q5.39,1.83-12.24,69.46h-12.7c6.44-17.39,12.47-34.94,18.23-52.57.31-1-.28-1.13-.63-.21q-10.18,26.18-19.25,52.78h-10.39Q1058.45,784.55,1064.12,786.47Z" transform="translate(0 -158.24)"/><path class="cls-20" d="M1056.78,803.15c.35-.92.94-.75.63.21-5.76,17.63-11.79,35.18-18.23,52.57h-1.65Q1046.56,829.34,1056.78,803.15Z" transform="translate(0 -158.24)"/><path class="cls-21" d="M1019.07,855.93h-13.51l.11-4.94.24-8.7,1.08-34.77,2.22-69.59c.06-1.85-.55-1.82-.67,0q-2.13,34.73-3.33,69.55-.59,17.4-.84,34.81l-.08,8.7v5h-15c9.71-106.07,16.2-143.26,20.59-143.09S1017.74,750.31,1019.07,855.93Z" transform="translate(0 -158.24)"/><path class="cls-22" d="M1008.54,737.9c.12-1.79.73-1.82.67,0L1007,807.52l-1.08,34.77-.24,8.7-.11,4.94h-1.28v-5l.08-8.7q.25-17.41.84-34.81Q1006.38,772.64,1008.54,737.9Z" transform="translate(0 -158.24)"/><path class="cls-23" d="M994.13,855.93h-7.8c-.31-25.41-1.38-50.83-2.93-76.22-.07-1.07-.68-1-.67,0q.35,38.1,2.64,76.19H975c1-58.89,4.28-98.15,7.1-98.24S989.06,790.35,994.13,855.93Z" transform="translate(0 -158.24)"/><path class="cls-24" d="M986.33,855.93h-1q-2.32-38-2.64-76.19c0-1,.6-1.1.67,0C985,805.1,986,830.52,986.33,855.93Z" transform="translate(0 -158.24)"/><path class="cls-25" d="M979.72,855.93h-7.53c-3.54-16.94-7.68-33.77-12.2-50.5-.21-.79-.8-.63-.65.14q5,25.33,11.53,50.36H960.33q-8.62-64.56-4-65.49T979.72,855.93Z" transform="translate(0 -158.24)"/><path class="cls-26" d="M972.19,855.93h-1.32q-6.55-25-11.53-50.36c-.15-.77.44-.93.65-.14C964.51,822.16,968.65,839,972.19,855.93Z" transform="translate(0 -158.24)"/><path class="cls-27" d="M1054.64,749.36q4.83,1.51-23.8,106.57h-11.5q14.94-42.4,28.55-85.27c.46-1.43-.13-1.58-.63-.21q-15.36,42.48-29.41,85.48h-8.64Q1049.67,747.81,1054.64,749.36Z" transform="translate(0 -158.24)"/><path class="cls-28" d="M1047.26,770.45c.5-1.37,1.09-1.22.63.21q-13.7,42.83-28.55,85.27h-1.49Q1031.86,813,1047.26,770.45Z" transform="translate(0 -158.24)"/><path class="cls-29" d="M335.64,204.35c-.94,18.05-4,52-4,52l42.12.09L370.65,200l-15.37-7.82Z" transform="translate(0 -158.24)"/><path class="cls-30" d="M398.23,316.74c-5.52,2.31-22.16-27.94-28.25-41.3s-8.46-24.95-1.72-27.77,13.61,6.88,19.2,20.45S403.75,314.43,398.23,316.74Z" transform="translate(0 -158.24)"/><path class="cls-30" d="M372.51,446.46c8.32.33,14.67-44.88,15.84-64.26s-1.59-34.86-11.74-35.26-14.18,14.81-14.6,34.22S364.19,446.13,372.51,446.46Z" transform="translate(0 -158.24)"/><path class="cls-30" d="M368.53,543.26c7.38.29,12.05-64,12.65-78.43s.08-29.64-8.19-30-10,14.83-10.62,29.22S361.15,543,368.53,543.26Z" transform="translate(0 -158.24)"/><path class="cls-30" d="M333.69,446.43c8.29.74,17-44.09,19.14-63.38s.22-34.9-9.9-35.81S328,361.32,326.58,380.68,325.4,445.68,333.69,446.43Z" transform="translate(0 -158.24)"/><path class="cls-30" d="M325.94,543c7.36.66,14.11-63.41,15.45-77.76s1.62-29.59-6.62-30.33-10.79,14.3-12.12,28.65S318.59,542.29,325.94,543Z" transform="translate(0 -158.24)"/><path class="cls-30" d="M329.47,361.82H388s-5.08-25.57-5.35-34.79c-.21-7.58-3.28-31.66-3.28-31.66s7.05-10.44,7-15.91c-.06-8.27-14.25-30.82-14.25-30.82l-20.56-6.21-14,3.26c-8.73,1.64-9,9.78-9,18.52,0,26.39,11.27,44.3,10.24,59.41C338.18,333.33,329.47,361.82,329.47,361.82Z" transform="translate(0 -158.24)"/><path class="cls-30" d="M344.87,225.5v20.6s3.75,2.2,12.54,2.2c4.73,0,5.79-2.2,5.79-2.2v-6.46Z" transform="translate(0 -158.24)"/><path class="cls-30" d="M344.5,214.64c0,.64.06,1.23.11,1.8,0,.21,0,.41,0,.64-.43,10.41.69,18.47,12.73,22.65,2.19.27,9.85,1.9,12.75-1.24,3.4-3.69,6.08-13.2,6.08-16.52v-.14c0-3.24-.51-4.13-.51-6,0-1.45.79-6,.81-8a23.67,23.67,0,0,0-2.72-10c-2.76-5.3-7.52-8.47-14.88-8.47C341.88,189.33,344,203.45,344.5,214.64Z" transform="translate(0 -158.24)"/><path class="cls-31" d="M348.65,211.8c-1.42,3.73-7.69,14-7.69,14s-6-12.6-5.32-21.46c1.08-12.83,9.63-11.17,9.63-11.17,6.14-8.19,20.92-6.28,27.92,2.48,3.67,4.6,5.62,11,4.7,14.05-.43,1.41-2.23,5.44-2.23,5.44l.48-3.24c-1.35-7.29-14.08-6.61-21.16-12.64A130.3,130.3,0,0,0,348.65,211.8Z" transform="translate(0 -158.24)"/><path class="cls-32" d="M350.39,206.07V206" transform="translate(0 -158.24)"/><path class="cls-30" d="M344.74,215.28c-1.35-.31-4.52-1.39-3.94,3.24,1,8,5.78,7.5,5.78,7.5-.28-1.14-.71-2.74-1.06-4.6,1.29-.76.13-1.66.07-2.6a2.36,2.36,0,0,1-.14-.78C345.31,217.11,344.81,216.31,344.74,215.28Z" transform="translate(0 -158.24)"/><path class="cls-33" d="M345,218.17s-1.49-1.42-2.62-.85-.32,3.13.57,4.65,1.88,1.66,2,1.24-1.81-1.32-1.11-2,1.43-.85,1.36-1.27Z" transform="translate(0 -158.24)"/><path class="cls-34" d="M348.65,210.6c-.43,3-2.91,9.42-2.91,9.42l-1.52-5.72Z" transform="translate(0 -158.24)"/><path class="cls-33" d="M361.1,240.24c-3.44-.46-9.4-2.44-12.24-5.59a7.42,7.42,0,0,0,3.69,4.62C355.59,240.85,361.1,240.24,361.1,240.24Z" transform="translate(0 -158.24)"/><path class="cls-30" d="M363.41,540.3l-.36,7.47a2,2,0,0,0,2,1.92h20.47c1.86,0,4.4-3.35,2.81-4.3-3.44-2-9.54-5-13-6.58-.33-.15-3.29-61.25-6.38-61.28C366.07,477.5,363.41,540.3,363.41,540.3Z" transform="translate(0 -158.24)"/><path class="cls-30" d="M321.31,539.85v7c0,.65,3.44,3.44,4.89,4,5.15,2.16,13.14.84,13.53-.92s-5-8-5-8a19.92,19.92,0,0,1-2.22-3.34s-2.78-61.19-5.71-61.1C323.61,477.64,321.31,539.85,321.31,539.85Z" transform="translate(0 -158.24)"/><path class="cls-35" d="M388.79,549.69H363.64a.58.58,0,0,1-.59-.58v-3.89c5.05,0,16.61.2,17.29,0s3.05-2.66,3.42-3.3a64.19,64.19,0,0,1,6.37,3.81A2.17,2.17,0,0,1,388.79,549.69Z" transform="translate(0 -158.24)"/><path class="cls-35" d="M326.2,550.94c-1.45-.6-4.89-3.39-4.89-4v-3.21l4.89,2.88c3.46-3.6,9.89-4.63,11.49-1.48h0c1.31,1.94,2.29,3.84,2,4.93C339.34,551.78,331.35,553.1,326.2,550.94Z" transform="translate(0 -158.24)"/><path class="cls-35" d="M390.39,442.76s-.91-58.16-1.79-77.25c-.82-17.8-7.37-73.13-7.37-73.13,3.14-4,5.81-10.15,5.81-14.16,0-2-2.81-9.14-5.89-15.94-.91-2,1.81-3.61,1.81-3.61s-1.51-6.32-5.13-9.88C375,246,363.2,246.1,363.2,246.1c6.83,1.93,8.46,11.23,7.45,12s-14.17.52-16.61,0-6.88-12.14-13.31-13.09a15.19,15.19,0,0,0-9.13,2.37c-4.77,2.93-6.69,11.18-6.69,11.18s17.61-.45,16.5,9.73l-.09.76c-1.39,10.34-8.76,28.66-8.76,28.66s4.58,11.08,3,23.14c-2,14.9-23.13,122-23.13,122Z" transform="translate(0 -158.24)"/><path class="cls-36" d="M390.39,442.76s-.91-58.16-1.79-77.25c-.82-17.8-7.37-73.13-7.37-73.13,3.14-4,5.81-10.15,5.81-14.16,0-2-2.81-9.14-5.89-15.94-.91-2,1.81-3.61,1.81-3.61s-1.51-6.32-5.13-9.88C375,246,363.2,246.1,363.2,246.1c6.83,1.93,8.46,11.23,7.45,12s-14.17.52-16.61,0-6.88-12.14-13.31-13.09a15.19,15.19,0,0,0-9.13,2.37c-4.77,2.93-6.69,11.18-6.69,11.18s17.61-.45,16.5,9.73l-.09.76c-1.39,10.34-8.76,28.66-8.76,28.66s4.58,11.08,3,23.14c-2,14.9-23.13,122-23.13,122Z" transform="translate(0 -158.24)"/><path class="cls-30" d="M295.56,309.08c4.88,3.43,27.76-22.6,36.64-34.35S345.93,252.16,340,248s-14.8,3.84-23.23,15.91S290.68,305.65,295.56,309.08Z" transform="translate(0 -158.24)"/><path class="cls-37" d="M336.94,245.22c-7.1,1.44-13.33,9.13-21,16.58,0,0,4.84,7,16.3,12.93l-3.17,4a135.59,135.59,0,0,0,3.53,18.88c2.52,9.22,10-21.68,10-21.68l2.27-26.8Z" transform="translate(0 -158.24)"/><path class="cls-38" d="M211.62,680c-21.93-7.87-68-4.64-84-21.34-3.58-3.74-6.85-8-8-13s.19-10.85,4.42-13.86c3.45-2.46,8.4-2.89,10.91-6.27,2.11-2.83,1.67-6.92-.16-9.93s-4.79-5.17-7.73-7.16c-7.26-4.91-15.16-9.6-19.62-17.07s-3.75-18.8,4-22.94c4.53-2.43,10.76-2.14,13.9-6.17,2.94-3.77,1.36-9.41-1.72-13.07s-7.37-6.14-10.7-9.57a25.26,25.26,0,0,1-6.8-20.93,25.52,25.52,0,0,1,12.54-18.18Z" transform="translate(0 -158.24)"/><path class="cls-39" d="M211.62,680c6.42-22.05,36.19-56.74,31.86-79.29-1-5-2.57-10.15-6-14s-9-6.23-14-4.65c-4,1.29-7.32,5-11.58,5-3.57,0-6.67-2.75-8.07-6s-1.43-6.85-1.34-10.36c.23-8.66,1-17.69-2.49-25.63s-13.26-14-21.22-10.34c-4.67,2.18-8.1,7.3-13.26,7.42-4.83.11-8.55-4.46-9.74-9.06s-.71-9.47-1.58-14.14A25.58,25.58,0,0,0,141,501.2a26.39,26.39,0,0,0-22.34-.74Z" transform="translate(0 -158.24)"/><path class="cls-40" d="M131.82,533.18a.82.82,0,0,0,.66-.52.79.79,0,0,0-.48-1L111,524a.82.82,0,0,0-1,.48.81.81,0,0,0,.48,1l21,7.61A.75.75,0,0,0,131.82,533.18Z" transform="translate(0 -158.24)"/><path class="cls-40" d="M138.69,531.07a.81.81,0,0,0,.68-.61l5.14-21.69a.79.79,0,0,0-.61-1,.81.81,0,0,0-1,.6l-5.14,21.68a.8.8,0,0,0,.61,1A.76.76,0,0,0,138.69,531.07Z" transform="translate(0 -158.24)"/><g class="cls-41"><path class="cls-42" d="M172.59,590.5a.81.81,0,0,0,.67-.54l14.24-43.07a.81.81,0,0,0-.53-1,.82.82,0,0,0-1,.52L171.7,589.46a.79.79,0,0,0,.53,1A.74.74,0,0,0,172.59,590.5Z" transform="translate(0 -158.24)"/></g><path class="cls-40" d="M196.67,644.76a.86.86,0,0,0,.57-.34l32.63-47a.8.8,0,0,0-.22-1.12.83.83,0,0,0-1.14.21l-32.63,47a.8.8,0,0,0,.22,1.12A.83.83,0,0,0,196.67,644.76Z" transform="translate(0 -158.24)"/><path class="cls-40" d="M159.32,595.37a.82.82,0,0,0,.68-.56.8.8,0,0,0-.55-1l-47-14a.81.81,0,0,0-1,.54.79.79,0,0,0,.54,1l47,14A.78.78,0,0,0,159.32,595.37Z" transform="translate(0 -158.24)"/><path class="cls-40" d="M188.56,649.67a.81.81,0,0,0,0-1.6l-63-8.66a.81.81,0,1,0-.22,1.6l63,8.66Z" transform="translate(0 -158.24)"/><path class="cls-43" d="M890.63,642.37c15.59-9.73,51.75-14.89,61.24-30.47,2.12-3.48,3.91-7.33,4-11.39s-2-8.35-5.8-10c-3.09-1.33-7-.84-9.52-3-2.11-1.84-2.47-5.07-1.58-7.7s2.81-4.79,4.74-6.82c4.77-5,10.07-9.94,12.23-16.46s-.34-15.15-7-17.07c-3.92-1.12-8.69.14-11.81-2.45-2.92-2.43-2.67-7-.92-10.39s4.64-6,6.62-9.18a19.87,19.87,0,0,0,1.65-17.31,20.36,20.36,0,0,0-12.82-12Z" transform="translate(0 -158.24)"/><path class="cls-44" d="M890.63,642.37c-8.77-16-37.75-37.84-38.28-56-.12-4.06.23-8.27,2.21-11.84s5.92-6.32,10-5.92c3.35.32,6.52,2.63,9.81,1.92,2.76-.58,4.68-3.23,5.21-6s-.07-5.53-.75-8.22c-1.66-6.66-3.84-13.51-2.48-20.23s7.83-13.06,14.62-11.52c4,.91,7.51,4.3,11.53,3.53,3.75-.71,5.83-4.87,6-8.62s-1.09-7.44-1.22-11.19a20.06,20.06,0,0,1,7.16-15.89,20.81,20.81,0,0,1,17.14-4.28Z" transform="translate(0 -158.24)"/><path class="cls-40" d="M927,515.64a.68.68,0,0,1-.6-.3.64.64,0,0,1,.2-.88l14.93-9.37a.64.64,0,0,1,.89.19.62.62,0,0,1-.2.88l-14.92,9.38A.63.63,0,0,1,927,515.64Z" transform="translate(0 -158.24)"/><path class="cls-40" d="M921.37,515.15a.66.66,0,0,1-.64-.36L913,498.88a.63.63,0,0,1,.31-.85.65.65,0,0,1,.86.3l7.71,15.91a.63.63,0,0,1-.31.85A.9.9,0,0,1,921.37,515.15Z" transform="translate(0 -158.24)"/><g class="cls-41"><path class="cls-42" d="M905.39,566.72a.64.64,0,0,1-.61-.31l-18.42-30.92a.63.63,0,0,1,.23-.87.66.66,0,0,1,.89.22l18.42,30.93a.63.63,0,0,1-.23.87A.57.57,0,0,1,905.39,566.72Z" transform="translate(0 -158.24)"/></g><path class="cls-40" d="M896.12,612.67a.68.68,0,0,1-.5-.18L862.3,581.56a.63.63,0,0,1,0-.9.66.66,0,0,1,.92,0l33.32,30.94a.63.63,0,0,1,0,.9A.72.72,0,0,1,896.12,612.67Z" transform="translate(0 -158.24)"/><path class="cls-40" d="M916.48,568.28a.64.64,0,0,1-.61-.32.62.62,0,0,1,.25-.87l33.93-18.63a.66.66,0,0,1,.89.25.63.63,0,0,1-.25.86L916.75,568.2A.7.7,0,0,1,916.48,568.28Z" transform="translate(0 -158.24)"/><path class="cls-40" d="M903.23,615.11a.66.66,0,0,1-.66-.41.64.64,0,0,1,.39-.82l47.18-17.17a.65.65,0,0,1,.83.38.65.65,0,0,1-.38.82l-47.18,17.16A.58.58,0,0,1,903.23,615.11Z" transform="translate(0 -158.24)"/><path class="cls-45" d="M907,339.71v480a11.49,11.49,0,0,1-11.56,11.39H174.85a11.49,11.49,0,0,1-11.56-11.39v-480a11.49,11.49,0,0,1,11.56-11.39H895.48A11.49,11.49,0,0,1,907,339.71Z" transform="translate(0 -158.24)"/><path class="cls-46" d="M870.42,794.63l0,0H199.93s0,0,0,0V364.78H870.42Z" transform="translate(0 -158.24)"/><path class="cls-47" d="M870.42,381.6H199.91V364.78H870.42Z" transform="translate(0 -158.24)"/><path class="cls-48" d="M1028.43,865.82a11.58,11.58,0,0,1-11.76,11.36h-963a11.58,11.58,0,0,1-11.76-11.36V842.47a11.56,11.56,0,0,1,11.76-11.36h963a11.56,11.56,0,0,1,11.76,11.36Z" transform="translate(0 -158.24)"/><path class="cls-49" d="M595,831.11v11.11a11.48,11.48,0,0,1-11.58,11.36H486.87a11.48,11.48,0,0,1-11.57-11.36V831.11Z" transform="translate(0 -158.24)"/><rect class="cls-4" x="231.27" y="499.21" width="169.84" height="104.09" rx="2.43"/><rect class="cls-2" x="249.89" y="562.3" width="132.6" height="4.26"/><rect class="cls-2" x="249.89" y="581.95" width="92.34" height="4.26"/><rect class="cls-2" x="249.89" y="572.12" width="132.6" height="4.26"/><rect class="cls-2" x="248.01" y="514.03" width="134.94" height="41.87"/><path class="cls-4" d="M283.79,705.17H259.46V681.25h24.33Zm-21.61-2.68h18.89V683.93H262.18Z" transform="translate(0 -158.24)"/><path class="cls-4" d="M315.48,708.28a15.07,15.07,0,1,1,15.34-15.07A15.22,15.22,0,0,1,315.48,708.28Zm0-27.47a12.4,12.4,0,1,0,12.62,12.4A12.52,12.52,0,0,0,315.48,680.81Z" transform="translate(0 -158.24)"/><path class="cls-4" d="M370,705.88H338.68l15.67-26.68Zm-26.64-2.67h21.92l-11-18.66Z" transform="translate(0 -158.24)"/><rect class="cls-50" x="669.73" y="363.5" width="169.84" height="104.09" rx="2.43"/><polygon class="cls-2" points="775.54 379.99 733.76 379.99 712.87 415.54 733.76 451.1 775.54 451.1 796.42 415.54 775.54 379.99"/><polygon class="cls-50" points="764.66 398.5 744.63 398.5 734.62 415.54 744.63 432.59 764.66 432.59 774.68 415.54 764.66 398.5"/><path class="cls-50" d="M770.31,600.45H739l-15.66-26.67L739,547.12h31.33L786,573.78Zm-29.91-2.4h28.5l14.25-24.27L768.9,549.52H740.4l-14.26,24.26Z" transform="translate(0 -158.24)"/><rect class="cls-4" x="450.11" y="501.79" width="169.84" height="104.09" rx="2.43"/><rect class="cls-2" x="468.01" y="517.31" width="134.05" height="4.26"/><rect class="cls-2" x="468.01" y="527.14" width="134.05" height="4.26"/><rect class="cls-2" x="468.01" y="536.97" width="134.05" height="4.26"/><rect class="cls-2" x="468.01" y="546.79" width="134.05" height="4.26"/><rect class="cls-2" x="468.01" y="556.62" width="134.05" height="4.26"/><rect class="cls-2" x="468.01" y="566.45" width="134.05" height="4.26"/><rect class="cls-2" x="468.01" y="586.1" width="93.35" height="4.26"/><rect class="cls-2" x="468.01" y="576.27" width="134.05" height="4.26"/><path class="cls-47" d="M674.89,761a6.62,6.62,0,0,1-3.72-1.13A.66.66,0,0,1,671,759a.69.69,0,0,1,1-.17,5.23,5.23,0,0,0,2.95.9h4.9a.67.67,0,1,1,0,1.33h-4.9Zm158,0h-1.53a.67.67,0,1,1,0-1.33h1.53a5.31,5.31,0,0,0,2.82-.81.69.69,0,0,1,.94.2.67.67,0,0,1-.21.93A6.71,6.71,0,0,1,832.87,761Zm-6.42,0h-4.89a.67.67,0,1,1,0-1.33h4.89a.67.67,0,1,1,0,1.33Zm-9.77,0h-4.89a.67.67,0,1,1,0-1.33h4.89a.67.67,0,1,1,0,1.33Zm-9.78,0H802a.67.67,0,1,1,0-1.33h4.89a.67.67,0,1,1,0,1.33Zm-9.78,0h-4.89a.67.67,0,1,1,0-1.33h4.89a.67.67,0,1,1,0,1.33Zm-9.78,0h-4.89a.67.67,0,1,1,0-1.33h4.89a.67.67,0,1,1,0,1.33Zm-9.78,0h-4.88a.67.67,0,1,1,0-1.33h4.88a.67.67,0,1,1,0,1.33Zm-9.77,0H762.9a.67.67,0,1,1,0-1.33h4.89a.67.67,0,1,1,0,1.33ZM758,761h-4.89a.67.67,0,1,1,0-1.33H758a.67.67,0,1,1,0,1.33Zm-9.78,0h-4.89a.67.67,0,1,1,0-1.33h4.89a.67.67,0,1,1,0,1.33Zm-9.78,0h-4.89a.67.67,0,1,1,0-1.33h4.89a.67.67,0,1,1,0,1.33Zm-9.77,0h-4.89a.67.67,0,1,1,0-1.33h4.89a.67.67,0,1,1,0,1.33Zm-9.78,0H714a.67.67,0,1,1,0-1.33h4.89a.67.67,0,1,1,0,1.33Zm-9.78,0h-4.89a.67.67,0,1,1,0-1.33h4.89a.67.67,0,1,1,0,1.33Zm-9.78,0h-4.89a.67.67,0,1,1,0-1.33h4.89a.67.67,0,1,1,0,1.33Zm-9.78,0h-4.88a.67.67,0,1,1,0-1.33h4.88a.67.67,0,1,1,0,1.33Zm149.15-4.78h-.12a.67.67,0,0,1-.55-.78,5.64,5.64,0,0,0,.08-.93v-3.75a.68.68,0,0,1,1.36,0v3.75a7.49,7.49,0,0,1-.1,1.17A.68.68,0,0,1,838.71,756.23ZM669,756.05a.68.68,0,0,1-.68-.57,6.24,6.24,0,0,1-.07-1v-3.94a.68.68,0,0,1,1.36,0v3.94a4.9,4.9,0,0,0,.06.77.68.68,0,0,1-.57.76Zm169.77-9.42a.68.68,0,0,1-.68-.67v-4.81a.68.68,0,0,1,1.36,0V746A.67.67,0,0,1,838.8,746.63ZM669,746.44a.68.68,0,0,1-.68-.67V741a.68.68,0,0,1,1.36,0v4.8A.67.67,0,0,1,669,746.44ZM838.8,737a.68.68,0,0,1-.68-.67v-4.81a.68.68,0,0,1,1.36,0v4.81A.67.67,0,0,1,838.8,737ZM669,736.83a.68.68,0,0,1-.68-.67v-4.8a.68.68,0,0,1,1.36,0v4.8A.67.67,0,0,1,669,736.83Zm169.84-9.42a.68.68,0,0,1-.68-.67v-4.8a.68.68,0,0,1,1.36,0v4.8A.67.67,0,0,1,838.8,727.41ZM669,727.22a.68.68,0,0,1-.68-.67v-4.8a.68.68,0,0,1,1.36,0v4.8A.67.67,0,0,1,669,727.22ZM838.8,717.8a.68.68,0,0,1-.68-.67v-4.8a.68.68,0,0,1,1.36,0v4.8A.67.67,0,0,1,838.8,717.8ZM669,717.61a.68.68,0,0,1-.68-.67v-4.8a.68.68,0,0,1,1.36,0v4.8A.67.67,0,0,1,669,717.61Zm169.84-9.42a.68.68,0,0,1-.68-.67v-4.8a.68.68,0,0,1,1.36,0v4.8A.67.67,0,0,1,838.8,708.19ZM669,708a.68.68,0,0,1-.68-.67v-4.8a.68.68,0,0,1,1.36,0v4.8A.67.67,0,0,1,669,708Zm169.84-9.42a.68.68,0,0,1-.68-.67v-4.8a.68.68,0,0,1,1.36,0v4.8A.67.67,0,0,1,838.8,698.58ZM669,698.39a.68.68,0,0,1-.68-.67v-4.8a.68.68,0,0,1,1.36,0v4.8A.67.67,0,0,1,669,698.39ZM838.8,689a.68.68,0,0,1-.68-.67v-4.8a.68.68,0,0,1,1.36,0v4.8A.67.67,0,0,1,838.8,689ZM669,688.78a.68.68,0,0,1-.68-.66v-4.81a.68.68,0,0,1,1.36,0v4.81A.67.67,0,0,1,669,688.78Zm169.84-9.42a.68.68,0,0,1-.68-.67v-4.8a.68.68,0,0,1,1.36,0v4.8A.67.67,0,0,1,838.8,679.36ZM669,679.17a.68.68,0,0,1-.68-.66V673.7a.68.68,0,0,1,1.36,0v4.81A.67.67,0,0,1,669,679.17Zm169.84-9.42a.68.68,0,0,1-.68-.67v-4.8a.68.68,0,0,1,1.36,0v4.8A.67.67,0,0,1,838.8,669.75ZM669,669.57a.68.68,0,0,1-.68-.67v-4.81a.68.68,0,0,1,1.36,0v4.81A.67.67,0,0,1,669,669.57Zm169.26-9.34a.69.69,0,0,1-.62-.38,5.23,5.23,0,0,0-3.19-2.7.66.66,0,0,1-.44-.84.68.68,0,0,1,.85-.44,6.61,6.61,0,0,1,4,3.4.66.66,0,0,1-.32.89A.59.59,0,0,1,838.22,660.23Zm-168.59-.17a.67.67,0,0,1-.31-.07.65.65,0,0,1-.29-.9,6.57,6.57,0,0,1,4.12-3.27.67.67,0,1,1,.36,1.29,5.21,5.21,0,0,0-3.27,2.6A.71.71,0,0,1,669.63,660.06Zm160.12-3.13h-4.89a.67.67,0,1,1,0-1.34h4.89a.67.67,0,1,1,0,1.34Zm-9.78,0h-4.88a.67.67,0,1,1,0-1.34H820a.67.67,0,1,1,0,1.34Zm-9.77,0h-4.89a.67.67,0,1,1,0-1.34h4.89a.67.67,0,1,1,0,1.34Zm-9.78,0h-4.89a.67.67,0,1,1,0-1.34h4.89a.67.67,0,1,1,0,1.34Zm-9.78,0h-4.89a.67.67,0,1,1,0-1.34h4.89a.67.67,0,1,1,0,1.34Zm-9.78,0H776a.67.67,0,1,1,0-1.34h4.89a.67.67,0,1,1,0,1.34Zm-9.77,0H766.2a.67.67,0,1,1,0-1.34h4.89a.67.67,0,1,1,0,1.34Zm-9.78,0h-4.89a.67.67,0,1,1,0-1.34h4.89a.67.67,0,1,1,0,1.34Zm-9.78,0h-4.89a.67.67,0,1,1,0-1.34h4.89a.67.67,0,1,1,0,1.34Zm-9.78,0h-4.89a.67.67,0,1,1,0-1.34h4.89a.67.67,0,1,1,0,1.34Zm-9.78,0h-4.88a.67.67,0,1,1,0-1.34H732a.67.67,0,1,1,0,1.34Zm-9.77,0h-4.89a.67.67,0,1,1,0-1.34h4.89a.67.67,0,1,1,0,1.34Zm-9.78,0h-4.89a.67.67,0,1,1,0-1.34h4.89a.67.67,0,1,1,0,1.34Zm-9.78,0h-4.89a.67.67,0,1,1,0-1.34h4.89a.67.67,0,1,1,0,1.34Zm-9.78,0H688a.67.67,0,1,1,0-1.34h4.89a.67.67,0,1,1,0,1.34Zm-9.77,0H678.2a.67.67,0,1,1,0-1.34h4.89a.67.67,0,1,1,0,1.34Z" transform="translate(0 -158.24)"/><rect class="cls-4" x="235.51" y="410.89" width="382.51" height="64.18"/><ellipse class="cls-2" cx="273.29" cy="442.98" rx="22.86" ry="22.46"/><rect class="cls-2" x="316.05" y="426.02" width="282.37" height="4.89"/><rect class="cls-2" x="316.05" y="440.54" width="282.37" height="4.89"/><rect class="cls-2" x="518.97" y="455.05" width="79.46" height="4.89"/><rect class="cls-2" x="316.05" y="455.05" width="180.53" height="4.89"/><rect class="cls-4" x="235.51" y="330.93" width="382.51" height="64.18"/><ellipse class="cls-2" cx="273.29" cy="363.02" rx="22.86" ry="22.46"/><rect class="cls-2" x="316.05" y="346.06" width="282.37" height="4.89"/><rect class="cls-2" x="316.05" y="360.58" width="282.37" height="4.89"/><rect class="cls-2" x="518.97" y="375.1" width="79.46" height="4.89"/><rect class="cls-2" x="316.05" y="375.1" width="180.53" height="4.89"/><path class="cls-47" d="M619.09,471.79h-2.44a.67.67,0,0,1-.68-.67.66.66,0,0,1,.68-.66h1.76v-1.74a.68.68,0,0,1,1.36,0v2.4A.67.67,0,0,1,619.09,471.79Z" transform="translate(0 -158.24)"/><path class="cls-47" d="M611.73,471.79h-4.92a.68.68,0,0,1-.68-.67.67.67,0,0,1,.68-.66h4.92a.66.66,0,0,1,.68.66A.67.67,0,0,1,611.73,471.79Zm-9.84,0H597a.67.67,0,0,1-.68-.67.66.66,0,0,1,.68-.66h4.91a.66.66,0,0,1,.68.66A.67.67,0,0,1,601.89,471.79Zm-9.83,0h-4.92a.68.68,0,0,1-.68-.67.67.67,0,0,1,.68-.66h4.92a.67.67,0,0,1,.68.66A.68.68,0,0,1,592.06,471.79Zm-9.84,0H577.3a.68.68,0,0,1-.68-.67.67.67,0,0,1,.68-.66h4.92a.66.66,0,0,1,.68.66A.67.67,0,0,1,582.22,471.79Zm-9.83,0h-4.92a.67.67,0,0,1-.68-.67.66.66,0,0,1,.68-.66h4.92a.67.67,0,0,1,.68.66A.68.68,0,0,1,572.39,471.79Zm-9.84,0h-4.92a.68.68,0,0,1-.68-.67.67.67,0,0,1,.68-.66h4.92a.67.67,0,0,1,.68.66A.68.68,0,0,1,562.55,471.79Zm-9.84,0H547.8a.67.67,0,0,1-.68-.67.66.66,0,0,1,.68-.66h4.91a.66.66,0,0,1,.68.66A.67.67,0,0,1,552.71,471.79Zm-9.83,0H538a.67.67,0,0,1-.68-.67.66.66,0,0,1,.68-.66h4.92a.67.67,0,0,1,.68.66A.68.68,0,0,1,542.88,471.79Zm-9.84,0h-4.92a.68.68,0,0,1-.68-.67.67.67,0,0,1,.68-.66H533a.66.66,0,0,1,.68.66A.67.67,0,0,1,533,471.79Zm-9.84,0h-4.91a.67.67,0,0,1-.68-.67.66.66,0,0,1,.68-.66h4.91a.66.66,0,0,1,.68.66A.67.67,0,0,1,523.2,471.79Zm-9.83,0h-4.92a.68.68,0,0,1-.68-.67.67.67,0,0,1,.68-.66h4.92a.67.67,0,0,1,.68.66A.68.68,0,0,1,513.37,471.79Zm-9.84,0h-4.92a.68.68,0,0,1-.68-.67.67.67,0,0,1,.68-.66h4.92a.66.66,0,0,1,.68.66A.67.67,0,0,1,503.53,471.79Zm-9.83,0h-4.92a.67.67,0,0,1-.68-.67.66.66,0,0,1,.68-.66h4.92a.67.67,0,0,1,.68.66A.68.68,0,0,1,493.7,471.79Zm-9.84,0h-4.92a.68.68,0,0,1-.68-.67.67.67,0,0,1,.68-.66h4.92a.67.67,0,0,1,.68.66A.68.68,0,0,1,483.86,471.79Zm-9.84,0h-4.91a.67.67,0,0,1-.68-.67.66.66,0,0,1,.68-.66H474a.66.66,0,0,1,.68.66A.67.67,0,0,1,474,471.79Zm-9.83,0h-4.92a.67.67,0,0,1-.68-.67.66.66,0,0,1,.68-.66h4.92a.67.67,0,0,1,.68.66A.68.68,0,0,1,464.19,471.79Zm-9.84,0h-4.92a.68.68,0,0,1-.68-.67.67.67,0,0,1,.68-.66h4.92a.66.66,0,0,1,.68.66A.67.67,0,0,1,454.35,471.79Zm-9.84,0H439.6a.67.67,0,0,1-.68-.67.66.66,0,0,1,.68-.66h4.91a.66.66,0,0,1,.68.66A.67.67,0,0,1,444.51,471.79Zm-9.83,0h-4.92a.68.68,0,0,1-.68-.67.67.67,0,0,1,.68-.66h4.92a.67.67,0,0,1,.68.66A.68.68,0,0,1,434.68,471.79Zm-9.84,0h-4.92a.68.68,0,0,1-.68-.67.67.67,0,0,1,.68-.66h4.92a.66.66,0,0,1,.68.66A.67.67,0,0,1,424.84,471.79Zm-9.83,0h-4.92a.67.67,0,0,1-.68-.67.66.66,0,0,1,.68-.66H415a.67.67,0,0,1,.68.66A.68.68,0,0,1,415,471.79Zm-9.84,0h-4.92a.68.68,0,0,1-.68-.67.67.67,0,0,1,.68-.66h4.92a.67.67,0,0,1,.68.66A.68.68,0,0,1,405.17,471.79Zm-9.84,0h-4.91a.67.67,0,0,1-.68-.67.66.66,0,0,1,.68-.66h4.91a.66.66,0,0,1,.68.66A.67.67,0,0,1,395.33,471.79Zm-9.83,0h-4.92a.67.67,0,0,1-.68-.67.66.66,0,0,1,.68-.66h4.92a.67.67,0,0,1,.68.66A.68.68,0,0,1,385.5,471.79Zm-9.84,0h-4.92a.68.68,0,0,1-.68-.67.67.67,0,0,1,.68-.66h4.92a.66.66,0,0,1,.68.66A.67.67,0,0,1,375.66,471.79Zm-9.84,0h-4.91a.68.68,0,0,1-.69-.67.67.67,0,0,1,.69-.66h4.91a.66.66,0,0,1,.68.66A.67.67,0,0,1,365.82,471.79Zm-9.83,0h-4.92a.68.68,0,0,1-.68-.67.67.67,0,0,1,.68-.66H356a.67.67,0,0,1,.68.66A.68.68,0,0,1,356,471.79Zm-9.84,0h-4.92a.68.68,0,0,1-.68-.67.67.67,0,0,1,.68-.66h4.92a.66.66,0,0,1,.68.66A.67.67,0,0,1,346.15,471.79Zm-9.83,0H331.4a.67.67,0,0,1-.68-.67.66.66,0,0,1,.68-.66h4.92a.67.67,0,0,1,.68.66A.68.68,0,0,1,336.32,471.79Zm-9.84,0h-4.92a.68.68,0,0,1-.68-.67.67.67,0,0,1,.68-.66h4.92a.67.67,0,0,1,.68.66A.68.68,0,0,1,326.48,471.79Zm-9.84,0h-4.91a.68.68,0,0,1-.69-.67.67.67,0,0,1,.69-.66h4.91a.66.66,0,0,1,.68.66A.67.67,0,0,1,316.64,471.79Zm-9.83,0h-4.92a.67.67,0,0,1-.68-.67.66.66,0,0,1,.68-.66h4.92a.67.67,0,0,1,.68.66A.68.68,0,0,1,306.81,471.79Zm-9.84,0h-4.92a.68.68,0,0,1-.68-.67.67.67,0,0,1,.68-.66H297a.67.67,0,0,1,.68.66A.68.68,0,0,1,297,471.79Zm-9.84,0h-4.92a.68.68,0,0,1-.68-.67.67.67,0,0,1,.68-.66h4.92a.66.66,0,0,1,.68.66A.67.67,0,0,1,287.13,471.79Zm-9.83,0h-4.92a.67.67,0,0,1-.68-.67.66.66,0,0,1,.68-.66h4.92a.67.67,0,0,1,.68.66A.68.68,0,0,1,277.3,471.79Zm-9.84,0h-4.92a.68.68,0,0,1-.68-.67.67.67,0,0,1,.68-.66h4.92a.67.67,0,0,1,.68.66A.68.68,0,0,1,267.46,471.79Zm-9.84,0h-4.91a.68.68,0,0,1-.69-.67.67.67,0,0,1,.69-.66h4.91a.67.67,0,0,1,.69.66A.68.68,0,0,1,257.62,471.79Zm-9.83,0h-4.92a.68.68,0,0,1-.68-.67.67.67,0,0,1,.68-.66h4.92a.67.67,0,0,1,.68.66A.68.68,0,0,1,247.79,471.79Z" transform="translate(0 -158.24)"/><path class="cls-47" d="M238,471.79h-2.44a.67.67,0,0,1-.68-.67v-2.4a.68.68,0,0,1,1.36,0v1.74H238a.66.66,0,0,1,.68.66A.67.67,0,0,1,238,471.79Z" transform="translate(0 -158.24)"/><path class="cls-47" d="M235.51,464.81a.67.67,0,0,1-.68-.67v-4.58a.68.68,0,0,1,1.36,0v4.58A.68.68,0,0,1,235.51,464.81Zm0-9.16a.67.67,0,0,1-.68-.67V450.4a.68.68,0,0,1,1.36,0V455A.68.68,0,0,1,235.51,455.65Zm0-9.17a.66.66,0,0,1-.68-.66v-4.59a.68.68,0,0,1,1.36,0v4.59A.67.67,0,0,1,235.51,446.48Zm0-9.16a.67.67,0,0,1-.68-.67v-4.58a.68.68,0,0,1,1.36,0v4.58A.68.68,0,0,1,235.51,437.32Zm0-9.16a.67.67,0,0,1-.68-.67v-4.58a.68.68,0,0,1,1.36,0v4.58A.68.68,0,0,1,235.51,428.16Zm0-9.16a.67.67,0,0,1-.68-.67v-4.58a.68.68,0,0,1,1.36,0v4.58A.68.68,0,0,1,235.51,419Z" transform="translate(0 -158.24)"/><path class="cls-47" d="M235.51,409.83a.66.66,0,0,1-.68-.66v-2.41a.67.67,0,0,1,.68-.67H238a.67.67,0,1,1,0,1.34h-1.76v1.74A.67.67,0,0,1,235.51,409.83Z" transform="translate(0 -158.24)"/><path class="cls-47" d="M611.73,407.43h-4.92a.67.67,0,1,1,0-1.34h4.92a.67.67,0,1,1,0,1.34Zm-9.83,0H597a.67.67,0,1,1,0-1.34h4.92a.67.67,0,1,1,0,1.34Zm-9.84,0h-4.92a.67.67,0,1,1,0-1.34h4.92a.67.67,0,1,1,0,1.34Zm-9.84,0H577.3a.67.67,0,1,1,0-1.34h4.92a.67.67,0,1,1,0,1.34Zm-9.83,0h-4.92a.67.67,0,1,1,0-1.34h4.92a.67.67,0,1,1,0,1.34Zm-9.84,0h-4.92a.67.67,0,1,1,0-1.34h4.92a.67.67,0,1,1,0,1.34Zm-9.84,0H547.8a.67.67,0,1,1,0-1.34h4.91a.67.67,0,1,1,0,1.34Zm-9.83,0H538a.67.67,0,1,1,0-1.34h4.92a.67.67,0,1,1,0,1.34Zm-9.84,0h-4.92a.67.67,0,1,1,0-1.34H533a.67.67,0,1,1,0,1.34Zm-9.84,0h-4.91a.67.67,0,1,1,0-1.34h4.91a.67.67,0,1,1,0,1.34Zm-9.83,0h-4.92a.67.67,0,1,1,0-1.34h4.92a.67.67,0,1,1,0,1.34Zm-9.84,0h-4.92a.67.67,0,1,1,0-1.34h4.92a.67.67,0,1,1,0,1.34Zm-9.83,0h-4.92a.67.67,0,1,1,0-1.34h4.92a.67.67,0,1,1,0,1.34Zm-9.84,0h-4.92a.67.67,0,1,1,0-1.34h4.92a.67.67,0,1,1,0,1.34Zm-9.84,0h-4.91a.67.67,0,1,1,0-1.34H474a.67.67,0,1,1,0,1.34Zm-9.83,0h-4.92a.67.67,0,1,1,0-1.34h4.92a.67.67,0,1,1,0,1.34Zm-9.84,0h-4.92a.67.67,0,1,1,0-1.34h4.92a.67.67,0,1,1,0,1.34Zm-9.84,0H439.6a.67.67,0,1,1,0-1.34h4.91a.67.67,0,1,1,0,1.34Zm-9.83,0h-4.92a.67.67,0,1,1,0-1.34h4.92a.67.67,0,1,1,0,1.34Zm-9.84,0h-4.92a.67.67,0,1,1,0-1.34h4.92a.67.67,0,1,1,0,1.34Zm-9.83,0h-4.92a.67.67,0,1,1,0-1.34H415a.67.67,0,1,1,0,1.34Zm-9.84,0h-4.92a.67.67,0,1,1,0-1.34h4.92a.67.67,0,1,1,0,1.34Zm-9.84,0h-4.91a.67.67,0,1,1,0-1.34h4.91a.67.67,0,1,1,0,1.34Zm-9.83,0h-4.92a.67.67,0,1,1,0-1.34h4.92a.67.67,0,1,1,0,1.34Zm-9.84,0h-4.92a.67.67,0,1,1,0-1.34h4.92a.67.67,0,1,1,0,1.34Zm-9.84,0h-4.91a.67.67,0,1,1,0-1.34h4.91a.67.67,0,1,1,0,1.34Zm-9.83,0h-4.92a.67.67,0,1,1,0-1.34H356a.67.67,0,1,1,0,1.34Zm-9.84,0h-4.92a.67.67,0,1,1,0-1.34h4.92a.67.67,0,1,1,0,1.34Zm-9.83,0H331.4a.67.67,0,1,1,0-1.34h4.92a.67.67,0,1,1,0,1.34Zm-9.84,0h-4.92a.67.67,0,1,1,0-1.34h4.92a.67.67,0,1,1,0,1.34Zm-9.84,0h-4.91a.67.67,0,1,1,0-1.34h4.91a.67.67,0,1,1,0,1.34Zm-9.83,0h-4.92a.67.67,0,1,1,0-1.34h4.92a.67.67,0,1,1,0,1.34Zm-9.84,0h-4.92a.67.67,0,1,1,0-1.34H297a.67.67,0,1,1,0,1.34Zm-9.84,0h-4.92a.67.67,0,1,1,0-1.34h4.92a.67.67,0,1,1,0,1.34Zm-9.83,0h-4.92a.67.67,0,1,1,0-1.34h4.92a.67.67,0,1,1,0,1.34Zm-9.84,0h-4.92a.67.67,0,1,1,0-1.34h4.92a.67.67,0,1,1,0,1.34Zm-9.84,0h-4.91a.67.67,0,1,1,0-1.34h4.91a.67.67,0,1,1,0,1.34Zm-9.83,0h-4.92a.67.67,0,1,1,0-1.34h4.92a.67.67,0,1,1,0,1.34Z" transform="translate(0 -158.24)"/><path class="cls-47" d="M619.09,409.83a.67.67,0,0,1-.68-.66v-1.74h-1.76a.67.67,0,1,1,0-1.34h2.44a.67.67,0,0,1,.68.67v2.41A.66.66,0,0,1,619.09,409.83Z" transform="translate(0 -158.24)"/><path class="cls-47" d="M619.09,464.81a.68.68,0,0,1-.68-.67v-4.58a.68.68,0,0,1,1.36,0v4.58A.67.67,0,0,1,619.09,464.81Zm0-9.16a.68.68,0,0,1-.68-.67V450.4a.68.68,0,0,1,1.36,0V455A.67.67,0,0,1,619.09,455.65Zm0-9.17a.68.68,0,0,1-.68-.67v-4.58a.68.68,0,0,1,1.36,0v4.58A.67.67,0,0,1,619.09,446.48Zm0-9.16a.68.68,0,0,1-.68-.67v-4.58a.68.68,0,0,1,1.36,0v4.58A.67.67,0,0,1,619.09,437.32Zm0-9.16a.68.68,0,0,1-.68-.67v-4.58a.68.68,0,0,1,1.36,0v4.58A.67.67,0,0,1,619.09,428.16Zm0-9.16a.68.68,0,0,1-.68-.67v-4.58a.68.68,0,0,1,1.36,0v4.58A.67.67,0,0,1,619.09,419Z" transform="translate(0 -158.24)"/><path class="cls-47" d="M444,438.94a13.47,13.47,0,1,1-13.47-13.23A13.36,13.36,0,0,1,444,438.94Z" transform="translate(0 -158.24)"/><rect class="cls-51" x="429.31" y="273.16" width="2.44" height="15.09"/><rect class="cls-51" x="422.86" y="279.5" width="15.35" height="2.4"/><path class="cls-47" d="M767.35,708.3a13.47,13.47,0,1,1-13.47-13.23A13.36,13.36,0,0,1,767.35,708.3Z" transform="translate(0 -158.24)"/><rect class="cls-51" x="752.66" y="542.51" width="2.44" height="15.09"/><rect class="cls-51" x="746.2" y="548.86" width="15.35" height="2.4"/><path class="cls-47" d="M832.87,502.24h-1.53a.67.67,0,0,1-.68-.66.68.68,0,0,1,.68-.67h1.53a5.31,5.31,0,0,0,2.82-.81.69.69,0,0,1,.94.2.67.67,0,0,1-.21.93A6.71,6.71,0,0,1,832.87,502.24Zm-6.42,0h-4.89a.67.67,0,0,1-.68-.66.68.68,0,0,1,.68-.67h4.89a.67.67,0,0,1,.68.67A.66.66,0,0,1,826.45,502.24Zm-9.77,0h-4.89a.66.66,0,0,1-.68-.66.67.67,0,0,1,.68-.67h4.89a.68.68,0,0,1,.68.67A.67.67,0,0,1,816.68,502.24Zm-9.78,0H802a.66.66,0,0,1-.68-.66.67.67,0,0,1,.68-.67h4.89a.68.68,0,0,1,.68.67A.67.67,0,0,1,806.9,502.24Zm-9.78,0h-4.89a.67.67,0,0,1-.68-.66.68.68,0,0,1,.68-.67h4.89a.68.68,0,0,1,.68.67A.67.67,0,0,1,797.12,502.24Zm-9.78,0h-4.89a.67.67,0,0,1-.68-.66.68.68,0,0,1,.68-.67h4.89a.67.67,0,0,1,.68.67A.66.66,0,0,1,787.34,502.24Zm-9.78,0h-4.88a.66.66,0,0,1-.68-.66.67.67,0,0,1,.68-.67h4.88a.67.67,0,0,1,.68.67A.66.66,0,0,1,777.56,502.24Zm-9.77,0H762.9a.66.66,0,0,1-.68-.66.67.67,0,0,1,.68-.67h4.89a.68.68,0,0,1,.68.67A.67.67,0,0,1,767.79,502.24Zm-9.78,0h-4.89a.67.67,0,0,1-.68-.66.68.68,0,0,1,.68-.67H758a.68.68,0,0,1,.68.67A.67.67,0,0,1,758,502.24Zm-9.78,0h-4.89a.67.67,0,0,1-.68-.66.68.68,0,0,1,.68-.67h4.89a.67.67,0,0,1,.68.67A.66.66,0,0,1,748.23,502.24Zm-9.78,0h-4.89a.67.67,0,0,1-.68-.66.68.68,0,0,1,.68-.67h4.89a.67.67,0,0,1,.68.67A.66.66,0,0,1,738.45,502.24Zm-9.77,0h-4.89a.66.66,0,0,1-.68-.66.67.67,0,0,1,.68-.67h4.89a.68.68,0,0,1,.68.67A.67.67,0,0,1,728.68,502.24Zm-9.78,0H714a.66.66,0,0,1-.68-.66.67.67,0,0,1,.68-.67h4.89a.68.68,0,0,1,.68.67A.67.67,0,0,1,718.9,502.24Zm-9.78,0h-4.89a.67.67,0,0,1-.68-.66.68.68,0,0,1,.68-.67h4.89a.68.68,0,0,1,.68.67A.67.67,0,0,1,709.12,502.24Zm-9.78,0h-4.89a.67.67,0,0,1-.68-.66.68.68,0,0,1,.68-.67h4.89a.67.67,0,0,1,.68.67A.66.66,0,0,1,699.34,502.24Zm-9.78,0h-4.88a.66.66,0,0,1-.68-.66.67.67,0,0,1,.68-.67h4.88a.67.67,0,0,1,.68.67A.66.66,0,0,1,689.56,502.24Zm-9.77,0H674.9a6.66,6.66,0,0,1-3.73-1.13.66.66,0,0,1-.18-.93.69.69,0,0,1,1-.17,5.24,5.24,0,0,0,3,.9h4.89a.68.68,0,0,1,.68.67A.67.67,0,0,1,679.79,502.24Zm158.92-4.78h-.12a.67.67,0,0,1-.55-.78,5.64,5.64,0,0,0,.08-.93V492a.68.68,0,0,1,1.36,0v3.75a7.49,7.49,0,0,1-.1,1.17A.68.68,0,0,1,838.71,497.46ZM669,497.28a.68.68,0,0,1-.68-.57,6.24,6.24,0,0,1-.07-1v-3.93a.68.68,0,0,1,1.36,0v3.93a4.9,4.9,0,0,0,.06.77.67.67,0,0,1-.57.76Zm169.77-9.42a.68.68,0,0,1-.68-.67v-4.81a.68.68,0,0,1,1.36,0v4.81A.67.67,0,0,1,838.8,487.86ZM669,487.67a.68.68,0,0,1-.68-.67v-4.8a.68.68,0,0,1,1.36,0V487A.67.67,0,0,1,669,487.67Zm169.84-9.42a.68.68,0,0,1-.68-.67v-4.81a.68.68,0,0,1,1.36,0v4.81A.67.67,0,0,1,838.8,478.25ZM669,478.06a.68.68,0,0,1-.68-.67v-4.8a.68.68,0,0,1,1.36,0v4.8A.67.67,0,0,1,669,478.06Zm169.84-9.42a.68.68,0,0,1-.68-.67v-4.8a.68.68,0,0,1,1.36,0V468A.67.67,0,0,1,838.8,468.64ZM669,468.45a.68.68,0,0,1-.68-.67V463a.68.68,0,0,1,1.36,0v4.8A.67.67,0,0,1,669,468.45ZM838.8,459a.68.68,0,0,1-.68-.67v-4.8a.68.68,0,0,1,1.36,0v4.8A.67.67,0,0,1,838.8,459ZM669,458.84a.67.67,0,0,1-.68-.66v-4.81a.68.68,0,0,1,1.36,0v4.81A.66.66,0,0,1,669,458.84Zm169.84-9.42a.68.68,0,0,1-.68-.67V444a.68.68,0,0,1,1.36,0v4.8A.67.67,0,0,1,838.8,449.42ZM669,449.23a.67.67,0,0,1-.68-.66v-4.81a.68.68,0,0,1,1.36,0v4.81A.66.66,0,0,1,669,449.23Zm169.84-9.42a.68.68,0,0,1-.68-.67v-4.8a.68.68,0,0,1,1.36,0v4.8A.67.67,0,0,1,838.8,439.81ZM669,439.63a.68.68,0,0,1-.68-.67v-4.81a.68.68,0,0,1,1.36,0V439A.67.67,0,0,1,669,439.63ZM838.8,430.2a.68.68,0,0,1-.68-.67v-4.8a.68.68,0,0,1,1.36,0v4.8A.67.67,0,0,1,838.8,430.2ZM669,430a.68.68,0,0,1-.68-.67v-4.81a.68.68,0,0,1,1.36,0v4.81A.67.67,0,0,1,669,430Zm169.84-9.43a.68.68,0,0,1-.68-.67v-4.8a.68.68,0,0,1,1.36,0v4.8A.67.67,0,0,1,838.8,420.59ZM669,420.41a.68.68,0,0,1-.68-.67v-4.81a.68.68,0,0,1,1.36,0v4.81A.67.67,0,0,1,669,420.41ZM838.8,411a.68.68,0,0,1-.68-.66v-4.81a.68.68,0,0,1,1.36,0v4.81A.67.67,0,0,1,838.8,411ZM669,410.8a.68.68,0,0,1-.68-.67v-4.8a.68.68,0,0,1,1.36,0v4.8A.67.67,0,0,1,669,410.8Zm169.25-9.34a.68.68,0,0,1-.61-.38,5.29,5.29,0,0,0-3.19-2.7.66.66,0,0,1-.45-.83.69.69,0,0,1,.85-.44,6.59,6.59,0,0,1,4,3.39.66.66,0,0,1-.32.89A.6.6,0,0,1,838.21,401.46Zm-168.58-.16a.71.71,0,0,1-.31-.08.67.67,0,0,1-.29-.9,6.6,6.6,0,0,1,4.12-3.27.67.67,0,1,1,.36,1.29,5.23,5.23,0,0,0-3.27,2.59A.69.69,0,0,1,669.63,401.3Zm160.12-3.14h-4.89a.67.67,0,1,1,0-1.34h4.89a.67.67,0,1,1,0,1.34Zm-9.78,0h-4.88a.67.67,0,1,1,0-1.34H820a.67.67,0,1,1,0,1.34Zm-9.77,0h-4.89a.67.67,0,1,1,0-1.34h4.89a.67.67,0,1,1,0,1.34Zm-9.78,0h-4.89a.67.67,0,1,1,0-1.34h4.89a.67.67,0,1,1,0,1.34Zm-9.78,0h-4.89a.67.67,0,1,1,0-1.34h4.89a.67.67,0,1,1,0,1.34Zm-9.78,0H776a.67.67,0,1,1,0-1.34h4.89a.67.67,0,1,1,0,1.34Zm-9.77,0H766.2a.67.67,0,1,1,0-1.34h4.89a.67.67,0,1,1,0,1.34Zm-9.78,0h-4.89a.67.67,0,1,1,0-1.34h4.89a.67.67,0,1,1,0,1.34Zm-9.78,0h-4.89a.67.67,0,1,1,0-1.34h4.89a.67.67,0,1,1,0,1.34Zm-9.78,0h-4.89a.67.67,0,1,1,0-1.34h4.89a.67.67,0,1,1,0,1.34Zm-9.78,0h-4.88a.67.67,0,1,1,0-1.34H732a.67.67,0,1,1,0,1.34Zm-9.77,0h-4.89a.67.67,0,1,1,0-1.34h4.89a.67.67,0,1,1,0,1.34Zm-9.78,0h-4.89a.67.67,0,1,1,0-1.34h4.89a.67.67,0,1,1,0,1.34Zm-9.78,0h-4.89a.67.67,0,1,1,0-1.34h4.89a.67.67,0,1,1,0,1.34Zm-9.78,0H688a.67.67,0,1,1,0-1.34h4.89a.67.67,0,1,1,0,1.34Zm-9.77,0H678.2a.67.67,0,1,1,0-1.34h4.89a.67.67,0,1,1,0,1.34Z" transform="translate(0 -158.24)"/><path class="cls-47" d="M767.35,449.53a13.47,13.47,0,1,1-13.47-13.23A13.36,13.36,0,0,1,767.35,449.53Z" transform="translate(0 -158.24)"/><rect class="cls-51" x="752.66" y="283.74" width="2.44" height="15.09"/><rect class="cls-51" x="746.2" y="290.09" width="15.35" height="2.4"/><path class="cls-52" d="M907,627.16V746.82L870.42,769l-42.36,25.66L823,797.72a6,6,0,0,1-8.16-1.89l-.73-1.18-48.6-77.52a5.76,5.76,0,0,1,1.93-8l103-62.36,31.48-19.07A6,6,0,0,1,907,627.16Z" transform="translate(0 -158.24)"/><path class="cls-30" d="M867.86,653.71c-1.12-4.88,35.1-14.34,45.42-16.64s21.38-4,22.63,1.51-9.45,8.64-19.77,10.93S869,658.59,867.86,653.71Z" transform="translate(0 -158.24)"/><path class="cls-30" d="M877.26,651.37c1.76,5.65-8.74,7.56-12.34,8.09-5.87.85-12.16-5.1-12.53-7.33s12.07-1.7,12.43-2.29-6.41.35-6.54-1.78,8.64-3.18,12.27-2.28S876.16,647.82,877.26,651.37Z" transform="translate(0 -158.24)"/><path class="cls-30" d="M929.63,641.24c-4.2,3.77-28.78-18.16-38.51-28.24s-15.57-19.71-10.44-24.32,14.38,2,23.73,12.36S933.83,637.46,929.63,641.24Z" transform="translate(0 -158.24)"/><path class="cls-53" d="M880.19,588.52c4.52-2.32,10.65,1.2,16.78,10.7s17.3,32.58,17.3,32.58l-16.5,8.46S882.11,613.75,878,606.41,874,591.67,880.19,588.52Z" transform="translate(0 -158.24)"/><path class="cls-30" d="M938.49,822.31l.33,7a1.81,1.81,0,0,1-1.83,1.79h-19a1.76,1.76,0,0,1-1.08-3.17c2.88-2.1,6.9-4.57,10.62-5.23.33-.07.32-29.64,3.2-29.67C933.29,793,938.49,822.31,938.49,822.31Z" transform="translate(0 -158.24)"/><path class="cls-30" d="M903.61,738.43c-7.14-3.47,8.6-44.31,16.65-61.11s17.59-28.57,26.31-24.34,5,18.82-3.69,35.32S910.75,741.89,903.61,738.43Z" transform="translate(0 -158.24)"/><path class="cls-30" d="M936.38,823c-6.78,1.95-26.21-56.35-30.16-69.58s-7.08-27.49.52-29.68,12.81,11.47,16.76,24.7S943.16,821,936.38,823Z" transform="translate(0 -158.24)"/><path class="cls-30" d="M939.81,741.17c-7.58-2.43,2.07-45,7.59-62.82s13.25-30.75,22.49-27.78,7.7,17.93,1.49,35.47S947.38,743.6,939.81,741.17Z" transform="translate(0 -158.24)"/><path class="cls-30" d="M975.77,824.13c-6.64,2.36-28.59-55-33.36-68s-8.79-27-1.34-29.66,13.5,10.67,18.27,23.63S982.41,821.76,975.77,824.13Z" transform="translate(0 -158.24)"/><path class="cls-30" d="M977.33,823.21v6.55c0,.61-1.43,3.17-2.77,3.72-4.8,2-14,.82-14.38-.81s2.21-5.21,4.27-7.75a0,0,0,0,0,0,0c1.33-1.63,2.44-2.84,2.44-2.84s-2.35-40.56.37-40.48C970.25,781.68,977.33,823.21,977.33,823.21Z" transform="translate(0 -158.24)"/><path class="cls-54" d="M977.33,824.07v5.69c0,.61-1.43,3.17-2.77,3.72-4.8,2-14,.82-14.38-.81s2.21-5.21,4.27-7.75a0,0,0,0,0,0,0c1-.83,6.06-.37,6.9,0s2.84,1.6,3.26,1.54A18.58,18.58,0,0,0,977.33,824.07Z" transform="translate(0 -158.24)"/><path class="cls-30" d="M976.18,659.88l-46.61,23.9-41-72.69L881,588.53l19-18.41,14.34-4.24a17.35,17.35,0,0,1,20.53,8.93l22.93,54.57Z" transform="translate(0 -158.24)"/><path class="cls-30" d="M899.59,557.77l7.86,14.8s-2.19,3.5-9.64,7.32c-4,2.06-5.91.65-5.91.65L889,575.07Z" transform="translate(0 -158.24)"/><path class="cls-55" d="M874.77,553.51c-1.32,1.2.74,6.52,1,6.36s-.89-4.65.13-6S874.77,553.51,874.77,553.51Z" transform="translate(0 -158.24)"/><path class="cls-55" d="M869.14,556.63c1.37.58,2.66,4.59,2.81,4.93s-2.78-4.22-2.78-4.22Z" transform="translate(0 -158.24)"/><path class="cls-56" d="M881.34,550.38l.31.6s-6.41,3.31-6.48,3.29-.53-.44-.4-.76C875.44,551.83,881.34,550.38,881.34,550.38Z" transform="translate(0 -158.24)"/><path class="cls-56" d="M864.52,559l.33.64s4.49-2.33,4.5-2.39a1,1,0,0,0-.4-.76C867.53,555.89,864.52,559,864.52,559Z" transform="translate(0 -158.24)"/><path class="cls-56" d="M881,555.55a1.43,1.43,0,0,1-.62,1.94,1.48,1.48,0,0,1-2-.61,1.44,1.44,0,0,1,.62-1.94A1.48,1.48,0,0,1,881,555.55Z" transform="translate(0 -158.24)"/><path class="cls-56" d="M881.89,553.82a6.58,6.58,0,0,0-3.08.64,6.39,6.39,0,0,0-2.29,2.11Z" transform="translate(0 -158.24)"/><path class="cls-56" d="M870.39,561a1.43,1.43,0,0,1-.62,1.94,1.47,1.47,0,0,1-2-.61,1.41,1.41,0,0,1,.62-1.93A1.47,1.47,0,0,1,870.39,561Z" transform="translate(0 -158.24)"/><path class="cls-56" d="M870.42,559.69a3.68,3.68,0,0,0-2.26.23,3.5,3.5,0,0,0-1.48,1.69Z" transform="translate(0 -158.24)"/><path class="cls-57" d="M876.33,566.12c1.29-.66,2.28-1.3,2.47-1s-.65,1.31-1.94,2-2.56.78-2.75.44S875,566.79,876.33,566.12Z" transform="translate(0 -158.24)"/><path class="cls-55" d="M879.09,571.33c.95-.49,1.68-1,1.81-.7s-.32,1.23-1.27,1.72-2,.29-2.16,0S878.14,571.82,879.09,571.33Z" transform="translate(0 -158.24)"/><path class="cls-55" d="M873.63,571.5a.33.33,0,0,0-.17.36.34.34,0,0,0,.39.26,20.65,20.65,0,0,0,4.74-1.64,22,22,0,0,0,4.15-2.92.33.33,0,0,0,0-.46.34.34,0,0,0-.47,0,21.63,21.63,0,0,1-4,2.82,20.49,20.49,0,0,1-4.56,1.57Z" transform="translate(0 -158.24)"/><path class="cls-30" d="M895.47,545.81c.25.56.5,1.07.72,1.57.1.18.21.34.31.53,5,8.6,4.29,21-3.67,26.66l-.18.14c-.07,0-.17.1-.29.17-1.73,1.17-8.13,5.14-12,3.74-4.53-1.64-10.11-6-12.18-9.94s-1.84-5.19-2.67-6.77c-.66-1.22-3.37-4.72-4.27-6.38-4.22-7.82-3-18.35,6.56-23.25C882.13,525,890.86,536.16,895.47,545.81Z" transform="translate(0 -158.24)"/><path class="cls-58" d="M889.31,550c-2.35-2.89-5.66-2.71-7-4.48s-3-4.4-4.79-5.92-8.69,2.57-10.81,4.2-6.85,4.32-9.37,4.34-6.57-3.94-5.9-7l1.31.4s1.33-5.64,4.71-8l.34,2.31s9.55-6.3,13.53-7.7,9,.15,9,.15A5.58,5.58,0,0,1,888,528c2.38,1.93,13.51,11.8,12.84,32.15l-9.42-10.8Z" transform="translate(0 -158.24)"/><path class="cls-30" d="M891.34,548.08c1-.84,3.19-3.13,4.78,1,2.73,7.19-1.52,8.83-1.52,8.83-.27-1.08-.63-2.62-1.16-4.34-1.44-.08-.48-1.63-.85-2.45a1.46,1.46,0,0,0-.19-.51C892.1,549.8,891.75,549,891.34,548.08Z" transform="translate(0 -158.24)"/><path class="cls-33" d="M892.4,550.64s.62-1.84,1.83-1.85,1.67,2.5,1.61,4.17-.85,2.21-1.18,1.93.93-1.89,0-2.2-1.58-.1-1.72-.48S892.4,550.64,892.4,550.64Z" transform="translate(0 -158.24)"/><path class="cls-59" d="M887.27,546.55c1.71,2.36,6,11.32,6,11.32l1.15-.63L891.34,547Z" transform="translate(0 -158.24)"/><path class="cls-33" d="M887.64,577.51c4.44-2,8-9.15,8.59-11.86s-1.15-8-1.15-8a2.84,2.84,0,0,0,1.66-2.29s1,2.18.55,3.33-.93,1.59-.84,2.21,2.64,7.78,0,11.5S887.64,577.51,887.64,577.51Z" transform="translate(0 -158.24)"/><path class="cls-60" d="M974,652.5s2.82,2.61,3.92,12.16-20.69,62.39-21.32,64.24,11.91,39.28,15.68,56.53,6.11,33.89,6.11,33.89-5.8,2.93-14.11.92c0,0-28.37-70.39-29.78-81.79S940.63,693,940.63,693s-20.22,34.66-20.53,37,13.95,48.06,16.77,64.08,3.57,26.07,3.57,26.07-7.68,3.08-14.74-.77c0,0-26-75.36-26-84.45s7.37-28.19,11.13-38.2a142.33,142.33,0,0,1,8.62-18.49Z" transform="translate(0 -158.24)"/><path class="cls-61" d="M898.14,572l.8,13.32-6.89-4.51-3.5-.56s-7,6.38-9,8.54,8.54,26.42,15.44,38.9,24.45,50.52,24.45,50.52,1.57,4.39,23.2-3.31,32.92-22.41,32.92-22.41-35-65.62-42.32-75.18S922.63,563.54,919.92,564s-13.87,3.35-13.87,3.35Z" transform="translate(0 -158.24)"/><path class="cls-50" d="M820.89,775l138.65-84a3.4,3.4,0,0,0,1.14-4.72l-51.9-82.78a3.53,3.53,0,0,0-4.8-1.12l-138.65,84a3.39,3.39,0,0,0-1.14,4.71l51.9,82.78A3.53,3.53,0,0,0,820.89,775Z" transform="translate(0 -158.24)"/><polygon class="cls-2" points="905.51 461.44 853.82 492.75 892.54 554.51 944.23 523.2 905.51 461.44"/><polygon class="cls-2" points="787.28 538.04 845.21 502.96 842.94 499.34 785.01 534.42 787.28 538.04"/><polygon class="cls-2" points="792.52 546.41 850.46 511.33 848.18 507.7 790.25 542.78 792.52 546.41"/><polygon class="cls-2" points="797.77 554.77 855.7 519.69 853.43 516.07 795.5 551.15 797.77 554.77"/><polygon class="cls-2" points="803.01 563.14 860.95 528.06 858.67 524.43 800.74 559.52 803.01 563.14"/><polygon class="cls-2" points="808.26 571.51 866.19 536.42 863.92 532.8 805.99 567.88 808.26 571.51"/><polygon class="cls-2" points="813.51 579.87 871.44 544.79 869.17 541.16 811.23 576.25 813.51 579.87"/><polygon class="cls-2" points="824 596.6 864.34 572.17 862.06 568.55 821.72 592.98 824 596.6"/><polygon class="cls-2" points="818.75 588.24 876.68 553.15 874.41 549.53 816.48 584.61 818.75 588.24"/><path class="cls-62" d="M938.82,823.59v6.52a1.19,1.19,0,0,1-1.2,1.19H916.28a1.9,1.9,0,0,1-1.18-3.42c3.11-2.27,8.08-4.55,11.76-6.29.87.75,2.19,3.09,3.72,3.37S938.82,823.59,938.82,823.59Z" transform="translate(0 -158.24)"/><polygon class="cls-63" points="887.92 419.8 892.05 422.57 891.92 422.33 889.92 418.57 889.04 418.87 887.92 419.8"/><path class="cls-64" d="M898.14,572l5.32,5c1.87-4.16,4.56-9.28,4.56-9.28l-4.56-2.66Z" transform="translate(0 -158.24)"/><polygon class="cls-65" points="888.55 422.01 889.67 425.84 892.1 422.66 892.05 422.57 887.92 419.8 888.55 422.01"/><path class="cls-30" d="M953.05,628c-5.06,2.66-23.53-24.79-30.49-37s-10.22-23.08-4-26.33,13.56,5.43,20.06,17.89S958.11,625.35,953.05,628Z" transform="translate(0 -158.24)"/><path class="cls-30" d="M909.33,674.26c-4-3.12,18.31-32.73,24.92-40.85s14.18-16.21,18.64-12.71-1.9,12.55-8.51,20.67S913.3,677.39,909.33,674.26Z" transform="translate(0 -158.24)"/><path class="cls-30" d="M915.19,666.67c5,3.34-2,11.27-4.51,13.89-4,4.27-8.73-.19-10.44-1.71s4.83-4.21,4.74-4.88-5.27,3.35-6.72,1.76,4.73-7.78,8.13-9.31S912.07,664.58,915.19,666.67Z" transform="translate(0 -158.24)"/><path class="cls-66" d="M919,564.31c4.53-2.32,10.65,1.21,16.79,10.71s17.29,32.58,17.29,32.58l-16.49,8.45s-15.66-26.5-19.76-33.84S912.84,567.47,919,564.31Z" transform="translate(0 -158.24)"/><path class="cls-30" d="M402.69,374.52c-5.29.56-10.9-37.54-12.07-48.34S389,303.89,395,303.27s8,10.69,9.15,21.49S408,374,402.69,374.52Z" transform="translate(0 -158.24)"/><path class="cls-30" d="M395.81,371.59c1.13-3.68,2.45-5.65,6.27-6.6,6.09-1.52,8.32,10.83,8.71,14.55.35,3.32-4,10.56-6.41,10.83s-3.78-12.36-4.5-12.47-.82.55-.92,1.43h-3.53A21.74,21.74,0,0,1,395.81,371.59Z" transform="translate(0 -158.24)"/><polygon class="cls-52" points="569.01 309.29 191.36 213.42 208.01 150.06 585.67 245.93 569.01 309.29"/><polygon class="cls-4" points="569.01 291.36 191.36 195.49 208.01 132.12 585.67 227.99 569.01 291.36"/><path class="cls-2" d="M259.56,337.25a23.35,23.35,0,0,1-28.4,16.44,22.87,22.87,0,0,1-16.74-27.9,23.34,23.34,0,0,1,28.4-16.45A22.88,22.88,0,0,1,259.56,337.25Z" transform="translate(0 -158.24)"/><polygon class="cls-2" points="561.13 242.84 282.34 172.07 283.61 167.24 562.4 238.02 561.13 242.84"/><polygon class="cls-2" points="557.36 257.18 278.57 186.41 279.84 181.58 558.63 252.35 557.36 257.18"/><polygon class="cls-2" points="553.59 271.51 475.15 251.6 476.42 246.77 554.86 266.68 553.59 271.51"/><polygon class="cls-2" points="453.04 245.98 274.8 200.74 276.07 195.91 454.31 241.16 453.04 245.98"/><path class="cls-30" d="M287.3,370.88c5.23.91,13.47-36.73,15.38-47.43s3.14-22.13-2.73-23.14-8.7,10.13-10.62,20.83S282.06,370,287.3,370.88Z" transform="translate(0 -158.24)"/><path class="cls-30" d="M295.58,367.72c-1.13-3.68-2.45-5.65-6.27-6.6-6.09-1.52-8.7,10.81-8.71,14.55,0,4.56,6.21,4.85,8.6,5.12s1.59-6.65,2.31-6.76-.15,5.21.74,5.31C295.24,379.69,296.15,369.56,295.58,367.72Z" transform="translate(0 -158.24)"/><rect class="cls-2" x="687.56" y="61.18" width="82.33" height="80.91" rx="2.97"/><polyline class="cls-2" points="715.28 141.36 728.63 154.48 742.17 141.18"/><path class="cls-50" d="M706,258.24c4.46,0,5.08-2.4,5.08-4.56a36.32,36.32,0,0,0-.5-5.18,35.5,35.5,0,0,1-.5-5.12c0-5.67,3.76-8.08,9.1-8.08h1.32v3.4h-1.13c-3.7,0-5,2-5,5.3a26.65,26.65,0,0,0,.44,4.38,28.36,28.36,0,0,1,.44,4.68c.06,3.95-1.69,5.92-4.52,6.66v.13c2.83.68,4.58,2.77,4.52,6.72a27.75,27.75,0,0,1-.44,4.68,27.47,27.47,0,0,0-.44,4.44c0,3.46,1.44,5.37,5,5.37h1.13v3.39h-1.32c-5.21,0-9.1-2.22-9.1-8.45a34.55,34.55,0,0,1,.5-5.05,33.88,33.88,0,0,0,.5-5c0-1.91-.62-4.56-5.08-4.56Z" transform="translate(0 -158.24)"/><path class="cls-50" d="M751.44,261.39c-4.45,0-5.08,2.65-5.08,4.56a33.88,33.88,0,0,0,.5,5,34.55,34.55,0,0,1,.5,5.05c0,6.23-4,8.45-9.1,8.45h-1.32v-3.39H738c3.52-.06,5-1.91,5-5.37a36.45,36.45,0,0,0-.44-4.44,27.62,27.62,0,0,1-.5-4.68c0-3.95,1.76-6,4.52-6.72v-.13c-2.76-.74-4.52-2.71-4.52-6.66a28.3,28.3,0,0,1,.5-4.68A35.32,35.32,0,0,0,743,244c0-3.33-1.31-5.24-5-5.3h-1.13v-3.4h1.26c5.33,0,9.16,2.41,9.16,8.08a35.5,35.5,0,0,1-.5,5.12,36.32,36.32,0,0,0-.5,5.18c0,2.16.63,4.56,5.08,4.56Z" transform="translate(0 -158.24)"/><path class="cls-30" d="M135.73,777.57c0,.06,0,.1-.09.16-.78,1.3-1.65,2.67-2.59,4l-14.42-5.11a63.67,63.67,0,0,1,9.86-10.33c3.36-2.57,6.43-3.62,8.83-1.84C140.55,766.9,139.06,771.85,135.73,777.57Z" transform="translate(0 -158.24)"/><path class="cls-30" d="M132.09,780.05c-6.42-1.17-3-38.42-.28-54.12s7.63-27.6,15.46-26.17,8.11,14.28,4.86,29.88S138.5,781.22,132.09,780.05Z" transform="translate(0 -158.24)"/><path class="cls-67" d="M154.87,737.45c-3.43,12.39-8.76,24.11-14.22,35.7a79.4,79.4,0,0,1-5.5,9.38l-2.1-.77-14.42-5.11-1.55-.54,8.57-12.26c1.19-18.17,4.59-36.85,8.82-54.58,1.07-4.42,3.27-8.93,7.31-11.12a15.9,15.9,0,0,1,2.65-1.08c8.37-2.32,14.16,6.61,14.71,14.23C159.78,720.13,157.16,729,154.87,737.45Z" transform="translate(0 -158.24)"/><polyline class="cls-68" points="99.46 611.61 117.08 617.87 118.63 618.41 133.05 623.52 135.15 624.28 147.95 628.83"/><path class="cls-30" d="M190.08,824l-49.52-20.45,3.28-76.06-.39-28.23,26.44-10.6,17,2.38c9.65,1.35,14.52,8.52,14.64,18.1,0,0,2.14,51.81-.56,68.52A342.41,342.41,0,0,1,190.08,824Z" transform="translate(0 -158.24)"/><path class="cls-30" d="M173.38,672.92l4.47,22.66a20.23,20.23,0,0,1-13.79,8c-5.14.72-6.64-1.51-6.64-1.51l-2.2-14.46Z" transform="translate(0 -158.24)"/><path class="cls-55" d="M148.2,659c-1.89.8-1.73,7.33-1.38,7.25s.83-5.36,2.45-6.39S148.2,659,148.2,659Z" transform="translate(0 -158.24)"/><path class="cls-55" d="M140.9,660.3c1.26,1.14,1.1,6,1.13,6.38s-1.37-5.61-1.37-5.61Z" transform="translate(0 -158.24)"/><path class="cls-56" d="M156.51,658.11l.11.76s-8.22,1.18-8.28,1.13-.41-.68-.14-1C149.57,657.46,156.51,658.11,156.51,658.11Z" transform="translate(0 -158.24)"/><path class="cls-56" d="M135,661.11l.11.81s5.76-.84,5.79-.9a1.1,1.1,0,0,0-.14-1C139.45,658.9,135,661.11,135,661.11Z" transform="translate(0 -158.24)"/><path class="cls-56" d="M154.19,663.58a1.67,1.67,0,1,1-1.9-1.39A1.65,1.65,0,0,1,154.19,663.58Z" transform="translate(0 -158.24)"/><path class="cls-56" d="M155.77,662a6.82,6.82,0,0,0-6.86,1Z" transform="translate(0 -158.24)"/><path class="cls-56" d="M140.55,665.5a1.64,1.64,0,0,1-1.41,1.86,1.64,1.64,0,1,1,1.41-1.86Z" transform="translate(0 -158.24)"/><path class="cls-56" d="M141.1,664.09a4.1,4.1,0,0,0-2.53-.6,4.17,4.17,0,0,0-2.26,1.27Z" transform="translate(0 -158.24)"/><path class="cls-57" d="M145,673.25c1.65-.23,3-.56,3-.11s-1.2,1.16-2.86,1.4-3.07-.12-3.14-.56S143.34,673.48,145,673.25Z" transform="translate(0 -158.24)"/><path class="cls-55" d="M146,679.91c1.21-.17,2.18-.41,2.23-.08s-.83,1.21-2,1.38-2.31-.44-2.36-.76S144.75,680.08,146,679.91Z" transform="translate(0 -158.24)"/><path class="cls-55" d="M140,678.06a.37.37,0,0,0,0,.74,23.3,23.3,0,0,0,5.76,0,25,25,0,0,0,5.61-1.6.36.36,0,0,0,.2-.49.38.38,0,0,0-.5-.2,25.39,25.39,0,0,1-5.42,1.55,23.58,23.58,0,0,1-5.54,0Z" transform="translate(0 -158.24)"/><path class="cls-30" d="M173.05,674c-2.05,6.77-6.77,12.57-13.49,14.58l-.24.07-.37.08c-2.34.63-10.81,2.51-14.43-.44-4.24-3.47-8.58-10.3-9.29-15.31s0-6.28-.28-8.31c-.23-1.57-1.79-6.35-2.14-8.48a21.74,21.74,0,0,1,.44-8.76,18.29,18.29,0,0,1,15.65-13.93c18.32-2.56,23.43,12.81,24.65,25,.06.68.13,1.33.18,1.95,0,.22.09.46.12.69A26.71,26.71,0,0,1,173.05,674Z" transform="translate(0 -158.24)"/><path class="cls-69" d="M173.72,674.62l-5.89-13.85-2.56-.1c-1.28-3.64-4.91-4.91-7.07-7.84-1-1.26-.91-2.53-1.29-4-1.48-5.34-6-4-10.47-3-2.54.61-5.07,1.86-7.64,2.24a11.46,11.46,0,0,1-5.55-.67c-.7-4.12,7.17-13.58,15.8-14.82,6.14-.88,12.3.44,16.74,4.9s6.46,10.84,7.52,16.75C174.45,660.54,175.69,668.41,173.72,674.62Z" transform="translate(0 -158.24)"/><path class="cls-30" d="M168.22,659.36c1.41-.54,4.66-2.19,4.76,2.9.18,8.79-5.06,9-5.06,9,.13-1.27.34-3.07.43-5.13-1.52-.62.11-1.94,0-3a1.63,1.63,0,0,0,0-.62C168.38,661.5,168.31,660.49,168.22,659.36Z" transform="translate(0 -158.24)"/><path class="cls-33" d="M168.37,662.53s1.39-1.77,2.69-1.32.85,3.33.13,5.11-1.77,2.07-2,1.64,1.75-1.7.88-2.37-1.67-.69-1.67-1.16S168.37,662.53,168.37,662.53Z" transform="translate(0 -158.24)"/><path class="cls-69" d="M164.41,656.18a47.14,47.14,0,0,1,1.23,7.09,37.86,37.86,0,0,0,.54,4c.16.65.29,2.87,1.08,3.08,1.2.32,1.05-6,1.09-6.77,0-.44.6-5.17.27-5.33Z" transform="translate(0 -158.24)"/><path class="cls-33" d="M152.82,689.79c5.58-.53,12.19-6.9,13.88-9.61s1.85-9.06,1.85-9.06a3.32,3.32,0,0,0,2.68-1.85s.24,2.74-.7,3.81-1.62,1.37-1.76,2.07-.16,9.4-4.41,12.45S152.82,689.79,152.82,689.79Z" transform="translate(0 -158.24)"/><path class="cls-70" d="M194.38,828.83c-43.91-2.34-64.08-15.11-64.08-15.11s10.21-59.77,10.23-70.11-3.13-33.33-.18-40.38,8.51-8.38,12.66-8.79c0,0,.18-1.36,3.28-1.88l.14,3.52,4.93,6.68L166,692.49l1.17-2.69.94,2.35c3.6-.46,7.7-1.8,11.42-2.12a54,54,0,0,1,15,.8c9.24,1.95,8,27.13,9.74,63.27C207.33,817.42,194.38,828.83,194.38,828.83Z" transform="translate(0 -158.24)"/><polygon class="cls-71" points="153.52 532.99 156.46 537.83 156.44 537.51 156.21 532.66 155.13 532.55 153.52 532.99"/><path class="cls-72" d="M167.11,689.8l3.07,7.71c4-3.44,9.3-7.48,9.3-7.48l-2.79-5Z" transform="translate(0 -158.24)"/><polygon class="cls-73" points="153.09 535.59 152.38 540.1 156.46 537.94 156.46 537.83 153.52 532.99 153.09 535.59"/><path class="cls-30" d="M118.25,903.41l.38,8a2.08,2.08,0,0,1-2.1,2H94.7a2,2,0,0,1-1.24-3.63c3.3-2.4,7.91-5.24,12.17-6,.38-.07,3.48-67.3,6.78-67.33C115.41,836.43,118.25,903.41,118.25,903.41Z" transform="translate(0 -158.24)"/><path class="cls-30" d="M112.86,906.31c-8.1,0-10.32-70.29-10.32-86.09s1.24-32.48,10.32-32.48,10.32,16.68,10.32,32.48S121,906.31,112.86,906.31Z" transform="translate(0 -158.24)"/><path class="cls-45" d="M118.63,904.88v7.47a1.37,1.37,0,0,1-1.38,1.36H92.79a2.17,2.17,0,0,1-1.35-3.92c3.57-2.6,9.26-5.21,13.47-7.21,1,.87,2.51,3.54,4.27,3.87S118.63,904.88,118.63,904.88Z" transform="translate(0 -158.24)"/><path class="cls-30" d="M154.41,906.85v7.51c0,.7-1.64,3.63-3.18,4.27-5.5,2.3-16.06.93-16.47-.94s2.53-6,4.89-8.88c0,0,0,0,0,0,1.53-1.87,2.8-3.25,2.8-3.25s3-65.26,6.09-65.17C152,840.49,154.41,906.85,154.41,906.85Z" transform="translate(0 -158.24)"/><path class="cls-30" d="M149,909.81c-8.06.72-15.47-69.14-16.94-84.87s-1.77-32.46,7.27-33.27,11.82,15.68,13.29,31.42S157.09,909.08,149,909.81Z" transform="translate(0 -158.24)"/><path class="cls-45" d="M154.41,907.84v6.52c0,.7-1.64,3.63-3.18,4.27-5.5,2.3-16.06.93-16.47-.94s2.53-6,4.89-8.88c0,0,0,0,0,0,1.15-.95,7-.43,7.92,0s3.25,1.83,3.73,1.76S154.41,907.84,154.41,907.84Z" transform="translate(0 -158.24)"/><path class="cls-45" d="M104.32,899.81s7,5.41,17.07,1.12c0,0,4.8-78.5,4.89-82.41s8.23,15.59,14.12,18.16S176,838.11,188,838.11s8.21-26-9.81-38.19-54-26-65.3-24.28-12.16,22-12.16,37.28S104.32,899.81,104.32,899.81Z" transform="translate(0 -158.24)"/><path class="cls-74" d="M190.87,793.36S149,777.17,138.51,778.27s-13.65,7.82-11.66,30.75,11.77,94.32,11.77,94.32,11.14,2.4,19,0c0,0,0-80.71-.11-83s6.95,11.37,22.13,16.78,22.57-9.51,23.52-23.87S190.87,793.36,190.87,793.36Z" transform="translate(0 -158.24)"/><rect class="cls-2" x="954.91" y="397.12" width="60.39" height="61.45" rx="2" transform="translate(1412.95 -715.5) rotate(90)"/><polyline class="cls-2" points="995.13 299.8 985.17 309.59 975.07 299.66"/><path class="cls-50" d="M995.11,421.59l11.51,5.08v3.5l-11.51,5.05-1.26-2.85,9.6-4-9.6-4Z" transform="translate(0 -158.24)"/><path class="cls-50" d="M983,414.33l7,26.27-3.32.77-7-26.31Z" transform="translate(0 -158.24)"/><path class="cls-50" d="M974.57,421.59l1.26,2.79-9.57,4,9.57,4-1.26,2.85-11.51-5.05v-3.5Z" transform="translate(0 -158.24)"/><rect class="cls-2" x="32.12" y="448.73" width="60.39" height="61.45" rx="2" transform="translate(541.77 258.9) rotate(90)"/><polyline class="cls-2" points="72.35 351.41 62.39 361.2 52.28 351.27"/><path class="cls-4" d="M70.45,496.38A21.64,21.64,0,0,1,61,498.21c-8.59,0-16.15-6-16.15-16,0-10.37,7.67-19.38,19.36-19.38,9.11,0,15.63,6.16,15.63,14.7,0,7.43-4.24,12.11-9.83,12.11-2.43,0-4.2-1.22-4.45-3.92h-.11a7.62,7.62,0,0,1-6.67,3.92c-3.37,0-5.8-2.45-5.8-6.62a11.72,11.72,0,0,1,12.11-11.85,14.59,14.59,0,0,1,6.16,1.28l-1.55,9.4c-.52,3-.16,4.38,1.29,4.43,2.22.05,5-2.75,5-8.6,0-6.61-4.35-11.74-12.37-11.74S48.76,472,48.76,481.73c0,8.5,5.54,13.33,13.25,13.33a17,17,0,0,0,7.5-1.63Zm-4.61-21a6.17,6.17,0,0,0-1.61-.21c-3.41,0-6.1,3.31-6.1,7.23,0,1.93.87,3.15,2.59,3.15,1.91,0,3.93-2.39,4.39-5.34Z" transform="translate(0 -158.24)"/><path class="cls-2" d="M176.73,779.52" transform="translate(0 -158.24)"/><path class="cls-30" d="M236.49,757.71c-5.2,4-31.41-23.6-41.64-36.11s-16-24.16-9.69-29,16.39,3.59,26.16,16.45S241.69,753.75,236.49,757.71Z" transform="translate(0 -158.24)"/><path class="cls-30" d="M161.93,778.42c-1.82-5.45,38.47-20.11,50-23.83s24-6.8,26-.69-9.84,10.86-21.35,14.58S163.75,783.87,161.93,778.42Z" transform="translate(0 -158.24)"/><path class="cls-30" d="M172.45,777.12c.36-5-9.87-4.7-13.35-4.5-8.7.5-11,6.58-10.84,8.5s12.5-1.1,12.76-.56c.5,1-5.85,1.34-5.53,2.76.39,1.8,8.77,1.08,12-.33S172.22,780.27,172.45,777.12Z" transform="translate(0 -158.24)"/><path class="cls-75" d="M182.56,694.56c6.19-7.43,15.44-4.28,22.74,4.23s37.45,44.36,35.53,58.65c-1.35,10.07-61.91,21.78-65.32,22.48,0,0-4.48-9.92-4.41-10,2.05-2.84,43-20.61,43-20.61s-17-20.47-23.55-28.78S176.26,702.11,182.56,694.56Z" transform="translate(0 -158.24)"/><polygon class="cls-48" points="166.5 627.24 179.48 626.94 179.48 624.43 163.32 624.46 126.68 621.67 151.19 626.7 166.5 627.24"/><polygon class="cls-42" points="166.5 627.24 95.78 627.24 85.71 582.49 156.42 582.49 166.5 627.24"/><path class="cls-2" d="M143.42,333.85a28.35,28.35,0,0,0-3.65-12.24l3.61-2a32.71,32.71,0,0,0-7-8.55l-2.75,3A29.29,29.29,0,0,0,122.28,308l1.12-3.89h-.05a33.52,33.52,0,0,0-9.08-1.25c-.66,0-1.31,0-2,.06l.25,4.06a29.4,29.4,0,0,0-12.46,3.57l-2-3.55a33.35,33.35,0,0,0-8.7,6.85l3.09,2.71a28.38,28.38,0,0,0-6.26,11.17l-4-1.11,0,.07A32.16,32.16,0,0,0,81,335.58c0,.64,0,1.27.05,1.9l4.14-.24a28.22,28.22,0,0,0,3.62,12.25l-3.61,2a32.68,32.68,0,0,0,7,8.56l2.76-3a29.2,29.2,0,0,0,11.36,6.16L105.11,367l.1,0a34,34,0,0,0,9.09,1.25q1,0,2-.06l-.26-4.06a29.47,29.47,0,0,0,12.46-3.6l2,3.55a33.3,33.3,0,0,0,8.69-6.86l-3.1-2.7a28.51,28.51,0,0,0,6.25-11.19l4,1.11v0a32.42,32.42,0,0,0,1.26-8.93c0-.65,0-1.3,0-1.94ZM107.05,360.7h0l.2-.71Zm24.22-20.41a17.62,17.62,0,0,1-17,12.63,17.81,17.81,0,0,1-4.81-.66,17.21,17.21,0,0,1-12.19-21.41,17.64,17.64,0,0,1,17-12.64,18.29,18.29,0,0,1,4.82.66,17.42,17.42,0,0,1,12.85,16.69A16.89,16.89,0,0,1,131.27,340.29Z" transform="translate(0 -158.24)"/><path class="cls-2" d="M424.47,253.68a5.64,5.64,0,1,0,5.72,5.65A5.69,5.69,0,0,0,424.47,253.68Zm-13.39-8.17,5,5.2a12.21,12.21,0,0,1,16.72,0l5.06-5.17a19.6,19.6,0,0,0-26.82-.07Zm13.51-35.46a50.36,50.36,0,0,0-34.69,13.59l5,5.2a43.32,43.32,0,0,1,59.2.16l5.06-5.18A50.38,50.38,0,0,0,424.59,210.05Zm-24,24.67,5,5.2a27.52,27.52,0,0,1,37.68.1l5.06-5.17a34.91,34.91,0,0,0-47.78-.13Z" transform="translate(0 -158.24)"/><polygon class="cls-48" points="166.5 627.24 156.42 582.49 158.24 582.49 168.32 627.24 166.5 627.24"/><path class="cls-2" d="M485.67,264.77h-12a27.28,27.28,0,0,0-27.51,27v14.52l9.22-11.15a32.53,32.53,0,0,1,25.06-11.72h5.25Z" transform="translate(0 -158.24)"/><polygon class="cls-2" points="507.87 115.92 485.67 99.47 485.67 132.37 507.87 115.92"/><path class="cls-2" d="M986.33,920.77H895a7.76,7.76,0,0,1-7.8-7.66h0a7.76,7.76,0,0,1,7.8-7.67h91.34a7.76,7.76,0,0,1,7.8,7.67h0A7.76,7.76,0,0,1,986.33,920.77Z" transform="translate(0 -158.24)"/><path class="cls-2" d="M252.46,920.77H235.35a7.76,7.76,0,0,1-7.8-7.66h0a7.76,7.76,0,0,1,7.8-7.67h17.11a7.76,7.76,0,0,1,7.8,7.67h0A7.76,7.76,0,0,1,252.46,920.77Z" transform="translate(0 -158.24)"/></g></g></svg>