<svg id="Layer_1" data-name="Layer 1" xmlns="http://www.w3.org/2000/svg" viewBox="0 0 1020.37 1008.16"><defs><style>.cls-1,.cls-10,.cls-4{fill:#9bd2a5;}.cls-2,.cls-9{fill:#fff;}.cls-2{opacity:0.7;}.cls-3,.cls-5,.cls-8{fill:none;}.cls-10,.cls-12,.cls-13,.cls-3,.cls-4,.cls-5,.cls-6,.cls-7,.cls-8,.cls-9{stroke:#263238;}.cls-10,.cls-12,.cls-13,.cls-3,.cls-5,.cls-7,.cls-8,.cls-9{stroke-miterlimit:10;}.cls-4,.cls-6{stroke-linecap:round;stroke-linejoin:round;}.cls-4,.cls-5,.cls-6{stroke-width:0.75px;}.cls-11,.cls-6,.cls-7{fill:#263238;}.cls-8{stroke-width:3px;}.cls-12{fill:#969393;}.cls-13{fill:#c1bfbf;}</style></defs><path class="cls-1" d="M1035,539.54c-11,93.46-53.71,202.11-138.93,252C767.32,867,778.1,983,526.77,1033.47c-39.19,7.87-76.37,11.18-111.44,10.53a430.48,430.48,0,0,1-54.7-4.46C200.9,1016.2,93.4,905.17,54,771.14,2.06,594.87,105.69,479.46,174.38,409.93s119-286.17,365.69-337.7c37.61-7.84,76.08-11.84,114.53-10.88,87.77,2.15,183.51,31,249.75,91.13q7.46,6.78,14.52,14C1011,261,1050.07,412.13,1035,539.54Z" transform="translate(-29.82 -35.92)"/><path class="cls-2" d="M1035,539.54c-11,93.46-53.71,202.11-138.93,252C767.32,867,778.1,983,526.77,1033.47c-39.19,7.87-76.37,11.18-111.44,10.53a430.48,430.48,0,0,1-54.7-4.46C200.9,1016.2,93.4,905.17,54,771.14,2.06,594.87,105.69,479.46,174.38,409.93s119-286.17,365.69-337.7c37.61-7.84,76.08-11.84,114.53-10.88,87.77,2.15,183.51,31,249.75,91.13q7.46,6.78,14.52,14C1011,261,1050.07,412.13,1035,539.54Z" transform="translate(-29.82 -35.92)"/><line class="cls-3" x1="984.13" y1="953.43" x2="1010.67" y2="953.43"/><line class="cls-3" x1="3.66" y1="953.43" x2="962.88" y2="953.43"/><path class="cls-4" d="M866.55,674.71s-5.23,14.39-16.35,16.35-30.73-19.62-18.31-30.74S861.32,666.86,866.55,674.71Z" transform="translate(-29.82 -35.92)"/><path class="cls-4" d="M883.55,604.09s-16.35,39.89-9.81,59.5,47.08,34,58.85,8.5-14.38-61.46-24.19-69.31S886.82,597.55,883.55,604.09Z" transform="translate(-29.82 -35.92)"/><path class="cls-4" d="M979,621.09s-28.12,25.5-31.39,51,15.69,34.66,35.31,31.39,29.42-53,23.54-75.85S979,621.09,979,621.09Z" transform="translate(-29.82 -35.92)"/><path class="cls-4" d="M984.25,762.33s-31.39,1.31-32.7,16.35,13.73,18.31,28.77,5.23S997.32,763,984.25,762.33Z" transform="translate(-29.82 -35.92)"/><path class="cls-5" d="M952.07,782.26S976.81,770.94,988,769" transform="translate(-29.82 -35.92)"/><path class="cls-4" d="M991.24,860.74s-23-21.34-34.64-11.67-3.3,22.65,16.57,24.1S1000,870.47,991.24,860.74Z" transform="translate(-29.82 -35.92)"/><path class="cls-5" d="M954.43,852s25.46,9.56,34.71,16.08" transform="translate(-29.82 -35.92)"/><path class="cls-4" d="M869.63,854.45s31.78-29.41,47.76-16.07,4.55,31.21-22.85,33.21S857.56,867.87,869.63,854.45Z" transform="translate(-29.82 -35.92)"/><path class="cls-5" d="M920.39,842.37s-35.11,13.18-47.85,22.16" transform="translate(-29.82 -35.92)"/><path class="cls-4" d="M906.44,793.72s-3.27,15.69-15,21.57-32.7-6.53-21.58-25.5S900.55,785.87,906.44,793.72Z" transform="translate(-29.82 -35.92)"/><path class="cls-4" d="M879,744.68s-5.88-13.08-28.77-4.58-32,21.58-17.65,26.15S879,744.68,879,744.68Z" transform="translate(-29.82 -35.92)"/><path class="cls-5" d="M874.59,744.08s-24.24,2.62-37.35,13.76" transform="translate(-29.82 -35.92)"/><path class="cls-4" d="M944.36,587.74s3.92,9.16,11.77,7.2,9.81-13.73,22.23-10.47,22.89,17.66,22.89,11.12-15.7-23.54-33.35-23.54S945,579.24,944.36,587.74Z" transform="translate(-29.82 -35.92)"/><path class="cls-5" d="M879,744.68s28.16-5.41,39.88,25.86a87.12,87.12,0,0,1,2.94,9.56" transform="translate(-29.82 -35.92)"/><path class="cls-4" d="M996.48,714.39s5.88-13.08,28.77-4.58,32,21.58,17.65,26.15S996.48,714.39,996.48,714.39Z" transform="translate(-29.82 -35.92)"/><path class="cls-5" d="M1001.71,715.25s23.59-1.31,34.73,12.45" transform="translate(-29.82 -35.92)"/><path class="cls-5" d="M996.48,714.39A36.3,36.3,0,0,0,977,717" transform="translate(-29.82 -35.92)"/><path class="cls-5" d="M894,690.93c-13.8-14.09-27.43-16.22-27.43-16.22s-20.13-5.33-28,1.88" transform="translate(-29.82 -35.92)"/><line class="cls-5" x1="866.97" y1="582.57" x2="865.74" y2="577.11"/><path class="cls-5" d="M928.62,907.57s2.93-112.61,0-146.8S912,686.51,912,686.51l-13.93-62.22" transform="translate(-29.82 -35.92)"/><line class="cls-5" x1="956.92" y1="606.75" x2="959.44" y2="601.35"/><path class="cls-5" d="M935.46,907.45s1-102.72,4.89-132,19.54-75.23,19.54-75.23l24-51.39" transform="translate(-29.82 -35.92)"/><path class="cls-5" d="M952.07,782.26s-6.84,58.89-10.74,125.33" transform="translate(-29.82 -35.92)"/><path class="cls-5" d="M918.85,907.45s2-93.92-2-106.62-10.46-7.11-10.46-7.11-18.09,2.12-24.64,12.61" transform="translate(-29.82 -35.92)"/><path class="cls-5" d="M923.34,787.42c5.11,28.64.4,120.12.4,120.12" transform="translate(-29.82 -35.92)"/><path class="cls-5" d="M971.45,720.11c-5.66,3.88-11.1,10.13-14.85,20.14-11.73,31.26-10.39,167.34-10.39,167.34" transform="translate(-29.82 -35.92)"/><path class="cls-5" d="M897.38,694.66c6.11,7.17,12,16.87,16.59,30C929.6,769.56,935.46,886,932.53,907.45" transform="translate(-29.82 -35.92)"/><path class="cls-5" d="M937.09,736.72c-1,56.72-1.63,170.73-1.63,170.73" transform="translate(-29.82 -35.92)"/><path class="cls-5" d="M937.21,729.66c.64-37.51,1.4-74.22,2.16-94,2-50.8,5-48,5-48s3.62-11.4,23.93-10.09" transform="translate(-29.82 -35.92)"/><path class="cls-4" d="M912.19,772.49s-16.35-14.57-9.81-21.74,47.08-12.43,58.85-3.11S946.84,770.1,937,773,915.46,774.88,912.19,772.49Z" transform="translate(-29.82 -35.92)"/><path class="cls-5" d="M927.28,760.56a28.35,28.35,0,0,0-.36,4.35" transform="translate(-29.82 -35.92)"/><path class="cls-5" d="M932.9,743.54a73.73,73.73,0,0,0-4.19,10.83" transform="translate(-29.82 -35.92)"/><path class="cls-4" d="M912.19,867.81s-16.35-14.58-9.81-21.75,47.08-12.43,58.85-3.11-14.39,22.47-24.2,25.34S915.46,870.2,912.19,867.81Z" transform="translate(-29.82 -35.92)"/><path class="cls-5" d="M932.9,838.85s-6,12-6,21.37" transform="translate(-29.82 -35.92)"/><path class="cls-4" d="M924.36,827.5s-11.1-9.9-6.66-14.77,32-8.44,39.95-2.11-9.77,15.25-16.42,17.2S926.58,829.12,924.36,827.5Z" transform="translate(-29.82 -35.92)"/><path class="cls-5" d="M938.42,807.84s-4.06,8.12-4.06,14.51" transform="translate(-29.82 -35.92)"/><rect class="cls-6" x="879.18" y="855.31" width="44.25" height="98.12"/><polyline class="cls-5" points="104.79 327.53 53.52 327.53 53.52 166.74 214.31 166.74 214.31 327.53 114.23 327.53"/><rect class="cls-5" x="23.54" y="353.42" width="55.87" height="55.87"/><polyline class="cls-5" points="140.73 421.14 140.73 371.14 309.7 371.14 309.7 540.11 140.73 540.11 140.73 437.65"/><polyline class="cls-5" points="69.41 606.88 0.38 606.88 0.38 484.24 123.02 484.24 123.02 606.88 81.21 606.88"/><rect class="cls-5" x="323.33" y="491.05" width="117.19" height="117.19"/><path class="cls-5" d="M832.8,526H791.15V366.47h26.54v5.47a3.59,3.59,0,0,0,7.17,0v-5.47h30.67v5.47a3.58,3.58,0,0,0,7.15,0v-5.47h30.66v5.47a3.58,3.58,0,0,0,7.15,0v-5.47h30.67v5.47a3.57,3.57,0,1,0,7.14,0v-5.47H969v5.47a3.59,3.59,0,0,0,7.17,0v-5.47h26.55v34" transform="translate(-29.82 -35.92)"/><polyline class="cls-5" points="972.87 380.26 972.87 490.03 821.86 490.03"/><rect class="cls-5" x="784.84" y="374.19" width="23.5" height="23.5"/><rect class="cls-5" x="820.09" y="374.19" width="23.5" height="23.5"/><rect class="cls-5" x="855.35" y="374.19" width="23.5" height="23.5"/><rect class="cls-5" x="890.6" y="374.19" width="23.5" height="23.5"/><rect class="cls-5" x="925.86" y="374.19" width="23.5" height="23.5"/><rect class="cls-5" x="784.84" y="412.8" width="23.5" height="23.5"/><rect class="cls-5" x="820.09" y="412.8" width="23.5" height="23.5"/><rect class="cls-5" x="855.35" y="412.8" width="23.5" height="23.5"/><rect class="cls-5" x="890.6" y="412.8" width="23.5" height="23.5"/><rect class="cls-5" x="925.86" y="412.8" width="23.5" height="23.5"/><rect class="cls-5" x="784.84" y="451.41" width="23.5" height="23.5"/><rect class="cls-5" x="820.09" y="451.41" width="23.5" height="23.5"/><rect class="cls-5" x="855.35" y="451.41" width="23.5" height="23.5"/><rect class="cls-5" x="890.6" y="451.41" width="23.5" height="23.5"/><rect class="cls-5" x="925.86" y="451.41" width="23.5" height="23.5"/><path class="cls-5" d="M824.86,351.48v20.46a3.59,3.59,0,0,1-7.17,0V351.48a3.59,3.59,0,0,1,7.17,0Z" transform="translate(-29.82 -35.92)"/><path class="cls-5" d="M862.68,351.48v20.46a3.58,3.58,0,0,1-7.15,0V351.48a3.58,3.58,0,0,1,7.15,0Z" transform="translate(-29.82 -35.92)"/><path class="cls-5" d="M900.49,351.48v20.46a3.58,3.58,0,0,1-7.15,0V351.48a3.58,3.58,0,0,1,7.15,0Z" transform="translate(-29.82 -35.92)"/><path class="cls-5" d="M938.3,351.48v20.46a3.57,3.57,0,1,1-7.14,0V351.48a3.57,3.57,0,1,1,7.14,0Z" transform="translate(-29.82 -35.92)"/><path class="cls-5" d="M976.14,351.48v20.46a3.59,3.59,0,0,1-7.17,0V351.48a3.59,3.59,0,0,1,7.17,0Z" transform="translate(-29.82 -35.92)"/><path class="cls-5" d="M708.07,178.69,699,168.59l-16.32,11.86L689.3,192a71.57,71.57,0,0,0-13,17.39L663,206.56l-6.24,19.2L669,231.18a71.94,71.94,0,0,0-1,11.72,72.93,72.93,0,0,0,.7,10l-12.43,5.54,6.23,19.19,13-2.76a71.81,71.81,0,0,0,12.54,17.7l-6.81,11.8,16.33,11.86,8.92-9.9a71.06,71.06,0,0,0,20.55,7l1.43,13.54h20.18l1.4-13.25a70.92,70.92,0,0,0,20.73-6.44l9.1,10.1,16.33-11.86-6.66-11.55a71.76,71.76,0,0,0,13-17.39l13.31,2.82,6.23-19.19-12.17-5.43a71.75,71.75,0,0,0,1-11.72,72.89,72.89,0,0,0-.7-10l12.43-5.55-6.23-19.19-13,2.77a71.62,71.62,0,0,0-12.54-17.7l6.8-11.81-16.32-11.86-8.92,9.9a71,71,0,0,0-20.56-7L750.37,159H730.19l-1.39,13.24a70.44,70.44,0,0,0-10.31,2.34m54.67,91.06a40.33,40.33,0,1,1,5.36-11.44" transform="translate(-29.82 -35.92)"/><path class="cls-5" d="M908.42,178.48a46,46,0,0,0-.45-6.35l7.92-3.53-4-12.21-8.3,1.76a45.44,45.44,0,0,0-8-11.26l4.33-7.52-10.39-7.55-5.68,6.31a44.91,44.91,0,0,0-13.08-4.43l-.91-8.62H857.07l-.89,8.43a45.25,45.25,0,0,0-13.19,4.1l-5.8-6.43-10.39,7.55,4.24,7.35a46.08,46.08,0,0,0-8.26,11.07l-8.47-1.8-4,12.22,7.75,3.45a45.12,45.12,0,0,0-.17,13.81L810,188.36l4,12.21,8.3-1.76a45.53,45.53,0,0,0,8,11.27l-4.34,7.51,10.39,7.55,5.68-6.3a45.19,45.19,0,0,0,13.08,4.42l.91,8.62h12.84l.89-8.43a45,45,0,0,0,13.19-4.1l5.8,6.43,10.39-7.55-4.24-7.35a45.62,45.62,0,0,0,8.26-11.07l8.47,1.8,4-12.22-7.75-3.45A45.88,45.88,0,0,0,908.42,178.48Zm-60.3-21.22a25.82,25.82,0,1,1-8.33,9.63" transform="translate(-29.82 -35.92)"/><rect class="cls-7" x="130.16" y="667.94" width="295.36" height="10.02"/><rect class="cls-7" x="137.84" y="674.83" width="6.15" height="278.61"/><line class="cls-8" x1="208.61" y1="735.34" x2="408.63" y2="867.66"/><line class="cls-8" x1="408.63" y1="735.34" x2="208.61" y2="867.66"/><rect class="cls-7" x="204.51" y="674.83" width="6.15" height="278.61"/><rect class="cls-7" x="339.91" y="674.83" width="6.15" height="278.61"/><rect class="cls-7" x="406.58" y="674.83" width="6.15" height="278.61"/><line class="cls-8" x1="140.91" y1="735.34" x2="340.93" y2="867.66"/><line class="cls-8" x1="340.93" y1="735.34" x2="140.91" y2="867.66"/><line class="cls-8" x1="412.76" y1="867.66" x2="210.69" y2="867.66"/><line class="cls-8" x1="342.98" y1="867.66" x2="140.91" y2="867.66"/><path class="cls-9" d="M242.84,526.2s5.1,36.18,5.1,38.5-4.18,21.34-2.32,35.72,9.74,74.3,9.74,77.08-1.55,7.07-4.92,15.48-3.08,16.84-2,19.92,5.89,3.09,10.94,0,10.1-7.29,10.66-16.27-1.4-17.67-1.68-21.88,5.05-61.12,7.57-72.91,2.24-42.08,2.24-42.08l3.65-32.26Z" transform="translate(-29.82 -35.92)"/><path class="cls-7" d="M259.42,712.9c5.05-3.08,10.1-7.29,10.66-16.27a68.59,68.59,0,0,0-.42-11.8c-1.23,3.59-3.36,9.33-6,10-3.43.85-13.22-1.84-13.22-1.84-3.36,8.42-3.08,16.84-2,19.92S254.37,716,259.42,712.9Z" transform="translate(-29.82 -35.92)"/><path class="cls-9" d="M360.67,511.84S371,546.14,371,547.42s12.73,114,16.16,120,18,29.58,21.87,31.29,8.14,4.29,4.71,6-15.86,3-20.58,2.57-17.57-12.43-22.29-14.15-12-3-10.72-8.57,6.44-12.86,6.86-18.87S354.67,614.3,349.53,595s-8.15-39.44-8.15-39.44l-15.86-28.3Z" transform="translate(-29.82 -35.92)"/><path class="cls-7" d="M409,698.67c-1.72-.76-5.56-5.85-9.59-11.79l-7.13,4.51S377.69,685,372.12,678.1c-2.65-3.26-4.79-5.72-6.33-7.43-1.71,4.75-4.73,9.77-5.68,13.86-1.28,5.57,6,6.86,10.72,8.57s17.58,13.72,22.29,14.15,17.15-.86,20.58-2.57S412.85,700.39,409,698.67Z" transform="translate(-29.82 -35.92)"/><path class="cls-9" d="M403.5,295.51l27.75,27.37,74-5.17.74,10.35s-77.68,23.68-80.64,23.68-41.44-39.58-41.44-39.58Z" transform="translate(-29.82 -35.92)"/><path class="cls-7" d="M262.18,364s-22.59,21.67-33.26,45.33-8.35,45-4.64,59.85,14.38,63.56,14.38,63.56,56.14,2.32,81.19-1.39a164.42,164.42,0,0,0,44.54-13.46s-15.78-64.48-20.88-81.65-9.74-30.62-9.74-30.62l1.85-23.66Z" transform="translate(-29.82 -35.92)"/><path class="cls-10" d="M332.47,240l-8.88,20.35s-20,10-28.11,14.42a33.84,33.84,0,0,0-16.28,18.87c-3,8.14-9.62,52.16-10,53.27s-7.4,12.58-7,17,16.65,26.26,38.85,28.48,30.6-3.84,31.34-4.95,14.53-20.2,17.86-21.68,17-10.73,20.35-13.32,13.31-34,13.31-34l19.61-22.94s-4.07-7-18.5-18.13S332.47,240,332.47,240Z" transform="translate(-29.82 -35.92)"/><path class="cls-9" d="M323.59,260.37s-4.36,2.18-9.84,4.95c2.71,4,10.95,16.82,12.8,29.45,2.22,15.17,2.22,18.13,2.22,18.13l36.63-.37s5.33-25-1.75-50.71C348.46,251,332.47,240,332.47,240Z" transform="translate(-29.82 -35.92)"/><path class="cls-7" d="M386.71,193.86s-8.43-7.35-19.55-7.35c-9.08,0-32,6.35-41.13,14S313.21,224,311.87,236s-3,14,2,19.72,12.81,7.69,15.17,8.36,2.36-6.35,4.05-8.69,7.07-9.36,7.07-9.36,8.43-7.69,13.15-7.69,28-5.69,30.68-7.69,5.06.67,5.06.67l2,12.37s9.1,1,12.81-1.34S410.65,231,410,225.62C408.08,210.66,399.52,192.53,386.71,193.86Z" transform="translate(-29.82 -35.92)"/><path class="cls-9" d="M334.32,260c1.48,6.28,7.4,18.86,8.14,22.19s5.92,7,11.1,5.92,20.72-7.77,25.15-12.95,7-14.79,7.77-18.49,7.4-11.84,8.14-16.28-3.7-22.94-3.7-22.94S376.49,226,365,230a37.27,37.27,0,0,1-20.72,1.48s0,3.7-2.22,3.33,0-2.22-4.44-4.07-8.51,3-8.88,7.77,2.22,10.36,4.44,11.84" transform="translate(-29.82 -35.92)"/><path class="cls-11" d="M364.47,251.48c-.82,2-2.48,3.18-3.7,2.67s-1.56-2.53-.74-4.51,2.48-3.17,3.71-2.67S365.29,249.5,364.47,251.48Z" transform="translate(-29.82 -35.92)"/><path class="cls-11" d="M382.41,254.82c-.82,2-2.48,3.17-3.7,2.66S377.15,255,378,253s2.48-3.18,3.71-2.67S383.24,252.83,382.41,254.82Z" transform="translate(-29.82 -35.92)"/><path class="cls-3" d="M357.63,241.87s6.66-3.7,12.95.74" transform="translate(-29.82 -35.92)"/><path class="cls-3" d="M381.3,245.57s5.55-2.22,7.77,3.33" transform="translate(-29.82 -35.92)"/><path class="cls-3" d="M375.38,254.45s-2.58,4.07-2.95,6.29,1.85,6.28-1.85,7.76-8.14-1.11-8.14-2.22" transform="translate(-29.82 -35.92)"/><path class="cls-3" d="M362.81,274.05s-8.51-1.48-9.62-10" transform="translate(-29.82 -35.92)"/><rect class="cls-12" x="379.92" y="142.19" width="153.89" height="158.39" rx="8.65"/><rect class="cls-9" x="415.92" y="142.19" width="153.89" height="158.39" rx="8.65"/><path class="cls-9" d="M286.23,323.62s47,60.67,51.42,61.78S440.12,354.7,442,354s26.64-9.62,27.75-10.36,14.43-4.44,15.54-5.55-4.44-1.85-4.44-1.85H450.48s7.4-5.92,10-8.14,1.85-8.5-.74-6.66-10,7.4-10,7.4-11.84,3.33-13.69,5.92-7,14.43-7,14.43l-76.95,6.29-35.15-45.87Z" transform="translate(-29.82 -35.92)"/><path class="cls-10" d="M287,281.45s-8.51,1.48-8.14,19.24,3.33,29.22,3.33,29.22l40.69-15.53s-6.65-18.5-11.09-23.31" transform="translate(-29.82 -35.92)"/><path class="cls-10" d="M495,324.09V188.19h35.4a98,98,0,0,1,16.53,1.34,38,38,0,0,1,13.84,5.12,25.9,25.9,0,0,1,9.48,10.74q3.43,7,3.44,18.37a34.85,34.85,0,0,1-2.44,13.84,21.8,21.8,0,0,1-6.88,9,25,25,0,0,1-10.65,4.53,27,27,0,0,1,13.26,5.11,25.58,25.58,0,0,1,8.13,11,44.45,44.45,0,0,1,2.77,16.61A53.41,53.41,0,0,1,575.07,302a31.4,31.4,0,0,1-8,12.5,32.3,32.3,0,0,1-12.83,7.21,59.56,59.56,0,0,1-17.53,2.35Zm30-81.54h5.87q6.89,0,10.41-2.1a10.54,10.54,0,0,0,4.78-6.12,32.84,32.84,0,0,0,1.26-9.73,19,19,0,0,0-1.93-9,12.57,12.57,0,0,0-5.71-5.45,21.55,21.55,0,0,0-9.48-1.85H525Zm0,60.57h6.38q9.9,0,13.67-5t3.78-14.76a36.48,36.48,0,0,0-1.68-12.25,11.94,11.94,0,0,0-5.54-6.62q-3.86-2.1-10.4-2.1H525Z" transform="translate(-29.82 -35.92)"/><rect class="cls-12" x="400.53" y="795.04" width="153.89" height="158.39" rx="8.65"/><rect class="cls-9" x="436.53" y="795.04" width="153.89" height="158.39" rx="8.65"/><rect class="cls-12" x="400.53" y="637.55" width="153.89" height="158.39" rx="8.65"/><rect class="cls-11" x="436.53" y="637.55" width="153.89" height="158.39" rx="8.65"/><rect class="cls-12" x="400.53" y="480.06" width="153.89" height="158.39" rx="8.65"/><rect class="cls-10" x="436.53" y="480.06" width="153.89" height="158.39" rx="8.65"/><path class="cls-11" d="M502.71,980V844.05H537.1q17.79,0,27.69,4.45a26.09,26.09,0,0,1,13.92,13.92q4,9.48,4,24.58v49.33q0,15.27-4,24.91a26.37,26.37,0,0,1-13.84,14.18Q555.06,980,537.44,980Zm30-20.81h4.7q6.87,0,9.9-2a8.85,8.85,0,0,0,3.77-6,56.22,56.22,0,0,0,.76-10.07V881.8a41.14,41.14,0,0,0-.93-9.73A8.05,8.05,0,0,0,547,866.7c-2-1.12-5.26-1.68-9.73-1.68h-4.53Z" transform="translate(-29.82 -35.92)"/><path class="cls-11" d="M501.33,666.11,527,530.21h34.23l25.33,135.9H558.88l-4.53-28.69h-20l-4.69,28.69Zm35.74-46.64H551.5l-7.22-53Z" transform="translate(-29.82 -35.92)"/><path class="cls-10" d="M507.87,820.56V684.66H529l27.86,65.43V684.66H581.7v135.9H561.4l-27.86-70.47v70.47Z" transform="translate(-29.82 -35.92)"/><path class="cls-13" d="M670.18,579.32s-35.78-65.68-37.24-67.15-10-2.63-11.44-2.34-16.71,2.34-16.71,2.34-19.06-2-19.94.3,12.61,8.21,15.54,9.38,25.22,4.69,25.22,4.69l22,69.5Z" transform="translate(-29.82 -35.92)"/><path class="cls-7" d="M700.2,681.77l1.43,47.56s2.43,151.28,8.51,165.58S725.87,955,725.87,955s-3.57,0-2.86,5a88.29,88.29,0,0,1,.72,10.73s-6.8,7.15-11.44,12.16S696.91,990,700.49,994s13.58,4.65,23.24,4.29S742,990,745.54,988.6s14-2.5,15.38-5.72-2.15-16.81-2.15-16.81-.36-10.37-.36-12.16-2.14-3.93-2.5-6.43-5-72.24-6.08-78,1.83-91.23,1.83-91.23,19.27,96.6,22.49,107,22.53,71.51,22.53,71.51-2.86,6.08-1.79,8.23,6.79,11.44,6.79,11.44,5.37,10.73,7.51,17.16,10,21.46,16.45,16.81,9.3-14.66,7.87-20.38-10.37-21.1-10.73-22.17-1.79-10-2.5-16.45-1.08-3.22-1.79-9.3-6.08-81.17-6.08-81.17l-5.29-130.89s2.86-12.88.72-25.75a172.14,172.14,0,0,0-5-21.81Z" transform="translate(-29.82 -35.92)"/><path class="cls-10" d="M754.63,530.94S720,528.59,715,529.47s-13.19,9.39-13.19,9.39l-22.29,46.33-7.62-7.63L647,602.49s2.74,10.19,9.77,17.82S670,634.67,672,633.5,699.29,613,699.29,613l-.08,55.22s-5.28,12.31-3.82,14.66,6.16,4.1,6.16,4.1,37.83,10,62.17,7.92,43.1-7.33,44-9.38-1.76-15.54-1.76-16.42,10.26-66.86,10.26-66.86c.67.7,17.22-35.84,5.87-53.66-6.21-9.73-31.38-12-31.38-12Z" transform="translate(-29.82 -35.92)"/><polygon class="cls-7" points="710.59 510.95 711.91 527.27 692.11 619.8 702.19 639.29 720 618.46 717.98 528.75 730.75 516.32 719.66 502.88 710.59 510.95"/><line class="cls-3" x1="649.74" y1="549.26" x2="662.55" y2="564.37"/><path class="cls-3" d="M689.34,592.23s7.06,8.06,7.06,9.4" transform="translate(-29.82 -35.92)"/><polygon class="cls-10" points="706.04 503.81 702.52 517.01 713.37 513.78 706.04 503.81"/><polygon class="cls-10" points="724.22 512.02 733.61 531.96 760.87 500.59 758.24 490.91 753.84 488.57 718.94 492.09 706.04 503.81 717.48 518.18 724.22 512.02"/><path class="cls-13" d="M760.49,434.76s-10.26,6.45-14.66,12.91-4.11,13.78-4.69,17-7.92,19.06-8.51,23.75,1.76,24.63,4.7,29.33,11.72,5.57,11.72,5.57-2.93,30.78-1.76,30.78,32.55-20.52,34.6-23.75,4.7-14.36,5.28-15.24,11.13-5.47,15.54-9.68a15.38,15.38,0,0,0,4.7-13.78s7.33-15.84,3.81-32-11.44-20.53-24.63-25.22S767.23,433,760.49,434.76Z" transform="translate(-29.82 -35.92)"/><path class="cls-7" d="M811.22,459.69c-3.52-16.13-11.44-20.53-24.63-25.22s-19.36-1.47-26.1.29c0,0-1.75,1.11-4.1,2.84,3.08-.28,13.91-.87,22.87,3.61C789.81,446.49,796,459.1,793.33,462s-5.86,6.16-4.4,8.21,4.4,11.73,4.11,12.61-5.87,9.38-5,10.56,5,2.93,5.87,1.46,2.64-5.27,7-5.27,6.46,2,6.46,2S814.74,475.81,811.22,459.69Z" transform="translate(-29.82 -35.92)"/><path class="cls-11" d="M750.82,469.33c-.7,2.3-2.23,3.86-3.43,3.5s-1.62-2.52-.93-4.81,2.23-3.86,3.43-3.5S751.51,467,750.82,469.33Z" transform="translate(-29.82 -35.92)"/><path class="cls-11" d="M769.41,476.18c-.69,2.29-2.23,3.86-3.43,3.49s-1.61-2.51-.92-4.81,2.23-3.85,3.43-3.49S770.1,473.88,769.41,476.18Z" transform="translate(-29.82 -35.92)"/><path class="cls-3" d="M745.54,458.22s6.74-2.34,10.55,3.52" transform="translate(-29.82 -35.92)"/><path class="cls-3" d="M764.89,466.43s8.5-.58,11.73,7" transform="translate(-29.82 -35.92)"/><path class="cls-3" d="M756.09,465.55a31.6,31.6,0,0,1,0,5.28c-.29.88-14.37,13.49-13.49,14.95s8.21,2.94,9.09,2.64" transform="translate(-29.82 -35.92)"/><path class="cls-3" d="M743.78,496.63s11.14,5.28,16.12,4.69a13,13,0,0,0,7.92-4.1" transform="translate(-29.82 -35.92)"/><path class="cls-7" d="M749.05,523.32s5.58,0,6.75-.59,9.67-3.23,9.67-3.23-8.21,9.09-10.84,11.44a29.4,29.4,0,0,1-6.75,4.11Z" transform="translate(-29.82 -35.92)"/><rect class="cls-12" x="510.4" y="356.98" width="153.89" height="158.39" rx="8.65" transform="translate(-0.62 -72.71) rotate(3.68)"/><rect class="cls-11" x="546.33" y="359.29" width="153.89" height="158.39" rx="8.65" transform="matrix(1, 0.06, -0.06, 1, -0.4, -75.01)"/><path class="cls-13" d="M738.4,561.69,691.4,511s-5.53-8.61-7.26-10.12-8.32-1.94-9.68-1.13-11.8-1.38-13.63-1.68a2.64,2.64,0,0,0-2.25,4.52c2.2,2.62,5,3.65,6.49,3.42s7,1,7,1-10.31,6.1-12.24,7-23.12,4-24.87,6.06,2.58,3.15,4.37,3.16,5.29,1.53,6.25,2,7,4.82,12.55,4.23,24.31-2.11,24.31-2.11l39.51,54Z" transform="translate(-29.82 -35.92)"/><path class="cls-10" d="M802.42,543.55s-6.16,3.22-8.8,8.21-35.59,25-35.59,25l-16.31-13.55L722.66,584s25,31.77,30.31,33.82,10.56,2,12.61.59S820,585.19,820,585.19" transform="translate(-29.82 -35.92)"/><path class="cls-3" d="M758,576.74s9,6.73,10.43,7.9" transform="translate(-29.82 -35.92)"/><path class="cls-3" d="M766.25,579s11.43,6.45,11.14,9.67" transform="translate(-29.82 -35.92)"/><polygon class="cls-10" points="708.09 522.58 686.1 543.99 696.66 555.71 720.12 531.08 708.09 522.58"/><path class="cls-10" d="M668.42,574S639.68,596.33,640,598.09s8.21,16.12,8.21,16.12,28.15-27,29-28.14,2.35-1.47.3-4.11S674.58,570.53,668.42,574Z" transform="translate(-29.82 -35.92)"/><line class="cls-9" x1="669.39" y1="584.16" x2="671.4" y2="530.47"/><path class="cls-9" d="M573.75,502.29l7.69-135.68,37.36,2.12a83.51,83.51,0,0,1,23.62,4.37,28.85,28.85,0,0,1,15,11.69q5.17,8.1,4.36,22.35A74.41,74.41,0,0,1,659.64,422a27.76,27.76,0,0,1-5.58,11,27.28,27.28,0,0,1-10.76,7.38l14.87,66.71-31-1.75-11.46-61.66-8.54-.48L603.73,504Zm34.41-76.36,8.37.48c4.25.24,7.58-.32,10-1.7a12,12,0,0,0,5.31-6.25,32.94,32.94,0,0,0,2-10.22q.5-8.72-2.42-13.75T620,389l-9.71-.56Z" transform="translate(-29.82 -35.92)"/><path class="cls-9" d="M161.35,159.78a14.52,14.52,0,1,1-14.52-14.52A14.52,14.52,0,0,1,161.35,159.78Z" transform="translate(-29.82 -35.92)"/><polygon class="cls-7" points="182 126.22 52.03 126.22 104.02 82.44 130.01 82.44 182 126.22"/><line class="cls-3" x1="117.01" y1="83.45" x2="117.01"/></svg>