<svg id="Layer_1" data-name="Layer 1" xmlns="http://www.w3.org/2000/svg" viewBox="0 0 981.94 1010.81"><defs><style>.cls-1{fill:#f5f5f5;}.cls-2{fill:#e6e6e6;}.cls-3{fill:#37474f;}.cls-4{fill:#455b64;}.cls-22,.cls-34,.cls-5{fill:#58c2b1;}.cls-17,.cls-18,.cls-22,.cls-6{opacity:0.6;}.cls-14,.cls-15,.cls-7{opacity:0.5;}.cls-29,.cls-8{opacity:0.4;}.cls-9{opacity:0.15;}.cls-10,.cls-16{fill:#263238;}.cls-11{fill:#e0e0e0;}.cls-12{fill:#ebebeb;}.cls-13,.cls-14,.cls-17,.cls-19,.cls-33{fill:#fff;}.cls-16,.cls-21{opacity:0.9;}.cls-19,.cls-20{opacity:0.8;}.cls-23{opacity:0.7;}.cls-24,.cls-35{opacity:0.3;}.cls-25{opacity:0.25;}.cls-26,.cls-34{opacity:0.1;}.cls-27{fill:#f7a7a8;}.cls-28{fill:#fafbfb;}.cls-30{fill:#f3908f;}.cls-31,.cls-32{fill:none;stroke:#263238;stroke-miterlimit:10;}.cls-31{stroke-width:1.21px;}.cls-32{stroke-width:1.03px;}.cls-33{opacity:0.75;}.cls-36{opacity:0.2;}.cls-37{fill:#f1f0f0;}</style></defs><ellipse id="Floor" class="cls-1" cx="490.97" cy="738.97" rx="490.97" ry="271.84"/><path id="Shadow" class="cls-2" d="M981.93,731.49,708.24,889.59a8.13,8.13,0,0,1-7.35,0L306.27,661.76c-2-1.17-2-3.08,0-4.25L580,499.42a8.07,8.07,0,0,1,7.35,0L981.93,727.25C984,728.42,984,730.32,981.93,731.49Z" transform="translate(-49.03 -34.59)"/><ellipse id="Shadow-2" data-name="Shadow" class="cls-2" cx="296.9" cy="848.52" rx="164.4" ry="94.92"/><ellipse id="Shadow-3" data-name="Shadow" class="cls-2" cx="497.09" cy="738.47" rx="129.41" ry="74.71"/><ellipse id="Shadow-4" data-name="Shadow" class="cls-2" cx="784.88" cy="838.6" rx="81.23" ry="46.9"/><g id="Desk"><g id="Table"><path class="cls-3" d="M714.21,607.16V850.08a5.42,5.42,0,0,1-2.45,4.25l-5.22,3a5.42,5.42,0,0,1-4.9,0l-5.21-3a5.4,5.4,0,0,1-2.45-4.25V607.16c0-1.56,1.09-2.2,2.45-1.42l5.21,3a5.42,5.42,0,0,0,4.9,0l5.22-3C713.11,605,714.21,605.6,714.21,607.16Z" transform="translate(-49.03 -34.59)"/><path class="cls-4" d="M701.64,857.34l-5.21-3a5.4,5.4,0,0,1-2.45-4.25V607.16c0-1.56,1.09-2.2,2.45-1.42l5.21,3a5.42,5.42,0,0,1,2.45,4.25V855.92C704.09,857.49,703,858.12,701.64,857.34Z" transform="translate(-49.03 -34.59)"/><path class="cls-3" d="M936.48,478.75V721.68a5.39,5.39,0,0,1-2.45,4.24l-5.21,3a5.42,5.42,0,0,1-4.9,0l-5.22-3a5.42,5.42,0,0,1-2.45-4.24V478.75c0-1.56,1.1-2.2,2.45-1.41l5.22,3a5.36,5.36,0,0,0,4.9,0l5.21-3C935.39,476.55,936.48,477.19,936.48,478.75Z" transform="translate(-49.03 -34.59)"/><path class="cls-4" d="M923.92,728.93l-5.22-3a5.42,5.42,0,0,1-2.45-4.24V478.75c0-1.56,1.1-2.2,2.45-1.41l5.22,3a5.45,5.45,0,0,1,2.45,4.25V727.51C926.37,729.08,925.27,729.71,923.92,728.93Z" transform="translate(-49.03 -34.59)"/><path class="cls-3" d="M414.86,434.42V677.34a5.45,5.45,0,0,1-2.45,4.25l-5.22,3a5.36,5.36,0,0,1-4.9,0l-5.21-3a5.45,5.45,0,0,1-2.45-4.25V434.42c0-1.57,1.1-2.2,2.45-1.42l5.21,3a5.42,5.42,0,0,0,4.9,0l5.22-3C413.76,432.22,414.86,432.85,414.86,434.42Z" transform="translate(-49.03 -34.59)"/><path class="cls-4" d="M402.29,684.59l-5.21-3a5.45,5.45,0,0,1-2.45-4.25V434.42c0-1.57,1.1-2.2,2.45-1.42l5.21,3a5.39,5.39,0,0,1,2.45,4.24V683.18C404.74,684.74,403.65,685.38,402.29,684.59Z" transform="translate(-49.03 -34.59)"/><path class="cls-5" d="M984.85,496v-1.78a9.88,9.88,0,0,0-4.47-7.73l-392-226.08a9.87,9.87,0,0,0-8.92,0L338.35,399.71a9.83,9.83,0,0,0-4.46,7.72v1.78a9.84,9.84,0,0,0,4.46,7.73L730.32,643a9.89,9.89,0,0,0,8.93,0L980.38,503.76A9.85,9.85,0,0,0,984.85,496Z" transform="translate(-49.03 -34.59)"/><path class="cls-6" d="M984.85,496v-1.78a9.88,9.88,0,0,0-4.47-7.73l-392-226.08a9.87,9.87,0,0,0-8.92,0L338.35,399.71a9.83,9.83,0,0,0-4.46,7.72v1.78a9.84,9.84,0,0,0,4.46,7.73L730.32,643a9.89,9.89,0,0,0,8.93,0L980.38,503.76A9.85,9.85,0,0,0,984.85,496Z" transform="translate(-49.03 -34.59)"/><path class="cls-5" d="M734.79,632v12.09a9.39,9.39,0,0,0,4.46-1.07L980.38,503.77a9.87,9.87,0,0,0,4.46-7.73v-1.78a9.86,9.86,0,0,0-3.64-7.15c1.62,1.38,1.34,3.3-.82,4.57L739.25,631A9.06,9.06,0,0,1,734.79,632Z" transform="translate(-49.03 -34.59)"/><path class="cls-7" d="M734.79,632v12.09a9.39,9.39,0,0,0,4.46-1.07L980.38,503.77a9.87,9.87,0,0,0,4.46-7.73v-1.78a9.86,9.86,0,0,0-3.64-7.15c1.62,1.38,1.34,3.3-.82,4.57L739.25,631A9.06,9.06,0,0,1,734.79,632Z" transform="translate(-49.03 -34.59)"/><path class="cls-5" d="M980.38,491.68,739.25,630.94a9.83,9.83,0,0,1-8.93,0l-392-226.08c-2.47-1.43-2.47-3.73,0-5.15L579.49,260.44a9.87,9.87,0,0,1,8.92,0l392,226.08C982.85,488,982.85,490.25,980.38,491.68Z" transform="translate(-49.03 -34.59)"/><path class="cls-8" d="M980.38,491.68,739.25,630.94a9.83,9.83,0,0,1-8.93,0l-392-226.08c-2.47-1.43-2.47-3.73,0-5.15L579.49,260.44a9.87,9.87,0,0,1,8.92,0l392,226.08C982.85,488,982.85,490.25,980.38,491.68Z" transform="translate(-49.03 -34.59)"/></g><g id="Keyboard"><path id="Shadow-5" data-name="Shadow" class="cls-9" d="M705.16,488.64,648,521.72a7.08,7.08,0,0,1-6.4,0L472.84,424.41c-1.76-1-1.77-2.68,0-3.7L530,387.63a7,7,0,0,1,6.4,0l168.79,97.32C706.93,486,706.93,487.61,705.16,488.64Z" transform="translate(-49.03 -34.59)"/><g id="Keyboard-2" data-name="Keyboard"><path class="cls-10" d="M476.3,414.84a2.26,2.26,0,0,1,1.33-1.85l53.67-31a7.1,7.1,0,0,1,6.41,0l163.77,94.71a2.24,2.24,0,0,1,1.33,1.85v5.63a2.26,2.26,0,0,1-1.33,1.85l-53.65,31a7.1,7.1,0,0,1-6.41,0L477.63,422.46a2.27,2.27,0,0,1-1.33-1.84C476.3,420,476.31,415.51,476.3,414.84Z" transform="translate(-49.03 -34.59)"/><path class="cls-3" d="M647.83,511.26l53.65-30.84c1.77-1,1.77-2.67,0-3.7L537.71,382a7.1,7.1,0,0,0-6.41,0l-53.67,31c-1.77,1-1.77,2.68,0,3.7l163.79,94.56A7.13,7.13,0,0,0,647.83,511.26Z" transform="translate(-49.03 -34.59)"/><path class="cls-10" d="M644.83,512v5.75a6.53,6.53,0,0,0,3-.74l53.63-31a2.24,2.24,0,0,0,1.33-1.85v-5.64a2.26,2.26,0,0,1-1.33,1.85l-53.63,30.86A6.8,6.8,0,0,1,644.83,512Z" transform="translate(-49.03 -34.59)"/><path class="cls-5" d="M486.24,415.25a.07.07,0,0,1,0-.06l5.31-3.07,7.21,4.16-5.34,3.17-7.2-4.16Zm8.32-4.8s0-.06,0-.06l5.31-3.07,5.66,3.27-5.35,3.17-5.65-3.27Zm1.75,10.62a.09.09,0,0,1,0-.07l5.31-3.07,5.66,3.27L502,424.37l-5.65-3.26Zm6.57-15.42a.11.11,0,0,1,0-.07l5.31-3.06,9.15,5.28L512,411l-9.14-5.28Zm.2,9.72a.07.07,0,0,1,0-.06l5.31-3.07,4.5,2.59L507.58,418l-4.49-2.59ZM504.83,426a.09.09,0,0,1,0-.07l5.31-3.07,5.66,3.27-5.35,3.17L504.84,426Zm5.6-6.37a.09.09,0,0,1,.05-.07l5.31-3.07,4.49,2.6-5.34,3.17-4.49-2.59Zm.76-18.77a.12.12,0,0,1,0-.07l5.31-3.06,7.21,4.16-5.35,3.17-7.2-4.16Zm2.16,30.06a.08.08,0,0,1,0-.07l5.31-3.07,40.9,23.61-5.35,3.17-40.89-23.61Zm1.53-18.33a.12.12,0,0,1,0-.07l5.31-3.06,4.49,2.59-5.34,3.17-4.49-2.59Zm2.92,11.29a.09.09,0,0,1,0-.07l5.31-3.07,4.5,2.6-5.35,3.17-4.49-2.59Zm1.71-27.82a.08.08,0,0,1,0-.07l5.31-3.07,4.49,2.6L524,398.68l-4.49-2.59Zm1.75,10.62s0-.07,0-.07l5.31-3.07,4.5,2.6-5.35,3.17-4.49-2.6Zm1,10.16a.08.08,0,0,1,0-.07l5.31-3.06,4.49,2.59-5.35,3.17-4.48-2.59Zm2.91,11.29a.08.08,0,0,1,0-.07L530.5,425l4.5,2.6-5.35,3.17-4.49-2.59Zm1.72-27.82a.09.09,0,0,1,0-.07l5.31-3.07,4.5,2.6-5.35,3.17-4.49-2.59Zm1.75,10.61a.08.08,0,0,1,0-.07l5.31-3.06,4.49,2.59-5.34,3.17L528.63,411Zm1,10.17a.12.12,0,0,1,0-.07l5.32-3.07,4.49,2.6-5.35,3.17-4.48-2.59Zm0-30.85a.08.08,0,0,1,0-.07l5.31-3.07,5.66,3.27-5.35,3.17-5.65-3.27Zm2.91,42.13a.12.12,0,0,1,0-.07l5.31-3.06,4.49,2.6L537,435l-4.49-2.59Zm1.71-27.81a.08.08,0,0,1,0-.07l5.31-3.07,4.5,2.6-5.35,3.17-4.49-2.59ZM536,415.16a.12.12,0,0,1,0-.07l5.31-3.07,4.5,2.6-5.35,3.17L536,415.2Zm1,10.17a.09.09,0,0,1,0-.07l5.31-3.07,4.5,2.6L541.45,428,537,425.37Zm2.92,11.28a.08.08,0,0,1,0-.07l5.31-3.06,4.49,2.59-5.34,3.17-4.49-2.59ZM541.32,397a.08.08,0,0,1,0-.07l5.31-3.07,4.5,2.6-5.35,3.17L541.33,397Zm.26,11.81a.12.12,0,0,1,0-.08l5.31-3.06,4.49,2.59-5.34,3.18-4.49-2.6Zm1.75,10.61a.09.09,0,0,1,0-.07l5.31-3.07,4.5,2.6L547.83,422l-4.49-2.59Zm1,10.17a.12.12,0,0,1,0-.08l5.31-3.06,4.49,2.6-5.34,3.17-4.49-2.6Zm2.91,11.28a.12.12,0,0,1,0-.07l5.31-3.07,4.5,2.6-5.35,3.17-4.49-2.59Zm1.46-39.62a.09.09,0,0,1,0-.07L554,398.1l4.49,2.6-5.35,3.17-4.48-2.59Zm.26,11.8a.11.11,0,0,1,0-.07l5.32-3.06,4.49,2.59-5.35,3.17L549,413.08Zm1.75,10.62a.09.09,0,0,1,0-.07l5.31-3.07,4.5,2.6-5.35,3.17-4.49-2.59Zm1,10.16s0-.06,0-.06l5.32-3.07,4.49,2.59-5.35,3.18-4.48-2.6Zm2.91,11.29a.09.09,0,0,1,0-.07l5.31-3.07,4.5,2.6-5.35,3.17-4.49-2.59ZM556,405.49a.08.08,0,0,1,0-.07l5.31-3.07,4.5,2.6-5.35,3.17L556,405.53Zm.27,11.8a.09.09,0,0,1,0-.07l5.32-3.07,4.49,2.6-5.35,3.17-4.48-2.59Zm.81,38.88a.07.07,0,0,1,0-.07l5.31-3.07,5.66,3.27-5.35,3.17-5.65-3.26Zm.94-28.26s0-.07,0-.07l5.31-3.07,4.49,2.59-5.34,3.18-4.49-2.6Zm1,10.16a.12.12,0,0,1,0-.07l5.32-3.06,4.49,2.59-5.35,3.17L559,438.11Zm2.92,11.29a.08.08,0,0,1,0-.07l5.31-3.07,4.49,2.6L566.43,452l-4.48-2.6Zm1.45-39.63a.07.07,0,0,1,0-.06l5.31-3.07,4.5,2.6-5.35,3.17-4.49-2.6Zm.26,11.81a.09.09,0,0,1,0-.07L569,418.4l4.5,2.6-5.35,3.17-4.49-2.59Zm1.76,10.61a.11.11,0,0,1,0-.07l5.31-3.06,4.5,2.59-5.35,3.17-4.49-2.59Zm.22,28.94a.09.09,0,0,1,0-.07L571,458l5.66,3.27-5.35,3.17-5.65-3.26Zm.75-18.77a.09.09,0,0,1,0-.07l5.31-3.07,4.5,2.6L570.88,445l-4.49-2.59Zm2.92,11.29a.09.09,0,0,1,0-.08l5.31-3.06,4.49,2.59-5.34,3.17-4.49-2.59ZM571,425.79a.07.07,0,0,1,0-.07l5.31-3.07,4.49,2.6-5.34,3.17L571,425.83Zm1.75,10.61a.12.12,0,0,1,0-.07l5.31-3.07,4.5,2.6L577.26,439l-4.49-2.59Zm1,10.17a.07.07,0,0,1,0-.07l5.31-3.07,4.49,2.6-5.34,3.17-4.49-2.59Zm.21-30.74a.12.12,0,0,1,0-.07l5.31-3.07,4.5,2.6-5.35,3.17L574,415.87Zm.2,50.18s0-.07,0-.07l5.32-3.07,5.66,3.27-5.35,3.17-5.65-3.26Zm2.5-8.16a.12.12,0,0,1,0-.07l5.31-3.06,4.5,2.59-5.35,3.17-4.49-2.59ZM578.37,430a.12.12,0,0,1,0-.07l5.3-3.06,4.5,2.59-5.35,3.18-4.48-2.6Zm1.75,10.62a.09.09,0,0,1,0-.07l5.31-3.07,4.5,2.6-5.35,3.17-4.49-2.59Zm1,10.16s0-.06,0-.06l5.32-3.07,4.49,2.6-5.35,3.17-4.48-2.6Zm.21-30.73a.07.07,0,0,1,0-.07l5.31-3.07,4.5,2.6-5.35,3.17-4.49-2.59Zm1.36,50.85s0-.07,0-.07l5.31-3.07,7.2,4.16-5.34,3.17-7.2-4.16ZM584,462.1a.12.12,0,0,1,0-.07l5.31-3.07,14.18,8.19-5.35,3.17L584,462.14Zm1.71-27.82a.12.12,0,0,1,0-.07l5.32-3.06,4.49,2.59-5.35,3.17-4.48-2.59Zm1.76,10.62s0-.07,0-.07l5.31-3.07,4.49,2.6L592,447.53l-4.49-2.6Zm1,10.16a.12.12,0,0,1,0-.07l5.32-3.06,4.49,2.59L593,457.69l-4.48-2.59Zm.22-30.73s0-.07,0-.07l5.32-3.07,4.49,2.6L593.16,427l-4.49-2.6Zm4.41,14.2a.09.09,0,0,1,0-.07l5.31-3.07,4.5,2.6-5.35,3.17-4.49-2.59Zm1.2,39.1a.07.07,0,0,1,0-.06l5.31-3.07,4.5,2.59-5.35,3.17-4.49-2.59Zm.56-28.49s0-.06,0-.06l5.31-3.07,4.5,2.59-5.35,3.17-4.49-2.59Zm1,10.17a.07.07,0,0,1,0-.06l5.31-3.07,4.11,2.37a3.41,3.41,0,0,0,2.66,0l7-4,5.27,3.05-13.66,8-10.69-6.17Zm.21-30.74a.07.07,0,0,1,0-.06l5.31-3.07,4.5,2.59-5.35,3.18-4.49-2.6Zm4.42,14.21a.07.07,0,0,1,0-.07l5.31-3.07,4.49,2.6-5.34,3.17-4.49-2.59Zm1.2,39.1a.09.09,0,0,1,0-.07l5.31-3.07,4.5,2.6-5.35,3.17-4.49-2.59Zm.55-28.49a.12.12,0,0,1,0-.07l5.31-3.06,4.5,2.59L606.69,456l-4.49-2.59Zm4.39-18.72a.12.12,0,0,1,0-.07l5.31-3.07,4.5,2.6-5.35,3.17-4.49-2.59ZM607.8,447a.11.11,0,0,1,0-.07l5.31-3.06,4.5,2.6-5.35,3.17-4.48-2.6Zm1.2,39.11s0-.07,0-.07l5.31-3.07,4.49,2.6-5.34,3.17L609,486.17Zm1-9.05a.09.09,0,0,1,0-.07l5.32-3.07,4.49,2.6-5.35,3.17L610,477.12Zm4-38.16a.09.09,0,0,1,0-.07l5.31-3.07,4.49,2.6-5.34,3.17L614,439Zm1.21,12.35a.12.12,0,0,1,0-.07l5.31-3.06,8,4.61-5.35,3.17-8-4.61Zm2.76,40a.11.11,0,0,1,0-.07l5.31-3.07L635.11,495l-5.35,3.17-11.85-6.84Zm1.32-28a.09.09,0,0,1,0-.07l5.31-3.07,4.5,2.6-5.35,3.17-4.49-2.59Zm2.07-20.06s0-.07,0-.07l5.31-3.07,4.49,2.6-5.34,3.17-4.49-2.59Zm4.92,43.3a.09.09,0,0,1,0-.07l5.31-3.07,4.5,2.6-5.35,3.17-4.49-2.59Zm.37-19s0-.07,0-.07l5.31-3.07,4.49,2.6-5.34,3.17-4.49-2.59Zm1-9.05a.09.09,0,0,1,0-.07l5.32-3.07,4.49,2.6-5.34,3.17-4.49-2.59Zm1.11-11s0-.06,0-.06l5.31-3.07,4.5,2.59-5.35,3.18-4.49-2.6Zm4,52.36a.12.12,0,0,1,0-.08l5.31-3.06,4.5,2.6-5.35,3.17-4.49-2.6Zm1-9s0-.07,0-.07l5.31-3.07,4.5,2.6-5.35,3.17-4.49-2.59Zm.37-19a.11.11,0,0,1,0-.07l5.31-3.06,4.5,2.6-5.35,3.17-4.49-2.6Zm.59,9.95a.07.07,0,0,1,0-.07l5.31-3.07,4.49,2.6L639,484.3l-4.49-2.59Zm.37-19s0-.07,0-.07l5.31-3.07,4.5,2.6-5.35,3.17-4.49-2.6Zm2.73-10.08a.08.08,0,0,1,0-.07l5.31-3.07,4.5,2.6-5.35,3.17-4.49-2.59ZM640,504a.08.08,0,0,1,0-.07l13.62-7.86,4.5,2.59-13.66,8-4.49-2.6Zm1-9.05a.11.11,0,0,1,0-.07l5.32-3.06,4.49,2.59-5.35,3.18-4.49-2.6Zm1-9s0-.07,0-.07l5.31-3.07,4.5,2.6-5.35,3.17L641.9,486Zm.36-19a.12.12,0,0,1,0-.07l5.31-3.06,4.5,2.59-5.35,3.17L642.27,467Zm.59,9.95a.09.09,0,0,1,0-.07l5.31-3.07,4.5,2.6-5.35,3.17-4.49-2.59Zm2.15-20a.09.09,0,0,1,0-.07l5.32-3.07,4.49,2.6-5.35,3.17L645,456.89Zm4.25,33.31a.12.12,0,0,1,0-.07L654.6,487l4.5,2.59-5.35,3.18-4.49-2.6Zm1-9a.07.07,0,0,1,0-.07l5.31-3.07,4.49,2.59-5.34,3.18-4.49-2.6Zm1-9.05s0-.07,0-.07l5.32-3.07,4.49,2.6-5.35,3.17-4.48-2.6Zm1.18-11a.08.08,0,0,1,0-.07L657.7,458l4.5,2.6-5.35,3.17-4.49-2.59Zm4.26,33.31a.12.12,0,0,1,0-.07l13.63-7.87,4.49,2.6-13.66,8-4.49-2.59Zm1-9.05s0-.06,0-.06l5.32-3.07,4.49,2.59L662.06,488l-4.48-2.59Zm.95-9.05a.07.07,0,0,1,0-.06l5.31-3.07,4.5,2.59L663,478.94l-4.48-2.59ZM663.4,465s0-.07,0-.07l2.25-1.33,4.5,2.59-2.31,1.43-4.47-2.58Zm2.48,15.55a.12.12,0,0,1,0-.07l5.31-3.06,4.5,2.59-5.35,3.17-4.49-2.59Zm4.88-11.31a.11.11,0,0,1,0-.07l2.26-1.33,4.5,2.6-2.31,1.42-4.48-2.58Zm2.48,15.56a.07.07,0,0,1,0-.07l5.31-3.07,4.5,2.6-5.35,3.17-4.49-2.59Zm4.87-11.31a.12.12,0,0,1,0-.07l2.26-1.33,4.49,2.6-2.31,1.42-4.47-2.58Zm7.36,4.25a.12.12,0,0,1,0-.07l2.25-1.33,4.5,2.59L690,480.37l-4.47-2.58Z" transform="translate(-49.03 -34.59)"/></g></g><g id="Device"><polygon id="Shadow-6" data-name="Shadow" class="cls-9" points="788.15 460.46 838.41 431.45 587.12 286.36 536.86 315.38 788.15 460.46"/><g id="Monitor"><path class="cls-2" d="M694.88,447.82,659,427.08c-3.7-2.14-5.55-4.94-5.55-7.74s0-5,0-5l33.76-19.16a7.9,7.9,0,0,0,3.57-6.19V344.77L753.44,381v44.24a7.9,7.9,0,0,1-3.57,6.18l-28.2,16.42C714.27,452.09,702.28,452.09,694.88,447.82Z" transform="translate(-49.03 -34.59)"/><path class="cls-11" d="M738.39,433.05v5l11.49-6.62a7.9,7.9,0,0,0,3.57-6.19V381l-11.94-6.89c-.25,3-.52,6.17-.76,9.22l8.37,4.85v34.56a7.86,7.86,0,0,1-3.57,6.19Z" transform="translate(-49.03 -34.59)"/><path class="cls-1" d="M749.12,422.73a7.9,7.9,0,0,1-3.57,6.18l-23.88,13.92c-7.39,4.27-19.39,4.28-26.79,0L659,422.09c-7.4-4.27-7.4-11.19,0-15.46l23.9-13.93a7.9,7.9,0,0,0,3.57-6.19V352l62.67,36.21Z" transform="translate(-49.03 -34.59)"/><path class="cls-12" d="M675.6,396.9h0l7.28-4.2a7.9,7.9,0,0,0,3.57-6.19V352l62.67,36.21v34.57a7.9,7.9,0,0,1-3.57,6.18L738.4,433Z" transform="translate(-49.03 -34.59)"/><path class="cls-12" d="M653.44,414.36v5c0,2.8,1.86,5.59,5.55,7.73l35.89,20.73A26.7,26.7,0,0,0,707.66,451v-5a26.7,26.7,0,0,1-12.78-3.18L659,422.09C655.3,420,653.44,417.16,653.44,414.36Z" transform="translate(-49.03 -34.59)"/><path class="cls-4" d="M849.75,470.45a9.59,9.59,0,0,1-8.66-.16L598.73,330.36a9.85,9.85,0,0,1-4.47-7.73V110.49a8.39,8.39,0,0,1,12.84-7.41L849.47,243a9.86,9.86,0,0,1,4.46,7.73V462.88A9.57,9.57,0,0,1,849.75,470.45Z" transform="translate(-49.03 -34.59)"/><path class="cls-3" d="M841.09,470.29,598.73,330.36a9.86,9.86,0,0,1-4.47-7.73V110.49c0-2.85,2-4,4.47-2.58L841.09,247.84a9.86,9.86,0,0,1,4.46,7.73V467.71C845.56,470.55,843.56,471.71,841.09,470.29Z" transform="translate(-49.03 -34.59)"/><path class="cls-11" d="M841.75,471.17a8.34,8.34,0,0,0,12.19-7.75V439.56l-8.38,4.84v23.86C845.56,470.86,843.91,472,841.75,471.17Z" transform="translate(-49.03 -34.59)"/><path class="cls-13" d="M845.56,444.4v23.86c0,2.84-2,4-4.47,2.57L598.73,330.91a9.88,9.88,0,0,1-4.47-7.74V299.32Z" transform="translate(-49.03 -34.59)"/><path class="cls-5" d="M837.18,426.25V258.35a5.91,5.91,0,0,0-2.68-4.64L605.32,121.39c-1.48-.85-2.68-.16-2.68,1.55v167.9a5.9,5.9,0,0,0,2.67,4.64L834.5,427.8C836,428.65,837.18,428,837.18,426.25Z" transform="translate(-49.03 -34.59)"/><path class="cls-14" d="M837.18,426.25V258.35a5.91,5.91,0,0,0-2.68-4.64L605.32,121.39c-1.48-.85-2.68-.16-2.68,1.55v167.9a5.9,5.9,0,0,0,2.67,4.64L834.5,427.8C836,428.65,837.18,428,837.18,426.25Z" transform="translate(-49.03 -34.59)"/><path class="cls-4" d="M719.91,381a9.26,9.26,0,0,1,4.19,7.26c0,2.67-1.87,3.75-4.19,2.42a9.29,9.29,0,0,1-4.19-7.26C715.72,380.73,717.6,379.65,719.91,381Z" transform="translate(-49.03 -34.59)"/><path class="cls-10" d="M844.24,251.15a9.4,9.4,0,0,1,1.32,4.41V444.4l8.38-4.84V250.74a9.28,9.28,0,0,0-1.32-4.41Z" transform="translate(-49.03 -34.59)"/></g></g><g id="Window"><g id="Window-2" data-name="Window"><path class="cls-4" d="M633.92,66.69a1.59,1.59,0,0,1,.07-.39s0-.06,0-.09a2.11,2.11,0,0,1,.1-.38,2,2,0,0,1,.25-.54.88.88,0,0,1,.14-.23.61.61,0,0,1,.13-.15,1.24,1.24,0,0,1,.28-.28l0,0a1.47,1.47,0,0,1,.36-.21,3.1,3.1,0,0,1,2.88.36L921,228a9.45,9.45,0,0,1,4.28,7.4V441.07a2.89,2.89,0,0,1-1.54,2.57l-.18.12-.22.12a1.47,1.47,0,0,1-.37.13,2.5,2.5,0,0,1-.54.07,2.79,2.79,0,0,1-1.42-.41l-.11-.06h0l-4.08-2.36L638.17,280.38a9.44,9.44,0,0,1-4.28-7.41V67.22A4.58,4.58,0,0,1,633.92,66.69Z" transform="translate(-49.03 -34.59)"/><path class="cls-5" d="M635.29,64.39a3.1,3.1,0,0,1,2.88.36L921,228a9.45,9.45,0,0,1,4.28,7.4v14l5.45-3.19V232.29a9.42,9.42,0,0,0-4.26-7.4L643.62,61.67a3,3,0,0,0-3.1-.25C639.75,61.88,636.2,63.91,635.29,64.39Z" transform="translate(-49.03 -34.59)"/><path class="cls-5" d="M633.9,67.19c0-2.7,1.92-3.79,4.27-2.43L921,228a9.47,9.47,0,0,1,4.28,7.4v14L633.9,81.22Z" transform="translate(-49.03 -34.59)"/><g class="cls-15"><path class="cls-13" d="M638.17,64.76,921,228a8.84,8.84,0,0,1,3,3.17l5.43-3.14a8.54,8.54,0,0,0-3-3.12L643.63,61.66a3,3,0,0,0-3.11-.25c-.76.47-4.31,2.49-5.21,3A3.1,3.1,0,0,1,638.17,64.76Z" transform="translate(-49.03 -34.59)"/></g><path class="cls-9" d="M930.75,246.17V232.28a8.85,8.85,0,0,0-1.3-4.27L924,231.14a8.55,8.55,0,0,1,1.28,4.25v14Z" transform="translate(-49.03 -34.59)"/><path class="cls-4" d="M915.65,230.93c1.33.77,2.41,3.06,2.41,5.11s-1.08,3.1-2.41,2.33-2.41-3.06-2.41-5.11S914.32,230.16,915.65,230.93Z" transform="translate(-49.03 -34.59)"/><path class="cls-4" d="M907,225.91c1.33.77,2.41,3.06,2.41,5.11s-1.08,3.09-2.41,2.32-2.42-3.06-2.42-5.11S905.62,225.14,907,225.91Z" transform="translate(-49.03 -34.59)"/><path class="cls-4" d="M898.27,220.88c1.33.77,2.41,3.06,2.41,5.11s-1.08,3.09-2.41,2.32-2.42-3.05-2.42-5.11S896.93,220.11,898.27,220.88Z" transform="translate(-49.03 -34.59)"/><path class="cls-16" d="M923.75,443.65l.22-.12,4.51-2.61a4.52,4.52,0,0,0,2.23-3.31,4.4,4.4,0,0,0,0-.62V246.16l-5.46,3.2v191.7a2.81,2.81,0,0,1-1.33,2.43.55.55,0,0,1-.14.09s0,0,0,0Z" transform="translate(-49.03 -34.59)"/></g><g id="Code"><path class="cls-5" d="M720.54,154.07l59.63,34.36a3.26,3.26,0,0,1,1.52,2.52c0,.91-.68,1.25-1.52.77l-59.63-34.36a3.27,3.27,0,0,1-1.52-2.52C719,153.93,719.7,153.58,720.54,154.07Z" transform="translate(-49.03 -34.59)"/><path class="cls-2" d="M743.32,219.85l22.61,13a3.26,3.26,0,0,1,1.51,2.52c0,.91-.68,1.25-1.51.77l-22.61-13a3.27,3.27,0,0,1-1.52-2.52C741.8,219.71,742.48,219.36,743.32,219.85Z" transform="translate(-49.03 -34.59)"/><path class="cls-2" d="M743.32,233l22.61,13a3.29,3.29,0,0,1,1.51,2.52c0,.91-.68,1.26-1.51.77l-22.61-13a3.24,3.24,0,0,1-1.52-2.52C741.8,232.86,742.48,232.52,743.32,233Z" transform="translate(-49.03 -34.59)"/><path class="cls-5" d="M786.05,191.83l119.39,68.75a3.28,3.28,0,0,1,1.52,2.53c0,.9-.68,1.25-1.52.76L786.05,195.12a3.27,3.27,0,0,1-1.52-2.52C784.53,191.69,785.21,191.34,786.05,191.83Z" transform="translate(-49.03 -34.59)"/><path class="cls-5" d="M743.81,312.1l36.36,21a3.28,3.28,0,0,1,1.52,2.53c0,.9-.68,1.25-1.52.76l-36.36-21a3.27,3.27,0,0,1-1.51-2.52C742.3,312,743,311.62,743.81,312.1Z" transform="translate(-49.03 -34.59)"/><path class="cls-5" d="M786.05,336.53l119.39,68.84A3.28,3.28,0,0,1,907,407.9c0,.9-.68,1.25-1.52.76L786.05,339.82a3.24,3.24,0,0,1-1.52-2.52C784.53,336.39,785.21,336.05,786.05,336.53Z" transform="translate(-49.03 -34.59)"/><path class="cls-5" d="M720.54,167.25l30,17.26a3.27,3.27,0,0,1,1.52,2.52c0,.91-.68,1.26-1.52.77l-30-17.26A3.24,3.24,0,0,1,719,168C719,167.11,719.7,166.77,720.54,167.25Z" transform="translate(-49.03 -34.59)"/><path class="cls-17" d="M720.54,167.25l30,17.26a3.27,3.27,0,0,1,1.52,2.52c0,.91-.68,1.26-1.52.77l-30-17.26A3.24,3.24,0,0,1,719,168C719,167.11,719.7,166.77,720.54,167.25Z" transform="translate(-49.03 -34.59)"/><path class="cls-5" d="M720.54,180.39l14.05,8.1a3.24,3.24,0,0,1,1.52,2.52c0,.91-.68,1.25-1.52.77l-14.05-8.11a3.24,3.24,0,0,1-1.52-2.52C719,180.25,719.7,179.9,720.54,180.39Z" transform="translate(-49.03 -34.59)"/><path class="cls-17" d="M720.54,180.39l14.05,8.1a3.24,3.24,0,0,1,1.52,2.52c0,.91-.68,1.25-1.52.77l-14.05-8.11a3.24,3.24,0,0,1-1.52-2.52C719,180.25,719.7,179.9,720.54,180.39Z" transform="translate(-49.03 -34.59)"/><path class="cls-5" d="M720.54,206.7l14.05,8.1a3.24,3.24,0,0,1,1.52,2.52c0,.91-.68,1.25-1.52.77L720.54,210a3.24,3.24,0,0,1-1.52-2.52C719,206.56,719.7,206.21,720.54,206.7Z" transform="translate(-49.03 -34.59)"/><path class="cls-17" d="M720.54,206.7l14.05,8.1a3.24,3.24,0,0,1,1.52,2.52c0,.91-.68,1.25-1.52.77L720.54,210a3.24,3.24,0,0,1-1.52-2.52C719,206.56,719.7,206.21,720.54,206.7Z" transform="translate(-49.03 -34.59)"/><path class="cls-5" d="M720.54,219.85,734.59,228a3.24,3.24,0,0,1,1.52,2.52c0,.9-.68,1.25-1.52.76l-14.05-8.1a3.24,3.24,0,0,1-1.52-2.52C719,219.71,719.7,219.37,720.54,219.85Z" transform="translate(-49.03 -34.59)"/><path class="cls-17" d="M720.54,219.85,734.59,228a3.24,3.24,0,0,1,1.52,2.52c0,.9-.68,1.25-1.52.76l-14.05-8.1a3.24,3.24,0,0,1-1.52-2.52C719,219.71,719.7,219.37,720.54,219.85Z" transform="translate(-49.03 -34.59)"/><path class="cls-5" d="M756.46,187.91l18,10.43a3.27,3.27,0,0,1,1.52,2.52c0,.91-.68,1.26-1.52.77l-18-10.43a3.26,3.26,0,0,1-1.52-2.52C754.94,187.77,755.62,187.43,756.46,187.91Z" transform="translate(-49.03 -34.59)"/><path class="cls-17" d="M756.46,187.91l18,10.43a3.27,3.27,0,0,1,1.52,2.52c0,.91-.68,1.26-1.52.77l-18-10.43a3.26,3.26,0,0,1-1.52-2.52C754.94,187.77,755.62,187.43,756.46,187.91Z" transform="translate(-49.03 -34.59)"/><path class="cls-13" d="M784.31,283l121.13,69.74a3.27,3.27,0,0,1,1.52,2.52c0,.91-.68,1.26-1.52.77L784.31,286.3a3.24,3.24,0,0,1-1.52-2.52C782.79,282.87,783.47,282.53,784.31,283Z" transform="translate(-49.03 -34.59)"/><path class="cls-13" d="M887.43,329.14l18,10.44A3.24,3.24,0,0,1,907,342.1c0,.91-.68,1.25-1.52.77l-18-10.44a3.24,3.24,0,0,1-1.52-2.52C885.91,329,886.59,328.66,887.43,329.14Z" transform="translate(-49.03 -34.59)"/><path class="cls-13" d="M760.41,256l121.13,69.74a3.24,3.24,0,0,1,1.52,2.52c0,.91-.68,1.25-1.52.77L760.41,259.3a3.26,3.26,0,0,1-1.51-2.52C758.9,255.87,759.57,255.52,760.41,256Z" transform="translate(-49.03 -34.59)"/><path class="cls-5" d="M743.32,193.54l30,17.26a3.24,3.24,0,0,1,1.52,2.52c0,.91-.68,1.25-1.52.77l-30-17.26a3.24,3.24,0,0,1-1.52-2.52C741.8,193.4,742.48,193.06,743.32,193.54Z" transform="translate(-49.03 -34.59)"/><path class="cls-17" d="M743.32,193.54l30,17.26a3.24,3.24,0,0,1,1.52,2.52c0,.91-.68,1.25-1.52.77l-30-17.26a3.24,3.24,0,0,1-1.52-2.52C741.8,193.4,742.48,193.06,743.32,193.54Z" transform="translate(-49.03 -34.59)"/><path class="cls-5" d="M779.24,214.2l125.3,72.48a3.28,3.28,0,0,1,1.52,2.53c0,.9-.68,1.25-1.52.76l-125.3-72.48a3.28,3.28,0,0,1-1.52-2.53C777.72,214.06,778.4,213.71,779.24,214.2Z" transform="translate(-49.03 -34.59)"/><path class="cls-17" d="M779.24,214.2l125.3,72.48a3.28,3.28,0,0,1,1.52,2.53c0,.9-.68,1.25-1.52.76l-125.3-72.48a3.28,3.28,0,0,1-1.52-2.53C777.72,214.06,778.4,213.71,779.24,214.2Z" transform="translate(-49.03 -34.59)"/><path class="cls-2" d="M743.32,272.74l162.12,93.49a3.26,3.26,0,0,1,1.52,2.52c0,.91-.68,1.25-1.52.77L743.32,276a3.24,3.24,0,0,1-1.52-2.52C741.8,272.6,742.48,272.26,743.32,272.74Z" transform="translate(-49.03 -34.59)"/><path class="cls-5" d="M720.54,259.59l14.05,8.1a3.28,3.28,0,0,1,1.52,2.53c0,.9-.68,1.25-1.52.76l-14.05-8.1a3.24,3.24,0,0,1-1.52-2.52C719,259.45,719.7,259.11,720.54,259.59Z" transform="translate(-49.03 -34.59)"/><path class="cls-17" d="M720.54,259.59l14.05,8.1a3.28,3.28,0,0,1,1.52,2.53c0,.9-.68,1.25-1.52.76l-14.05-8.1a3.24,3.24,0,0,1-1.52-2.52C719,259.45,719.7,259.11,720.54,259.59Z" transform="translate(-49.03 -34.59)"/><path class="cls-2" d="M743.32,285.89l162.12,93.49A3.26,3.26,0,0,1,907,381.9c0,.91-.68,1.25-1.52.77L743.32,289.18a3.24,3.24,0,0,1-1.52-2.52C741.8,285.75,742.48,285.41,743.32,285.89Z" transform="translate(-49.03 -34.59)"/><path class="cls-5" d="M720.54,272.74l14.05,8.11a3.24,3.24,0,0,1,1.52,2.52c0,.9-.68,1.25-1.52.76L720.54,276a3.24,3.24,0,0,1-1.52-2.52C719,272.6,719.7,272.26,720.54,272.74Z" transform="translate(-49.03 -34.59)"/><path class="cls-17" d="M720.54,272.74l14.05,8.11a3.24,3.24,0,0,1,1.52,2.52c0,.9-.68,1.25-1.52.76L720.54,276a3.24,3.24,0,0,1-1.52-2.52C719,272.6,719.7,272.26,720.54,272.74Z" transform="translate(-49.03 -34.59)"/><path class="cls-2" d="M743.32,299l162.12,93.49a3.27,3.27,0,0,1,1.52,2.52c0,.91-.68,1.26-1.52.77L743.32,302.33a3.24,3.24,0,0,1-1.52-2.52C741.8,298.9,742.48,298.56,743.32,299Z" transform="translate(-49.03 -34.59)"/><path class="cls-5" d="M720.54,285.89,734.59,294a3.24,3.24,0,0,1,1.52,2.52c0,.91-.68,1.25-1.52.77l-14.05-8.11a3.24,3.24,0,0,1-1.52-2.52C719,285.75,719.7,285.41,720.54,285.89Z" transform="translate(-49.03 -34.59)"/><path class="cls-17" d="M720.54,285.89,734.59,294a3.24,3.24,0,0,1,1.52,2.52c0,.91-.68,1.25-1.52.77l-14.05-8.11a3.24,3.24,0,0,1-1.52-2.52C719,285.75,719.7,285.41,720.54,285.89Z" transform="translate(-49.03 -34.59)"/><g class="cls-18"><path class="cls-13" d="M698.63,140.88l8.26,4.77a3.31,3.31,0,0,1,1.5,2.6v3c0,1-.67,1.35-1.5.87l-8.26-4.77a3.31,3.31,0,0,1-1.5-2.6v-3C697.13,140.79,697.8,140.4,698.63,140.88Z" transform="translate(-49.03 -34.59)"/><path class="cls-13" d="M698.63,154.16l8.26,4.77a3.29,3.29,0,0,1,1.5,2.59v3c0,1-.67,1.35-1.5.87l-8.26-4.77a3.31,3.31,0,0,1-1.5-2.6v-3C697.13,154.07,697.8,153.68,698.63,154.16Z" transform="translate(-49.03 -34.59)"/><path class="cls-13" d="M698.63,167.44l8.26,4.77a3.29,3.29,0,0,1,1.5,2.59v3c0,1-.67,1.35-1.5.87l-8.26-4.77a3.31,3.31,0,0,1-1.5-2.6v-3C697.13,167.35,697.8,167,698.63,167.44Z" transform="translate(-49.03 -34.59)"/><path class="cls-13" d="M698.63,180.72l8.26,4.77a3.29,3.29,0,0,1,1.5,2.59v3c0,1-.67,1.34-1.5.87l-8.26-4.77a3.31,3.31,0,0,1-1.5-2.6v-3C697.13,180.63,697.8,180.24,698.63,180.72Z" transform="translate(-49.03 -34.59)"/><path class="cls-13" d="M698.63,194l8.26,4.76a3.33,3.33,0,0,1,1.5,2.6v3c0,1-.67,1.34-1.5.87l-8.26-4.77a3.31,3.31,0,0,1-1.5-2.6v-3C697.13,193.91,697.8,193.52,698.63,194Z" transform="translate(-49.03 -34.59)"/><path class="cls-13" d="M698.63,207.28l8.26,4.76a3.33,3.33,0,0,1,1.5,2.6v3c0,1-.67,1.34-1.5.87l-8.26-4.77a3.31,3.31,0,0,1-1.5-2.6v-3C697.13,207.19,697.8,206.8,698.63,207.28Z" transform="translate(-49.03 -34.59)"/><path class="cls-13" d="M698.63,220.55l8.26,4.77a3.33,3.33,0,0,1,1.5,2.6v3c0,1-.67,1.34-1.5.87l-8.26-4.77a3.33,3.33,0,0,1-1.5-2.6v-3C697.13,220.46,697.8,220.08,698.63,220.55Z" transform="translate(-49.03 -34.59)"/><path class="cls-13" d="M698.63,233.83l8.26,4.77a3.33,3.33,0,0,1,1.5,2.6v3c0,1-.67,1.34-1.5.86l-8.26-4.76a3.33,3.33,0,0,1-1.5-2.6v-3C697.13,233.74,697.8,233.36,698.63,233.83Z" transform="translate(-49.03 -34.59)"/><path class="cls-13" d="M698.63,247.11l8.26,4.77a3.31,3.31,0,0,1,1.5,2.6v3c0,1-.67,1.34-1.5.86l-8.26-4.76a3.33,3.33,0,0,1-1.5-2.6v-3C697.13,247,697.8,246.64,698.63,247.11Z" transform="translate(-49.03 -34.59)"/><path class="cls-13" d="M698.63,260.39l8.26,4.77a3.31,3.31,0,0,1,1.5,2.6v3c0,.95-.67,1.34-1.5.86l-8.26-4.76a3.33,3.33,0,0,1-1.5-2.6v-3C697.13,260.3,697.8,259.92,698.63,260.39Z" transform="translate(-49.03 -34.59)"/><path class="cls-13" d="M698.63,273.67l8.26,4.77a3.31,3.31,0,0,1,1.5,2.6v3c0,.95-.67,1.34-1.5.86l-8.26-4.76a3.33,3.33,0,0,1-1.5-2.6v-3C697.13,273.58,697.8,273.19,698.63,273.67Z" transform="translate(-49.03 -34.59)"/><path class="cls-13" d="M698.63,287l8.26,4.77a3.31,3.31,0,0,1,1.5,2.6v3c0,.95-.67,1.34-1.5.86l-8.26-4.77a3.29,3.29,0,0,1-1.5-2.59v-3C697.13,286.86,697.8,286.47,698.63,287Z" transform="translate(-49.03 -34.59)"/></g><path class="cls-3" d="M643.83,97.74l44.67,25.79a6.62,6.62,0,0,1,3,5.2V180.3c0,1.92-1.34,2.69-3,1.74l-44.67-25.79a6.67,6.67,0,0,1-3-5.2V99.47C640.83,97.56,642.18,96.78,643.83,97.74Z" transform="translate(-49.03 -34.59)"/><path class="cls-5" d="M648,148.87l4.11,2.37a3.28,3.28,0,0,1,1.52,2.53c0,.9-.68,1.25-1.52.76L648,152.16a3.28,3.28,0,0,1-1.52-2.53C646.46,148.73,647.14,148.38,648,148.87Z" transform="translate(-49.03 -34.59)"/><path class="cls-17" d="M648,148.87l4.11,2.37a3.28,3.28,0,0,1,1.52,2.53c0,.9-.68,1.25-1.52.76L648,152.16a3.28,3.28,0,0,1-1.52-2.53C646.46,148.73,647.14,148.38,648,148.87Z" transform="translate(-49.03 -34.59)"/><path class="cls-5" d="M648,106.63l4.11,2.38a3.24,3.24,0,0,1,1.52,2.52c0,.91-.68,1.25-1.52.77L648,109.92a3.24,3.24,0,0,1-1.52-2.52C646.46,106.49,647.14,106.15,648,106.63Z" transform="translate(-49.03 -34.59)"/><path class="cls-17" d="M648,106.63l4.11,2.38a3.24,3.24,0,0,1,1.52,2.52c0,.91-.68,1.25-1.52.77L648,109.92a3.24,3.24,0,0,1-1.52-2.52C646.46,106.49,647.14,106.15,648,106.63Z" transform="translate(-49.03 -34.59)"/><path class="cls-5" d="M653.76,118.4l4.11,2.37a3.27,3.27,0,0,1,1.52,2.52c0,.91-.68,1.26-1.52.77l-4.11-2.38a3.24,3.24,0,0,1-1.52-2.52C652.24,118.25,652.92,117.91,653.76,118.4Z" transform="translate(-49.03 -34.59)"/><path class="cls-17" d="M653.76,118.4l4.11,2.37a3.27,3.27,0,0,1,1.52,2.52c0,.91-.68,1.26-1.52.77l-4.11-2.38a3.24,3.24,0,0,1-1.52-2.52C652.24,118.25,652.92,117.91,653.76,118.4Z" transform="translate(-49.03 -34.59)"/><path class="cls-5" d="M653.76,126.82l4.11,2.38a3.24,3.24,0,0,1,1.52,2.52c0,.91-.68,1.25-1.52.77l-4.11-2.38a3.24,3.24,0,0,1-1.52-2.52C652.24,126.68,652.92,126.34,653.76,126.82Z" transform="translate(-49.03 -34.59)"/><path class="cls-17" d="M653.76,126.82l4.11,2.38a3.24,3.24,0,0,1,1.52,2.52c0,.91-.68,1.25-1.52.77l-4.11-2.38a3.24,3.24,0,0,1-1.52-2.52C652.24,126.68,652.92,126.34,653.76,126.82Z" transform="translate(-49.03 -34.59)"/><path class="cls-5" d="M648,132l4.11,2.37a3.28,3.28,0,0,1,1.52,2.53c0,.9-.68,1.25-1.52.76L648,135.26a3.28,3.28,0,0,1-1.52-2.53C646.46,131.83,647.14,131.48,648,132Z" transform="translate(-49.03 -34.59)"/><path class="cls-17" d="M648,132l4.11,2.37a3.28,3.28,0,0,1,1.52,2.53c0,.9-.68,1.25-1.52.76L648,135.26a3.28,3.28,0,0,1-1.52-2.53C646.46,131.83,647.14,131.48,648,132Z" transform="translate(-49.03 -34.59)"/><path class="cls-5" d="M653.76,143.74l4.11,2.38a3.24,3.24,0,0,1,1.52,2.52c0,.91-.68,1.25-1.52.77L653.76,147a3.26,3.26,0,0,1-1.52-2.52C652.24,143.6,652.92,143.26,653.76,143.74Z" transform="translate(-49.03 -34.59)"/><path class="cls-17" d="M653.76,143.74l4.11,2.38a3.24,3.24,0,0,1,1.52,2.52c0,.91-.68,1.25-1.52.77L653.76,147a3.26,3.26,0,0,1-1.52-2.52C652.24,143.6,652.92,143.26,653.76,143.74Z" transform="translate(-49.03 -34.59)"/><path class="cls-5" d="M659.24,113.13l25.11,14.5a3.28,3.28,0,0,1,1.52,2.53c0,.9-.68,1.25-1.52.76l-25.11-14.5a3.24,3.24,0,0,1-1.52-2.52C657.72,113,658.4,112.65,659.24,113.13Z" transform="translate(-49.03 -34.59)"/><path class="cls-19" d="M659.24,113.13l25.11,14.5a3.28,3.28,0,0,1,1.52,2.53c0,.9-.68,1.25-1.52.76l-25.11-14.5a3.24,3.24,0,0,1-1.52-2.52C657.72,113,658.4,112.65,659.24,113.13Z" transform="translate(-49.03 -34.59)"/><path class="cls-5" d="M659.24,155.37l25.11,14.5a3.26,3.26,0,0,1,1.52,2.52c0,.91-.68,1.25-1.52.77l-25.11-14.5a3.24,3.24,0,0,1-1.52-2.52C657.72,155.23,658.4,154.89,659.24,155.37Z" transform="translate(-49.03 -34.59)"/><path class="cls-19" d="M659.24,155.37l25.11,14.5a3.26,3.26,0,0,1,1.52,2.52c0,.91-.68,1.25-1.52.77l-25.11-14.5a3.24,3.24,0,0,1-1.52-2.52C657.72,155.23,658.4,154.89,659.24,155.37Z" transform="translate(-49.03 -34.59)"/><path class="cls-5" d="M665,124.9l19.33,11.18a3.26,3.26,0,0,1,1.52,2.52c0,.91-.68,1.25-1.52.77L665,128.19a3.27,3.27,0,0,1-1.52-2.52C663.5,124.76,664.18,124.41,665,124.9Z" transform="translate(-49.03 -34.59)"/><path class="cls-19" d="M665,124.9l19.33,11.18a3.26,3.26,0,0,1,1.52,2.52c0,.91-.68,1.25-1.52.77L665,128.19a3.27,3.27,0,0,1-1.52-2.52C663.5,124.76,664.18,124.41,665,124.9Z" transform="translate(-49.03 -34.59)"/><path class="cls-5" d="M665,133.35l19.33,11.18a3.24,3.24,0,0,1,1.52,2.52c0,.91-.68,1.25-1.52.77L665,136.63a3.24,3.24,0,0,1-1.52-2.52C663.5,133.21,664.18,132.86,665,133.35Z" transform="translate(-49.03 -34.59)"/><path class="cls-19" d="M665,133.35l19.33,11.18a3.24,3.24,0,0,1,1.52,2.52c0,.91-.68,1.25-1.52.77L665,136.63a3.24,3.24,0,0,1-1.52-2.52C663.5,133.21,664.18,132.86,665,133.35Z" transform="translate(-49.03 -34.59)"/><path class="cls-5" d="M659.24,138.48,684.35,153a3.24,3.24,0,0,1,1.52,2.52c0,.91-.68,1.25-1.52.77l-25.11-14.5a3.28,3.28,0,0,1-1.52-2.53C657.72,138.34,658.4,138,659.24,138.48Z" transform="translate(-49.03 -34.59)"/><path class="cls-19" d="M659.24,138.48,684.35,153a3.24,3.24,0,0,1,1.52,2.52c0,.91-.68,1.25-1.52.77l-25.11-14.5a3.28,3.28,0,0,1-1.52-2.53C657.72,138.34,658.4,138,659.24,138.48Z" transform="translate(-49.03 -34.59)"/><path class="cls-5" d="M665,150.24l19.33,11.18a3.27,3.27,0,0,1,1.52,2.52c0,.91-.68,1.26-1.52.77L665,153.53A3.24,3.24,0,0,1,663.5,151C663.5,150.1,664.18,149.76,665,150.24Z" transform="translate(-49.03 -34.59)"/><path class="cls-19" d="M665,150.24l19.33,11.18a3.27,3.27,0,0,1,1.52,2.52c0,.91-.68,1.26-1.52.77L665,153.53A3.24,3.24,0,0,1,663.5,151C663.5,150.1,664.18,149.76,665,150.24Z" transform="translate(-49.03 -34.59)"/><path class="cls-3" d="M643.83,166l44.67,25.79a6.62,6.62,0,0,1,3,5.2V298.85c0,1.92-1.34,2.69-3,1.73L643.83,274.8a6.67,6.67,0,0,1-3-5.2V167.68C640.83,165.77,642.18,165,643.83,166Z" transform="translate(-49.03 -34.59)"/><path class="cls-5" d="M648,174.84l4.11,2.38a3.24,3.24,0,0,1,1.52,2.52c0,.91-.68,1.25-1.52.77L648,178.13a3.26,3.26,0,0,1-1.52-2.52C646.46,174.7,647.14,174.36,648,174.84Z" transform="translate(-49.03 -34.59)"/><path class="cls-17" d="M648,174.84l4.11,2.38a3.24,3.24,0,0,1,1.52,2.52c0,.91-.68,1.25-1.52.77L648,178.13a3.26,3.26,0,0,1-1.52-2.52C646.46,174.7,647.14,174.36,648,174.84Z" transform="translate(-49.03 -34.59)"/><path class="cls-5" d="M653.76,186.6l4.11,2.38a3.27,3.27,0,0,1,1.52,2.52c0,.91-.68,1.26-1.52.77l-4.11-2.38a3.24,3.24,0,0,1-1.52-2.52C652.24,186.46,652.92,186.12,653.76,186.6Z" transform="translate(-49.03 -34.59)"/><path class="cls-17" d="M653.76,186.6l4.11,2.38a3.27,3.27,0,0,1,1.52,2.52c0,.91-.68,1.26-1.52.77l-4.11-2.38a3.24,3.24,0,0,1-1.52-2.52C652.24,186.46,652.92,186.12,653.76,186.6Z" transform="translate(-49.03 -34.59)"/><path class="cls-5" d="M653.76,195l4.11,2.38a3.24,3.24,0,0,1,1.52,2.52c0,.91-.68,1.25-1.52.77l-4.11-2.38a3.24,3.24,0,0,1-1.52-2.52C652.24,194.89,652.92,194.55,653.76,195Z" transform="translate(-49.03 -34.59)"/><path class="cls-17" d="M653.76,195l4.11,2.38a3.24,3.24,0,0,1,1.52,2.52c0,.91-.68,1.25-1.52.77l-4.11-2.38a3.24,3.24,0,0,1-1.52-2.52C652.24,194.89,652.92,194.55,653.76,195Z" transform="translate(-49.03 -34.59)"/><path class="cls-5" d="M648,200.18l4.11,2.37a3.27,3.27,0,0,1,1.52,2.52c0,.91-.68,1.26-1.52.77L648,203.46a3.24,3.24,0,0,1-1.52-2.52C646.46,200,647.14,199.69,648,200.18Z" transform="translate(-49.03 -34.59)"/><path class="cls-17" d="M648,200.18l4.11,2.37a3.27,3.27,0,0,1,1.52,2.52c0,.91-.68,1.26-1.52.77L648,203.46a3.24,3.24,0,0,1-1.52-2.52C646.46,200,647.14,199.69,648,200.18Z" transform="translate(-49.03 -34.59)"/><path class="cls-5" d="M659.24,181.34l25.11,14.5a3.27,3.27,0,0,1,1.52,2.52c0,.91-.68,1.26-1.52.77l-25.11-14.5a3.24,3.24,0,0,1-1.52-2.52C657.72,181.2,658.4,180.86,659.24,181.34Z" transform="translate(-49.03 -34.59)"/><path class="cls-19" d="M659.24,181.34l25.11,14.5a3.27,3.27,0,0,1,1.52,2.52c0,.91-.68,1.26-1.52.77l-25.11-14.5a3.24,3.24,0,0,1-1.52-2.52C657.72,181.2,658.4,180.86,659.24,181.34Z" transform="translate(-49.03 -34.59)"/><path class="cls-5" d="M665,193.11l19.33,11.18a3.26,3.26,0,0,1,1.52,2.52c0,.91-.68,1.25-1.52.77L665,196.4a3.27,3.27,0,0,1-1.52-2.52C663.5,193,664.18,192.62,665,193.11Z" transform="translate(-49.03 -34.59)"/><path class="cls-19" d="M665,193.11l19.33,11.18a3.26,3.26,0,0,1,1.52,2.52c0,.91-.68,1.25-1.52.77L665,196.4a3.27,3.27,0,0,1-1.52-2.52C663.5,193,664.18,192.62,665,193.11Z" transform="translate(-49.03 -34.59)"/><path class="cls-5" d="M665,201.56l19.33,11.18a3.24,3.24,0,0,1,1.52,2.52c0,.91-.68,1.25-1.52.77L665,204.84a3.24,3.24,0,0,1-1.52-2.52C663.5,201.42,664.18,201.07,665,201.56Z" transform="translate(-49.03 -34.59)"/><path class="cls-19" d="M665,201.56l19.33,11.18a3.24,3.24,0,0,1,1.52,2.52c0,.91-.68,1.25-1.52.77L665,204.84a3.24,3.24,0,0,1-1.52-2.52C663.5,201.42,664.18,201.07,665,201.56Z" transform="translate(-49.03 -34.59)"/><path class="cls-5" d="M659.24,206.69l25.11,14.5a3.24,3.24,0,0,1,1.52,2.52c0,.91-.68,1.25-1.52.77L659.24,210a3.28,3.28,0,0,1-1.52-2.53C657.72,206.55,658.4,206.2,659.24,206.69Z" transform="translate(-49.03 -34.59)"/><path class="cls-19" d="M659.24,206.69l25.11,14.5a3.24,3.24,0,0,1,1.52,2.52c0,.91-.68,1.25-1.52.77L659.24,210a3.28,3.28,0,0,1-1.52-2.53C657.72,206.55,658.4,206.2,659.24,206.69Z" transform="translate(-49.03 -34.59)"/><path class="cls-5" d="M653.76,212l4.11,2.38a3.24,3.24,0,0,1,1.52,2.52c0,.9-.68,1.25-1.52.76l-4.11-2.37a3.27,3.27,0,0,1-1.52-2.52C652.24,211.86,652.92,211.51,653.76,212Z" transform="translate(-49.03 -34.59)"/><path class="cls-17" d="M653.76,212l4.11,2.38a3.24,3.24,0,0,1,1.52,2.52c0,.9-.68,1.25-1.52.76l-4.11-2.37a3.27,3.27,0,0,1-1.52-2.52C652.24,211.86,652.92,211.51,653.76,212Z" transform="translate(-49.03 -34.59)"/><path class="cls-5" d="M653.76,220.42l4.11,2.38a3.26,3.26,0,0,1,1.52,2.52c0,.91-.68,1.25-1.52.77l-4.11-2.38a3.24,3.24,0,0,1-1.52-2.52C652.24,220.28,652.92,219.94,653.76,220.42Z" transform="translate(-49.03 -34.59)"/><path class="cls-17" d="M653.76,220.42l4.11,2.38a3.26,3.26,0,0,1,1.52,2.52c0,.91-.68,1.25-1.52.77l-4.11-2.38a3.24,3.24,0,0,1-1.52-2.52C652.24,220.28,652.92,219.94,653.76,220.42Z" transform="translate(-49.03 -34.59)"/><path class="cls-5" d="M665,218.5l19.33,11.18a3.28,3.28,0,0,1,1.52,2.53c0,.9-.68,1.25-1.52.76L665,221.79a3.24,3.24,0,0,1-1.52-2.52C663.5,218.36,664.18,218,665,218.5Z" transform="translate(-49.03 -34.59)"/><path class="cls-19" d="M665,218.5l19.33,11.18a3.28,3.28,0,0,1,1.52,2.53c0,.9-.68,1.25-1.52.76L665,221.79a3.24,3.24,0,0,1-1.52-2.52C663.5,218.36,664.18,218,665,218.5Z" transform="translate(-49.03 -34.59)"/><path class="cls-5" d="M665,227l19.33,11.18a3.26,3.26,0,0,1,1.52,2.52c0,.91-.68,1.25-1.52.77L665,230.24a3.27,3.27,0,0,1-1.52-2.52C663.5,226.81,664.18,226.46,665,227Z" transform="translate(-49.03 -34.59)"/><path class="cls-19" d="M665,227l19.33,11.18a3.26,3.26,0,0,1,1.52,2.52c0,.91-.68,1.25-1.52.77L665,230.24a3.27,3.27,0,0,1-1.52-2.52C663.5,226.81,664.18,226.46,665,227Z" transform="translate(-49.03 -34.59)"/><path class="cls-5" d="M648,242.51l4.11,2.38a3.26,3.26,0,0,1,1.52,2.52c0,.91-.68,1.26-1.52.77L648,245.8a3.24,3.24,0,0,1-1.52-2.52C646.46,242.37,647.14,242,648,242.51Z" transform="translate(-49.03 -34.59)"/><path class="cls-17" d="M648,242.51l4.11,2.38a3.26,3.26,0,0,1,1.52,2.52c0,.91-.68,1.26-1.52.77L648,245.8a3.24,3.24,0,0,1-1.52-2.52C646.46,242.37,647.14,242,648,242.51Z" transform="translate(-49.03 -34.59)"/><path class="cls-5" d="M659.24,249l25.11,14.5a3.28,3.28,0,0,1,1.52,2.53c0,.9-.68,1.25-1.52.76l-25.11-14.5a3.24,3.24,0,0,1-1.52-2.52C657.72,248.88,658.4,248.54,659.24,249Z" transform="translate(-49.03 -34.59)"/><path class="cls-19" d="M659.24,249l25.11,14.5a3.28,3.28,0,0,1,1.52,2.53c0,.9-.68,1.25-1.52.76l-25.11-14.5a3.24,3.24,0,0,1-1.52-2.52C657.72,248.88,658.4,248.54,659.24,249Z" transform="translate(-49.03 -34.59)"/><path class="cls-5" d="M653.76,254.34l4.11,2.37a3.28,3.28,0,0,1,1.52,2.53c0,.9-.68,1.25-1.52.76l-4.11-2.37a3.28,3.28,0,0,1-1.52-2.53C652.24,254.2,652.92,253.85,653.76,254.34Z" transform="translate(-49.03 -34.59)"/><path class="cls-17" d="M653.76,254.34l4.11,2.37a3.28,3.28,0,0,1,1.52,2.53c0,.9-.68,1.25-1.52.76l-4.11-2.37a3.28,3.28,0,0,1-1.52-2.53C652.24,254.2,652.92,253.85,653.76,254.34Z" transform="translate(-49.03 -34.59)"/><path class="cls-5" d="M653.76,262.76l4.11,2.38a3.24,3.24,0,0,1,1.52,2.52c0,.91-.68,1.25-1.52.77l-4.11-2.38a3.24,3.24,0,0,1-1.52-2.52C652.24,262.62,652.92,262.28,653.76,262.76Z" transform="translate(-49.03 -34.59)"/><path class="cls-17" d="M653.76,262.76l4.11,2.38a3.24,3.24,0,0,1,1.52,2.52c0,.91-.68,1.25-1.52.77l-4.11-2.38a3.24,3.24,0,0,1-1.52-2.52C652.24,262.62,652.92,262.28,653.76,262.76Z" transform="translate(-49.03 -34.59)"/><path class="cls-5" d="M665,260.84,684.35,272a3.27,3.27,0,0,1,1.52,2.52c0,.91-.68,1.26-1.52.77L665,264.13a3.26,3.26,0,0,1-1.52-2.52C663.5,260.7,664.18,260.36,665,260.84Z" transform="translate(-49.03 -34.59)"/><path class="cls-19" d="M665,260.84,684.35,272a3.27,3.27,0,0,1,1.52,2.52c0,.91-.68,1.26-1.52.77L665,264.13a3.26,3.26,0,0,1-1.52-2.52C663.5,260.7,664.18,260.36,665,260.84Z" transform="translate(-49.03 -34.59)"/><path class="cls-5" d="M665,269.29l19.33,11.18a3.24,3.24,0,0,1,1.52,2.52c0,.91-.68,1.25-1.52.77L665,272.58a3.28,3.28,0,0,1-1.52-2.53C663.5,269.15,664.18,268.8,665,269.29Z" transform="translate(-49.03 -34.59)"/><path class="cls-19" d="M665,269.29l19.33,11.18a3.24,3.24,0,0,1,1.52,2.52c0,.91-.68,1.25-1.52.77L665,272.58a3.28,3.28,0,0,1-1.52-2.53C663.5,269.15,664.18,268.8,665,269.29Z" transform="translate(-49.03 -34.59)"/><path class="cls-5" d="M653.76,228.8l4.11,2.38a3.27,3.27,0,0,1,1.52,2.52c0,.91-.68,1.26-1.52.77l-4.11-2.38a3.24,3.24,0,0,1-1.52-2.52C652.24,228.66,652.92,228.32,653.76,228.8Z" transform="translate(-49.03 -34.59)"/><path class="cls-17" d="M653.76,228.8l4.11,2.38a3.27,3.27,0,0,1,1.52,2.52c0,.91-.68,1.26-1.52.77l-4.11-2.38a3.24,3.24,0,0,1-1.52-2.52C652.24,228.66,652.92,228.32,653.76,228.8Z" transform="translate(-49.03 -34.59)"/><path class="cls-5" d="M648,234l4.11,2.38a3.24,3.24,0,0,1,1.52,2.52c0,.91-.68,1.25-1.52.77L648,237.24a3.26,3.26,0,0,1-1.52-2.52C646.46,233.81,647.14,233.47,648,234Z" transform="translate(-49.03 -34.59)"/><path class="cls-17" d="M648,234l4.11,2.38a3.24,3.24,0,0,1,1.52,2.52c0,.91-.68,1.25-1.52.77L648,237.24a3.26,3.26,0,0,1-1.52-2.52C646.46,233.81,647.14,233.47,648,234Z" transform="translate(-49.03 -34.59)"/><path class="cls-5" d="M665,235.33l19.33,11.18a3.27,3.27,0,0,1,1.52,2.52c0,.91-.68,1.26-1.52.77L665,238.62a3.26,3.26,0,0,1-1.52-2.52C663.5,235.19,664.18,234.85,665,235.33Z" transform="translate(-49.03 -34.59)"/><path class="cls-19" d="M665,235.33l19.33,11.18a3.27,3.27,0,0,1,1.52,2.52c0,.91-.68,1.26-1.52.77L665,238.62a3.26,3.26,0,0,1-1.52-2.52C663.5,235.19,664.18,234.85,665,235.33Z" transform="translate(-49.03 -34.59)"/><path class="cls-5" d="M659.24,240.46,684.35,255a3.24,3.24,0,0,1,1.52,2.52c0,.91-.68,1.25-1.52.77l-25.11-14.5a3.24,3.24,0,0,1-1.52-2.52C657.72,240.32,658.4,240,659.24,240.46Z" transform="translate(-49.03 -34.59)"/><path class="cls-19" d="M659.24,240.46,684.35,255a3.24,3.24,0,0,1,1.52,2.52c0,.91-.68,1.25-1.52.77l-25.11-14.5a3.24,3.24,0,0,1-1.52-2.52C657.72,240.32,658.4,240,659.24,240.46Z" transform="translate(-49.03 -34.59)"/><path class="cls-5" d="M648,268l4.11,2.38a3.26,3.26,0,0,1,1.52,2.52c0,.91-.68,1.26-1.52.77L648,271.31a3.24,3.24,0,0,1-1.52-2.52C646.46,267.88,647.14,267.54,648,268Z" transform="translate(-49.03 -34.59)"/><path class="cls-17" d="M648,268l4.11,2.38a3.26,3.26,0,0,1,1.52,2.52c0,.91-.68,1.26-1.52.77L648,271.31a3.24,3.24,0,0,1-1.52-2.52C646.46,267.88,647.14,267.54,648,268Z" transform="translate(-49.03 -34.59)"/><path class="cls-5" d="M659.24,274.53,684.35,289a3.28,3.28,0,0,1,1.52,2.53c0,.9-.68,1.25-1.52.76l-25.11-14.5a3.24,3.24,0,0,1-1.52-2.52C657.72,274.39,658.4,274.05,659.24,274.53Z" transform="translate(-49.03 -34.59)"/><path class="cls-19" d="M659.24,274.53,684.35,289a3.28,3.28,0,0,1,1.52,2.53c0,.9-.68,1.25-1.52.76l-25.11-14.5a3.24,3.24,0,0,1-1.52-2.52C657.72,274.39,658.4,274.05,659.24,274.53Z" transform="translate(-49.03 -34.59)"/></g></g><g id="Window-3" data-name="Window"><g class="cls-20"><path class="cls-4" d="M892.36,309.22V476.45a7.68,7.68,0,0,0,3.48,6l96.08,55.44a2.33,2.33,0,0,0,1.15.33,2.12,2.12,0,0,0,.44-.06,1.32,1.32,0,0,0,.3-.1L994,538l.21-.13a1.54,1.54,0,0,0,.19-.17,2.62,2.62,0,0,0,.64-.92,4.27,4.27,0,0,0,.36-1.75V368.6a7.68,7.68,0,0,0-3.47-6l-96.08-55.38a2.56,2.56,0,0,0-2.34-.3l-.29.17,0,0a.77.77,0,0,0-.22.22.69.69,0,0,0-.11.13.67.67,0,0,0-.11.18,1.85,1.85,0,0,0-.21.45,2.17,2.17,0,0,0-.08.3s0,.05,0,.07a1.77,1.77,0,0,0-.05.32C892.38,308.92,892.36,309.07,892.36,309.22Z" transform="translate(-49.03 -34.59)"/></g><path class="cls-5" d="M893.5,306.91a2.56,2.56,0,0,1,2.34.3l96.08,55.38a7.68,7.68,0,0,1,3.47,6V380l5.54-3.2V365.48a7.65,7.65,0,0,0-3.46-6L901.38,304.1a2.44,2.44,0,0,0-2.52-.21C898.23,304.27,894.24,306.52,893.5,306.91Z" transform="translate(-49.03 -34.59)"/><path class="cls-5" d="M892.37,309.19c0-2.19,1.56-3.08,3.47-2l96.08,55.38a7.67,7.67,0,0,1,3.47,6V380l-103-59.37Z" transform="translate(-49.03 -34.59)"/><g class="cls-15"><path class="cls-13" d="M895.84,307.21l96.08,55.38a7.07,7.07,0,0,1,2.44,2.58l5.52-3.16a7.06,7.06,0,0,0-2.42-2.54L901.38,304.1a2.44,2.44,0,0,0-2.52-.21c-.63.38-4.61,2.62-5.34,3A2.49,2.49,0,0,1,895.84,307.21Z" transform="translate(-49.03 -34.59)"/></g><path class="cls-9" d="M1000.94,376.77V365.48a7.19,7.19,0,0,0-1-3.47l-5.53,3.14a7,7,0,0,1,1,3.46V380Z" transform="translate(-49.03 -34.59)"/><path class="cls-4" d="M990.34,367.26a5.2,5.2,0,0,1,2,4.15c0,1.67-.88,2.52-2,1.89a5.17,5.17,0,0,1-2-4.15C988.38,367.48,989.26,366.63,990.34,367.26Z" transform="translate(-49.03 -34.59)"/><path class="cls-4" d="M983.28,363.17a5.2,5.2,0,0,1,2,4.16c0,1.67-.88,2.51-2,1.89a5.17,5.17,0,0,1-2-4.16C981.32,363.39,982.19,362.55,983.28,363.17Z" transform="translate(-49.03 -34.59)"/><path class="cls-4" d="M976.21,359.09a5.14,5.14,0,0,1,2,4.15c0,1.67-.88,2.52-2,1.89a5.2,5.2,0,0,1-2-4.15C974.25,359.31,975.13,358.46,976.21,359.09Z" transform="translate(-49.03 -34.59)"/><g class="cls-21"><path class="cls-3" d="M994.12,537.92c.12-.08.27-.16.43-.25.32-.2.69-.4,1.07-.61h0c.2-.11.39-.23.59-.33l0,0,.91-.53,1.87-1a3.17,3.17,0,0,1,.43-.24,1.93,1.93,0,0,0,.6-.48,2.42,2.42,0,0,0,.46-.71,4.28,4.28,0,0,0,.4-1.83V376.76l-5.54,3.2V535a5,5,0,0,1-.36,1.75,2.62,2.62,0,0,1-.64.92.53.53,0,0,1-.19.17Z" transform="translate(-49.03 -34.59)"/></g><path class="cls-5" d="M900.35,339.78a.53.53,0,0,1,.18-.45l2.49-2.28a.11.11,0,0,1,.12,0l.06,0a.6.6,0,0,1,.19.24.79.79,0,0,1,.09.35v1.74a1.79,1.79,0,0,1-.05.48.87.87,0,0,1-.18.26l-1.32,1.21,1.32,2.73a3.73,3.73,0,0,1,.18.48,2.44,2.44,0,0,1,.05.53v1.74a.34.34,0,0,1-.09.26.15.15,0,0,1-.19,0l-.06-.05a.32.32,0,0,1-.12-.15l-2.49-5.17a1.36,1.36,0,0,1-.18-.65Z" transform="translate(-49.03 -34.59)"/><path class="cls-5" d="M909.48,337.36a.81.81,0,0,1,.19-.29c.09-.07.21-.06.37,0l.94.54a.6.6,0,0,1,.19.24.77.77,0,0,1,.08.35.44.44,0,0,1,0,.16L907,351.7a.79.79,0,0,1-.18.29c-.08.08-.21.07-.38,0l-.9-.52a.5.5,0,0,1-.19-.23.8.8,0,0,1-.09-.36.5.5,0,0,1,0-.16Z" transform="translate(-49.03 -34.59)"/><path class="cls-5" d="M916.11,350.16a.53.53,0,0,1-.18.45l-2.5,2.28s-.08,0-.11,0l-.06,0a.61.61,0,0,1-.2-.24.93.93,0,0,1-.08-.35v-1.74a1.79,1.79,0,0,1,0-.48.64.64,0,0,1,.18-.27l1.31-1.21-1.31-2.73a2,2,0,0,1-.18-.47,2.5,2.5,0,0,1,0-.53v-1.74a.38.38,0,0,1,.08-.26.16.16,0,0,1,.2,0l.06.05a.41.41,0,0,1,.11.15l2.5,5.17a1.36,1.36,0,0,1,.18.65Z" transform="translate(-49.03 -34.59)"/><path class="cls-5" d="M923.05,357a.65.65,0,0,1,.24.29,1,1,0,0,1,.1.43v1.91a.42.42,0,0,1-.1.32.18.18,0,0,1-.24,0l-1.18-.68a.65.65,0,0,1-.24-.29,1,1,0,0,1-.1-.43v-1.91a.4.4,0,0,1,.1-.31.17.17,0,0,1,.24,0Z" transform="translate(-49.03 -34.59)"/><path class="cls-5" d="M927,359.25a.76.76,0,0,1,.24.3,1,1,0,0,1,.1.43v1.91a.4.4,0,0,1-.1.31.18.18,0,0,1-.24,0l-1.18-.68a.69.69,0,0,1-.24-.3.94.94,0,0,1-.1-.43V358.9a.41.41,0,0,1,.1-.31.19.19,0,0,1,.24,0Z" transform="translate(-49.03 -34.59)"/><path class="cls-5" d="M930.93,361.53a.65.65,0,0,1,.24.29,1,1,0,0,1,.1.43v1.91a.42.42,0,0,1-.1.32.18.18,0,0,1-.24,0l-1.18-.68a.65.65,0,0,1-.24-.29,1,1,0,0,1-.1-.43v-1.91a.39.39,0,0,1,.1-.31.17.17,0,0,1,.24,0Z" transform="translate(-49.03 -34.59)"/><path class="cls-5" d="M901.4,354.93l57.73,33.33a2.64,2.64,0,0,1,1.23,2.05c0,.73-.55,1-1.23.62L901.4,357.6a2.64,2.64,0,0,1-1.23-2.05C900.17,354.81,900.72,354.53,901.4,354.93Z" transform="translate(-49.03 -34.59)"/><path class="cls-2" d="M919.92,397.7,977.65,431a2.64,2.64,0,0,1,1.23,2.05c0,.74-.55,1-1.23.62l-57.73-33.33a2.64,2.64,0,0,1-1.23-2C918.69,397.59,919.24,397.31,919.92,397.7Z" transform="translate(-49.03 -34.59)"/><path class="cls-2" d="M919.92,419.09l27.63,16a2.65,2.65,0,0,1,1.23,2.05c0,.74-.55,1-1.23.63l-27.63-16a2.64,2.64,0,0,1-1.23-2.05C918.69,419,919.24,418.69,919.92,419.09Z" transform="translate(-49.03 -34.59)"/><path class="cls-5" d="M963.91,391l23,13.23a2.64,2.64,0,0,1,1.23,2.05c0,.73-.55,1-1.23.62l-23-13.23a2.64,2.64,0,0,1-1.23-2.05C962.68,390.9,963.23,390.62,963.91,391Z" transform="translate(-49.03 -34.59)"/><path class="cls-5" d="M901.4,472.54l57.73,33.33a2.65,2.65,0,0,1,1.23,2.05c0,.74-.55,1-1.23.63L901.4,475.22a2.64,2.64,0,0,1-1.23-2.05C900.17,472.43,900.72,472.15,901.4,472.54Z" transform="translate(-49.03 -34.59)"/><path class="cls-5" d="M963.91,508.63l23,13.23a2.67,2.67,0,0,1,1.23,2c0,.74-.55,1-1.23.63l-23-13.23a2.65,2.65,0,0,1-1.23-2.05C962.68,508.52,963.23,508.24,963.91,508.63Z" transform="translate(-49.03 -34.59)"/><path class="cls-5" d="M963.91,476.61l23,13.23a2.65,2.65,0,0,1,1.23,2.05c0,.74-.55,1-1.23.63l-23-13.23a2.65,2.65,0,0,1-1.23-2.05C962.68,476.5,963.23,476.22,963.91,476.61Z" transform="translate(-49.03 -34.59)"/><path class="cls-5" d="M963.91,487.3l23,13.23a2.65,2.65,0,0,1,1.23,2.05c0,.74-.55,1-1.23.63l-23-13.23a2.65,2.65,0,0,1-1.23-2.05C962.68,487.19,963.23,486.91,963.91,487.3Z" transform="translate(-49.03 -34.59)"/><path class="cls-5" d="M944.3,465.26l12.92,7.46a2.64,2.64,0,0,1,1.23,2c0,.74-.55,1-1.23.62l-12.92-7.46a2.65,2.65,0,0,1-1.24-2.05C943.06,465.14,943.62,464.86,944.3,465.26Z" transform="translate(-49.03 -34.59)"/><path class="cls-5" d="M901.4,365.65l33.67,19.42a2.64,2.64,0,0,1,1.23,2.05c0,.74-.55,1-1.23.63L901.4,368.32a2.64,2.64,0,0,1-1.23-2.05C900.17,365.53,900.72,365.25,901.4,365.65Z" transform="translate(-49.03 -34.59)"/><path class="cls-17" d="M901.4,365.65l33.67,19.42a2.64,2.64,0,0,1,1.23,2.05c0,.74-.55,1-1.23.63L901.4,368.32a2.64,2.64,0,0,1-1.23-2.05C900.17,365.53,900.72,365.25,901.4,365.65Z" transform="translate(-49.03 -34.59)"/><path class="cls-5" d="M901.4,376.32l11.42,6.59a2.65,2.65,0,0,1,1.24,2c0,.73-.56,1-1.24.62L901.4,379a2.64,2.64,0,0,1-1.23-2.05C900.17,376.21,900.72,375.93,901.4,376.32Z" transform="translate(-49.03 -34.59)"/><path class="cls-17" d="M901.4,376.32l11.42,6.59a2.65,2.65,0,0,1,1.24,2c0,.73-.56,1-1.24.62L901.4,379a2.64,2.64,0,0,1-1.23-2.05C900.17,376.21,900.72,375.93,901.4,376.32Z" transform="translate(-49.03 -34.59)"/><path class="cls-5" d="M901.4,387l11.42,6.59a2.65,2.65,0,0,1,1.24,2c0,.74-.56,1-1.24.62l-11.42-6.58a2.67,2.67,0,0,1-1.23-2.05C900.17,386.9,900.72,386.62,901.4,387Z" transform="translate(-49.03 -34.59)"/><path class="cls-17" d="M901.4,387l11.42,6.59a2.65,2.65,0,0,1,1.24,2c0,.74-.56,1-1.24.62l-11.42-6.58a2.67,2.67,0,0,1-1.23-2.05C900.17,386.9,900.72,386.62,901.4,387Z" transform="translate(-49.03 -34.59)"/><path class="cls-5" d="M901.4,397.7l11.42,6.59a2.67,2.67,0,0,1,1.24,2c0,.74-.56,1-1.24.63l-11.42-6.59a2.64,2.64,0,0,1-1.23-2.05C900.17,397.59,900.72,397.31,901.4,397.7Z" transform="translate(-49.03 -34.59)"/><path class="cls-17" d="M901.4,397.7l11.42,6.59a2.65,2.65,0,0,1,1.24,2c0,.74-.56,1-1.24.62l-11.42-6.59a2.64,2.64,0,0,1-1.23-2C900.17,397.59,900.72,397.31,901.4,397.7Z" transform="translate(-49.03 -34.59)"/><path class="cls-22" d="M919.92,408.39l33.67,19.43a2.65,2.65,0,0,1,1.24,2.05c0,.74-.56,1-1.24.62l-33.67-19.42a2.65,2.65,0,0,1-1.23-2.05C918.69,408.28,919.24,408,919.92,408.39Z" transform="translate(-49.03 -34.59)"/><path class="cls-22" d="M958.37,430.58,973,439.06a2.65,2.65,0,0,1,1.23,2.05c0,.74-.55,1-1.23.63l-14.64-8.48a2.66,2.66,0,0,1-1.24-2.05C957.14,430.47,957.69,430.19,958.37,430.58Z" transform="translate(-49.03 -34.59)"/><path class="cls-17" d="M919.92,408.39l33.67,19.43a2.65,2.65,0,0,1,1.24,2.05c0,.74-.56,1-1.24.62l-33.67-19.42a2.65,2.65,0,0,1-1.23-2.05C918.69,408.28,919.24,408,919.92,408.39Z" transform="translate(-49.03 -34.59)"/><path class="cls-17" d="M958.37,430.58,973,439.06a2.65,2.65,0,0,1,1.23,2.05c0,.74-.55,1-1.23.63l-14.64-8.48a2.66,2.66,0,0,1-1.24-2.05C957.14,430.47,957.69,430.19,958.37,430.58Z" transform="translate(-49.03 -34.59)"/><path class="cls-5" d="M901.4,408.4,912.82,415a2.65,2.65,0,0,1,1.24,2c0,.74-.56,1-1.24.63l-11.42-6.59a2.64,2.64,0,0,1-1.23-2.05C900.17,408.28,900.72,408,901.4,408.4Z" transform="translate(-49.03 -34.59)"/><path class="cls-17" d="M901.4,408.4,912.82,415a2.65,2.65,0,0,1,1.24,2c0,.74-.56,1-1.24.63l-11.42-6.59a2.64,2.64,0,0,1-1.23-2.05C900.17,408.28,900.72,408,901.4,408.4Z" transform="translate(-49.03 -34.59)"/><path class="cls-5" d="M939.85,387.83l14.65,8.48a2.65,2.65,0,0,1,1.23,2.05c0,.74-.55,1-1.23.63l-14.65-8.48a2.67,2.67,0,0,1-1.23-2.05C938.62,387.72,939.17,387.44,939.85,387.83Z" transform="translate(-49.03 -34.59)"/><path class="cls-17" d="M939.85,387.83l14.65,8.48a2.65,2.65,0,0,1,1.23,2.05c0,.74-.55,1-1.23.63l-14.65-8.48a2.67,2.67,0,0,1-1.23-2.05C938.62,387.72,939.17,387.44,939.85,387.83Z" transform="translate(-49.03 -34.59)"/><path class="cls-13" d="M933.81,437.79l33.67,19.42a2.64,2.64,0,0,1,1.24,2.05c0,.74-.55,1-1.24.63l-33.67-19.43a2.64,2.64,0,0,1-1.23-2C932.58,437.67,933.13,437.39,933.81,437.79Z" transform="translate(-49.03 -34.59)"/><path class="cls-13" d="M953.24,459.74l33.67,19.42a2.65,2.65,0,0,1,1.23,2c0,.74-.55,1-1.23.63l-33.67-19.43a2.65,2.65,0,0,1-1.24-2.05C952,459.62,952.56,459.34,953.24,459.74Z" transform="translate(-49.03 -34.59)"/><path class="cls-13" d="M972.27,460l14.64,8.48a2.65,2.65,0,0,1,1.23,2.05c0,.74-.55,1-1.23.63l-14.64-8.48a2.67,2.67,0,0,1-1.24-2C971,459.86,971.59,459.58,972.27,460Z" transform="translate(-49.03 -34.59)"/><path class="cls-2" d="M972.27,502.33l14.64,8.48a2.64,2.64,0,0,1,1.23,2.05c0,.73-.55,1-1.23.62L972.27,505A2.65,2.65,0,0,1,971,503C971,502.21,971.59,501.93,972.27,502.33Z" transform="translate(-49.03 -34.59)"/><path class="cls-5" d="M919.92,387l33.67,19.43a2.65,2.65,0,0,1,1.24,2.05c0,.74-.56,1-1.24.62l-33.67-19.42a2.67,2.67,0,0,1-1.23-2.05C918.69,386.9,919.24,386.62,919.92,387Z" transform="translate(-49.03 -34.59)"/><path class="cls-17" d="M919.92,387l33.67,19.43a2.65,2.65,0,0,1,1.24,2.05c0,.74-.56,1-1.24.62l-33.67-19.42a2.67,2.67,0,0,1-1.23-2.05C918.69,386.9,919.24,386.62,919.92,387Z" transform="translate(-49.03 -34.59)"/><path class="cls-5" d="M958.37,409.2,973,417.68a2.64,2.64,0,0,1,1.23,2.05c0,.74-.55,1-1.23.62l-14.64-8.48a2.62,2.62,0,0,1-1.24-2.05C957.14,409.09,957.69,408.81,958.37,409.2Z" transform="translate(-49.03 -34.59)"/><path class="cls-17" d="M958.37,409.2,973,417.68a2.64,2.64,0,0,1,1.23,2.05c0,.74-.55,1-1.23.62l-14.64-8.48a2.62,2.62,0,0,1-1.24-2.05C957.14,409.09,957.69,408.81,958.37,409.2Z" transform="translate(-49.03 -34.59)"/></g><g id="Mouse"><path class="cls-9" d="M728.87,531.71l20.63,11.91c6.51,3.75,16.7,3.22,22.78-1.2l34-24.86c6.08-4.41,5.73-11-.77-14.81l-10.34-6c-6.5-3.77-17.21-4.09-23.93-.72l-42,22.78C722.53,522.18,722.36,528,728.87,531.71Z" transform="translate(-49.03 -34.59)"/><path class="cls-3" d="M806.88,506.76l-23.55,18.42L766,538.78a15.48,15.48,0,0,1-5.55,1.33,15.17,15.17,0,0,1-8.24-1.74l-18.47-10.66s0,0,0,0l-.11-.06c-6.48-3.77-8-12.53-3.73-18.69l.54-.75a24.59,24.59,0,0,1,14.85-9.41l9.36-1.88c15.15-3.07,27.58-4.57,29-3.59l23.14,13.41A.26.26,0,0,1,806.88,506.76Z" transform="translate(-49.03 -34.59)"/><path class="cls-5" d="M793.71,517.06l1.33-1-20.77-12,18.17-5.63-1.84-1.06L772.43,503,760,495.82l-2.34.45Z" transform="translate(-49.03 -34.59)"/><path class="cls-10" d="M768,537.66l.11-.08s0,0,0,0l16.54-11.94L807,509.48V507a.22.22,0,0,0-.11-.19.26.26,0,0,0-.14-.05c-1.65-.57-11.34,2.34-23,7L776,516.77a24.17,24.17,0,0,0-6.61,3.92,24.63,24.63,0,0,0-9,19v.41a15.48,15.48,0,0,0,5.55-1.33Z" transform="translate(-49.03 -34.59)"/></g></g><g id="Pot"><path class="cls-5" d="M809,868.05c-22.72-23.45-36.07-118.87-13.91-137.47H907.84C930,749.17,916.66,844.56,894,868c-.19.22-.42.43-.62.65l-.78.77c-.65.63-1.33,1.25-2.06,1.85l-.54.43c-.56.44-1.11.89-1.72,1.31a31.69,31.69,0,0,1-2.93,1.9c-18.7,10.91-49,10.91-67.69,0h0a32.08,32.08,0,0,1-3-1.91c-.57-.4-1.08-.81-1.6-1.22-.22-.18-.45-.35-.67-.54-.71-.58-1.36-1.17-2-1.78-.31-.29-.61-.59-.91-.89S809.13,868.23,809,868.05Z" transform="translate(-49.03 -34.59)"/><g class="cls-15"><path class="cls-13" d="M809,868.05c-22.72-23.45-36.07-118.87-13.91-137.47H907.84C930,749.17,916.66,844.56,894,868c-.19.22-.42.43-.62.65l-.78.77c-.65.63-1.33,1.25-2.06,1.85l-.54.43c-.56.44-1.11.89-1.72,1.31a31.69,31.69,0,0,1-2.93,1.9c-18.7,10.91-49,10.91-67.69,0h0a32.08,32.08,0,0,1-3-1.91c-.57-.4-1.08-.81-1.6-1.22-.22-.18-.45-.35-.67-.54-.71-.58-1.36-1.17-2-1.78-.31-.29-.61-.59-.91-.89S809.13,868.23,809,868.05Z" transform="translate(-49.03 -34.59)"/></g><path class="cls-5" d="M898,723.09c25.73,15,25.73,39.38,0,54.4s-67.45,15-93.18,0-25.73-39.38,0-54.4S872.31,708.06,898,723.09Z" transform="translate(-49.03 -34.59)"/><g class="cls-23"><path class="cls-13" d="M898,723.09c25.73,15,25.73,39.38,0,54.4s-67.45,15-93.18,0-25.73-39.38,0-54.4S872.31,708.06,898,723.09Z" transform="translate(-49.03 -34.59)"/></g><path class="cls-5" d="M885.67,730.31c18.89,11,18.89,28.92,0,40s-49.54,11-68.43,0-18.9-28.92,0-40S866.77,719.28,885.67,730.31Z" transform="translate(-49.03 -34.59)"/><g class="cls-24"><path d="M885.67,730.31c18.89,11,18.89,28.92,0,40s-49.54,11-68.43,0-18.9-28.92,0-40S866.77,719.28,885.67,730.31Z" transform="translate(-49.03 -34.59)"/></g><path class="cls-1" d="M817.24,749.27c18.89-11,49.53-11,68.43,0A31.5,31.5,0,0,1,897,759.77a31.5,31.5,0,0,1-11.31,10.5c-18.9,11-49.54,11-68.43,0a31.54,31.54,0,0,1-11.32-10.5A31.54,31.54,0,0,1,817.24,749.27Z" transform="translate(-49.03 -34.59)"/><g id="Plants"><path class="cls-5" d="M842.21,701.12a31.21,31.21,0,0,1-2.87-8.23c-1.27-6.87.45-14.74,6-19,2.21-1.68,5.09-2.93,6-5.55a9,9,0,0,0,.06-4.54c-1-5.86-3-11.9-1.39-17.63,1.51-5.3,6-9.36,10.94-11.72s10.5-3.27,15.94-4.16c2.9-.48,5.86-1,8.42-2.42,3.15-1.76,4.13-4.88,6.1-7.61a52.57,52.57,0,0,1,7.73-8.26c5.74-5.13,12.93-9.35,20.88-9,16.59.73,16.12,15,11.33,25.83s-6,14.34,4.31,25.61,10.39,25.17-2,32.95-20.41,8.81-15.52,23.79c4.37,13.37,7.08,24.79-5.28,39.08-8,9.24-18.91,15.83-32.58,15.27-3.87-.16-12.38-1.94-16-3.73-3.77-1.87-1.23-4.79-2.5-8.5l-8.19-23.92c-2.12-6.17-3.73-13-6.52-18.87C845.61,707.26,843.76,704.27,842.21,701.12Z" transform="translate(-49.03 -34.59)"/><g class="cls-25"><path d="M842.21,701.12a31.21,31.21,0,0,1-2.87-8.23c-1.27-6.87.45-14.74,6-19,2.21-1.68,5.09-2.93,6-5.55a9,9,0,0,0,.06-4.54c-1-5.86-3-11.9-1.39-17.63,1.51-5.3,6-9.36,10.94-11.72s10.5-3.27,15.94-4.16c2.9-.48,5.86-1,8.42-2.42,3.15-1.76,4.13-4.88,6.1-7.61a52.57,52.57,0,0,1,7.73-8.26c5.74-5.13,12.93-9.35,20.88-9,16.59.73,16.12,15,11.33,25.83s-6,14.34,4.31,25.61,10.39,25.17-2,32.95-20.41,8.81-15.52,23.79c4.37,13.37,7.08,24.79-5.28,39.08-8,9.24-18.91,15.83-32.58,15.27-3.87-.16-12.38-1.94-16-3.73-3.77-1.87-1.23-4.79-2.5-8.5l-8.19-23.92c-2.12-6.17-3.73-13-6.52-18.87C845.61,707.26,843.76,704.27,842.21,701.12Z" transform="translate(-49.03 -34.59)"/></g><path class="cls-13" d="M864.77,761.77a1.25,1.25,0,0,0,.82-1.18c-.71-81.93,44.45-130.85,44.91-131.33a1.24,1.24,0,0,0,0-1.74,1.2,1.2,0,0,0-1.72,0c-.47.49-46.3,50.07-45.59,133.05a1.23,1.23,0,0,0,1.24,1.22A1.32,1.32,0,0,0,864.77,761.77Z" transform="translate(-49.03 -34.59)"/><path class="cls-13" d="M877.91,685.56a1.42,1.42,0,0,0,.25-.12c14.69-9.25,40.91-16.15,41.17-16.22a1.23,1.23,0,0,0-.61-2.39c-1.09.28-26.85,7.07-41.86,16.51a1.25,1.25,0,0,0-.39,1.7A1.23,1.23,0,0,0,877.91,685.56Z" transform="translate(-49.03 -34.59)"/><path class="cls-13" d="M882.45,674.32l.06,0a1.25,1.25,0,0,0,.67-1.61,94.93,94.93,0,0,0-13.56-22.8,1.2,1.2,0,0,0-1.72-.14,1.25,1.25,0,0,0-.14,1.74,93.92,93.92,0,0,1,13.16,22.13A1.21,1.21,0,0,0,882.45,674.32Z" transform="translate(-49.03 -34.59)"/><path class="cls-5" d="M853.25,770.64s-15.33,5.8-36,1.33S784,748.23,784,748.23s22.32-8.94,35.34-9.81c0,0-20.2-3.45-39.1.84,0,0-12-4.45-9.69-24.63,0,0,11.25-8.29,37.13-5,0,0-13-9.26-35.71-12-1.78,0,.64-26.27,2.8-38s6.47-9.91,15.77-8.9,36.8,7.27,40.29,14,.1,23.94.1,23.94a39.29,39.29,0,0,0,7.59-22.5s10.35,3.78,15.88,8.67,8.3,8.83,9.9,12.39c-1.29,9.22-5.63,23.29-11.71,31.15,0,0,13.71-8.85,16.84-25.16,0,0,11,14,10.86,32.09C880.18,745.94,871,761.25,853.25,770.64Z" transform="translate(-49.03 -34.59)"/><path class="cls-26" d="M853.25,770.64s-15.33,5.8-36,1.33S784,748.23,784,748.23s22.32-8.94,35.34-9.81c0,0-20.2-3.45-39.1.84,0,0-12-4.45-9.69-24.63,0,0,11.25-8.29,37.13-5,0,0-13-9.26-35.71-12-1.78,0,.64-26.27,2.8-38s6.47-9.91,15.77-8.9,36.8,7.27,40.29,14,.1,23.94.1,23.94a39.29,39.29,0,0,0,7.59-22.5s10.35,3.78,15.88,8.67,8.3,8.83,9.9,12.39c-1.29,9.22-5.63,23.29-11.71,31.15,0,0,13.71-8.85,16.84-25.16,0,0,11,14,10.86,32.09C880.18,745.94,871,761.25,853.25,770.64Z" transform="translate(-49.03 -34.59)"/><path class="cls-13" d="M856,768.81a1.18,1.18,0,0,1-.75-1c-3.12-39.1-46.86-100.18-66.2-112.44a1.2,1.2,0,0,1-.37-1.64,1.18,1.18,0,0,1,1.62-.37c19.65,12.47,64.12,74.53,67.29,114.26a1.18,1.18,0,0,1-1.07,1.27A1.12,1.12,0,0,1,856,768.81Z" transform="translate(-49.03 -34.59)"/></g></g><g id="Character"><path class="cls-27" d="M460.37,744.36c-.08-.43-7-25.82-7-25.82s2.29,2.34,17-1.54c7.46-2,16-6.7,16-6.7l4.19,18.56c3.91,7.15,16.87,3.86,31.07,2.24,2.38-.27,4.84-.67,7.29-1.09l.15,0c7.66-.42,15.36,4.18,7.39,10.72s-21.12,9-33.24,11.2C488.54,754.55,463,758.83,460.37,744.36Z" transform="translate(-49.03 -34.59)"/><path class="cls-10" d="M562.29,742.12a14.8,14.8,0,0,1,1.06,7.79c-.28,2.83-7.27,12.43-19.62,18.3s-27.63,6.26-34.79,8.32-13.7,6.17-22.13,8.22c-8.69,2.12-16.76,3.14-25.21-2.42-1.56-2.4-3.28-7.94-2.78-8.48C460.16,772.39,562.29,742.12,562.29,742.12Z" transform="translate(-49.03 -34.59)"/><path class="cls-5" d="M492.69,731.33c5.43,3.76,16.68,1.15,28.84-.23,11.45-1.31,24.36-5.33,32.15-2.63s14.3,11.87,3.77,23.63c-3,3.4-9.49,9.38-14.64,11.22-13.08,4.69-24.83,5.07-33.25,7.15-10.95,2.7-16.93,7.55-27.07,8.73-13.11,1.52-21.4-1.85-23.67-5.35s-4.38-31.73,1.25-31.15c0,0,2.36,9.14,23.78.27C493.2,739.09,493.05,733.39,492.69,731.33Z" transform="translate(-49.03 -34.59)"/><path class="cls-8" d="M492.69,731.33c5.43,3.76,16.68,1.15,28.84-.23,11.45-1.31,24.36-5.33,32.15-2.63s14.3,11.87,3.77,23.63c-3,3.4-9.49,9.38-14.64,11.22-13.08,4.69-24.83,5.07-33.25,7.15-10.95,2.7-16.93,7.55-27.07,8.73-13.11,1.52-21.4-1.85-23.67-5.35s-4.38-31.73,1.25-31.15c0,0,2.36,9.14,23.78.27C493.2,739.09,493.05,733.39,492.69,731.33Z" transform="translate(-49.03 -34.59)"/><path class="cls-28" d="M529,746.48s-1.23-11.92-10-15.07c0,0-2.83-1.31-4.85.63,0,0,8.18,1.19,10.85,15.17,0,0,.43.93,2.21.6C527.8,747.71,529.12,747.47,529,746.48Z" transform="translate(-49.03 -34.59)"/><path class="cls-28" d="M506.63,733s0-.39,2.07-.78a3.69,3.69,0,0,1,2.41.26s6.57,2.85,7.8,15.31c0,0,0,1.5-2,1.92a1.82,1.82,0,0,1-2.35-1.23S513.19,735.34,506.63,733Z" transform="translate(-49.03 -34.59)"/><path class="cls-28" d="M499.58,733.23s.37-.75,1.91-.74c1.95,0,2.4.76,2.4.76s4.68,4.8,4.73,15.21c0,0,.2,1.76-2.26,1.94s-2.1-1.81-2.1-1.81S503.42,735.32,499.58,733.23Z" transform="translate(-49.03 -34.59)"/><path class="cls-3" d="M451.3,571.76C462,604,490.5,715.08,490.5,715.08s-18.53,16.65-38.63,9.06L404,585.83Z" transform="translate(-49.03 -34.59)"/><path class="cls-27" d="M534,780.22c-2.19-3.26-10.42-25.85-10.42-25.85s8.59,4.91,23.36,1.4c7.52-1.78,14.54-9.94,14.54-9.94l6.3,21.72c3.74,7.23,15.79,4.84,30,3.57,2.4-.21,4.86-.55,7.32-.91l.15,0c7.67-.23,15.25,4.56,7.12,10.9s-21.33,8.5-33.5,10.39C564.3,793.75,542.25,792.41,534,780.22Z" transform="translate(-49.03 -34.59)"/><path class="cls-10" d="M644.45,779.54a16,16,0,0,1,.93,8.4c-.37,3-8.13,13.14-21.55,19.12s-29.83,6-37.56,8-14.88,6.26-24,8.24c-9.38,2-18.08,2.93-27-3.26-1.61-2.62-3.31-8.62-2.76-9.18C534,809.35,644.45,779.54,644.45,779.54Z" transform="translate(-49.03 -34.59)"/><path class="cls-5" d="M570.15,765.92a24.45,24.45,0,0,0,2.69,1.67,8.14,8.14,0,0,0,3,.61,44,44,0,0,0,7.17.18c6-.3,12-1.21,18-1.74,12.34-1.1,26.3-5.08,34.59-2s15.86,13.09,4.25,25.43c-3.36,3.57-10.27,9.59-15.56,11.8-13.77,5.76-28.06,4.69-37.16,6.7-11.83,2.61-18.38,7.66-29.29,8.65-14.12,1.29-22.93-2.54-25.27-6.36-1.31-2.13.14-13.2-1.63-21.8-1.52-7.4-1.12-12.44,1.54-12.1a13.29,13.29,0,0,0,2.06,2.62,9.88,9.88,0,0,0,3.13,2.47,24.67,24.67,0,0,0,5.3,1.78,30.53,30.53,0,0,0,9.83,1.35,4.75,4.75,0,0,0,2.67-.84A5.58,5.58,0,0,0,557,781l.69-3.27a4.79,4.79,0,0,1,.6-1.7,4.55,4.55,0,0,1,1.67-1.33c2-1.11,4.13-2.2,5.38-4.1a12.7,12.7,0,0,0,1.58-5.07,1.28,1.28,0,0,1,.35-.83c.4-.32,1-.05,1.42.23S569.66,765.59,570.15,765.92Z" transform="translate(-49.03 -34.59)"/><path class="cls-8" d="M570.15,765.92a24.45,24.45,0,0,0,2.69,1.67,8.14,8.14,0,0,0,3,.61,44,44,0,0,0,7.17.18c6-.3,12-1.21,18-1.74,12.34-1.1,26.3-5.08,34.59-2s15.86,13.09,4.25,25.43c-3.36,3.57-10.27,9.59-15.56,11.8-13.77,5.76-28.06,4.69-37.16,6.7-11.83,2.61-18.38,7.66-29.29,8.65-14.12,1.29-22.93-2.54-25.27-6.36-1.31-2.13.14-13.2-1.63-21.8-1.52-7.4-1.12-12.44,1.54-12.1a13.29,13.29,0,0,0,2.06,2.62,9.88,9.88,0,0,0,3.13,2.47,24.67,24.67,0,0,0,5.3,1.78,30.53,30.53,0,0,0,9.83,1.35,4.75,4.75,0,0,0,2.67-.84A5.58,5.58,0,0,0,557,781l.69-3.27a4.79,4.79,0,0,1,.6-1.7,4.55,4.55,0,0,1,1.67-1.33c2-1.11,4.13-2.2,5.38-4.1a12.7,12.7,0,0,0,1.58-5.07,1.28,1.28,0,0,1,.35-.83c.4-.32,1-.05,1.42.23S569.66,765.59,570.15,765.92Z" transform="translate(-49.03 -34.59)"/><path class="cls-28" d="M608.63,783.35s-1-12.83-10.38-16.45c0,0-3-1.47-5.23.56,0,0,8.75,1.49,11.25,16.57,0,0,.43,1,2.35.7C607.27,784.63,608.69,784.41,608.63,783.35Z" transform="translate(-49.03 -34.59)"/><path class="cls-28" d="M584.93,768.26s0-.43,2.24-.79a4,4,0,0,1,2.59.35s7,3.22,8,16.63a2.39,2.39,0,0,1-2.22,2,1.94,1.94,0,0,1-2.49-1.37S591.91,771,584.93,768.26Z" transform="translate(-49.03 -34.59)"/><path class="cls-28" d="M577.36,768.35s.41-.8,2.07-.75c2.09.06,2.56.88,2.56.88s4.89,5.27,4.67,16.45c0,0,.17,1.9-2.47,2s-2.21-2-2.21-2S581.42,770.69,577.36,768.35Z" transform="translate(-49.03 -34.59)"/><path class="cls-4" d="M526.82,609.84c8.45,26,30,100,39.89,138,0,0-17.71,15.93-40.5,14.54L471.27,620l21.88-13.54Z" transform="translate(-49.03 -34.59)"/><path class="cls-4" d="M345.93,965.52A3.57,3.57,0,0,0,349.5,962v-229a3.57,3.57,0,0,0-7.13,0V962A3.56,3.56,0,0,0,345.93,965.52Z" transform="translate(-49.03 -34.59)"/><path class="cls-4" d="M204.24,882.16a3.55,3.55,0,0,0,3.31-2.26l70.23-177.74a3.56,3.56,0,0,0-6.63-2.62L200.93,877.29a3.56,3.56,0,0,0,3.31,4.87Z" transform="translate(-49.03 -34.59)"/><path class="cls-4" d="M212.68,860.81a3.53,3.53,0,0,0,2.58-1.12L345.94,721.42,476.37,859.11a3.56,3.56,0,0,0,5.17-4.9l-133-140.43a3.56,3.56,0,0,0-2.59-1.11h0a3.51,3.51,0,0,0-2.58,1.12l-133.26,141a3.56,3.56,0,0,0,2.59,6Z" transform="translate(-49.03 -34.59)"/><path class="cls-4" d="M487.62,882.16a3.56,3.56,0,0,0,3.31-4.87L420.71,699.54a3.56,3.56,0,1,0-6.62,2.62L484.31,879.9A3.55,3.55,0,0,0,487.62,882.16Z" transform="translate(-49.03 -34.59)"/><path class="cls-5" d="M489.34,654.4c2.56-14.36-9.15-25.57-31.16-40.43s-50.17-29.59-63.8-35.85c-18.42-8.45-37.26-7.67-60.85,4.44-32.76,16.84-131.35,76.63-131.35,76.63s147.4,83.22,175.76,79.49,99.25-49.83,104.87-66.06S489.34,654.4,489.34,654.4Z" transform="translate(-49.03 -34.59)"/><g class="cls-29"><path d="M489.34,654.4c2.56-14.36-9.15-25.57-31.16-40.43s-50.17-29.59-63.8-35.85c-18.42-8.45-37.26-7.67-60.85,4.44-32.76,16.84-131.35,76.63-131.35,76.63s147.4,83.22,175.76,79.49,99.25-49.83,104.87-66.06S489.34,654.4,489.34,654.4Z" transform="translate(-49.03 -34.59)"/></g><path class="cls-5" d="M363.7,721.17c21.16,19.16,43.28,2.67,78.28-20,39.6-25.7,47.36-46.73,47.36-46.73s0,15.76-2.95,23.14S477,693.3,448.47,713,399.23,742.54,380,746.2l-15.15-2.09" transform="translate(-49.03 -34.59)"/><path class="cls-7" d="M442,701.13c39.6-25.7,47.36-46.73,47.36-46.73s0,15.76-2.95,23.14S477,693.3,448.47,713,399.23,742.54,380,746.2l-15.15-2.1-1.18-22.93C384.86,740.33,407,723.84,442,701.13Z" transform="translate(-49.03 -34.59)"/><path class="cls-5" d="M209.76,854.26l-10.84,25a2.34,2.34,0,0,0-.12.64,2.36,2.36,0,0,0,0,.46,3,3,0,0,0,1.37,1.68,6.49,6.49,0,0,0,5.88.28,2.63,2.63,0,0,0,1.2-1.15s0,0,0,0l.09-.35,10.07-23.45Z" transform="translate(-49.03 -34.59)"/><path class="cls-5" d="M482.78,855.32l9.29,24.5a2.72,2.72,0,0,1,.08.63,3.23,3.23,0,0,1,0,.44,2.93,2.93,0,0,1-1.4,1.55,6.25,6.25,0,0,1-5.65,0,2.51,2.51,0,0,1-1.1-1.16.06.06,0,0,0,0,0l-.07-.33-8.61-23Z" transform="translate(-49.03 -34.59)"/><path class="cls-5" d="M341.83,944.22v20.27a2.05,2.05,0,0,0,1.2,1.68,6.46,6.46,0,0,0,5.81,0,2.05,2.05,0,0,0,1.2-1.68V944.22A8.71,8.71,0,0,0,341.83,944.22Z" transform="translate(-49.03 -34.59)"/><path class="cls-3" d="M261.21,568.53c8.4,9.78,84.8-12.2,105-15,32.65-4.45,59.22-7.69,70.3-4.21s15.78,9.13,19.18,22.4c4,15.65,6.08,23.62,6.08,23.62s-54.24,20.82-97,25.83S261.21,568.53,261.21,568.53Z" transform="translate(-49.03 -34.59)"/><path class="cls-4" d="M247,582.87c-8.47,32.26-16.08,69.8,3.52,90.35C263.68,687.06,330,723,372.77,708.84c42.15-14,129.41-78.73,138.17-85.26s16.72-11,15.88-13.74c-11.77-39.07-29-42.12-60.86-35.1-39,8.58-124.63,43.52-124.63,43.52Z" transform="translate(-49.03 -34.59)"/><polygon class="cls-27" points="391.69 340.8 362.27 374.07 314.75 351.52 347.97 305.55 391.69 340.8"/><path class="cls-30" d="M477.22,312.2s12,17.4,10.76,19.17-9.81,3.52-9.81,3.52Z" transform="translate(-49.03 -34.59)"/><circle class="cls-31" cx="428.1" cy="274.69" r="13.08"/><path class="cls-27" d="M443.78,264.08c23.67,4.43,30.71,14.63,33.79,52,3.21,39.05-.5,51.43-5.51,56.81-3.39,3.63-22.65,4.72-32.43,2.26-12.24-3.08-40-12.19-53.29-31.56-15.67-22.8-20.37-54.07-4.45-67.3C404.3,257.66,434.15,262.28,443.78,264.08Z" transform="translate(-49.03 -34.59)"/><path class="cls-30" d="M440.72,375.4c10.19,2.3,25.68.91,30.28-1.73a34.9,34.9,0,0,1-17.13-.63,56.05,56.05,0,0,1-15.7-6.92Z" transform="translate(-49.03 -34.59)"/><path class="cls-10" d="M482,279.37a.18.18,0,0,1-.07.05c-6.6,4.56-14.66,6.45-22.59,7.69.62,6.33-1.37,12.6-3.34,18.66-1.37,4.19-6.29,17.35-11.65,10.13-3.87-5.22-7.39-10-14.81-8.7-12.22,2.11-13.51,17.78-5.57,27.1S439,339.81,439,339.81s1.13,16.85-7.75,28.75c0,0-13.26,8.15-31.87,2-11.74-3.87-28.69-18.68-34.93-30.23-17.19-31.81-17.28-62.28,3.57-71.65,1.92-15.24,13.73-22.33,27.3-25.77,18.8-4.78,38.33,7,56.51-.77,3.83-1.64,7.35-4,11.27-5.38,2.2-.8,4.8-1.26,6.76,0,1.7,1.11,2.42,3.2,2.9,5.17.86,3.62,1.2,7.66-.72,10.85a32.06,32.06,0,0,1,8.54-3.14,10.76,10.76,0,0,1,8.64,1.94,11.06,11.06,0,0,1,3.47,7.53C493.41,267.12,488.52,274.81,482,279.37Z" transform="translate(-49.03 -34.59)"/><path class="cls-10" d="M367.75,273.79l-14.29-8a8.18,8.18,0,0,1,14.29,8Z" transform="translate(-49.03 -34.59)"/><line class="cls-32" x1="395.27" y1="281.3" x2="441.04" y2="272.75"/><path class="cls-27" d="M540,394.84c-1.23-2.07-4-2.47-6.24-3.26-4.2-1.47-7.49-4.82-11.54-6.67a22.59,22.59,0,0,0-14.57-1,35.41,35.41,0,0,0-4.87,1.56,61.76,61.76,0,0,0-8.7,4.41c-11.6,6.86-20.32,22.38-31.72,29.5-4.25,2.65-8.22,5.06-12.13,7.46l27.24,24.28c5.61-4.57,11-8.76,13.43-10.23,6.7-4,13.47-4.08,21-5.17a104.58,104.58,0,0,0,15.36-3.85c1.78-.54,3.76-1.25,4.52-2.95,1-2.15-.72-4.74-2.92-5.6-2.35-.93-5.44-.69-8-1.1-2-.31-7.21.87-8.38-1.12-.61-1,.15-2.32.9-3.26,4.72-5.88,10.7-12.2,18.26-14,2.34-.54,4.79-1.11,6.65-2.64S541.24,396.9,540,394.84Z" transform="translate(-49.03 -34.59)"/><path class="cls-5" d="M377.11,367.67c-28.93-15.78-55.26-5.64-64.75,14.65-8.59,18.37-26.64,89.44-26.64,89.44C294.4,488,377.11,367.67,377.11,367.67Z" transform="translate(-49.03 -34.59)"/><path class="cls-5" d="M372.77,373.38l4.34-5.71c-32.66-15.51-61.9,4.87-87.65,44.93C261.71,455.77,247.14,517.77,247,583.19c0,0,5.54,29.4,42.69,44.11,39.42,15.6,94.4,9,111.53-31.86,0,0,.34-40.81,12.75-60.9,8-13,26.76-41.9,40.69-62.62,12.12-18,21.55-59.1-3.79-74.12-7.42-4.4-10.49-5.68-20.59-10.51C407.23,394.9,369.8,382.54,372.77,373.38Z" transform="translate(-49.03 -34.59)"/><path class="cls-33" d="M372.87,373.53l4.24-5.86c-32.66-15.51-61.9,4.87-87.65,44.93C261.71,455.77,247.14,517.77,247,583.19c0,0,5.54,29.4,42.69,44.11,39.42,15.6,94.4,9,111.53-31.86,0,0,.34-40.81,12.75-60.9,8-13,26.76-41.9,40.69-62.62,12.12-18,21.55-59.1-3.79-74.12-7.42-4.4-10.49-5.68-20.59-10.51C407.23,394.9,369.9,382.68,372.87,373.53Z" transform="translate(-49.03 -34.59)"/><path class="cls-34" d="M465.2,445.76a66.17,66.17,0,0,0,1-23.78h0a127.71,127.71,0,0,1-24.66,37.66c-13.29,14-29.7,24.89-42,39.74-13.06,15.73-22.44,34.74-33.38,51.92-4.39,6.89-10.38,20.19-18.53,20.72-9.94.64-19.44-11.47-24.86-19.82-8.65-13.33-16.07-30-26.82-41.68-9.39-10.23-23.92-23.32-36.72-17.39h0q-1.44,5.1-2.7,10.3T254.12,514c0,.13-.05.27-.08.4q-1.11,5.34-2,10.7c0,.19-.06.38-.1.57q-.9,5.31-1.64,10.64A348.58,348.58,0,0,0,247,583.19s5.54,29.4,42.69,44.11c39.42,15.6,94.4,9,111.53-31.86,0,0,.34-40.81,12.75-60.9,1.25-2,2.78-4.45,4.48-7.15l0,0c.1-.15.2-.3.29-.46,1.42-2.24,3-4.66,4.62-7.24l.3-.47.12-.2c3.55-5.53,7.52-11.68,11.64-18l1.87-2.87c4-6.08,8-12.23,11.89-18l0-.06,3.82-5.73,1.6-2.38v0c.44-.65.87-1.34,1.3-2l.38-.66c.31-.53.62-1.07.92-1.62l.4-.74c.33-.63.66-1.27,1-1.93l.25-.5q.62-1.29,1.2-2.64l0-.11.06-.15c.35-.82.69-1.65,1-2.5l.24-.6c.3-.81.6-1.62.88-2.44a1.59,1.59,0,0,0,.07-.2c0-.09.06-.18.1-.27.51-1.52,1-3.08,1.44-4.67v0q.66-2.39,1.19-4.85v0Z" transform="translate(-49.03 -34.59)"/><path class="cls-27" d="M616.7,485.5a62.23,62.23,0,0,1-6.78,7c-10,9.05-21.66,13.39-35.23,22.2-11,7.13-27.88,17.5-42.13,26.39-16,10-35.34,18.1-45.88,21.2-13.24,3.89-20.65,4.05-28.48-17.16-3.84-10.4-6.88-21.08-10.2-31.66q-7.39-23.61-14.54-47.31s-17.61-43.42,21.78-65.23c17.15,9.81,23.68,13.78,29.06,34.31,6.42,24.58,16.85,73.1,16.85,73.1A344.65,344.65,0,0,0,541.87,491c5-2.48,11.14-4.21,14.71-8.65a68.77,68.77,0,0,0,6.26-9.75c1.68-3,2.89-6.32,4.74-9.21,3.43-5.37,8.38-9.88,12.95-14.26a5.41,5.41,0,0,1,3.13-1.86,3.62,3.62,0,0,1,3.18,1.94c1.45,2.53.1,5-.64,7.6q-1.28,4.41-2.54,8.84a77.12,77.12,0,0,0,25.13-23.56,12.38,12.38,0,0,1,2-2.51,3.84,3.84,0,0,1,2.93-1.07c2.63.33,5.25,4.58,5.38,7s-.42,5,.19,7.41,2.14,4.17,2.86,6.41a37,37,0,0,1,1.5,7.09c.55,5.32-1.33,10.34-4,14.86A34.58,34.58,0,0,1,616.7,485.5Z" transform="translate(-49.03 -34.59)"/><path class="cls-5" d="M452.89,399.11c15,6.07,25.82,12.93,32.66,35.83s14.27,59.64,14.27,59.64.14,7.69-18.08,18.43a44.85,44.85,0,0,1-35.27,4.76l-13.76-44.23S408.31,414.39,452.89,399.11Z" transform="translate(-49.03 -34.59)"/><path class="cls-5" d="M364.88,744.11c-12.05-.61-21.48-9.46-50.13-21.4-52.91-22-92.58-39.67-107.7-67.38S181.23,547.64,185,513a46.08,46.08,0,0,1,2.59-11.49l-3.72-.54,9.64-8.2v0c9.89-8.07,26-.88,38.09,5.72,34.64,18.85,61.72,37.16,83.14,103.29,16.1,49.74,26.72,95.11,48.95,119.37" transform="translate(-49.03 -34.59)"/><path class="cls-35" d="M187.6,501.51l-3.72-.54,9.64-8.2v0c9.89-8.07,26-.88,38.09,5.72,34.64,18.85,61.72,37.16,83.13,103.29,16.11,49.74,26.73,95.11,49,119.37l1.18,22.93c-12.05-.6-21.48-9.45-50.14-21.39-52.9-22-92.57-39.67-107.69-67.38S181.23,547.63,185,513A46.08,46.08,0,0,1,187.6,501.51Z" transform="translate(-49.03 -34.59)"/><path class="cls-5" d="M221.58,507c34.63,18.85,61.72,37.16,83.13,103.28S337.83,734.86,380,746.2c0,0-19.08,7.58-77.55-17.15-18.6-7.87-41.17-22.21-56-30.53-29.05-16.31-46.67-29.68-49.45-34.68C181.66,636.27,171.19,556.15,175,521.51S204.23,497.59,221.58,507Z" transform="translate(-49.03 -34.59)"/></g><g id="Speech_Bubble" data-name="Speech Bubble"><path class="cls-5" d="M416.24,213.75l-9.57-18,7.7-22.22v-13.6l-23.55,13.6v13.6l10.12,17.54a1.44,1.44,0,0,0,.69.61h0Z" transform="translate(-49.03 -34.59)"/><path class="cls-36" d="M416.24,213.75l-9.57-18,7.7-22.22v-13.6l-23.55,13.6v13.6l10.12,17.54a1.44,1.44,0,0,0,.69.61h0Z" transform="translate(-49.03 -34.59)"/><path class="cls-5" d="M472.49,51.84a15.63,15.63,0,0,0-7.06-12.24l-5.75-3.32a15.63,15.63,0,0,0-14.13,0l-88.18,51a15.59,15.59,0,0,0-7.06,12.23v97a15.63,15.63,0,0,0,7.06,12.24l5.75,3.32a15.61,15.61,0,0,0,14.12,0l28.37-16.39,10.1,17.5a1.51,1.51,0,0,0,2.73-.26l10.68-30.83,36.31-21a15.61,15.61,0,0,0,7.06-12.23Z" transform="translate(-49.03 -34.59)"/><path class="cls-36" d="M350.31,196.54a15.63,15.63,0,0,0,7.06,12.24l5.75,3.32a15.79,15.79,0,0,0,12.92.56c-3.33,1.26-5.86-.61-5.86-4.64V111a14.44,14.44,0,0,1,2.07-7L352.38,92.56a14.41,14.41,0,0,0-2.07,7Z" transform="translate(-49.03 -34.59)"/><path class="cls-14" d="M472.26,49.83c-.83-3-3.56-4-6.82-2.08l-88.2,51a14,14,0,0,0-5,5.27L352.4,92.57a14.22,14.22,0,0,1,5-5.27l88.17-51a15.7,15.7,0,0,1,14.13,0l5.77,3.32A15.6,15.6,0,0,1,472.26,49.83Z" transform="translate(-49.03 -34.59)"/><g id="_" data-name="&lt;/&gt;"><path class="cls-13" d="M383.15,149.09a5.1,5.1,0,0,1,.36-2,13.6,13.6,0,0,1,1-1.88l19.17-31a3.52,3.52,0,0,1,.31-.36,1.34,1.34,0,0,1,.22-.16.54.54,0,0,1,.72,0,1.27,1.27,0,0,1,.29.94v12a5.16,5.16,0,0,1-.56,2.5,16.45,16.45,0,0,1-1,1.64l-9.88,15.07,9.88,4.55a4,4,0,0,1,1,.46c.37.24.56.84.56,1.83v8.49a3,3,0,0,1-.29,1.27,1.85,1.85,0,0,1-.72.86,1.45,1.45,0,0,1-.22.09.66.66,0,0,1-.31,0l-19.17-8.85a2.71,2.71,0,0,1-1-.7,2.55,2.55,0,0,1-.36-1.6Z" transform="translate(-49.03 -34.59)"/><path class="cls-13" d="M424.94,101.21a9.92,9.92,0,0,1,.72-1.93,3.48,3.48,0,0,1,1.39-1.5l6.43-3.71a.56.56,0,0,1,.74.05,1.27,1.27,0,0,1,.31,1,3.15,3.15,0,0,1-.1.73l-16.2,69.05a8.82,8.82,0,0,1-.67,1.86,3.48,3.48,0,0,1-1.44,1.57l-6.28,3.62a.56.56,0,0,1-.74,0,1.27,1.27,0,0,1-.31-1,3,3,0,0,1,.1-.72Z" transform="translate(-49.03 -34.59)"/><path class="cls-13" d="M460.17,112.38a5,5,0,0,1-.36,2,13.1,13.1,0,0,1-1,1.89l-19.17,31a2.67,2.67,0,0,1-.31.36,1.34,1.34,0,0,1-.22.16.54.54,0,0,1-.72,0,1.26,1.26,0,0,1-.28-.94v-12a5,5,0,0,1,.55-2.46,17.72,17.72,0,0,1,1-1.6l8.39-13-8.39-3.2a3.37,3.37,0,0,1-1-.5c-.37-.26-.55-.88-.55-1.86v-12a3,3,0,0,1,.28-1.27,1.9,1.9,0,0,1,.72-.86,1.45,1.45,0,0,1,.22-.09.83.83,0,0,1,.31,0L458.78,107a2.59,2.59,0,0,1,1,.69,2.55,2.55,0,0,1,.36,1.6Z" transform="translate(-49.03 -34.59)"/></g></g><g id="Text_Box" data-name="Text Box"><g id="_2" data-name="{}"><g id="Speech_Bubble-2" data-name="Speech Bubble"><g id="Speach_Bubble" data-name="Speach Bubble"><path class="cls-10" d="M204.19,39.7l-118,68a6.47,6.47,0,0,0-2.92,5.07v65.87a6.37,6.37,0,0,0,2.94,5l11.65,6.62a6.52,6.52,0,0,0,5.87,0l118-68a6.5,6.5,0,0,0,2.92-5.07V51.33a6.39,6.39,0,0,0-2.94-5l-11.65-6.62A6.52,6.52,0,0,0,204.19,39.7Z" transform="translate(-49.03 -34.59)"/><path class="cls-4" d="M224.61,50.8c-.23-1.47-1.43-2-2.89-1.16l-118,68a6,6,0,0,0-2.06,2.2L84.18,109.75a5.77,5.77,0,0,1,2-2.08l118-68a6.56,6.56,0,0,1,5.87,0l11.64,6.62A6.47,6.47,0,0,1,224.61,50.8Z" transform="translate(-49.03 -34.59)"/><path class="cls-3" d="M221.73,49.64l-118,68a6.49,6.49,0,0,0-2.93,5.08v65.86c0,1.87,1.31,2.63,2.93,1.69l118-68a6.5,6.5,0,0,0,2.92-5.07V51.33C224.65,49.46,223.34,48.71,221.73,49.64Z" transform="translate(-49.03 -34.59)"/></g></g></g><path class="cls-37" d="M130,134.5c0,.52,0,1.22-.06,2.12s0,1.82,0,2.77,0,1.87,0,2.77,0,1.6.06,2.08a12.64,12.64,0,0,0,.34,2.36,3.6,3.6,0,0,0,.83,1.67,2,2,0,0,0,1.43.65,4.05,4.05,0,0,0,2.15-.69,8.22,8.22,0,0,0,2.11-1.68,10.8,10.8,0,0,0,1.35-1.91,10.14,10.14,0,0,0,.82-1.95c.18-.65.33-1.24.43-1.76a7.08,7.08,0,0,1,.41-1.55,2,2,0,0,1,.87-.87l4.94-2.85a.44.44,0,0,1,.58,0,1,1,0,0,1,.24.76,23,23,0,0,1-.94,6.11,28.27,28.27,0,0,1-6.2,11.15,18.91,18.91,0,0,1-4.61,3.79,9.74,9.74,0,0,1-4.84,1.55,5.52,5.52,0,0,1-3.64-1.29,8.11,8.11,0,0,1-2.32-3.68,19.78,19.78,0,0,1-.92-5.53c0-1.56-.08-3.24-.08-5.06s0-3.58.08-5.27a29.84,29.84,0,0,1,.91-6.58,31.32,31.32,0,0,1,2.31-6.36,26.18,26.18,0,0,1,3.64-5.49,18.67,18.67,0,0,1,4.86-4,10.33,10.33,0,0,1,4.61-1.54,6.29,6.29,0,0,1,3.72.91,6.56,6.56,0,0,1,2.48,3.09,13,13,0,0,1,.94,5,2.43,2.43,0,0,1-.24,1,1.59,1.59,0,0,1-.58.71l-4.94,2.85c-.43.25-.72.29-.87.13a2.51,2.51,0,0,1-.41-1.07,9.41,9.41,0,0,0-.43-1.26,2.42,2.42,0,0,0-.82-1,2.26,2.26,0,0,0-1.35-.35,4.75,4.75,0,0,0-2.11.76,7.72,7.72,0,0,0-2.15,1.79,10.14,10.14,0,0,0-1.43,2.31,11.26,11.26,0,0,0-.83,2.62A19.67,19.67,0,0,0,130,134.5Z" transform="translate(-49.03 -34.59)"/><path class="cls-37" d="M162,100a9.93,9.93,0,0,1,4.43-1.49,6.43,6.43,0,0,1,3.49.75,5.78,5.78,0,0,1,2.29,2.38,7.42,7.42,0,0,1,.87,3.39,2.46,2.46,0,0,1-.24,1,1.5,1.5,0,0,1-.55.69l-4.94,2.85a1.37,1.37,0,0,1-.84.26,1.35,1.35,0,0,1-.66-.32,4.41,4.41,0,0,1-.36-.37,1.83,1.83,0,0,0-.7-.44,2.5,2.5,0,0,0-1.13-.1,4.51,4.51,0,0,0-1.66.64,11.11,11.11,0,0,0-1.37.94,8.38,8.38,0,0,0-1.17,1.13,5.34,5.34,0,0,0-.83,1.38,4.28,4.28,0,0,0-.32,1.64,1.75,1.75,0,0,0,.36,1.24,1.62,1.62,0,0,0,1.21.38,9.81,9.81,0,0,0,2.24-.34c.93-.22,2.08-.53,3.46-.9a11.6,11.6,0,0,1,3.62-.46,4.28,4.28,0,0,1,2.58,1,5.29,5.29,0,0,1,1.55,2.59,16.36,16.36,0,0,1,.5,4.44,19.5,19.5,0,0,1-.86,5.78,23.57,23.57,0,0,1-2.43,5.37,24.5,24.5,0,0,1-3.69,4.66,23,23,0,0,1-4.66,3.55,11.43,11.43,0,0,1-4.67,1.66,6.46,6.46,0,0,1-3.64-.66,5.85,5.85,0,0,1-2.39-2.48,8.28,8.28,0,0,1-.9-3.82,2.51,2.51,0,0,1,.24-1.05,1.62,1.62,0,0,1,.55-.69l4.94-2.85a1.51,1.51,0,0,1,.82-.27,1.19,1.19,0,0,1,.61.26c.1.1.25.26.45.49a2.46,2.46,0,0,0,2.09.83,4.5,4.5,0,0,0,1.9-.7,14.24,14.24,0,0,0,3.34-2.59,4.57,4.57,0,0,0,1.33-3.18,1.26,1.26,0,0,0-.49-1.17,2.56,2.56,0,0,0-1.47-.22,13.83,13.83,0,0,0-2.5.49c-1,.28-2.22.58-3.6.92q-3.88,1-5.67-1c-1.19-1.31-1.79-3.62-1.79-7a19.63,19.63,0,0,1,.74-5.18,24,24,0,0,1,5.5-9.93A18.54,18.54,0,0,1,162,100Z" transform="translate(-49.03 -34.59)"/><path class="cls-37" d="M189.3,84.23a9.89,9.89,0,0,1,4.43-1.49,6.43,6.43,0,0,1,3.49.75,5.84,5.84,0,0,1,2.29,2.38,7.42,7.42,0,0,1,.87,3.39,2.46,2.46,0,0,1-.24,1,1.5,1.5,0,0,1-.55.69l-4.94,2.85a1.37,1.37,0,0,1-.84.26,1.35,1.35,0,0,1-.66-.32,4.41,4.41,0,0,1-.36-.37,1.91,1.91,0,0,0-.7-.44,2.5,2.5,0,0,0-1.13-.1,4.51,4.51,0,0,0-1.66.64,10.4,10.4,0,0,0-1.37.94,8.38,8.38,0,0,0-1.17,1.13,5.34,5.34,0,0,0-.83,1.38,4.28,4.28,0,0,0-.32,1.64,1.75,1.75,0,0,0,.36,1.24,1.61,1.61,0,0,0,1.2.38,9.74,9.74,0,0,0,2.24-.34c.94-.22,2.09-.53,3.47-.9a11.6,11.6,0,0,1,3.62-.46,4.28,4.28,0,0,1,2.58,1,5.21,5.21,0,0,1,1.54,2.59,15.93,15.93,0,0,1,.51,4.44,19.83,19.83,0,0,1-.86,5.78,23.57,23.57,0,0,1-2.43,5.37,24.55,24.55,0,0,1-3.7,4.66,22.66,22.66,0,0,1-4.65,3.55,11.43,11.43,0,0,1-4.67,1.66,6.46,6.46,0,0,1-3.64-.66,5.79,5.79,0,0,1-2.39-2.48,8.28,8.28,0,0,1-.9-3.82,2.51,2.51,0,0,1,.24-1,1.62,1.62,0,0,1,.55-.69l4.93-2.85a1.57,1.57,0,0,1,.83-.27,1.21,1.21,0,0,1,.6.26c.1.1.26.26.46.49a2.46,2.46,0,0,0,2.09.83,4.5,4.5,0,0,0,1.9-.7,14.45,14.45,0,0,0,3.34-2.59,4.57,4.57,0,0,0,1.33-3.18,1.26,1.26,0,0,0-.49-1.17,2.56,2.56,0,0,0-1.47-.22,13.67,13.67,0,0,0-2.5.49c-1,.28-2.22.58-3.6.92q-3.89,1-5.67-1c-1.19-1.31-1.79-3.62-1.79-7a19.63,19.63,0,0,1,.74-5.18,24.16,24.16,0,0,1,2.13-5.23,23.48,23.48,0,0,1,3.37-4.7A18.35,18.35,0,0,1,189.3,84.23Z" transform="translate(-49.03 -34.59)"/></g><g id="Text_Box-2" data-name="Text Box"><g id="_3" data-name="{}"><g id="Speech_Bubble-3" data-name="Speech Bubble"><g id="Speach_Bubble-2" data-name="Speach Bubble"><path class="cls-10" d="M204.19,176.58l-118,68a6.47,6.47,0,0,0-2.92,5.07v65.87a6.37,6.37,0,0,0,2.94,5l11.65,6.62a6.52,6.52,0,0,0,5.87,0l118-68a6.47,6.47,0,0,0,2.92-5.07V188.21a6.41,6.41,0,0,0-2.94-5l-11.65-6.62A6.52,6.52,0,0,0,204.19,176.58Z" transform="translate(-49.03 -34.59)"/><path class="cls-4" d="M224.61,187.68c-.23-1.47-1.43-2-2.89-1.16l-118,68a5.89,5.89,0,0,0-2.06,2.19L84.18,246.63a5.85,5.85,0,0,1,2-2.08l118-68a6.59,6.59,0,0,1,5.87,0l11.64,6.62A6.47,6.47,0,0,1,224.61,187.68Z" transform="translate(-49.03 -34.59)"/><path class="cls-3" d="M221.73,186.52l-118,68a6.45,6.45,0,0,0-2.93,5.07v65.86c0,1.87,1.31,2.63,2.93,1.69l118-68a6.47,6.47,0,0,0,2.92-5.07V188.21C224.65,186.35,223.34,185.59,221.73,186.52Z" transform="translate(-49.03 -34.59)"/></g></g></g><path class="cls-37" d="M130.53,255.62a.54.54,0,0,1,.71,0,1.27,1.27,0,0,1,.3.93v37.48a3,3,0,0,1-.3,1.27,1.92,1.92,0,0,1-.71.88l-4.94,2.85a.55.55,0,0,1-.72-.05,1.25,1.25,0,0,1-.3-.93V283.89l-8.36,4.83v14.21a2.87,2.87,0,0,1-.31,1.28,1.82,1.82,0,0,1-.71.87l-4.94,2.85a.55.55,0,0,1-.71,0,1.21,1.21,0,0,1-.3-1V269.48a3,3,0,0,1,.3-1.28,1.94,1.94,0,0,1,.71-.87l4.94-2.85a.54.54,0,0,1,.71,0,1.2,1.2,0,0,1,.31.93v14l8.36-4.83v-14a3,3,0,0,1,.3-1.28,1.93,1.93,0,0,1,.72-.88Z" transform="translate(-49.03 -34.59)"/><path class="cls-37" d="M158.07,239.72a.54.54,0,0,1,.71.05,1.27,1.27,0,0,1,.31.93v6.15a3,3,0,0,1-.31,1.28,1.94,1.94,0,0,1-.71.87l-6.63,3.83v29.76a2.87,2.87,0,0,1-.31,1.28,1.88,1.88,0,0,1-.71.87l-4.93,2.85a.54.54,0,0,1-.72,0,1.23,1.23,0,0,1-.3-.92V256.86l-6.64,3.83a.54.54,0,0,1-.71-.06,1.24,1.24,0,0,1-.3-.93v-6.14a3,3,0,0,1,.3-1.28,2,2,0,0,1,.71-.88Z" transform="translate(-49.03 -34.59)"/><path class="cls-37" d="M175.38,260.1a2.9,2.9,0,0,1-.51-.67l-3.54-7.53v19.21a3,3,0,0,1-.3,1.27,1.87,1.87,0,0,1-.72.88l-4.93,2.85a.55.55,0,0,1-.72-.05,1.25,1.25,0,0,1-.3-.93V237.66a3,3,0,0,1,.3-1.28,1.93,1.93,0,0,1,.72-.88l4.37-2.52c.5-.29.88-.29,1.13,0a3.74,3.74,0,0,1,.49.64l6.1,12.54,6.11-19.59a12.82,12.82,0,0,1,.48-1.21,2.72,2.72,0,0,1,1.14-1.29l4.36-2.52a.55.55,0,0,1,.72.05,1.24,1.24,0,0,1,.3.93V260a3,3,0,0,1-.3,1.28,1.89,1.89,0,0,1-.72.87L184.63,265a.54.54,0,0,1-.72-.05,1.24,1.24,0,0,1-.3-.93v-19.2l-3.54,11.62a10.66,10.66,0,0,1-.51,1.25,2.17,2.17,0,0,1-.88,1l-2.41,1.39C175.89,260.29,175.59,260.3,175.38,260.1Z" transform="translate(-49.03 -34.59)"/><path class="cls-37" d="M216.2,237.48a.55.55,0,0,1,.72.05,1.27,1.27,0,0,1,.3.93v6.15a3,3,0,0,1-.3,1.28,1.89,1.89,0,0,1-.72.87l-17.44,10.07a.54.54,0,0,1-.72-.05,1.23,1.23,0,0,1-.3-.92V218.38a3,3,0,0,1,.3-1.27,1.87,1.87,0,0,1,.72-.88l4.93-2.85a.55.55,0,0,1,.72.05,1.24,1.24,0,0,1,.3.93v29.76Z" transform="translate(-49.03 -34.59)"/></g><g id="Text_Box-3" data-name="Text Box"><g id="_4" data-name="{}"><g id="Speech_Bubble-4" data-name="Speech Bubble"><g id="Speach_Bubble-3" data-name="Speach Bubble"><path class="cls-10" d="M204.19,313.46l-118,68a6.5,6.5,0,0,0-2.92,5.07v65.87a6.37,6.37,0,0,0,2.94,5L97.86,464a6.52,6.52,0,0,0,5.87,0l118-68a6.47,6.47,0,0,0,2.92-5.07V325.09a6.41,6.41,0,0,0-2.94-5l-11.65-6.62A6.52,6.52,0,0,0,204.19,313.46Z" transform="translate(-49.03 -34.59)"/><path class="cls-4" d="M224.61,324.56c-.23-1.47-1.43-2-2.89-1.16l-118,68a5.89,5.89,0,0,0-2.06,2.19L84.18,383.51a5.85,5.85,0,0,1,2-2.08l118-68a6.56,6.56,0,0,1,5.87,0l11.64,6.62A6.43,6.43,0,0,1,224.61,324.56Z" transform="translate(-49.03 -34.59)"/><path class="cls-3" d="M221.73,323.4l-118,68a6.45,6.45,0,0,0-2.93,5.07v65.86c0,1.87,1.31,2.63,2.93,1.69l118-68a6.47,6.47,0,0,0,2.92-5.07V325.09C224.65,323.23,223.34,322.47,221.73,323.4Z" transform="translate(-49.03 -34.59)"/></g></g></g><path class="cls-37" d="M132.26,406.93c0,.52,0,1.23-.06,2.13s0,1.82,0,2.76,0,1.87,0,2.78,0,1.59.06,2.08a12.64,12.64,0,0,0,.34,2.36,3.56,3.56,0,0,0,.83,1.66,2,2,0,0,0,1.43.66,4.15,4.15,0,0,0,2.15-.69,8.63,8.63,0,0,0,2.11-1.68,10.51,10.51,0,0,0,1.35-1.92,10.08,10.08,0,0,0,.81-1.95c.19-.65.34-1.23.44-1.75a7.08,7.08,0,0,1,.41-1.55,2,2,0,0,1,.87-.88l4.93-2.85a.46.46,0,0,1,.59,0,1,1,0,0,1,.24.76,22.86,22.86,0,0,1-.94,6.11,27.9,27.9,0,0,1-2.49,6,28.2,28.2,0,0,1-3.71,5.18A19.15,19.15,0,0,1,137,430a9.87,9.87,0,0,1-4.85,1.55,5.56,5.56,0,0,1-3.63-1.3,8,8,0,0,1-2.32-3.68,19.3,19.3,0,0,1-.92-5.53c-.05-1.55-.08-3.24-.08-5.06s0-3.57.08-5.26a30.34,30.34,0,0,1,.9-6.58,30.92,30.92,0,0,1,2.32-6.36,25.55,25.55,0,0,1,3.64-5.49,18.91,18.91,0,0,1,4.86-4.06,10.27,10.27,0,0,1,4.61-1.53,6.24,6.24,0,0,1,3.71.9,6.62,6.62,0,0,1,2.49,3.09,13,13,0,0,1,.94,5,2.51,2.51,0,0,1-.24,1,1.59,1.59,0,0,1-.59.71L143,400.27q-.65.38-.87.12a2.51,2.51,0,0,1-.41-1.06,7.58,7.58,0,0,0-.44-1.26,2.34,2.34,0,0,0-.81-1,2.26,2.26,0,0,0-1.35-.35,4.68,4.68,0,0,0-2.11.75,7.9,7.9,0,0,0-2.15,1.79,10.22,10.22,0,0,0-1.43,2.31,11.34,11.34,0,0,0-.83,2.63A19.72,19.72,0,0,0,132.26,406.93Z" transform="translate(-49.03 -34.59)"/><path class="cls-37" d="M166.85,399.2v9.58a3.1,3.1,0,0,1-.3,1.27,1.93,1.93,0,0,1-.72.88l-4.75,2.74a.54.54,0,0,1-.71-.05,1.2,1.2,0,0,1-.31-.93v-9.57l-5.84,3.37a.53.53,0,0,1-.71-.05,1.24,1.24,0,0,1-.3-.93v-5.86a3,3,0,0,1,.3-1.27,1.92,1.92,0,0,1,.71-.88l5.84-3.37v-9.57a2.87,2.87,0,0,1,.31-1.28,1.85,1.85,0,0,1,.71-.88l4.75-2.74a.56.56,0,0,1,.72,0,1.31,1.31,0,0,1,.3.93v9.57l5.8-3.35a.53.53,0,0,1,.71.06,1.19,1.19,0,0,1,.31.92v5.86a2.87,2.87,0,0,1-.31,1.28,1.94,1.94,0,0,1-.71.87Z" transform="translate(-49.03 -34.59)"/><path class="cls-37" d="M191.83,384.78v9.57a3,3,0,0,1-.3,1.28,1.93,1.93,0,0,1-.72.88l-4.75,2.74a.54.54,0,0,1-.71-.05,1.21,1.21,0,0,1-.31-.93V388.7l-5.84,3.37a.54.54,0,0,1-.71-.05,1.24,1.24,0,0,1-.3-.93v-5.86a3,3,0,0,1,.3-1.27,1.92,1.92,0,0,1,.71-.88l5.84-3.37v-9.58a2.86,2.86,0,0,1,.31-1.27,1.92,1.92,0,0,1,.71-.88l4.75-2.74a.56.56,0,0,1,.72.05,1.27,1.27,0,0,1,.3.93v9.57l5.8-3.35a.54.54,0,0,1,.71.05,1.2,1.2,0,0,1,.31.93v5.86a2.83,2.83,0,0,1-.31,1.27,1.81,1.81,0,0,1-.71.88Z" transform="translate(-49.03 -34.59)"/></g></svg>