<?xml version="1.0" encoding="UTF-8"?>
<!DOCTYPE svg PUBLIC "-//W3C//DTD SVG 1.1//EN" "http://www.w3.org/Graphics/SVG/1.1/DTD/svg11.dtd">
<!-- Creator: CorelDRAW 2020 (64-Bit) -->
<svg xmlns="http://www.w3.org/2000/svg" xml:space="preserve" width="500px" height="205px" version="1.1" style="shape-rendering:geometricPrecision; text-rendering:geometricPrecision; image-rendering:optimizeQuality; fill-rule:evenodd; clip-rule:evenodd"
viewBox="0 0 500 204.87"
 xmlns:xlink="http://www.w3.org/1999/xlink"
 xmlns:xodm="http://www.corel.com/coreldraw/odm/2003">
 <defs>
  <style type="text/css">
   <![CDATA[
    .fil0 {fill:#31D4D4}
    .fil1 {fill:#664AED}
    .fil2 {fill:#E573E3}
   ]]>
  </style>
 </defs>
 <g id="Layer_x0020_1">
  <metadata id="CorelCorpID_0Corel-Layer"/>
  <path class="fil0" d="M292.95 71.54c-0.82,-0.32 0.32,-2.49 -8.67,-0.97 -0.64,0.1 -1.4,0.31 -2.02,0.51 -17.21,5.32 -64.38,82.56 -92.86,91.1 -16.66,5.01 -26.45,-4.95 -28.35,-20.04 -1.75,-13.98 -0.09,-32.58 2.68,-46.37 4.07,-20.27 11.65,-59.99 35.64,-60.3l9.34 21.88c33.63,1.92 8.82,-40.84 -1.01,-46.52 -63.45,-36.64 -114.89,201.66 -22.54,181.89 24.34,-5.21 62.1,-56.95 77.64,-76.87 7.99,-10.25 29.26,-31.76 30.62,-38.1 1.01,-4.74 0.21,-4.15 -0.47,-6.21z"/>
  <path class="fil1" d="M98.55 187.07c-10.46,-22.21 -71.82,-59.31 -71.76,-84.94 0.06,-24.31 55.21,-57.97 71.85,-84.81 -2.94,-4.98 -0.47,-1.09 -3.63,-4.96l-13.04 -12.36c-11.47,6.12 -37.72,35.75 -48.04,46.2 -12.71,12.88 -34.18,27.54 -33.93,56.02 0.26,28.85 22.04,44.4 35.31,57.24l39.74 39.86c6.47,5.59 0.2,1.31 7.7,5.55l15.8 -17.8z"/>
  <path class="fil1" d="M418.82 204.01c12.61,-8.86 33.96,-32.56 46.28,-44.87 41.01,-40.98 51.66,-66.1 0.25,-114.06 -16.94,-15.8 -32.51,-35.96 -46.53,-44.8 -9.23,4.07 -13.76,10.23 -18.44,17.04 11.38,13.34 26.58,26.53 39.64,39.79 9.77,9.92 33.06,26.39 32.48,45.12 -0.73,23.69 -59.66,64.76 -72.05,84.84 2.95,3.63 5.01,6.28 8.52,9.75 1.69,1.66 2.43,2.37 4.36,3.86 5.21,4 -2.74,-0.43 5.49,3.33z"/>
  <path class="fil2" d="M320.3 61.87c15.16,0.24 20.55,3.25 23.78,15.83 -12.99,0.2 -21.27,-3.75 -23.78,-15.83zm39.03 28.57c13.78,-1.97 34.24,-1.9 39.24,-14.77 -3.73,-2.76 -0.4,-1.6 -6.56,-2.7l-13.42 1.89c-7.59,2.07 -11.95,3 -20.78,2.81 -6.44,-10.78 -5.82,-16.06 -16.23,-22.87 -26.83,-17.54 -47.43,10.96 -22.27,27.4 8.68,5.66 18.03,5.11 27.25,9.39 3.24,25.53 -2.67,61.07 -25.88,67.96 -25.13,-10.22 -18.65,-42.61 -34.48,-60.22 -9,7.65 -20.46,20.75 -25.9,32.04 8.09,21.78 39.51,57.68 67.21,44.06 25.39,-12.47 31.38,-53.55 31.82,-84.99z"/>
 </g>
</svg>
